<svg width="725" height="119" viewBox="0 0 725 119" fill="none" xmlns="http://www.w3.org/2000/svg">
<rect x="137" y="19" width="481" height="5" rx="2.5" fill="white"/>
<circle cx="124" cy="20" r="20" fill="white"/>
<path d="M126.507 12.4545V27H123.432V15.3736H123.347L120.016 17.4616V14.7344L123.616 12.4545H126.507Z" fill="#001E43"/>
<circle cx="363" cy="20" r="20" fill="white"/>
<path d="M357.179 27V24.7841L362.357 19.9901C362.797 19.5639 363.166 19.1804 363.464 18.8395C363.768 18.4986 363.997 18.1648 364.153 17.8381C364.31 17.5066 364.388 17.1491 364.388 16.7656C364.388 16.3395 364.291 15.9725 364.097 15.6648C363.902 15.3523 363.637 15.1132 363.301 14.9474C362.965 14.777 362.584 14.6918 362.158 14.6918C361.713 14.6918 361.324 14.7817 360.993 14.9616C360.661 15.1416 360.406 15.3996 360.226 15.7358C360.046 16.072 359.956 16.4721 359.956 16.9361H357.037C357.037 15.9844 357.252 15.1581 357.683 14.4574C358.114 13.7566 358.718 13.2145 359.494 12.831C360.271 12.4474 361.166 12.2557 362.179 12.2557C363.221 12.2557 364.127 12.4403 364.899 12.8097C365.676 13.1742 366.279 13.6809 366.71 14.3295C367.141 14.9782 367.357 15.7216 367.357 16.5597C367.357 17.1089 367.248 17.651 367.03 18.1861C366.817 18.7211 366.436 19.3153 365.886 19.9688C365.337 20.6174 364.563 21.3963 363.564 22.3054L361.44 24.3864V24.4858H367.548V27H357.179Z" fill="black"/>
<circle cx="602" cy="20" r="20" fill="#FFEB3B"/>
<path d="M601.555 27.1989C600.495 27.1989 599.55 27.0166 598.722 26.652C597.898 26.2827 597.247 25.776 596.768 25.1321C596.295 24.4834 596.051 23.7353 596.037 22.8878H599.134C599.152 23.2429 599.268 23.5554 599.482 23.8253C599.699 24.0904 599.988 24.2964 600.348 24.4432C600.708 24.59 601.113 24.6634 601.562 24.6634C602.031 24.6634 602.446 24.5805 602.805 24.4148C603.165 24.2491 603.447 24.0194 603.651 23.7259C603.854 23.4323 603.956 23.0937 603.956 22.7102C603.956 22.322 603.847 21.9787 603.629 21.6804C603.416 21.3774 603.108 21.1406 602.706 20.9702C602.308 20.7997 601.835 20.7145 601.286 20.7145H599.929V18.456H601.286C601.75 18.456 602.159 18.3755 602.514 18.2145C602.874 18.0535 603.153 17.831 603.352 17.5469C603.551 17.258 603.651 16.9219 603.651 16.5384C603.651 16.1738 603.563 15.8542 603.388 15.5795C603.217 15.3002 602.976 15.0824 602.663 14.9261C602.356 14.7699 601.996 14.6918 601.584 14.6918C601.167 14.6918 600.786 14.7675 600.44 14.919C600.095 15.0658 599.818 15.2765 599.609 15.5511C599.401 15.8258 599.29 16.1477 599.276 16.517H596.328C596.342 15.679 596.581 14.9403 597.045 14.3011C597.509 13.6619 598.134 13.1624 598.92 12.8026C599.711 12.438 600.604 12.2557 601.598 12.2557C602.602 12.2557 603.48 12.438 604.233 12.8026C604.986 13.1671 605.571 13.6596 605.987 14.2798C606.409 14.8954 606.617 15.5866 606.612 16.3537C606.617 17.1681 606.364 17.8475 605.852 18.392C605.346 18.9366 604.685 19.2822 603.871 19.429V19.5426C604.941 19.6799 605.755 20.0516 606.314 20.6577C606.877 21.259 607.157 22.0118 607.152 22.9162C607.157 23.7448 606.918 24.4811 606.435 25.125C605.956 25.7689 605.296 26.2756 604.453 26.6449C603.61 27.0142 602.644 27.1989 601.555 27.1989Z" fill="black"/>
<rect y="69" width="247" height="50" rx="10" fill="white"/>
<path d="M30.3995 92.5071H27.9137C27.8806 92.2519 27.8126 92.0215 27.7099 91.8161C27.6071 91.6106 27.4712 91.4349 27.3022 91.2891C27.1332 91.1432 26.9326 91.0322 26.7006 90.956C26.4719 90.8764 26.2184 90.8366 25.94 90.8366C25.4461 90.8366 25.0202 90.9576 24.6623 91.1996C24.3076 91.4415 24.0342 91.7912 23.842 92.2486C23.6531 92.706 23.5586 93.2595 23.5586 93.9091C23.5586 94.5852 23.6547 95.152 23.8469 95.6094C24.0425 96.0634 24.3159 96.4065 24.6673 96.6385C25.0219 96.8672 25.4412 96.9815 25.9251 96.9815C26.1969 96.9815 26.4438 96.9467 26.6658 96.8771C26.8912 96.8075 27.0884 96.7064 27.2575 96.5739C27.4298 96.438 27.5707 96.2739 27.68 96.0817C27.7927 95.8861 27.8706 95.6657 27.9137 95.4205L30.3995 95.4354C30.3564 95.8861 30.2255 96.3303 30.0067 96.7678C29.7913 97.2053 29.4947 97.6046 29.1168 97.9659C28.739 98.3239 28.2783 98.6089 27.7347 98.821C27.1945 99.0331 26.5747 99.1392 25.8754 99.1392C24.954 99.1392 24.1287 98.937 23.3995 98.5327C22.6737 98.125 22.1003 97.5317 21.6793 96.7528C21.2584 95.974 21.0479 95.026 21.0479 93.9091C21.0479 92.7888 21.2617 91.8393 21.6893 91.0604C22.1168 90.2815 22.6952 89.6899 23.4244 89.2855C24.1535 88.8812 24.9705 88.679 25.8754 88.679C26.4918 88.679 27.0619 88.7652 27.5856 88.9375C28.1093 89.1065 28.57 89.3551 28.9677 89.6832C29.3654 90.008 29.6886 90.4074 29.9371 90.8814C30.1857 91.3554 30.3398 91.8973 30.3995 92.5071ZM35.3723 99.1442C34.5703 99.1442 33.8809 98.9801 33.3042 98.652C32.7308 98.3205 32.2883 97.8598 31.9767 97.2699C31.6685 96.6766 31.5144 95.9889 31.5144 95.2067C31.5144 94.4212 31.6685 93.7334 31.9767 93.1435C32.2883 92.5502 32.7308 92.0895 33.3042 91.7614C33.8809 91.4299 34.5703 91.2642 35.3723 91.2642C36.1744 91.2642 36.8622 91.4299 37.4355 91.7614C38.0123 92.0895 38.4547 92.5502 38.763 93.1435C39.0745 93.7334 39.2303 94.4212 39.2303 95.2067C39.2303 95.9889 39.0745 96.6766 38.763 97.2699C38.4547 97.8598 38.0123 98.3205 37.4355 98.652C36.8622 98.9801 36.1744 99.1442 35.3723 99.1442ZM35.3873 97.3097C35.6789 97.3097 35.9258 97.2202 36.128 97.0412C36.3302 96.8622 36.4843 96.6136 36.5904 96.2955C36.6998 95.9773 36.7544 95.6094 36.7544 95.1918C36.7544 94.7675 36.6998 94.3963 36.5904 94.0781C36.4843 93.7599 36.3302 93.5114 36.128 93.3324C35.9258 93.1534 35.6789 93.0639 35.3873 93.0639C35.0856 93.0639 34.8304 93.1534 34.6216 93.3324C34.4161 93.5114 34.2587 93.7599 34.1493 94.0781C34.0433 94.3963 33.9902 94.7675 33.9902 95.1918C33.9902 95.6094 34.0433 95.9773 34.1493 96.2955C34.2587 96.6136 34.4161 96.8622 34.6216 97.0412C34.8304 97.2202 35.0856 97.3097 35.3873 97.3097ZM45.4025 95.7038V91.3636H47.8287V99H45.5119V97.5781H45.4324C45.2633 98.0455 44.975 98.4167 44.5673 98.6918C44.1629 98.9635 43.6741 99.0994 43.1007 99.0994C42.5803 99.0994 42.1229 98.9801 41.7285 98.7415C41.3341 98.5028 41.0275 98.1697 40.8088 97.7422C40.59 97.3113 40.479 96.8075 40.4757 96.2308V91.3636H42.9068V95.7536C42.9101 96.1679 43.0195 96.4943 43.2349 96.733C43.4503 96.9716 43.7437 97.0909 44.1149 97.0909C44.3568 97.0909 44.5739 97.0379 44.7662 96.9318C44.9617 96.8224 45.1158 96.665 45.2285 96.4595C45.3445 96.2507 45.4025 95.9988 45.4025 95.7038ZM51.8072 94.6449V99H49.3761V91.3636H51.6879V92.7656H51.7724C51.9414 92.2983 52.2298 91.9321 52.6374 91.6669C53.0451 91.3984 53.5307 91.2642 54.0941 91.2642C54.631 91.2642 55.0967 91.3852 55.4911 91.6271C55.8888 91.8658 56.1971 92.2005 56.4158 92.6314C56.6379 93.0589 56.7473 93.5594 56.744 94.1328V99H54.3129V94.6101C54.3162 94.1858 54.2085 93.8544 53.9897 93.6158C53.7743 93.3771 53.4743 93.2578 53.0898 93.2578C52.8346 93.2578 52.6093 93.3142 52.4137 93.4268C52.2215 93.5362 52.0723 93.6937 51.9663 93.8991C51.8635 94.1046 51.8105 94.3532 51.8072 94.6449ZM64.916 93.6953L62.6838 93.755C62.6606 93.5959 62.5976 93.455 62.4949 93.3324C62.3921 93.2064 62.2579 93.1087 62.0922 93.0391C61.9297 92.9661 61.7408 92.9297 61.5254 92.9297C61.2437 92.9297 61.0034 92.986 60.8045 93.0987C60.609 93.2114 60.5128 93.3639 60.5162 93.5561C60.5128 93.7053 60.5725 93.8345 60.6951 93.9439C60.8211 94.0533 61.0448 94.1411 61.3663 94.2074L62.8379 94.4858C63.6002 94.6316 64.167 94.8736 64.5382 95.2116C64.9127 95.5497 65.1016 95.9972 65.1049 96.554C65.1016 97.0777 64.9458 97.5334 64.6376 97.9212C64.3327 98.3089 63.9151 98.6106 63.3848 98.826C62.8545 99.0381 62.2479 99.1442 61.5652 99.1442C60.4747 99.1442 59.6146 98.9205 58.9849 98.473C58.3585 98.0223 58.0005 97.419 57.911 96.6634L60.3123 96.6037C60.3654 96.8821 60.5029 97.0942 60.725 97.2401C60.947 97.3859 61.2304 97.4588 61.5751 97.4588C61.8867 97.4588 62.1402 97.4008 62.3358 97.2848C62.5313 97.1688 62.6307 97.0147 62.6341 96.8224C62.6307 96.6501 62.5545 96.5125 62.4054 96.4098C62.2562 96.3037 62.0225 96.2209 61.7044 96.1612L60.372 95.9077C59.6064 95.7685 59.0363 95.5116 58.6618 95.1371C58.2872 94.7592 58.1016 94.2786 58.1049 93.6953C58.1016 93.1849 58.2375 92.7491 58.5126 92.3878C58.7877 92.0232 59.1788 91.7448 59.6859 91.5526C60.193 91.3603 60.7913 91.2642 61.4806 91.2642C62.5147 91.2642 63.3301 91.4813 63.9267 91.9155C64.5233 92.3464 64.853 92.9396 64.916 93.6953ZM69.8714 99.1442C69.0727 99.1442 68.3833 98.9867 67.8033 98.6719C67.2266 98.3537 66.7824 97.9013 66.4709 97.3146C66.1626 96.7247 66.0085 96.0237 66.0085 95.2116C66.0085 94.4228 66.1643 93.7334 66.4759 93.1435C66.7874 92.5502 67.2266 92.0895 67.7933 91.7614C68.3601 91.4299 69.0279 91.2642 69.7969 91.2642C70.3404 91.2642 70.8376 91.3487 71.2884 91.5178C71.7391 91.6868 72.1286 91.937 72.4567 92.2685C72.7848 92.5999 73.04 93.0092 73.2223 93.4964C73.4046 93.9804 73.4957 94.5355 73.4957 95.1619V95.7685H66.8587V94.3565H71.2337C71.2304 94.098 71.169 93.8677 71.0497 93.6655C70.9304 93.4633 70.7663 93.3059 70.5575 93.1932C70.352 93.0772 70.1151 93.0192 69.8466 93.0192C69.5748 93.0192 69.3312 93.0805 69.1158 93.2031C68.9003 93.3224 68.7296 93.4865 68.6037 93.6953C68.4777 93.9008 68.4115 94.1345 68.4048 94.3963V95.8331C68.4048 96.1446 68.4661 96.4181 68.5888 96.6534C68.7114 96.8854 68.8854 97.0661 69.1108 97.1953C69.3362 97.3246 69.6046 97.3892 69.9162 97.3892C70.1316 97.3892 70.3272 97.3594 70.5028 97.2997C70.6785 97.2401 70.8293 97.1522 70.9553 97.0362C71.0812 96.9202 71.1757 96.7777 71.2386 96.6087L73.4709 96.6733C73.3781 97.1738 73.1742 97.6096 72.8594 97.9808C72.5478 98.3487 72.1385 98.6354 71.6314 98.8409C71.1243 99.0431 70.5376 99.1442 69.8714 99.1442ZM77.1685 88.8182V99H74.7374V88.8182H77.1685ZM81.147 88.8182V99H78.7159V88.8182H81.147ZM82.6944 99V91.3636H85.1255V99H82.6944ZM83.9125 90.4737C83.5711 90.4737 83.2778 90.361 83.0325 90.1357C82.7872 89.907 82.6646 89.6319 82.6646 89.3104C82.6646 88.9922 82.7872 88.7204 83.0325 88.495C83.2778 88.2663 83.5711 88.152 83.9125 88.152C84.2572 88.152 84.5505 88.2663 84.7924 88.495C85.0377 88.7204 85.1603 88.9922 85.1603 89.3104C85.1603 89.6319 85.0377 89.907 84.7924 90.1357C84.5505 90.361 84.2572 90.4737 83.9125 90.4737ZM89.104 94.6449V99H86.6729V91.3636H88.9847V92.7656H89.0692C89.2383 92.2983 89.5266 91.9321 89.9343 91.6669C90.342 91.3984 90.8275 91.2642 91.391 91.2642C91.9279 91.2642 92.3936 91.3852 92.788 91.6271C93.1857 91.8658 93.494 92.2005 93.7127 92.6314C93.9348 93.0589 94.0442 93.5594 94.0408 94.1328V99H91.6097V94.6101C91.613 94.1858 91.5053 93.8544 91.2866 93.6158C91.0711 93.3771 90.7712 93.2578 90.3867 93.2578C90.1315 93.2578 89.9061 93.3142 89.7106 93.4268C89.5183 93.5362 89.3692 93.6937 89.2631 93.8991C89.1604 94.1046 89.1074 94.3532 89.104 94.6449ZM99.1056 102.023C98.3798 102.023 97.7583 101.922 97.2413 101.719C96.7243 101.517 96.3182 101.241 96.0233 100.889C95.7283 100.538 95.551 100.14 95.4913 99.696L97.7931 99.5668C97.8362 99.7225 97.9158 99.8584 98.0318 99.9744C98.1511 100.09 98.3052 100.18 98.4941 100.243C98.6864 100.306 98.9118 100.337 99.1703 100.337C99.5779 100.337 99.9144 100.238 100.18 100.039C100.448 99.8435 100.582 99.5005 100.582 99.0099V97.6676H100.498C100.402 97.9029 100.256 98.1134 100.06 98.299C99.8646 98.4846 99.621 98.6304 99.3294 98.7365C99.041 98.8426 98.7096 98.8956 98.335 98.8956C97.7782 98.8956 97.2678 98.7663 96.8038 98.5078C96.3431 98.246 95.9735 97.8416 95.6951 97.2947C95.42 96.7446 95.2825 96.0369 95.2825 95.1719C95.2825 94.2803 95.425 93.5462 95.71 92.9695C95.9951 92.3894 96.368 91.9602 96.8287 91.6818C97.2927 91.4034 97.7915 91.2642 98.3251 91.2642C98.7261 91.2642 99.0692 91.3338 99.3542 91.473C99.6426 91.6089 99.8796 91.7846 100.065 92C100.251 92.2154 100.392 92.4392 100.488 92.6712H100.557V91.3636H102.979V99.0298C102.979 99.6761 102.816 100.221 102.491 100.665C102.166 101.11 101.712 101.446 101.129 101.675C100.546 101.907 99.8713 102.023 99.1056 102.023ZM99.1802 97.1257C99.4752 97.1257 99.7271 97.0478 99.9359 96.892C100.145 96.7363 100.305 96.5125 100.418 96.2209C100.531 95.9292 100.587 95.5795 100.587 95.1719C100.587 94.7576 100.531 94.4013 100.418 94.103C100.309 93.8014 100.148 93.5694 99.9359 93.407C99.7271 93.2446 99.4752 93.1634 99.1802 93.1634C98.8786 93.1634 98.6234 93.2462 98.4146 93.4119C98.2058 93.5777 98.0467 93.8113 97.9373 94.1129C97.8313 94.4112 97.7782 94.7642 97.7782 95.1719C97.7782 95.5795 97.8329 95.9292 97.9423 96.2209C98.0517 96.5125 98.2091 96.7363 98.4146 96.892C98.6234 97.0478 98.8786 97.1257 99.1802 97.1257ZM110.738 99.1541C110.022 99.1541 109.404 99.0265 108.884 98.7713C108.366 98.5161 107.969 98.1731 107.69 97.7422C107.412 97.308 107.273 96.8258 107.273 96.2955C107.273 95.9044 107.349 95.5597 107.501 95.2614C107.657 94.9598 107.871 94.683 108.143 94.4311C108.418 94.1759 108.738 93.9257 109.102 93.6804L111.24 92.3132C111.482 92.1607 111.653 92 111.752 91.831C111.855 91.6619 111.906 91.4929 111.906 91.3239C111.906 91.1416 111.835 90.9759 111.692 90.8267C111.553 90.6776 111.346 90.6046 111.071 90.608C110.895 90.608 110.743 90.6444 110.614 90.7173C110.484 90.7902 110.383 90.888 110.31 91.0107C110.241 91.1333 110.206 91.2725 110.206 91.4283C110.206 91.6304 110.264 91.8376 110.38 92.0497C110.496 92.2618 110.652 92.4872 110.847 92.7259C111.046 92.9645 111.267 93.228 111.509 93.5163L116.386 99H113.91L109.828 94.5703C109.596 94.3118 109.353 94.0218 109.097 93.7003C108.842 93.3788 108.627 93.0275 108.451 92.6463C108.275 92.2618 108.188 91.8442 108.188 91.3935C108.188 90.8864 108.307 90.4273 108.545 90.0163C108.784 89.6054 109.119 89.2789 109.55 89.0369C109.984 88.7917 110.489 88.669 111.066 88.669C111.623 88.669 112.103 88.7834 112.508 89.0121C112.912 89.2408 113.224 89.544 113.442 89.9219C113.661 90.2997 113.771 90.714 113.771 91.1648C113.771 91.642 113.653 92.0812 113.418 92.4822C113.182 92.88 112.849 93.233 112.418 93.5412L110.325 95.0376C110.103 95.1967 109.929 95.3674 109.803 95.5497C109.677 95.7287 109.614 95.9242 109.614 96.1364C109.614 96.3551 109.666 96.5457 109.768 96.7081C109.875 96.8705 110.024 96.9981 110.216 97.0909C110.408 97.1837 110.634 97.2301 110.892 97.2301C111.237 97.2301 111.581 97.1489 111.926 96.9865C112.271 96.8208 112.586 96.5888 112.871 96.2905C113.156 95.9889 113.384 95.6326 113.557 95.2216C113.729 94.8073 113.815 94.3532 113.815 93.8594H115.774C115.774 94.4692 115.71 95.036 115.58 95.5597C115.451 96.08 115.257 96.5473 114.999 96.9616C114.743 97.3726 114.427 97.714 114.049 97.9858C113.93 98.0521 113.814 98.1151 113.701 98.1747C113.588 98.2344 113.472 98.2973 113.353 98.3636C112.962 98.6454 112.538 98.8475 112.08 98.9702C111.626 99.0928 111.179 99.1541 110.738 99.1541ZM123.905 99H120.142V88.8182H123.9C124.938 88.8182 125.831 89.022 126.58 89.4297C127.332 89.834 127.912 90.4174 128.32 91.1797C128.728 91.9387 128.931 92.8468 128.931 93.9041C128.931 94.9647 128.728 95.8762 128.32 96.6385C127.916 97.4008 127.337 97.9858 126.585 98.3935C125.833 98.7978 124.939 99 123.905 99ZM122.603 96.902H123.811C124.381 96.902 124.863 96.8059 125.257 96.6136C125.655 96.4181 125.955 96.1016 126.157 95.6641C126.363 95.2232 126.466 94.6366 126.466 93.9041C126.466 93.1716 126.363 92.5883 126.157 92.1541C125.952 91.7166 125.649 91.4018 125.248 91.2095C124.85 91.014 124.359 90.9162 123.776 90.9162H122.603V96.902ZM133.933 99.1442C133.131 99.1442 132.441 98.9801 131.865 98.652C131.291 98.3205 130.849 97.8598 130.537 97.2699C130.229 96.6766 130.075 95.9889 130.075 95.2067C130.075 94.4212 130.229 93.7334 130.537 93.1435C130.849 92.5502 131.291 92.0895 131.865 91.7614C132.441 91.4299 133.131 91.2642 133.933 91.2642C134.735 91.2642 135.423 91.4299 135.996 91.7614C136.573 92.0895 137.015 92.5502 137.324 93.1435C137.635 93.7334 137.791 94.4212 137.791 95.2067C137.791 95.9889 137.635 96.6766 137.324 97.2699C137.015 97.8598 136.573 98.3205 135.996 98.652C135.423 98.9801 134.735 99.1442 133.933 99.1442ZM133.948 97.3097C134.239 97.3097 134.486 97.2202 134.689 97.0412C134.891 96.8622 135.045 96.6136 135.151 96.2955C135.26 95.9773 135.315 95.6094 135.315 95.1918C135.315 94.7675 135.26 94.3963 135.151 94.0781C135.045 93.7599 134.891 93.5114 134.689 93.3324C134.486 93.1534 134.239 93.0639 133.948 93.0639C133.646 93.0639 133.391 93.1534 133.182 93.3324C132.977 93.5114 132.819 93.7599 132.71 94.0781C132.604 94.3963 132.551 94.7675 132.551 95.1918C132.551 95.6094 132.604 95.9773 132.71 96.2955C132.819 96.6136 132.977 96.8622 133.182 97.0412C133.391 97.2202 133.646 97.3097 133.948 97.3097ZM142.601 99.1442C141.795 99.1442 141.104 98.9785 140.528 98.647C139.954 98.3156 139.513 97.8549 139.205 97.2649C138.897 96.6716 138.743 95.9856 138.743 95.2067C138.743 94.4245 138.897 93.7384 139.205 93.1484C139.517 92.5552 139.959 92.0928 140.533 91.7614C141.109 91.4299 141.797 91.2642 142.596 91.2642C143.302 91.2642 143.917 91.3918 144.44 91.647C144.967 91.9022 145.378 92.2635 145.673 92.7308C145.972 93.1948 146.129 93.7401 146.146 94.3665H143.874C143.827 93.9754 143.695 93.6688 143.476 93.4467C143.26 93.2247 142.979 93.1136 142.631 93.1136C142.349 93.1136 142.102 93.1932 141.89 93.3523C141.678 93.508 141.512 93.7401 141.393 94.0483C141.277 94.3532 141.219 94.7311 141.219 95.1818C141.219 95.6326 141.277 96.0137 141.393 96.3253C141.512 96.6335 141.678 96.8672 141.89 97.0263C142.102 97.1821 142.349 97.2599 142.631 97.2599C142.856 97.2599 143.055 97.2119 143.227 97.1158C143.403 97.0196 143.547 96.8788 143.66 96.6932C143.772 96.5043 143.844 96.2756 143.874 96.0071H146.146C146.122 96.6368 145.965 97.187 145.673 97.6577C145.385 98.1283 144.979 98.4946 144.455 98.7564C143.935 99.0149 143.317 99.1442 142.601 99.1442ZM152.317 95.7038V91.3636H154.743V99H152.426V97.5781H152.346C152.177 98.0455 151.889 98.4167 151.481 98.6918C151.077 98.9635 150.588 99.0994 150.015 99.0994C149.494 99.0994 149.037 98.9801 148.643 98.7415C148.248 98.5028 147.942 98.1697 147.723 97.7422C147.504 97.3113 147.393 96.8075 147.39 96.2308V91.3636H149.821V95.7536C149.824 96.1679 149.934 96.4943 150.149 96.733C150.364 96.9716 150.658 97.0909 151.029 97.0909C151.271 97.0909 151.488 97.0379 151.68 96.9318C151.876 96.8224 152.03 96.665 152.143 96.4595C152.259 96.2507 152.317 95.9988 152.317 95.7038ZM156.29 99V91.3636H158.602V92.7656H158.686C158.846 92.3016 159.114 91.9354 159.492 91.6669C159.87 91.3984 160.32 91.2642 160.844 91.2642C161.374 91.2642 161.828 91.4001 162.206 91.6719C162.584 91.9437 162.824 92.3082 162.927 92.7656H163.007C163.149 92.3116 163.428 91.9486 163.842 91.6768C164.256 91.4018 164.745 91.2642 165.309 91.2642C166.031 91.2642 166.618 91.4962 167.069 91.9602C167.519 92.4209 167.745 93.054 167.745 93.8594V99H165.314V94.4162C165.314 94.035 165.216 93.745 165.02 93.5462C164.825 93.344 164.571 93.2429 164.26 93.2429C163.925 93.2429 163.661 93.3523 163.469 93.571C163.28 93.7865 163.186 94.0765 163.186 94.4411V99H160.849V94.3913C160.849 94.0367 160.753 93.7566 160.561 93.5511C160.368 93.3456 160.115 93.2429 159.8 93.2429C159.588 93.2429 159.401 93.2943 159.238 93.397C159.076 93.4964 158.948 93.639 158.855 93.8246C158.766 94.0102 158.721 94.2289 158.721 94.4808V99H156.29ZM172.821 99.1442C172.022 99.1442 171.333 98.9867 170.752 98.6719C170.176 98.3537 169.732 97.9013 169.42 97.3146C169.112 96.7247 168.958 96.0237 168.958 95.2116C168.958 94.4228 169.114 93.7334 169.425 93.1435C169.737 92.5502 170.176 92.0895 170.743 91.7614C171.309 91.4299 171.977 91.2642 172.746 91.2642C173.29 91.2642 173.787 91.3487 174.238 91.5178C174.688 91.6868 175.078 91.937 175.406 92.2685C175.734 92.5999 175.989 93.0092 176.172 93.4964C176.354 93.9804 176.445 94.5355 176.445 95.1619V95.7685H169.808V94.3565H174.183C174.18 94.098 174.118 93.8677 173.999 93.6655C173.88 93.4633 173.716 93.3059 173.507 93.1932C173.301 93.0772 173.064 93.0192 172.796 93.0192C172.524 93.0192 172.28 93.0805 172.065 93.2031C171.85 93.3224 171.679 93.4865 171.553 93.6953C171.427 93.9008 171.361 94.1345 171.354 94.3963V95.8331C171.354 96.1446 171.415 96.4181 171.538 96.6534C171.661 96.8854 171.835 97.0661 172.06 97.1953C172.285 97.3246 172.554 97.3892 172.865 97.3892C173.081 97.3892 173.276 97.3594 173.452 97.2997C173.628 97.2401 173.779 97.1522 173.904 97.0362C174.03 96.9202 174.125 96.7777 174.188 96.6087L176.42 96.6733C176.327 97.1738 176.123 97.6096 175.809 97.9808C175.497 98.3487 175.088 98.6354 174.581 98.8409C174.074 99.0431 173.487 99.1442 172.821 99.1442ZM180.118 94.6449V99H177.687V91.3636H179.998V92.7656H180.083C180.252 92.2983 180.54 91.9321 180.948 91.6669C181.356 91.3984 181.841 91.2642 182.405 91.2642C182.942 91.2642 183.407 91.3852 183.802 91.6271C184.199 91.8658 184.508 92.2005 184.726 92.6314C184.948 93.0589 185.058 93.5594 185.055 94.1328V99H182.623V94.6101C182.627 94.1858 182.519 93.8544 182.3 93.6158C182.085 93.3771 181.785 93.2578 181.4 93.2578C181.145 93.2578 180.92 93.3142 180.724 93.4268C180.532 93.5362 180.383 93.6937 180.277 93.8991C180.174 94.1046 180.121 94.3532 180.118 94.6449ZM190.87 91.3636V93.1534H186.053V91.3636H190.87ZM187.062 89.5341H189.493V96.5987C189.493 96.7479 189.516 96.8688 189.562 96.9616C189.612 97.0511 189.683 97.1158 189.776 97.1555C189.869 97.192 189.98 97.2102 190.109 97.2102C190.202 97.2102 190.3 97.2019 190.403 97.1854C190.509 97.1655 190.588 97.1489 190.641 97.1357L191.009 98.8906C190.893 98.9238 190.729 98.9652 190.517 99.0149C190.308 99.0646 190.058 99.0961 189.766 99.1094C189.196 99.1359 188.707 99.0696 188.3 98.9105C187.895 98.7481 187.585 98.4962 187.37 98.1548C187.158 97.8134 187.055 97.3842 187.062 96.8672V89.5341ZM194.263 99.1293C193.776 99.1293 193.343 99.0481 192.966 98.8857C192.591 98.7199 192.294 98.4714 192.076 98.1399C191.86 97.8052 191.752 97.3859 191.752 96.8821C191.752 96.4579 191.827 96.0999 191.976 95.8082C192.125 95.5166 192.331 95.2796 192.593 95.0973C192.855 94.915 193.156 94.7775 193.498 94.6847C193.839 94.5885 194.203 94.5239 194.591 94.4908C195.025 94.451 195.375 94.4096 195.64 94.3665C195.905 94.3201 196.098 94.2554 196.217 94.1726C196.34 94.0864 196.401 93.9654 196.401 93.8097V93.7848C196.401 93.5296 196.313 93.3324 196.137 93.1932C195.962 93.054 195.725 92.9844 195.426 92.9844C195.105 92.9844 194.846 93.054 194.651 93.1932C194.455 93.3324 194.331 93.5246 194.278 93.7699L192.036 93.6903C192.102 93.2263 192.273 92.812 192.548 92.4474C192.826 92.0795 193.208 91.7912 193.691 91.5824C194.179 91.3703 194.764 91.2642 195.446 91.2642C195.934 91.2642 196.383 91.3222 196.794 91.4382C197.205 91.5509 197.563 91.7166 197.868 91.9354C198.172 92.1508 198.408 92.416 198.574 92.7308C198.743 93.0457 198.827 93.4053 198.827 93.8097V99H196.54V97.9361H196.48C196.345 98.1946 196.171 98.4134 195.958 98.5923C195.75 98.7713 195.503 98.9055 195.218 98.995C194.936 99.0845 194.618 99.1293 194.263 99.1293ZM195.014 97.5384C195.276 97.5384 195.511 97.4853 195.72 97.3793C195.932 97.2732 196.101 97.1274 196.227 96.9418C196.353 96.7528 196.416 96.5341 196.416 96.2855V95.5597C196.346 95.5961 196.262 95.6293 196.162 95.6591C196.066 95.6889 195.96 95.7171 195.844 95.7436C195.728 95.7701 195.609 95.7933 195.486 95.8132C195.364 95.8331 195.246 95.8513 195.133 95.8679C194.904 95.9044 194.709 95.9607 194.547 96.0369C194.387 96.1132 194.265 96.2126 194.179 96.3352C194.096 96.4545 194.054 96.5971 194.054 96.7628C194.054 97.0147 194.144 97.2069 194.323 97.3395C194.505 97.4721 194.735 97.5384 195.014 97.5384ZM204.624 91.3636V93.1534H199.806V91.3636H204.624ZM200.816 89.5341H203.247V96.5987C203.247 96.7479 203.27 96.8688 203.316 96.9616C203.366 97.0511 203.437 97.1158 203.53 97.1555C203.623 97.192 203.734 97.2102 203.863 97.2102C203.956 97.2102 204.054 97.2019 204.157 97.1854C204.263 97.1655 204.342 97.1489 204.395 97.1357L204.763 98.8906C204.647 98.9238 204.483 98.9652 204.271 99.0149C204.062 99.0646 203.812 99.0961 203.52 99.1094C202.95 99.1359 202.461 99.0696 202.054 98.9105C201.649 98.7481 201.339 98.4962 201.124 98.1548C200.912 97.8134 200.809 97.3842 200.816 96.8672V89.5341ZM205.864 99V91.3636H208.295V99H205.864ZM207.082 90.4737C206.741 90.4737 206.448 90.361 206.202 90.1357C205.957 89.907 205.835 89.6319 205.835 89.3104C205.835 88.9922 205.957 88.7204 206.202 88.495C206.448 88.2663 206.741 88.152 207.082 88.152C207.427 88.152 207.72 88.2663 207.962 88.495C208.208 88.7204 208.33 88.9922 208.33 89.3104C208.33 89.6319 208.208 89.907 207.962 90.1357C207.72 90.361 207.427 90.4737 207.082 90.4737ZM213.407 99.1442C212.605 99.1442 211.916 98.9801 211.339 98.652C210.766 98.3205 210.323 97.8598 210.012 97.2699C209.704 96.6766 209.55 95.9889 209.55 95.2067C209.55 94.4212 209.704 93.7334 210.012 93.1435C210.323 92.5502 210.766 92.0895 211.339 91.7614C211.916 91.4299 212.605 91.2642 213.407 91.2642C214.21 91.2642 214.897 91.4299 215.471 91.7614C216.047 92.0895 216.49 92.5502 216.798 93.1435C217.11 93.7334 217.265 94.4212 217.265 95.2067C217.265 95.9889 217.11 96.6766 216.798 97.2699C216.49 97.8598 216.047 98.3205 215.471 98.652C214.897 98.9801 214.21 99.1442 213.407 99.1442ZM213.422 97.3097C213.714 97.3097 213.961 97.2202 214.163 97.0412C214.365 96.8622 214.519 96.6136 214.626 96.2955C214.735 95.9773 214.79 95.6094 214.79 95.1918C214.79 94.7675 214.735 94.3963 214.626 94.0781C214.519 93.7599 214.365 93.5114 214.163 93.3324C213.961 93.1534 213.714 93.0639 213.422 93.0639C213.121 93.0639 212.866 93.1534 212.657 93.3324C212.451 93.5114 212.294 93.7599 212.184 94.0781C212.078 94.3963 212.025 94.7675 212.025 95.1918C212.025 95.6094 212.078 95.9773 212.184 96.2955C212.294 96.6136 212.451 96.8622 212.657 97.0412C212.866 97.2202 213.121 97.3097 213.422 97.3097ZM220.942 94.6449V99H218.511V91.3636H220.823V92.7656H220.907C221.076 92.2983 221.365 91.9321 221.772 91.6669C222.18 91.3984 222.665 91.2642 223.229 91.2642C223.766 91.2642 224.231 91.3852 224.626 91.6271C225.024 91.8658 225.332 92.2005 225.551 92.6314C225.773 93.0589 225.882 93.5594 225.879 94.1328V99H223.448V94.6101C223.451 94.1858 223.343 93.8544 223.124 93.6158C222.909 93.3771 222.609 93.2578 222.225 93.2578C221.969 93.2578 221.744 93.3142 221.548 93.4268C221.356 93.5362 221.207 93.6937 221.101 93.8991C220.998 94.1046 220.945 94.3532 220.942 94.6449Z" fill="#001E43"/>
<path d="M123.5 60L118 69.5H129.5L123.5 60Z" fill="white"/>
<rect x="287" y="69" width="151" height="50" rx="10" fill="white"/>
<path d="M310.662 99H308.018L311.453 88.8182H314.729L318.165 99H315.52L313.128 91.3835H313.049L310.662 99ZM310.309 94.9929H315.838V96.8622H310.309V94.9929ZM319.261 101.864V91.3636H321.667V92.6712H321.742C321.841 92.4392 321.982 92.2154 322.164 92C322.35 91.7846 322.585 91.6089 322.87 91.473C323.159 91.3338 323.503 91.2642 323.904 91.2642C324.435 91.2642 324.93 91.4034 325.391 91.6818C325.855 91.9602 326.229 92.3894 326.514 92.9695C326.799 93.5495 326.942 94.2886 326.942 95.1868C326.942 96.0518 326.804 96.776 326.529 97.3594C326.258 97.9427 325.89 98.3802 325.426 98.6719C324.965 98.9635 324.453 99.1094 323.889 99.1094C323.505 99.1094 323.172 99.0464 322.89 98.9205C322.608 98.7945 322.371 98.6288 322.179 98.4233C321.99 98.2178 321.844 97.9974 321.742 97.7621H321.692V101.864H319.261ZM321.642 95.1818C321.642 95.5928 321.697 95.9508 321.806 96.2557C321.919 96.5606 322.08 96.7976 322.289 96.9666C322.501 97.1323 322.754 97.2152 323.049 97.2152C323.347 97.2152 323.601 97.1323 323.81 96.9666C324.019 96.7976 324.176 96.5606 324.282 96.2557C324.392 95.9508 324.446 95.5928 324.446 95.1818C324.446 94.7708 324.392 94.4145 324.282 94.1129C324.176 93.8113 324.019 93.5777 323.81 93.4119C323.604 93.2462 323.351 93.1634 323.049 93.1634C322.751 93.1634 322.497 93.2446 322.289 93.407C322.08 93.5694 321.919 93.8014 321.806 94.103C321.697 94.4046 321.642 94.7642 321.642 95.1818ZM328.216 101.864V91.3636H330.622V92.6712H330.697C330.796 92.4392 330.937 92.2154 331.119 92C331.305 91.7846 331.54 91.6089 331.825 91.473C332.114 91.3338 332.458 91.2642 332.859 91.2642C333.39 91.2642 333.885 91.4034 334.346 91.6818C334.81 91.9602 335.184 92.3894 335.469 92.9695C335.754 93.5495 335.897 94.2886 335.897 95.1868C335.897 96.0518 335.759 96.776 335.484 97.3594C335.213 97.9427 334.845 98.3802 334.381 98.6719C333.92 98.9635 333.408 99.1094 332.844 99.1094C332.46 99.1094 332.127 99.0464 331.845 98.9205C331.563 98.7945 331.326 98.6288 331.134 98.4233C330.945 98.2178 330.799 97.9974 330.697 97.7621H330.647V101.864H328.216ZM330.597 95.1818C330.597 95.5928 330.652 95.9508 330.761 96.2557C330.874 96.5606 331.035 96.7976 331.244 96.9666C331.456 97.1323 331.709 97.2152 332.004 97.2152C332.303 97.2152 332.556 97.1323 332.765 96.9666C332.974 96.7976 333.131 96.5606 333.237 96.2557C333.347 95.9508 333.401 95.5928 333.401 95.1818C333.401 94.7708 333.347 94.4145 333.237 94.1129C333.131 93.8113 332.974 93.5777 332.765 93.4119C332.559 93.2462 332.306 93.1634 332.004 93.1634C331.706 93.1634 331.452 93.2446 331.244 93.407C331.035 93.5694 330.874 93.8014 330.761 94.103C330.652 94.4046 330.597 94.7642 330.597 95.1818ZM339.602 88.8182V99H337.171V88.8182H339.602ZM341.15 99V91.3636H343.581V99H341.15ZM342.368 90.4737C342.026 90.4737 341.733 90.361 341.488 90.1357C341.242 89.907 341.12 89.6319 341.12 89.3104C341.12 88.9922 341.242 88.7204 341.488 88.495C341.733 88.2663 342.026 88.152 342.368 88.152C342.712 88.152 343.006 88.2663 343.248 88.495C343.493 88.7204 343.615 88.9922 343.615 89.3104C343.615 89.6319 343.493 89.907 343.248 90.1357C343.006 90.361 342.712 90.4737 342.368 90.4737ZM348.698 99.1442C347.899 99.1442 347.209 98.9867 346.629 98.6719C346.053 98.3537 345.609 97.9013 345.297 97.3146C344.989 96.7247 344.835 96.0237 344.835 95.2116C344.835 94.4228 344.99 93.7334 345.302 93.1435C345.614 92.5502 346.053 92.0895 346.619 91.7614C347.186 91.4299 347.854 91.2642 348.623 91.2642C349.167 91.2642 349.664 91.3487 350.115 91.5178C350.565 91.6868 350.955 91.937 351.283 92.2685C351.611 92.5999 351.866 93.0092 352.048 93.4964C352.231 93.9804 352.322 94.5355 352.322 95.1619V95.7685H345.685V94.3565H350.06C350.057 94.098 349.995 93.8677 349.876 93.6655C349.757 93.4633 349.593 93.3059 349.384 93.1932C349.178 93.0772 348.941 93.0192 348.673 93.0192C348.401 93.0192 348.157 93.0805 347.942 93.2031C347.727 93.3224 347.556 93.4865 347.43 93.6953C347.304 93.9008 347.238 94.1345 347.231 94.3963V95.8331C347.231 96.1446 347.292 96.4181 347.415 96.6534C347.538 96.8854 347.712 97.0661 347.937 97.1953C348.162 97.3246 348.431 97.3892 348.742 97.3892C348.958 97.3892 349.153 97.3594 349.329 97.2997C349.505 97.2401 349.655 97.1522 349.781 97.0362C349.907 96.9202 350.002 96.7777 350.065 96.6087L352.297 96.6733C352.204 97.1738 352 97.6096 351.686 97.9808C351.374 98.3487 350.965 98.6354 350.458 98.8409C349.95 99.0431 349.364 99.1442 348.698 99.1442ZM356.353 99.1094C355.789 99.1094 355.277 98.9635 354.816 98.6719C354.356 98.3802 353.988 97.9427 353.713 97.3594C353.438 96.776 353.3 96.0518 353.3 95.1868C353.3 94.2886 353.443 93.5495 353.728 92.9695C354.013 92.3894 354.386 91.9602 354.846 91.6818C355.31 91.4034 355.809 91.2642 356.343 91.2642C356.744 91.2642 357.087 91.3338 357.372 91.473C357.657 91.6089 357.892 91.7846 358.078 92C358.263 92.2154 358.404 92.4392 358.5 92.6712H358.55V88.8182H360.981V99H358.575V97.7621H358.5C358.398 97.9974 358.252 98.2178 358.063 98.4233C357.874 98.6288 357.637 98.7945 357.352 98.9205C357.07 99.0464 356.737 99.1094 356.353 99.1094ZM357.198 97.2152C357.493 97.2152 357.745 97.1323 357.953 96.9666C358.162 96.7976 358.323 96.5606 358.436 96.2557C358.548 95.9508 358.605 95.5928 358.605 95.1818C358.605 94.7642 358.548 94.4046 358.436 94.103C358.326 93.8014 358.166 93.5694 357.953 93.407C357.745 93.2446 357.493 93.1634 357.198 93.1634C356.896 93.1634 356.641 93.2462 356.432 93.4119C356.223 93.5777 356.064 93.8113 355.955 94.1129C355.849 94.4145 355.796 94.7708 355.796 95.1818C355.796 95.5928 355.85 95.9508 355.96 96.2557C356.069 96.5606 356.227 96.7976 356.432 96.9666C356.641 97.1323 356.896 97.2152 357.198 97.2152ZM369.867 91.3636V93.1534H364.955V91.3636H369.867ZM365.979 99V90.9759C365.979 90.3859 366.09 89.897 366.312 89.5092C366.534 89.1181 366.842 88.8265 367.237 88.6342C367.631 88.4387 368.087 88.3409 368.604 88.3409C368.942 88.3409 369.26 88.3674 369.558 88.4205C369.86 88.4702 370.084 88.5149 370.23 88.5547L369.842 90.3345C369.752 90.3047 369.643 90.2798 369.514 90.2599C369.388 90.2401 369.268 90.2301 369.156 90.2301C368.871 90.2301 368.675 90.2931 368.569 90.419C368.463 90.545 368.41 90.7173 368.41 90.9361V99H365.979ZM374.355 99.1442C373.553 99.1442 372.863 98.9801 372.287 98.652C371.713 98.3205 371.271 97.8598 370.959 97.2699C370.651 96.6766 370.497 95.9889 370.497 95.2067C370.497 94.4212 370.651 93.7334 370.959 93.1435C371.271 92.5502 371.713 92.0895 372.287 91.7614C372.863 91.4299 373.553 91.2642 374.355 91.2642C375.157 91.2642 375.845 91.4299 376.418 91.7614C376.995 92.0895 377.437 92.5502 377.745 93.1435C378.057 93.7334 378.213 94.4212 378.213 95.2067C378.213 95.9889 378.057 96.6766 377.745 97.2699C377.437 97.8598 376.995 98.3205 376.418 98.652C375.845 98.9801 375.157 99.1442 374.355 99.1442ZM374.37 97.3097C374.661 97.3097 374.908 97.2202 375.11 97.0412C375.313 96.8622 375.467 96.6136 375.573 96.2955C375.682 95.9773 375.737 95.6094 375.737 95.1918C375.737 94.7675 375.682 94.3963 375.573 94.0781C375.467 93.7599 375.313 93.5114 375.11 93.3324C374.908 93.1534 374.661 93.0639 374.37 93.0639C374.068 93.0639 373.813 93.1534 373.604 93.3324C373.399 93.5114 373.241 93.7599 373.132 94.0781C373.026 94.3963 372.973 94.7675 372.973 95.1918C372.973 95.6094 373.026 95.9773 373.132 96.2955C373.241 96.6136 373.399 96.8622 373.604 97.0412C373.813 97.2202 374.068 97.3097 374.37 97.3097ZM379.458 99V91.3636H381.82V92.7557H381.899C382.038 92.2519 382.265 91.8774 382.58 91.6321C382.895 91.3835 383.261 91.2592 383.679 91.2592C383.792 91.2592 383.908 91.2675 384.027 91.2841C384.146 91.2973 384.257 91.3189 384.36 91.3487V93.4616C384.244 93.4219 384.092 93.3904 383.903 93.3672C383.717 93.344 383.551 93.3324 383.406 93.3324C383.117 93.3324 382.857 93.397 382.625 93.5263C382.396 93.6522 382.216 93.8295 382.083 94.0582C381.954 94.2836 381.889 94.5488 381.889 94.8537V99H379.458ZM390.79 88.8182V99H388.358V88.8182H390.79ZM395.902 99.1442C395.1 99.1442 394.41 98.9801 393.833 98.652C393.26 98.3205 392.818 97.8598 392.506 97.2699C392.198 96.6766 392.044 95.9889 392.044 95.2067C392.044 94.4212 392.198 93.7334 392.506 93.1435C392.818 92.5502 393.26 92.0895 393.833 91.7614C394.41 91.4299 395.1 91.2642 395.902 91.2642C396.704 91.2642 397.391 91.4299 397.965 91.7614C398.542 92.0895 398.984 92.5502 399.292 93.1435C399.604 93.7334 399.76 94.4212 399.76 95.2067C399.76 95.9889 399.604 96.6766 399.292 97.2699C398.984 97.8598 398.542 98.3205 397.965 98.652C397.391 98.9801 396.704 99.1442 395.902 99.1442ZM395.917 97.3097C396.208 97.3097 396.455 97.2202 396.657 97.0412C396.859 96.8622 397.014 96.6136 397.12 96.2955C397.229 95.9773 397.284 95.6094 397.284 95.1918C397.284 94.7675 397.229 94.3963 397.12 94.0781C397.014 93.7599 396.859 93.5114 396.657 93.3324C396.455 93.1534 396.208 93.0639 395.917 93.0639C395.615 93.0639 395.36 93.1534 395.151 93.3324C394.945 93.5114 394.788 93.7599 394.679 94.0781C394.573 94.3963 394.52 94.7675 394.52 95.1918C394.52 95.6094 394.573 95.9773 394.679 96.2955C394.788 96.6136 394.945 96.8622 395.151 97.0412C395.36 97.2202 395.615 97.3097 395.917 97.3097ZM403.158 99.1293C402.67 99.1293 402.238 99.0481 401.86 98.8857C401.486 98.7199 401.189 98.4714 400.97 98.1399C400.755 97.8052 400.647 97.3859 400.647 96.8821C400.647 96.4579 400.722 96.0999 400.871 95.8082C401.02 95.5166 401.225 95.2796 401.487 95.0973C401.749 94.915 402.051 94.7775 402.392 94.6847C402.733 94.5885 403.098 94.5239 403.486 94.4908C403.92 94.451 404.27 94.4096 404.535 94.3665C404.8 94.3201 404.992 94.2554 405.112 94.1726C405.234 94.0864 405.295 93.9654 405.295 93.8097V93.7848C405.295 93.5296 405.208 93.3324 405.032 93.1932C404.856 93.054 404.619 92.9844 404.321 92.9844C404 92.9844 403.741 93.054 403.545 93.1932C403.35 93.3324 403.226 93.5246 403.173 93.7699L400.93 93.6903C400.997 93.2263 401.167 92.812 401.442 92.4474C401.721 92.0795 402.102 91.7912 402.586 91.5824C403.073 91.3703 403.658 91.2642 404.341 91.2642C404.828 91.2642 405.277 91.3222 405.688 91.4382C406.099 91.5509 406.457 91.7166 406.762 91.9354C407.067 92.1508 407.302 92.416 407.468 92.7308C407.637 93.0457 407.722 93.4053 407.722 93.8097V99H405.435V97.9361H405.375C405.239 98.1946 405.065 98.4134 404.853 98.5923C404.644 98.7713 404.397 98.9055 404.112 98.995C403.83 99.0845 403.512 99.1293 403.158 99.1293ZM403.908 97.5384C404.17 97.5384 404.406 97.4853 404.614 97.3793C404.826 97.2732 404.996 97.1274 405.121 96.9418C405.247 96.7528 405.31 96.5341 405.31 96.2855V95.5597C405.241 95.5961 405.156 95.6293 405.057 95.6591C404.961 95.6889 404.855 95.7171 404.739 95.7436C404.623 95.7701 404.503 95.7933 404.381 95.8132C404.258 95.8331 404.14 95.8513 404.028 95.8679C403.799 95.9044 403.603 95.9607 403.441 96.0369C403.282 96.1132 403.159 96.2126 403.073 96.3352C402.99 96.4545 402.949 96.5971 402.949 96.7628C402.949 97.0147 403.038 97.2069 403.217 97.3395C403.4 97.4721 403.63 97.5384 403.908 97.5384ZM411.639 94.6449V99H409.208V91.3636H411.52V92.7656H411.604C411.773 92.2983 412.062 91.9321 412.469 91.6669C412.877 91.3984 413.363 91.2642 413.926 91.2642C414.463 91.2642 414.929 91.3852 415.323 91.6271C415.721 91.8658 416.029 92.2005 416.248 92.6314C416.47 93.0589 416.579 93.5594 416.576 94.1328V99H414.145V94.6101C414.148 94.1858 414.04 93.8544 413.822 93.6158C413.606 93.3771 413.306 93.2578 412.922 93.2578C412.667 93.2578 412.441 93.3142 412.246 93.4268C412.054 93.5362 411.904 93.6937 411.798 93.8991C411.696 94.1046 411.643 94.3532 411.639 94.6449Z" fill="#001E43"/>
<path d="M362.5 60L357 69.5H368.5L362.5 60Z" fill="white"/>
<rect x="478" y="69" width="247" height="50" rx="10" fill="#FFEB3B"/>
<path d="M549.853 99V88.8182H552.314V97.0014H556.549V99H549.853ZM561.388 99.1442C560.586 99.1442 559.896 98.9801 559.32 98.652C558.746 98.3205 558.304 97.8598 557.992 97.2699C557.684 96.6766 557.53 95.9889 557.53 95.2067C557.53 94.4212 557.684 93.7334 557.992 93.1435C558.304 92.5502 558.746 92.0895 559.32 91.7614C559.896 91.4299 560.586 91.2642 561.388 91.2642C562.19 91.2642 562.878 91.4299 563.451 91.7614C564.028 92.0895 564.47 92.5502 564.779 93.1435C565.09 93.7334 565.246 94.4212 565.246 95.2067C565.246 95.9889 565.09 96.6766 564.779 97.2699C564.47 97.8598 564.028 98.3205 563.451 98.652C562.878 98.9801 562.19 99.1442 561.388 99.1442ZM561.403 97.3097C561.695 97.3097 561.941 97.2202 562.144 97.0412C562.346 96.8622 562.5 96.6136 562.606 96.2955C562.715 95.9773 562.77 95.6094 562.77 95.1918C562.77 94.7675 562.715 94.3963 562.606 94.0781C562.5 93.7599 562.346 93.5114 562.144 93.3324C561.941 93.1534 561.695 93.0639 561.403 93.0639C561.101 93.0639 560.846 93.1534 560.637 93.3324C560.432 93.5114 560.274 93.7599 560.165 94.0781C560.059 94.3963 560.006 94.7675 560.006 95.1918C560.006 95.6094 560.059 95.9773 560.165 96.2955C560.274 96.6136 560.432 96.8622 560.637 97.0412C560.846 97.2202 561.101 97.3097 561.403 97.3097ZM568.644 99.1293C568.157 99.1293 567.724 99.0481 567.346 98.8857C566.972 98.7199 566.675 98.4714 566.456 98.1399C566.241 97.8052 566.133 97.3859 566.133 96.8821C566.133 96.4579 566.208 96.0999 566.357 95.8082C566.506 95.5166 566.712 95.2796 566.974 95.0973C567.235 94.915 567.537 94.7775 567.878 94.6847C568.22 94.5885 568.584 94.5239 568.972 94.4908C569.406 94.451 569.756 94.4096 570.021 94.3665C570.286 94.3201 570.479 94.2554 570.598 94.1726C570.72 94.0864 570.782 93.9654 570.782 93.8097V93.7848C570.782 93.5296 570.694 93.3324 570.518 93.1932C570.343 93.054 570.106 92.9844 569.807 92.9844C569.486 92.9844 569.227 93.054 569.032 93.1932C568.836 93.3324 568.712 93.5246 568.659 93.7699L566.417 93.6903C566.483 93.2263 566.654 92.812 566.929 92.4474C567.207 92.0795 567.588 91.7912 568.072 91.5824C568.559 91.3703 569.144 91.2642 569.827 91.2642C570.314 91.2642 570.764 91.3222 571.175 91.4382C571.586 91.5509 571.943 91.7166 572.248 91.9354C572.553 92.1508 572.789 92.416 572.954 92.7308C573.123 93.0457 573.208 93.4053 573.208 93.8097V99H570.921V97.9361H570.861C570.725 98.1946 570.551 98.4134 570.339 98.5923C570.131 98.7713 569.884 98.9055 569.599 98.995C569.317 99.0845 568.999 99.1293 568.644 99.1293ZM569.395 97.5384C569.657 97.5384 569.892 97.4853 570.101 97.3793C570.313 97.2732 570.482 97.1274 570.608 96.9418C570.734 96.7528 570.797 96.5341 570.797 96.2855V95.5597C570.727 95.5961 570.643 95.6293 570.543 95.6591C570.447 95.6889 570.341 95.7171 570.225 95.7436C570.109 95.7701 569.99 95.7933 569.867 95.8132C569.744 95.8331 569.627 95.8513 569.514 95.8679C569.285 95.9044 569.09 95.9607 568.927 96.0369C568.768 96.1132 568.646 96.2126 568.559 96.3352C568.477 96.4545 568.435 96.5971 568.435 96.7628C568.435 97.0147 568.525 97.2069 568.704 97.3395C568.886 97.4721 569.116 97.5384 569.395 97.5384ZM577.126 94.6449V99H574.694V91.3636H577.006V92.7656H577.091C577.26 92.2983 577.548 91.9321 577.956 91.6669C578.363 91.3984 578.849 91.2642 579.412 91.2642C579.949 91.2642 580.415 91.3852 580.809 91.6271C581.207 91.8658 581.515 92.2005 581.734 92.6314C581.956 93.0589 582.066 93.5594 582.062 94.1328V99H579.631V94.6101C579.635 94.1858 579.527 93.8544 579.308 93.6158C579.093 93.3771 578.793 93.2578 578.408 93.2578C578.153 93.2578 577.928 93.3142 577.732 93.4268C577.54 93.5362 577.391 93.6937 577.285 93.8991C577.182 94.1046 577.129 94.3532 577.126 94.6449ZM588.778 99H586.133L589.568 88.8182H592.844L596.28 99H593.635L591.244 91.3835H591.164L588.778 99ZM588.425 94.9929H593.953V96.8622H588.425V94.9929ZM597.376 101.864V91.3636H599.782V92.6712H599.857C599.956 92.4392 600.097 92.2154 600.279 92C600.465 91.7846 600.7 91.6089 600.985 91.473C601.274 91.3338 601.618 91.2642 602.02 91.2642C602.55 91.2642 603.045 91.4034 603.506 91.6818C603.97 91.9602 604.345 92.3894 604.63 92.9695C604.915 93.5495 605.057 94.2886 605.057 95.1868C605.057 96.0518 604.92 96.776 604.645 97.3594C604.373 97.9427 604.005 98.3802 603.541 98.6719C603.08 98.9635 602.568 99.1094 602.005 99.1094C601.62 99.1094 601.287 99.0464 601.005 98.9205C600.724 98.7945 600.487 98.6288 600.294 98.4233C600.105 98.2178 599.96 97.9974 599.857 97.7621H599.807V101.864H597.376ZM599.757 95.1818C599.757 95.5928 599.812 95.9508 599.922 96.2557C600.034 96.5606 600.195 96.7976 600.404 96.9666C600.616 97.1323 600.869 97.2152 601.164 97.2152C601.463 97.2152 601.716 97.1323 601.925 96.9666C602.134 96.7976 602.291 96.5606 602.397 96.2557C602.507 95.9508 602.561 95.5928 602.561 95.1818C602.561 94.7708 602.507 94.4145 602.397 94.1129C602.291 93.8113 602.134 93.5777 601.925 93.4119C601.72 93.2462 601.466 93.1634 601.164 93.1634C600.866 93.1634 600.613 93.2446 600.404 93.407C600.195 93.5694 600.034 93.8014 599.922 94.103C599.812 94.4046 599.757 94.7642 599.757 95.1818ZM606.331 101.864V91.3636H608.737V92.6712H608.812C608.911 92.4392 609.052 92.2154 609.235 92C609.42 91.7846 609.655 91.6089 609.941 91.473C610.229 91.3338 610.574 91.2642 610.975 91.2642C611.505 91.2642 612 91.4034 612.461 91.6818C612.925 91.9602 613.3 92.3894 613.585 92.9695C613.87 93.5495 614.012 94.2886 614.012 95.1868C614.012 96.0518 613.875 96.776 613.6 97.3594C613.328 97.9427 612.96 98.3802 612.496 98.6719C612.035 98.9635 611.523 99.1094 610.96 99.1094C610.575 99.1094 610.242 99.0464 609.96 98.9205C609.679 98.7945 609.442 98.6288 609.249 98.4233C609.061 98.2178 608.915 97.9974 608.812 97.7621H608.762V101.864H606.331ZM608.713 95.1818C608.713 95.5928 608.767 95.9508 608.877 96.2557C608.989 96.5606 609.15 96.7976 609.359 96.9666C609.571 97.1323 609.825 97.2152 610.119 97.2152C610.418 97.2152 610.671 97.1323 610.88 96.9666C611.089 96.7976 611.246 96.5606 611.352 96.2557C611.462 95.9508 611.517 95.5928 611.517 95.1818C611.517 94.7708 611.462 94.4145 611.352 94.1129C611.246 93.8113 611.089 93.5777 610.88 93.4119C610.675 93.2462 610.421 93.1634 610.119 93.1634C609.821 93.1634 609.568 93.2446 609.359 93.407C609.15 93.5694 608.989 93.8014 608.877 94.103C608.767 94.4046 608.713 94.7642 608.713 95.1818ZM615.286 99V91.3636H617.648V92.7557H617.727C617.866 92.2519 618.094 91.8774 618.408 91.6321C618.723 91.3835 619.089 91.2592 619.507 91.2592C619.62 91.2592 619.736 91.2675 619.855 91.2841C619.974 91.2973 620.085 91.3189 620.188 91.3487V93.4616C620.072 93.4219 619.92 93.3904 619.731 93.3672C619.545 93.344 619.379 93.3324 619.234 93.3324C618.945 93.3324 618.685 93.397 618.453 93.5263C618.224 93.6522 618.044 93.8295 617.911 94.0582C617.782 94.2836 617.717 94.5488 617.717 94.8537V99H615.286ZM624.347 99.1442C623.545 99.1442 622.855 98.9801 622.279 98.652C621.705 98.3205 621.263 97.8598 620.951 97.2699C620.643 96.6766 620.489 95.9889 620.489 95.2067C620.489 94.4212 620.643 93.7334 620.951 93.1435C621.263 92.5502 621.705 92.0895 622.279 91.7614C622.855 91.4299 623.545 91.2642 624.347 91.2642C625.149 91.2642 625.837 91.4299 626.41 91.7614C626.987 92.0895 627.429 92.5502 627.738 93.1435C628.049 93.7334 628.205 94.4212 628.205 95.2067C628.205 95.9889 628.049 96.6766 627.738 97.2699C627.429 97.8598 626.987 98.3205 626.41 98.652C625.837 98.9801 625.149 99.1442 624.347 99.1442ZM624.362 97.3097C624.654 97.3097 624.9 97.2202 625.103 97.0412C625.305 96.8622 625.459 96.6136 625.565 96.2955C625.674 95.9773 625.729 95.6094 625.729 95.1918C625.729 94.7675 625.674 94.3963 625.565 94.0781C625.459 93.7599 625.305 93.5114 625.103 93.3324C624.9 93.1534 624.654 93.0639 624.362 93.0639C624.06 93.0639 623.805 93.1534 623.596 93.3324C623.391 93.5114 623.233 93.7599 623.124 94.0781C623.018 94.3963 622.965 94.7675 622.965 95.1918C622.965 95.6094 623.018 95.9773 623.124 96.2955C623.233 96.6136 623.391 96.8622 623.596 97.0412C623.805 97.2202 624.06 97.3097 624.362 97.3097ZM636.612 91.3636L633.992 99H631.208L628.593 91.3636H631.153L632.56 96.6236H632.64L634.051 91.3636H636.612ZM640.868 99.1442C640.069 99.1442 639.379 98.9867 638.799 98.6719C638.223 98.3537 637.779 97.9013 637.467 97.3146C637.159 96.7247 637.005 96.0237 637.005 95.2116C637.005 94.4228 637.16 93.7334 637.472 93.1435C637.783 92.5502 638.223 92.0895 638.789 91.7614C639.356 91.4299 640.024 91.2642 640.793 91.2642C641.337 91.2642 641.834 91.3487 642.284 91.5178C642.735 91.6868 643.125 91.937 643.453 92.2685C643.781 92.5999 644.036 93.0092 644.218 93.4964C644.401 93.9804 644.492 94.5355 644.492 95.1619V95.7685H637.855V94.3565H642.23C642.226 94.098 642.165 93.8677 642.046 93.6655C641.926 93.4633 641.762 93.3059 641.554 93.1932C641.348 93.0772 641.111 93.0192 640.843 93.0192C640.571 93.0192 640.327 93.0805 640.112 93.2031C639.896 93.3224 639.726 93.4865 639.6 93.6953C639.474 93.9008 639.408 94.1345 639.401 94.3963V95.8331C639.401 96.1446 639.462 96.4181 639.585 96.6534C639.708 96.8854 639.882 97.0661 640.107 97.1953C640.332 97.3246 640.601 97.3892 640.912 97.3892C641.128 97.3892 641.323 97.3594 641.499 97.2997C641.675 97.2401 641.825 97.1522 641.951 97.0362C642.077 96.9202 642.172 96.7777 642.235 96.6087L644.467 96.6733C644.374 97.1738 644.17 97.6096 643.855 97.9808C643.544 98.3487 643.135 98.6354 642.627 98.8409C642.12 99.0431 641.534 99.1442 640.868 99.1442ZM648.523 99.1094C647.959 99.1094 647.447 98.9635 646.986 98.6719C646.526 98.3802 646.158 97.9427 645.883 97.3594C645.608 96.776 645.47 96.0518 645.47 95.1868C645.47 94.2886 645.613 93.5495 645.898 92.9695C646.183 92.3894 646.555 91.9602 647.016 91.6818C647.48 91.4034 647.979 91.2642 648.513 91.2642C648.914 91.2642 649.257 91.3338 649.542 91.473C649.827 91.6089 650.062 91.7846 650.248 92C650.433 92.2154 650.574 92.4392 650.67 92.6712H650.72V88.8182H653.151V99H650.745V97.7621H650.67C650.568 97.9974 650.422 98.2178 650.233 98.4233C650.044 98.6288 649.807 98.7945 649.522 98.9205C649.24 99.0464 648.907 99.1094 648.523 99.1094ZM649.368 97.2152C649.663 97.2152 649.915 97.1323 650.123 96.9666C650.332 96.7976 650.493 96.5606 650.606 96.2557C650.718 95.9508 650.775 95.5928 650.775 95.1818C650.775 94.7642 650.718 94.4046 650.606 94.103C650.496 93.8014 650.336 93.5694 650.123 93.407C649.915 93.2446 649.663 93.1634 649.368 93.1634C649.066 93.1634 648.811 93.2462 648.602 93.4119C648.393 93.5777 648.234 93.8113 648.125 94.1129C648.019 94.4145 647.966 94.7708 647.966 95.1818C647.966 95.5928 648.02 95.9508 648.13 96.2557C648.239 96.5606 648.397 96.7976 648.602 96.9666C648.811 97.1323 649.066 97.2152 649.368 97.2152Z" fill="#001E43"/>
<path d="M601.5 60L596 69.5H607.5L601.5 60Z" fill="#FFEB3B"/>
</svg>
