<svg width="338" height="322" viewBox="0 0 338 322" fill="none" xmlns="http://www.w3.org/2000/svg">
<g clip-path="url(#clip0_1535_4328)">
<path d="M87.8802 269.679C87.8843 269.777 87.9088 269.873 87.951 269.961C87.9932 270.05 88.0531 270.129 88.1263 270.195C88.2746 270.328 88.4707 270.397 88.6707 270.388C88.8716 270.379 89.0607 270.291 89.1953 270.146C89.3308 270 89.4019 269.807 89.3928 269.61L89.3285 268.246L92.2115 269.709C92.7294 280.156 94.2985 287.406 96.975 287.283C99.6514 287.16 100.536 279.797 100.074 269.347L102.808 267.627L102.872 268.99C102.881 269.187 102.97 269.373 103.119 269.506C103.267 269.638 103.463 269.708 103.663 269.699C103.864 269.69 104.052 269.603 104.187 269.457C104.323 269.311 104.394 269.118 104.384 268.921L104.28 266.701L118.448 257.785L118.399 256.761L99.2936 260.486C98.2369 251.9 96.5531 243.703 96.5531 243.703L102.29 238.141L102.247 237.22L96.1834 239.223C96.1834 239.223 95.9753 237.009 94.6216 237.071C93.2678 237.133 93.2684 239.357 93.2684 239.357L87.043 237.919L87.0863 238.84L93.3188 243.852C93.3188 243.852 92.409 252.168 92.1597 260.814L72.7879 258.858L72.8365 259.881L87.776 267.459L87.8802 269.679Z" fill="#929292"/>
<path d="M94.9817 230.376C94.9817 230.376 94.9648 230.019 94.9322 229.349C94.9096 228.679 94.8328 227.697 94.8178 226.446C94.832 225.194 94.813 223.666 94.8575 221.918C94.9288 220.173 94.9536 218.195 95.1594 216.054C95.3032 213.905 95.54 211.585 95.8458 209.137C96.1543 206.689 96.5104 204.109 96.9817 201.458C97.4578 198.808 97.9404 196.065 98.5865 193.31C99.162 190.539 99.9271 187.766 100.616 184.975C101.433 182.217 102.18 179.438 103.089 176.755C103.918 174.047 104.899 171.434 105.846 168.907C106.733 166.36 107.836 163.986 108.77 161.698C109.736 159.422 110.786 157.326 111.7 155.372C112.638 153.428 113.617 151.701 114.442 150.155C115.249 148.6 116.064 147.3 116.698 146.213C117.99 144.052 118.758 142.838 118.758 142.838C118.758 142.838 118.191 144.162 117.146 146.44C116.626 147.58 115.952 148.942 115.308 150.563C114.639 152.17 113.883 153.982 113.059 155.959C112.301 157.962 111.416 160.103 110.563 162.397C109.757 164.71 108.809 167.11 107.992 169.651C107.568 170.915 107.138 172.2 106.702 173.504C106.297 174.814 105.888 176.139 105.473 177.479C104.601 180.139 103.896 182.896 103.111 185.628C102.402 188.379 101.615 191.116 101.018 193.849C100.697 195.211 100.38 196.561 100.066 197.897C99.7779 199.239 99.4939 200.562 99.2131 201.867C98.686 204.479 98.1757 207.007 97.7469 209.413C97.3355 211.822 96.9293 214.099 96.6276 216.213C96.29 218.323 96.0619 220.265 95.812 221.986C95.5928 223.708 95.4584 225.213 95.3186 226.456C95.104 228.95 94.9817 230.376 94.9817 230.376Z" fill="#D1D0D0"/>
<path d="M138.343 98.9693C138.236 99.1363 138.201 99.3393 138.246 99.5315C138.292 99.7246 138.412 99.8915 138.583 99.9959C138.753 100.1 138.959 100.134 139.155 100.09C139.351 100.045 139.52 99.9248 139.627 99.7574L140.366 98.5962L141.891 101.415C136.26 110.325 133.348 117.184 135.623 118.58C137.896 119.974 142.893 114.394 148.572 105.513L151.819 105.622L151.081 106.783C150.975 106.95 150.941 107.152 150.985 107.345C151.03 107.538 151.152 107.704 151.322 107.809C151.492 107.914 151.699 107.947 151.895 107.903C152.09 107.858 152.26 107.738 152.367 107.57L153.568 105.68L170.397 106.244L170.951 105.372L153.067 97.7642C157.175 90.0897 160.542 82.3848 160.542 82.3848L168.488 81.0021L168.986 80.2184L162.835 78.4806C162.835 78.4806 163.947 76.5372 162.796 75.8317C161.646 75.1263 160.357 76.961 160.357 76.961L156.067 72.2944L155.569 73.0789L157.793 80.6986C157.793 80.6986 152.222 87.0522 147.005 94.0469L132.195 81.6029L131.641 82.4733L139.545 97.0789L138.343 98.9693Z" fill="#00285A"/>
<path d="M166.218 70.0489C166.218 70.0489 166.433 69.7576 166.837 69.2119C167.248 68.6715 167.815 67.8512 168.603 66.8593C169.415 65.8855 170.377 64.6737 171.531 63.3291C172.702 62.0035 173.986 60.4645 175.518 58.9125C177.005 57.3149 178.674 55.6415 180.48 53.9104C182.286 52.1814 184.216 50.3784 186.281 48.5928C188.349 46.8094 190.482 44.9589 192.75 43.1996C194.974 41.3849 197.348 39.6865 199.673 37.9266C202.078 36.2729 204.44 34.56 206.869 33.0222C209.251 31.4155 211.691 29.9795 214.049 28.588C216.374 27.144 218.757 25.9708 220.953 24.76C223.167 23.5782 225.331 22.591 227.297 21.6304C229.275 20.6915 231.148 19.95 232.783 19.2515C234.41 18.5365 235.881 18.0287 237.073 17.5721C239.469 16.6854 240.847 16.213 240.847 16.213C240.847 16.213 239.555 16.8962 237.28 18.0306C236.143 18.6006 234.743 19.2472 233.201 20.1172C231.649 20.9588 229.897 21.9079 227.986 22.9433C226.111 24.0414 224.049 25.1672 221.912 26.434C219.801 27.7458 217.523 29.0364 215.256 30.5178C214.115 31.2458 212.957 31.9844 211.782 32.7344C210.625 33.5102 209.457 34.2939 208.276 35.0863C205.89 36.6284 203.574 38.3514 201.211 40.0045C198.895 41.7211 196.529 43.3761 194.313 45.1486C193.19 46.0166 192.078 46.8777 190.976 47.73C189.893 48.6031 188.824 49.464 187.77 50.3128C185.686 52.0334 183.669 53.6992 181.794 55.3198C179.93 56.9534 178.155 58.4871 176.568 59.9581C174.953 61.4035 173.532 62.7854 172.235 63.9807C170.962 65.1951 169.894 66.2939 168.989 67.1814C167.226 69.0063 166.218 70.0489 166.218 70.0489Z" fill="#D1D0D0"/>
</g>
<defs>
<clipPath id="clip0_1535_4328">
<rect width="225" height="263" fill="white" transform="matrix(-0.467099 -0.884205 -0.884205 0.467099 337.643 198.945)"/>
</clipPath>
</defs>
</svg>
