<svg width="88" height="104" viewBox="0 0 88 104" fill="none" xmlns="http://www.w3.org/2000/svg">
<g filter="url(#filter0_d_1588_1465)">
<path d="M4 13C4 7.47715 8.47715 3 14 3H68.8L76.8 13.4L84 22.6V89C84 94.5228 79.5229 99 74 99H14C8.47715 99 4 94.5229 4 89V13Z" fill="white"/>
<path d="M76.4037 13.7049L76.4062 13.7082L83.5 22.7724V89C83.5 94.2467 79.2467 98.5 74 98.5H14C8.75329 98.5 4.5 94.2467 4.5 89V13C4.5 7.7533 8.7533 3.5 14 3.5H68.5538L76.4037 13.7049Z" stroke="black" stroke-opacity="0.2"/>
</g>
<path d="M64.4444 28.5556H52.8333C51.6667 25.3333 48.6111 23 45 23C41.3889 23 38.3333 25.3333 37.1667 28.5556H25.5556C22.5 28.5556 20 31.0556 20 34.1111V73C20 76.0556 22.5 78.5556 25.5556 78.5556H64.4444C67.5 78.5556 70 76.0556 70 73V34.1111C70 31.0556 67.5 28.5556 64.4444 28.5556ZM45 28.5556C46.5278 28.5556 47.7778 29.8056 47.7778 31.3333C47.7778 32.8611 46.5278 34.1111 45 34.1111C43.4722 34.1111 42.2222 32.8611 42.2222 31.3333C42.2222 29.8056 43.4722 28.5556 45 28.5556ZM47.7778 67.4445H33.8889C32.3611 67.4445 31.1111 66.1945 31.1111 64.6667C31.1111 63.1389 32.3611 61.8889 33.8889 61.8889H47.7778C49.3056 61.8889 50.5556 63.1389 50.5556 64.6667C50.5556 66.1945 49.3056 67.4445 47.7778 67.4445ZM56.1111 56.3333H33.8889C32.3611 56.3333 31.1111 55.0833 31.1111 53.5556C31.1111 52.0278 32.3611 50.7778 33.8889 50.7778H56.1111C57.6389 50.7778 58.8889 52.0278 58.8889 53.5556C58.8889 55.0833 57.6389 56.3333 56.1111 56.3333ZM56.1111 45.2222H33.8889C32.3611 45.2222 31.1111 43.9722 31.1111 42.4444C31.1111 40.9167 32.3611 39.6667 33.8889 39.6667H56.1111C57.6389 39.6667 58.8889 40.9167 58.8889 42.4444C58.8889 43.9722 57.6389 45.2222 56.1111 45.2222Z" fill="#0C3C82"/>
<defs>
<filter id="filter0_d_1588_1465" x="0" y="0" width="88" height="104" filterUnits="userSpaceOnUse" color-interpolation-filters="sRGB">
<feFlood flood-opacity="0" result="BackgroundImageFix"/>
<feColorMatrix in="SourceAlpha" type="matrix" values="0 0 0 0 0 0 0 0 0 0 0 0 0 0 0 0 0 0 127 0" result="hardAlpha"/>
<feOffset dy="1"/>
<feGaussianBlur stdDeviation="2"/>
<feComposite in2="hardAlpha" operator="out"/>
<feColorMatrix type="matrix" values="0 0 0 0 0 0 0 0 0 0 0 0 0 0 0 0 0 0 0.16 0"/>
<feBlend mode="normal" in2="BackgroundImageFix" result="effect1_dropShadow_1588_1465"/>
<feBlend mode="normal" in="SourceGraphic" in2="effect1_dropShadow_1588_1465" result="shape"/>
</filter>
</defs>
</svg>
