<svg width="88" height="104" viewBox="0 0 88 104" fill="none" xmlns="http://www.w3.org/2000/svg">
<g filter="url(#filter0_d_1246_1196)">
<path d="M4 13C4 7.47715 8.47715 3 14 3H68.8L76.8 13.4L84 22.6V89C84 94.5228 79.5229 99 74 99H14C8.47715 99 4 94.5229 4 89V13Z" fill="white"/>
<path d="M76.4037 13.7049L76.4062 13.7082L83.5 22.7724V89C83.5 94.2467 79.2467 98.5 74 98.5H14C8.75329 98.5 4.5 94.2467 4.5 89V13C4.5 7.7533 8.7533 3.5 14 3.5H68.5538L76.4037 13.7049Z" stroke="black" stroke-opacity="0.2"/>
</g>
<path d="M46.8358 41.7923V31H30.0181C28.8997 31 28 31.8491 28 32.9045V69.7255C28 70.7809 28.8997 71.63 30.0181 71.63H58.2719C59.3903 71.63 60.29 70.7809 60.29 69.7255V43.6969H48.854C47.744 43.6969 46.8358 42.8398 46.8358 41.7923ZM38.7633 53.2195C38.7633 53.5703 38.4623 53.8544 38.0906 53.8544H37.4179C36.6746 53.8544 36.0725 54.4226 36.0725 55.1241V57.6634C36.0725 58.3649 36.6746 58.9331 37.4179 58.9331H38.0906C38.4623 58.9331 38.7633 59.2172 38.7633 59.568V60.8377C38.7633 61.1884 38.4623 61.4725 38.0906 61.4725H37.4179C35.1887 61.4725 33.3817 59.7672 33.3817 57.6634V55.1241C33.3817 53.0203 35.1887 51.315 37.4179 51.315H38.0906C38.4623 51.315 38.7633 51.5991 38.7633 51.9498V53.2195ZM42.4859 61.4725H41.4542C41.0825 61.4725 40.7815 61.1884 40.7815 60.8377V59.568C40.7815 59.2172 41.0825 58.9331 41.4542 58.9331H42.4859C42.9863 58.9331 43.3613 58.6554 43.3613 58.4078C43.3613 58.3046 43.2982 58.1967 43.183 58.1031L41.3423 56.6136C40.6301 56.0406 40.2214 55.2264 40.2214 54.3805C40.2214 52.6902 41.8208 51.3158 43.7876 51.3158H44.8177C45.1894 51.3158 45.4904 51.5999 45.4904 51.9506V53.2203C45.4904 53.5711 45.1894 53.8552 44.8177 53.8552H43.7859C43.2856 53.8552 42.9106 54.1329 42.9106 54.3805C42.9106 54.4837 42.9736 54.5916 43.0888 54.6852L44.9295 56.1747C45.6418 56.7477 46.0504 57.5619 46.0504 58.4078C46.0513 60.0973 44.4528 61.4725 42.4859 61.4725ZM49.5267 51.9498V53.6004C49.5267 55.209 50.006 56.7881 50.8721 58.1142C51.7382 56.7889 52.2175 55.209 52.2175 53.6004V51.9498C52.2175 51.5991 52.5185 51.315 52.8902 51.315H54.2356C54.6073 51.315 54.9083 51.5991 54.9083 51.9498V53.6004C54.9083 56.416 53.8253 59.0672 51.8576 61.067C51.6037 61.3249 51.2463 61.4725 50.8721 61.4725C50.4979 61.4725 50.1405 61.3249 49.8866 61.067C47.9189 59.0672 46.8358 56.416 46.8358 53.6004V51.9498C46.8358 51.5991 47.1369 51.315 47.5085 51.315H48.854C49.2256 51.315 49.5267 51.5991 49.5267 51.9498ZM59.7014 39.3323L51.4691 31.5555C51.0907 31.1984 50.5778 31 50.0396 31H49.5267V41.1575H60.29V40.6734C60.29 40.1735 60.0798 39.6894 59.7014 39.3323Z" fill="#1B3B7B"/>
<defs>
<filter id="filter0_d_1246_1196" x="0" y="0" width="88" height="104" filterUnits="userSpaceOnUse" color-interpolation-filters="sRGB">
<feFlood flood-opacity="0" result="BackgroundImageFix"/>
<feColorMatrix in="SourceAlpha" type="matrix" values="0 0 0 0 0 0 0 0 0 0 0 0 0 0 0 0 0 0 127 0" result="hardAlpha"/>
<feOffset dy="1"/>
<feGaussianBlur stdDeviation="2"/>
<feComposite in2="hardAlpha" operator="out"/>
<feColorMatrix type="matrix" values="0 0 0 0 0 0 0 0 0 0 0 0 0 0 0 0 0 0 0.16 0"/>
<feBlend mode="normal" in2="BackgroundImageFix" result="effect1_dropShadow_1246_1196"/>
<feBlend mode="normal" in="SourceGraphic" in2="effect1_dropShadow_1246_1196" result="shape"/>
</filter>
</defs>
</svg>
