<svg width="88" height="104" viewBox="0 0 88 104" fill="none" xmlns="http://www.w3.org/2000/svg">
<g filter="url(#filter0_d_1244_1712)">
<path d="M4 13C4 7.47715 8.47715 3 14 3H68.8L76.8 13.4L84 22.6V89C84 94.5228 79.5229 99 74 99H14C8.47715 99 4 94.5229 4 89V13Z" fill="white"/>
<path d="M76.4037 13.7049L76.4062 13.7082L83.5 22.7724V89C83.5 94.2467 79.2467 98.5 74 98.5H14C8.75329 98.5 4.5 94.2467 4.5 89V13C4.5 7.7533 8.7533 3.5 14 3.5H68.5538L76.4037 13.7049Z" stroke="black" stroke-opacity="0.2"/>
</g>
<path fill-rule="evenodd" clip-rule="evenodd" d="M48.6873 31.2083C48.6873 31.0702 48.6325 30.9377 48.5348 30.84C48.4371 30.7424 48.3046 30.6875 48.1665 30.6875H33.5832C32.0637 30.6875 30.6065 31.2911 29.532 32.3655C28.4576 33.44 27.854 34.8972 27.854 36.4167V65.5833C27.854 67.1028 28.4576 68.56 29.532 69.6345C30.6065 70.7089 32.0637 71.3125 33.5832 71.3125H54.4165C55.936 71.3125 57.3932 70.7089 58.4676 69.6345C59.5421 68.56 60.1457 67.1028 60.1457 65.5833V45.0563C60.1457 44.9181 60.0908 44.7856 59.9931 44.688C59.8955 44.5903 59.763 44.5354 59.6248 44.5354H50.2498C49.8354 44.5354 49.438 44.3708 49.145 44.0778C48.852 43.7847 48.6873 43.3873 48.6873 42.9729V31.2083ZM50.2498 51.5208C50.6642 51.5208 51.0617 51.6855 51.3547 51.9785C51.6477 52.2715 51.8123 52.6689 51.8123 53.0833C51.8123 53.4977 51.6477 53.8952 51.3547 54.1882C51.0617 54.4812 50.6642 54.6458 50.2498 54.6458H37.7498C37.3354 54.6458 36.938 54.4812 36.645 54.1882C36.352 53.8952 36.1873 53.4977 36.1873 53.0833C36.1873 52.6689 36.352 52.2715 36.645 51.9785C36.938 51.6855 37.3354 51.5208 37.7498 51.5208H50.2498ZM50.2498 59.8542C50.6642 59.8542 51.0617 60.0188 51.3547 60.3118C51.6477 60.6048 51.8123 61.0023 51.8123 61.4167C51.8123 61.8311 51.6477 62.2285 51.3547 62.5215C51.0617 62.8145 50.6642 62.9792 50.2498 62.9792H37.7498C37.3354 62.9792 36.938 62.8145 36.645 62.5215C36.352 62.2285 36.1873 61.8311 36.1873 61.4167C36.1873 61.0023 36.352 60.6048 36.645 60.3118C36.938 60.0188 37.3354 59.8542 37.7498 59.8542H50.2498Z" fill="#1B3B7B"/>
<path d="M51.8125 31.883C51.8125 31.4997 52.2146 31.256 52.5125 31.4955C52.7646 31.6997 52.9917 31.9372 53.1854 32.208L59.4625 40.9518C59.6042 41.1518 59.45 41.4101 59.2042 41.4101H52.3333C52.1952 41.4101 52.0627 41.3553 51.965 41.2576C51.8674 41.1599 51.8125 41.0274 51.8125 40.8893V31.883Z" fill="#1B3B7B"/>
<defs>
<filter id="filter0_d_1244_1712" x="0" y="0" width="88" height="104" filterUnits="userSpaceOnUse" color-interpolation-filters="sRGB">
<feFlood flood-opacity="0" result="BackgroundImageFix"/>
<feColorMatrix in="SourceAlpha" type="matrix" values="0 0 0 0 0 0 0 0 0 0 0 0 0 0 0 0 0 0 127 0" result="hardAlpha"/>
<feOffset dy="1"/>
<feGaussianBlur stdDeviation="2"/>
<feComposite in2="hardAlpha" operator="out"/>
<feColorMatrix type="matrix" values="0 0 0 0 0 0 0 0 0 0 0 0 0 0 0 0 0 0 0.16 0"/>
<feBlend mode="normal" in2="BackgroundImageFix" result="effect1_dropShadow_1244_1712"/>
<feBlend mode="normal" in="SourceGraphic" in2="effect1_dropShadow_1244_1712" result="shape"/>
</filter>
</defs>
</svg>
