<svg width="400" height="300" viewBox="0 0 400 300" fill="none" xmlns="http://www.w3.org/2000/svg">
<path d="M291.608 132.621C288.217 152.679 298.642 168.961 298.642 168.961C305.379 153.543 291.608 132.621 291.608 132.621Z" fill="white"/>
<path d="M299.42 178.128C321.043 186.973 341.599 177.888 341.599 177.888C325.928 165.983 299.42 178.128 299.42 178.128Z" fill="white"/>
<path d="M338 131.366C337.696 131.043 325.562 143.27 310.9 158.67C296.233 174.075 284.593 186.82 284.896 187.142C285.2 187.464 297.333 175.241 312 159.835C326.661 144.436 338.303 131.688 338 131.366Z" fill="white"/>
<path d="M377.761 99.4941C377.761 99.4941 342.351 105.637 332.543 137.851C332.543 137.851 362.825 133.049 377.761 99.4941Z" fill="white"/>
<path d="M326.959 93.9043C326.959 93.9043 302.003 121.113 312.323 153.153C312.323 153.153 333.922 130.247 326.959 93.9043Z" fill="white"/>
<path d="M381.611 150.925C352.455 138.446 326.023 150.439 326.023 150.439C347.551 166.965 381.611 150.925 381.611 150.925Z" fill="white"/>
<path d="M65.6865 151.762C69.2972 162.723 64.8377 172.743 64.8377 172.743C59.7455 164.669 65.6865 151.762 65.6865 151.762Z" fill="white"/>
<path d="M65.1825 177.949C53.8084 184.751 41.5059 181.408 41.5059 181.408C49.2808 173.395 65.1825 177.949 65.1825 177.949Z" fill="white"/>
<path d="M39.5606 155.009C39.7036 154.802 47.5508 160.626 57.0862 168.014C66.6248 175.404 74.239 181.561 74.0961 181.767C73.9534 181.973 66.1075 176.151 56.569 168.762C47.0337 161.374 39.4178 155.215 39.5606 155.009Z" fill="white"/>
<path d="M14.5469 140.521C14.5469 140.521 34.93 140.95 43.1755 158.181C43.1755 158.181 25.7827 158.068 14.5469 140.521Z" fill="white"/>
<path d="M42.5629 133.059C42.5629 133.059 58.8784 146.192 55.8196 165.041C55.8196 165.041 41.7545 154.035 42.5629 133.059Z" fill="white"/>
<path d="M16.7676 169.696C32.0566 160.213 47.9028 164.688 47.9028 164.688C37.2368 175.79 16.7676 169.696 16.7676 169.696Z" fill="white"/>
<path d="M288.754 132.48C287.571 129.81 287.304 126.855 286.522 124.051C286.103 122.544 285.397 120.942 283.985 120.274C282.992 119.976 281.979 119.747 280.954 119.588C277.387 118.52 276.414 113.542 273.038 111.998C271.948 111.592 270.804 111.353 269.643 111.292C265.123 110.758 260.45 109.194 257.608 105.647C256.797 104.413 255.864 103.262 254.824 102.214C253.66 101.279 251.867 100.879 250.742 101.833C251.696 103.739 252.63 105.647 253.565 107.535C254.307 109.306 255.381 110.918 256.731 112.283C258.18 113.561 260.317 114.23 262.052 113.428C262.58 113.058 263.2 112.84 263.845 112.798C264.311 112.895 264.725 113.16 265.008 113.542C267.469 116.269 266.668 120.789 264.265 123.574C261.88 126.34 258.332 127.789 254.919 129.143C253.739 129.733 252.419 129.99 251.104 129.887C248.739 129.448 247.48 126.874 246.794 124.566C245.249 119.454 244.505 113.905 241.339 109.594C240.328 108.24 239.07 107.001 238.459 105.418C237.811 103.701 237.963 101.699 236.933 100.192C235.865 98.6097 233.595 97.6937 233.443 95.7865C233.348 94.4515 234.453 93.2689 235.674 92.6966C236.895 92.1061 238.268 91.9339 239.528 91.4196C240.024 91.2093 240.576 90.8474 240.595 90.3132C240.595 89.5124 239.489 89.1877 239.203 88.444C238.897 87.6051 239.756 86.8225 240.118 86.0026C240.901 84.1335 238.954 82.2455 237.066 81.4829C235.198 80.7201 232.928 80.1669 232.05 78.3359C231.731 77.4569 231.526 76.5404 231.441 75.6089C231.002 73.3013 229.304 71.0699 226.978 70.6883C224.631 70.3068 222.038 72.3856 222.419 74.7124C222.648 75.9902 223.601 76.9819 224.116 78.1643C224.65 79.3467 224.498 81.1014 223.277 81.4829C221.274 82.0931 219.348 78.4315 217.67 79.69C218.357 82.036 219.024 84.3819 219.711 86.7463C217.079 88.0813 213.932 85.6598 212.806 82.9136C211.681 80.1859 211.643 77.058 210.308 74.4261C208.973 71.7755 205.368 69.8112 203.079 71.6798C202.964 75.0748 207.447 76.4479 209.431 79.1943C210.861 81.1777 210.65 84.401 208.534 85.6598C206.436 86.9186 203.099 84.7248 203.899 82.4173C204.185 81.6163 204.853 80.9487 204.929 80.0906C205.006 79.0226 204.109 78.1643 203.289 77.4777C202.011 76.3905 200.732 75.3225 199.455 74.2545C198.671 73.5045 197.743 72.9206 196.728 72.5379C194.096 71.7755 191.464 73.9113 190.072 76.257C188.679 78.6222 187.897 81.3874 185.971 83.3517C183.205 86.213 177.961 86.3844 175.367 83.3898C172.754 80.3957 174.088 74.7888 177.922 73.7017C179.372 73.3013 181.203 73.3394 181.966 72.0614C183.301 69.7919 179.486 66.8929 180.802 64.6042C181.813 62.85 184.483 63.6511 186.429 63.0596C188.355 62.4683 189.442 60.523 190.586 58.8449C191.712 57.1854 193.486 55.5073 195.469 55.9457C195.201 54.7929 195.274 53.5871 195.679 52.4749C196.193 51.4071 197.643 50.7201 198.597 51.4071C197.624 53.0088 198.788 55.2401 200.485 56.0411C202.183 56.8424 204.166 56.6516 206.035 56.4417C207.904 56.213 210.251 55.5264 210.403 53.6572C210.461 53.0468 210.231 52.3987 210.461 51.8263C211.281 49.5949 215.4 52.6655 216.983 50.8728C217.899 49.9384 216.888 48.2788 215.609 47.9738C214.351 47.6497 213.035 48.1264 211.738 48.1645C210.441 48.2217 208.858 47.5352 208.8 46.2384C208.744 44.9604 210.174 44.045 210.327 42.7866C210.575 40.6505 206.951 40.0974 205.673 41.8328C204.414 43.5682 204.853 45.9524 205.234 48.0693C205.634 50.1862 205.826 52.6846 204.261 54.1721C203.594 55.1829 201.859 54.6488 201.287 53.5812C200.694 52.513 200.829 51.216 200.732 50.0146C200.638 48.7938 200.104 47.4207 198.921 47.0965C198.101 46.8676 197.224 47.2681 196.385 47.3826C193.066 47.7831 190.758 43.4923 191.807 40.3264C192.837 37.1411 195.851 35.1005 198.769 33.4796C200.905 32.297 203.556 31.1907 205.673 32.3923C206.665 32.9452 207.351 33.8989 208.324 34.4713C210.002 35.4628 212.082 35.1005 214.008 35.1386C217.062 35.2235 219.994 36.3623 222.304 38.362C223.163 39.1436 223.964 40.4407 223.296 41.3753C222.572 42.3668 220.493 42.5766 220.855 43.74C221.417 43.8954 222.004 43.9305 222.579 43.843C223.156 43.7556 223.706 43.5475 224.196 43.2324C224.685 42.9173 225.104 42.5023 225.422 42.0146C225.74 41.5269 225.952 40.9775 226.043 40.4024C226.594 40.6565 227.07 41.051 227.421 41.5462C227.773 42.0415 227.988 42.6204 228.045 43.225C228.673 42.6455 229.414 42.2027 230.222 41.9244C231.03 41.6463 231.887 41.5387 232.738 41.6086C233.59 41.6785 234.418 41.9244 235.169 42.3307C235.921 42.7369 236.58 43.2947 237.105 43.9688C237.533 44.7803 238.101 45.51 238.783 46.1241C239.547 46.6199 240.881 46.3718 240.977 45.4754C240.993 45.1876 240.94 44.8999 240.824 44.6362C240.366 43.3393 239.889 42.0618 239.431 40.7839C241.205 39.8303 243.304 41.318 244.505 42.92C248.968 48.8895 252.154 45.3038 258.447 46.2766C262.7 46.9249 264.569 49.6521 266.973 52.9518C274.335 63.0978 284.062 71.4131 290.756 82.0169C291.462 83.1231 292.111 84.2478 292.721 85.3923C292.607 85.1066 292.511 84.82 292.396 84.5343C289.781 77.6516 286.525 71.03 282.67 64.757C281.85 63.4221 281.011 62.1061 280.152 60.8093C279.618 60.0081 279.065 59.188 278.512 58.4061C277.807 57.3761 277.062 56.3846 276.318 55.3929C275.727 54.5917 275.136 53.8098 274.525 53.0468C274.106 52.513 273.667 51.9788 273.229 51.445C272.771 50.8348 272.275 50.2434 271.741 49.6521L270.139 47.8022C269.978 47.6021 269.806 47.4111 269.624 47.23C269.071 46.5816 268.48 45.9524 267.889 45.3228C267.847 45.2464 267.788 45.1811 267.716 45.1322C267.564 44.9604 267.393 44.7889 267.22 44.6173C266.744 44.0831 266.229 43.5682 265.733 43.0534C264.913 42.2143 264.073 41.3753 263.215 40.574C262.51 39.8685 261.785 39.2009 261.041 38.5335C260.393 37.9422 259.744 37.3508 259.077 36.7788C258.428 36.2067 257.78 35.6536 257.112 35.1005C256.311 34.414 255.491 33.7462 254.651 33.0788H254.632C252.325 31.2288 249.947 29.4805 247.499 27.834C246.89 27.4146 246.298 27.0141 245.687 26.6138C245.077 26.1939 244.448 25.8125 243.837 25.4309C243.208 25.0497 242.598 24.6492 241.968 24.2869C241.339 23.8863 240.709 23.5239 240.08 23.1614C239.565 22.8565 239.07 22.5703 238.554 22.3032C238.302 22.1427 238.041 21.9962 237.773 21.8646C236.685 21.2544 235.579 20.6629 234.473 20.1102C233.92 19.824 233.366 19.5381 232.795 19.2709C232.089 18.9085 231.364 18.5651 230.639 18.241C230.537 18.1789 230.428 18.1277 230.315 18.0884C229.667 17.7834 229.018 17.4783 228.35 17.1921C227.416 16.7916 226.482 16.3913 225.547 16.0097C224.479 15.571 223.411 15.1325 222.323 14.7317C221.122 14.2743 219.92 13.8355 218.699 13.435C217.479 13.0156 216.239 12.6149 215 12.2333C213.759 11.8519 212.52 11.5086 211.261 11.1654C208.782 10.4979 206.265 9.90664 203.727 9.39177C203.69 9.37281 203.632 9.37281 203.594 9.35359C202.622 9.16303 201.648 8.97223 200.676 8.81985C200.614 8.79972 200.55 8.7868 200.485 8.7815C200.066 8.70523 199.627 8.62912 199.188 8.57181C197.376 8.26658 195.545 8.01869 193.695 7.80881C193.486 7.77098 193.257 7.75185 193.027 7.73262C192.494 7.65633 191.96 7.61815 191.407 7.561C190.186 7.44645 188.965 7.35112 187.725 7.27484C186.448 7.17951 185.151 7.12236 183.854 7.08427C182.5 7.02695 181.146 7.00781 179.792 7.00781C176.206 7.00781 172.658 7.16038 169.148 7.48454C168.309 7.54187 167.489 7.61815 166.67 7.71366C165.811 7.80881 164.953 7.90423 164.095 8.01869C163.236 8.13298 162.378 8.24762 161.538 8.38125C160.68 8.5145 159.841 8.64792 158.983 8.80071C158.258 8.91492 157.514 9.04858 156.79 9.20121C154.997 9.5444 153.223 9.92577 151.469 10.3454C150.648 10.5361 149.828 10.746 149.008 10.9748C148.188 11.1845 147.368 11.4134 146.567 11.6425C145.212 12.0237 143.897 12.4433 142.58 12.8629H142.561C141.494 13.2253 140.406 13.5878 139.358 13.9502C139.329 13.9548 139.302 13.968 139.281 13.988C138.193 14.3695 137.145 14.77 136.077 15.1895C136.019 15.2086 135.962 15.2275 135.905 15.2468C134.932 15.6283 133.96 16.0287 133.006 16.4295C131.804 16.9253 130.622 17.4593 129.458 17.9933C128.467 18.4509 127.494 18.9085 126.54 19.3856C125.51 19.9004 124.481 20.4152 123.47 20.9494L123.355 21.0067C122.382 21.5214 121.41 22.0555 120.456 22.6083C119.465 23.1614 118.491 23.7336 117.519 24.3442H117.499C116.584 24.8972 115.688 25.4501 114.791 26.0223C114.448 26.2322 114.124 26.4612 113.781 26.6897C112.827 27.3003 111.911 27.9293 110.977 28.5779C109.832 29.3599 108.726 30.1798 107.62 31.0001C106.647 31.7249 105.694 32.4685 104.759 33.2124C99.3635 37.5091 94.3474 42.2627 89.7685 47.4207C88.147 49.2135 86.6215 51.0445 85.1333 52.9133C83.8745 54.5153 82.6542 56.1367 81.4903 57.815C80.4416 59.2738 79.4301 60.7598 78.4556 62.2728C79.4305 60.7614 80.4421 59.2754 81.4903 57.815C81.7958 57.7769 82.1009 57.7385 82.4059 57.7196C84.1221 57.5861 85.9342 57.6434 87.4795 56.8995C88.9097 56.1938 89.9209 54.9158 91.2178 54.0006C94.5362 51.6356 99.9722 51.1969 100.868 47.23C101.174 45.895 100.811 44.4457 101.306 43.1678C102.241 40.7839 105.426 40.4407 107.982 40.4789C109.07 40.4789 110.347 40.6313 110.843 41.5847C110.98 41.941 111.041 42.322 111.021 42.7031C111.002 43.0842 110.901 43.457 110.729 43.7972C109.132 48.2813 106.041 52.0793 101.975 54.5535C98.6555 56.5753 94.3259 58.1391 93.4108 61.9151C93.8687 63.193 96.1958 63.0978 96.3863 64.4326C96.5197 65.5008 95.1466 66.0537 94.6505 67.0076C93.9259 68.3997 95.5855 70.0971 97.1681 70.0206C98.7515 69.9444 100.067 68.8001 101.231 67.7321C104.702 64.509 108.345 61.0379 109.604 56.4608C110.138 54.5727 110.328 52.3603 111.854 51.1015C112.325 50.7697 112.867 50.5516 113.436 50.4643C114.006 50.3771 114.588 50.4231 115.137 50.5987C115.686 50.7742 116.187 51.0746 116.6 51.4762C117.013 51.8778 117.328 52.3697 117.519 52.9133C119.026 52.0744 121.372 51.445 122.154 53.0088C122.329 53.5922 122.438 54.1936 122.477 54.8015C122.973 57.2427 126.312 58.3487 126.655 60.8093C127.055 63.651 123.412 65.1193 120.57 65.558C117.995 65.9583 115.421 66.3588 112.846 66.7786C111.711 66.8618 110.612 67.2148 109.642 67.8084C109.165 68.1232 108.81 68.5921 108.636 69.137C108.463 69.6818 108.481 70.2697 108.688 70.8025C109.073 71.315 109.522 71.7765 110.024 72.1758C112.159 74.3118 110.405 78.7174 107.392 78.8129C106.361 78.851 105.35 78.4696 104.321 78.4315C101.269 78.2979 98.8468 80.9871 97.3975 83.6763C95.9474 86.3654 94.86 89.4362 92.4194 91.2664C88.4898 94.2229 81.7193 93.5364 79.812 98.0755C79.0489 99.9057 79.4497 101.965 79.7547 103.93C80.0601 105.876 80.1934 108.05 79.0489 109.671C77.9239 111.273 74.9865 111.616 74.1475 109.824C73.8612 109.007 73.8214 108.125 74.0331 107.286C74.4907 104.464 74.9292 101.642 75.3682 98.8192C75.6922 96.7206 75.9785 94.3753 74.7388 92.6585C73.0032 90.256 69.1122 90.4846 66.8614 92.4109C64.6301 94.3372 63.6956 97.3509 63.0664 100.23C62.6391 102.836 61.9093 105.383 60.8919 107.82C60.4913 110.186 60.1669 112.589 59.9191 115.011C59.6711 117.49 59.4994 119.95 59.4043 122.468C59.7477 122.184 60.0727 121.878 60.377 121.552C61.5785 120.312 64.0009 115.068 66.1751 117.642C66.4449 117.979 66.595 118.397 66.6019 118.828C66.6089 119.26 66.4721 119.681 66.2132 120.027C65.5458 120.885 64.2104 121.076 63.6956 122.01C63.0664 123.117 63.9436 124.49 64.9736 125.214C66.0033 125.958 67.262 126.416 67.987 127.464C69.3792 129.467 68.0444 132.5 69.3983 134.54C70.5616 136.295 73.0411 136.409 75.1582 136.638C75.4063 136.677 75.6352 136.715 75.883 136.753C76.4744 132.557 78.4389 129.143 84.1611 127.846C92.0567 126.053 102.433 132.595 106.876 138.545C111.835 145.202 114.181 154.623 121.772 157.96C127.208 160.345 134.932 159.486 137.583 164.807C139.948 169.575 135.829 174.934 135.2 180.217C134.799 183.707 135.943 187.178 136.21 190.668C136.458 194.177 135.428 198.259 132.243 199.728C130.469 200.529 128.238 200.433 126.807 201.768C124.27 204.171 126.35 209.13 123.812 211.533C122.824 212.247 121.738 212.818 120.589 213.23C114.887 216.11 115.04 224.501 117.691 230.318C117.786 230.529 117.881 230.719 117.976 230.929C136.661 242.097 158.023 247.995 179.792 247.998C199.512 248.026 218.935 243.192 236.342 233.923H236.361C240.023 231.965 243.582 229.82 247.022 227.496C252.325 223.937 257.332 219.958 261.995 215.595C265.224 212.586 268.28 209.396 271.15 206.04C273.171 203.714 275.079 201.291 276.91 198.812C277.844 197.535 278.76 196.256 279.618 194.94C286.086 185.443 291.135 175.054 294.609 164.101C296.748 157.444 298.286 150.608 299.206 143.676C299.568 140.967 299.854 138.221 300.045 135.456C298.779 136.787 297.037 137.562 295.2 137.611C292.302 137.573 289.918 135.15 288.754 132.48Z" fill="#FAFAFA"/>
<path d="M151.014 38.5451C148.626 39.9721 147.356 42.6667 145.514 44.7514C143.673 46.8365 140.368 48.3222 138.193 46.5874C137.698 46.135 137.299 45.5883 137.018 44.9792C136.737 44.3701 136.581 43.711 136.559 43.0407C136.391 41.109 136.846 39.1745 137.855 37.5195C138.894 35.8279 140.478 34.4968 141.357 32.7171C142.236 30.9373 142.056 28.332 140.255 27.4971C139.281 27.0456 138.056 27.2227 137.191 26.5858C135.638 25.4409 136.75 22.7362 138.554 22.0529C140.36 21.3699 142.362 21.8993 144.289 22.022C151.275 22.4678 156.412 17.8934 161.664 14.0943C165.748 11.1393 174.448 7.64951 179.176 10.6683C181.062 11.8726 181.799 14.9689 180.022 16.3296C179.227 16.9382 178.13 17.0741 177.39 17.7482C176.502 18.5569 176.377 19.8855 175.868 20.9737C174.546 23.8009 170.732 24.8276 169.505 27.6976C168.766 29.425 169.099 31.5739 167.96 33.0684C167.056 34.253 165.49 34.6715 164.041 35.0158C161.004 35.7377 157.967 36.4597 154.93 37.1817C153.563 37.4346 152.243 37.8944 151.014 38.5451Z" fill="#EBEBEB"/>
<path d="M232.455 186.886C229.432 191.441 228.884 197.132 228.046 202.532C227.206 207.933 225.766 213.672 221.616 217.229C217.465 220.785 209.843 220.575 207.56 215.609C206.319 212.914 206.955 209.736 206.279 206.847C205.398 203.084 202.402 200.179 200.981 196.586C199.768 193.519 199.765 190.132 199.667 186.837C199.126 168.828 194.734 150.032 182.472 136.83C180.966 135.208 179.256 133.629 177.117 133.06C175.835 132.742 174.488 132.802 173.239 133.233C171.99 133.664 170.894 134.447 170.08 135.487C169.096 136.79 168.587 138.453 167.382 139.554C164.761 141.947 160.187 140.232 158.437 137.146C156.687 134.059 156.929 130.276 157.222 126.74C157.585 122.356 157.947 117.971 158.311 113.587C158.5 111.294 158.758 108.832 160.263 107.091C162.404 104.617 166.243 104.5 168.862 102.538C172.295 99.9656 172.753 95.0596 174.918 91.356C177.083 87.6525 183.86 86.0865 184.862 90.2579C192.029 74.9165 207.87 97.708 217.29 95.9946C220.024 95.4968 222.698 94.1834 225.45 94.5676C230.313 95.2484 232.823 100.605 234.478 105.228C237.224 112.9 239.97 120.573 242.717 128.245C243.763 131.167 245.114 134.416 248.008 135.538C250.226 136.398 252.804 135.742 255.04 136.555C260.95 138.706 259.029 148.008 254.272 152.123C249.516 156.238 242.839 158.835 240.578 164.704C238.875 169.126 240.234 174.307 238.4 178.676C237.088 181.802 234.33 184.062 232.455 186.886Z" fill="#EBEBEB"/>
<path d="M254.894 191.888C252.952 192.159 250.66 191.201 249.183 192.492C248.322 193.246 248.131 194.482 247.789 195.574C247.361 197.121 246.382 198.458 245.037 199.333C244.36 199.754 243.576 199.971 242.779 199.956C241.982 199.942 241.206 199.697 240.545 199.252C239.912 198.77 239.493 198.061 239.378 197.274C239.263 196.487 239.46 195.687 239.928 195.044C240.463 194.559 241.023 194.101 241.604 193.674C244.183 191.237 242.417 186.72 244.377 183.823C245.533 182.115 247.353 180.382 248.623 178.651C249.599 177.321 249.957 176.265 251.752 175.912C259.609 174.365 263.159 190.73 254.894 191.888Z" fill="#EBEBEB"/>
<g opacity="0.6">
<path opacity="0.6" d="M112.705 227.594C113.719 228.278 114.745 228.944 115.783 229.594C114.744 228.945 113.718 228.279 112.705 227.594Z" fill="#263238"/>
</g>
<path d="M75.0251 159.181C74.6438 155.729 75.7884 152.277 75.8454 148.787C75.8835 146.384 75.7118 143.847 75.6737 141.425C73.6107 141.33 71.5611 141.044 69.5515 140.567C69.1206 140.515 68.7218 140.312 68.4265 139.994C68.2187 139.603 68.1323 139.158 68.1782 138.717C68.0257 136.009 65.4126 134.216 63.0669 132.862C61.8927 132.127 60.6465 131.513 59.3477 131.031C59.3477 131.317 59.3477 131.584 59.3666 131.87C59.8218 144.949 62.4117 157.866 67.0338 170.11C69.0865 175.551 71.5477 180.83 74.396 185.901C75.5784 188.094 76.8754 190.249 78.2296 192.365C79.9078 194.978 81.6627 197.534 83.5505 199.994C85.3053 202.36 87.1745 204.667 89.1389 206.879C91.8296 209.947 94.6743 212.876 97.6648 215.652C100.316 218.132 103.081 220.484 105.961 222.709C99.3807 205.049 93.1828 187.025 81.9298 171.997C78.9735 168.068 75.5784 164.063 75.0251 159.181Z" fill="#EBEBEB"/>
<path d="M75.8826 136.754C75.6349 136.716 75.4059 136.677 75.1579 136.639C73.0406 136.41 70.5613 136.296 69.398 134.541C68.044 132.5 69.3789 129.468 67.9866 127.465C67.2616 126.417 66.0028 125.959 64.973 125.215C63.9432 124.49 63.0659 123.117 63.6953 122.011C64.2099 121.077 65.5454 120.885 66.2129 120.027C66.4717 119.682 66.6085 119.26 66.6015 118.829C66.5946 118.398 66.4444 117.98 66.1745 117.643C64.0005 115.069 61.5781 120.313 60.3768 121.553C60.0725 121.879 59.7475 122.185 59.4039 122.469V122.488C59.3849 122.716 59.3657 122.926 59.3657 123.155C59.3372 123.87 59.3396 124.602 59.3276 125.329C59.3156 126.056 59.2895 126.778 59.2895 127.504C59.2895 128.094 59.2798 128.065 59.2895 128.653C59.299 129.242 59.3276 130.45 59.3468 131.032C60.6455 131.514 61.8916 132.128 63.0659 132.863C65.4117 134.217 68.0249 136.009 68.1773 138.717C68.1315 139.159 68.2179 139.603 68.4256 139.996C68.721 140.313 69.1197 140.516 69.5507 140.568C71.5602 141.044 73.6098 141.332 75.6729 141.426" fill="#EBEBEB"/>
<path d="M75.6734 141.426C75.7115 143.847 75.8832 146.384 75.8451 148.787C75.7879 152.277 74.6434 155.73 75.025 159.181C75.5781 164.063 78.9732 168.068 81.9295 171.997C93.1824 187.026 99.3812 205.049 105.961 222.709H105.98C107.201 223.682 108.44 224.598 109.699 225.494C110.69 226.208 111.693 226.909 112.705 227.594C113.719 228.278 114.745 228.945 115.784 229.594C116.508 230.052 117.233 230.49 117.977 230.929C117.881 230.719 117.786 230.528 117.691 230.318C115.039 224.501 114.887 216.111 120.589 213.23C121.738 212.819 122.824 212.247 123.813 211.533C126.35 209.13 124.271 204.171 126.807 201.769C128.237 200.434 130.469 200.529 132.243 199.728C135.428 198.26 136.459 194.178 136.21 190.669C135.943 187.178 134.799 183.707 135.2 180.217C135.829 174.935 139.948 169.576 137.583 164.808C134.932 159.486 127.208 160.345 121.772 157.961C114.181 154.623 111.835 145.202 106.876 138.545C102.433 132.595 92.0569 126.053 84.1613 127.846C78.4391 129.143 76.4747 132.557 75.8832 136.753" fill="#EBEBEB"/>
<path d="M66.8621 92.4113C69.1129 90.485 73.0039 90.2564 74.7395 92.6589C75.9791 94.3756 75.6928 96.721 75.3688 98.8195C74.9298 101.642 74.4913 104.465 74.0338 107.287C73.8221 108.126 73.8619 109.008 74.1481 109.824C74.9872 111.616 77.9245 111.273 79.0496 109.671C80.194 108.05 80.0608 105.876 79.7554 103.931C79.4503 101.966 79.0496 99.9061 79.8127 98.0759C81.72 93.5367 88.4904 94.2233 92.42 91.2667C94.8614 89.4365 95.948 86.3657 97.3981 83.6767C98.8474 80.9874 101.27 78.2982 104.321 78.432C105.351 78.4701 106.362 78.8513 107.392 78.8132C110.405 78.7178 112.16 74.3121 110.024 72.1762C109.522 71.7768 109.074 71.3154 108.689 70.803C108.481 70.2701 108.463 69.6822 108.636 69.1374C108.81 68.5925 109.165 68.1236 109.642 67.8088C110.613 67.2152 111.712 66.8622 112.847 66.779C115.421 66.3592 117.996 65.9587 120.572 65.5583C123.413 65.1197 127.056 63.6514 126.655 60.8096C126.312 58.3491 122.974 57.2431 122.478 54.8019C122.438 54.1939 122.33 53.5925 122.154 53.0092C121.372 51.4454 119.026 52.0748 117.52 52.9138C117.329 52.3701 117.014 51.8782 116.601 51.4766C116.187 51.0749 115.686 50.7746 115.138 50.599C114.589 50.4234 114.007 50.3775 113.437 50.4648C112.867 50.552 112.326 50.7701 111.854 51.1019C110.329 52.3607 110.138 54.5731 109.604 56.4612C108.346 61.0383 104.702 64.5095 101.232 67.7325C100.068 68.8005 98.7521 69.9448 97.1687 70.021C95.5861 70.0975 93.9264 68.4002 94.6511 67.0079C95.1472 66.0542 96.5202 65.5011 96.3869 64.433C96.1964 63.0981 93.8693 63.1934 93.4113 61.9154C94.3273 58.1395 98.6561 56.5757 101.975 54.5539C106.042 52.0797 109.133 48.2817 110.73 43.7976C110.903 43.4573 111.002 43.0846 111.021 42.7035C111.041 42.3224 110.981 41.9414 110.844 41.5851C110.348 40.6316 109.07 40.4792 107.984 40.4792C105.427 40.4411 102.242 40.7843 101.308 43.1682C100.812 44.446 101.174 45.8954 100.869 47.2303C99.9728 51.1973 94.5368 51.6359 91.2184 54.001C89.9215 54.9162 88.9103 56.1942 87.4801 56.8999C85.9347 57.6437 84.1236 57.5865 82.4065 57.7199C82.1015 57.7389 81.7965 57.7772 81.4909 57.8153C80.4423 59.2743 79.4307 60.7602 78.4562 62.2731C77.4811 63.7847 76.541 65.3183 75.6358 66.8742C71.3276 74.2463 67.8236 82.0597 65.1839 90.1802C64.2494 93.0307 63.4246 95.9284 62.7094 98.8717C61.9941 101.813 61.3886 104.797 60.8926 107.822C61.91 105.384 62.6397 102.837 63.0671 100.231C63.6963 97.3512 64.6308 94.3375 66.8621 92.4113Z" fill="#EBEBEB"/>
<path d="M300.045 135.438C300.045 135.438 297.012 137.65 295.2 137.612C292.302 137.574 289.918 135.152 288.754 132.482C287.571 129.812 287.304 126.856 286.522 124.052C286.102 122.546 285.397 120.943 283.986 120.276C282.992 119.978 281.979 119.748 280.953 119.589C277.387 118.522 276.414 113.544 273.038 111.999C271.948 111.593 270.804 111.355 269.643 111.294C265.123 110.759 260.45 109.196 257.608 105.648C256.797 104.414 255.864 103.264 254.824 102.215C253.66 101.28 251.867 100.88 250.742 101.834C251.695 103.741 252.63 105.648 253.565 107.536C254.307 109.308 255.381 110.919 256.731 112.285C258.18 113.563 260.317 114.231 262.052 113.429C262.58 113.059 263.2 112.841 263.845 112.8C264.311 112.897 264.725 113.162 265.008 113.544C267.469 116.271 266.668 120.791 264.265 123.576C261.88 126.341 258.333 127.79 254.919 129.144C253.739 129.735 252.42 129.992 251.104 129.888C248.739 129.449 247.48 126.875 246.794 124.567C245.249 119.456 244.505 113.906 241.339 109.596C240.328 108.242 239.07 107.002 238.459 105.419C237.811 103.703 237.963 101.7 236.933 100.194C235.865 98.6111 233.595 97.6952 233.443 95.7879C233.348 94.4529 234.453 93.2703 235.674 92.6981C236.895 92.1076 238.268 91.9353 239.528 91.4211C240.024 91.2107 240.576 90.8488 240.595 90.3146C240.595 89.5138 239.489 89.1892 239.203 88.4455C238.897 87.6066 239.756 86.8239 240.118 86.0041C240.901 84.1349 238.954 82.247 237.066 81.4843C235.198 80.7215 232.928 80.1684 232.05 78.3373C231.73 77.4583 231.526 76.5417 231.441 75.6104C231.002 73.3027 229.304 71.0713 226.978 70.6897C224.631 70.3083 222.038 72.387 222.419 74.7138C222.648 75.9916 223.601 76.9834 224.116 78.1657C224.651 79.3482 224.498 81.1029 223.277 81.4843C221.274 82.0946 219.348 78.433 217.67 79.6914C218.357 82.0374 219.024 84.3834 219.711 86.7478C217.079 88.0828 213.932 85.6612 212.806 82.915C211.681 80.1873 211.643 77.0595 210.308 74.4275C208.973 71.777 205.368 69.8126 203.079 71.6813C202.964 75.0762 207.447 76.4494 209.431 79.1958C210.861 81.1791 210.651 84.4024 208.534 85.6612C206.436 86.92 203.099 84.7262 203.899 82.4187C204.185 81.6177 204.853 80.9502 204.929 80.092C205.006 79.024 204.109 78.1657 203.289 77.4792C202.011 76.392 200.733 75.3239 199.456 74.2559C198.671 73.5059 197.743 72.9221 196.728 72.5394C194.096 71.777 191.464 73.9127 190.072 76.2585C188.68 78.6235 187.897 81.3888 185.971 83.3531C183.205 86.2144 177.961 86.3859 175.367 83.3912C172.754 80.3971 174.088 74.7902 177.922 73.7031C179.372 73.3027 181.203 73.3408 181.966 72.0629C183.301 69.7933 179.486 66.8943 180.802 64.6056C181.813 62.8514 184.483 63.6524 186.429 63.061C188.355 62.4697 189.442 60.5244 190.586 58.8463C191.712 57.1868 193.486 55.5087 195.469 55.9472C195.201 54.7943 195.274 53.5886 195.679 52.4764C196.193 51.4085 197.644 50.7215 198.597 51.4085C197.624 53.0102 198.788 55.2415 200.485 56.0425C202.183 56.8438 204.166 56.653 206.035 56.4432C207.904 56.2144 210.251 55.5279 210.403 53.6586C210.461 53.0482 210.232 52.4001 210.461 51.8278C211.28 49.5964 215.4 52.6669 216.983 50.8742C217.899 49.9398 216.888 48.2803 215.61 47.9753C214.351 47.6511 213.035 48.1279 211.738 48.166C210.441 48.2231 208.858 47.5366 208.8 46.2398C208.744 44.9618 210.174 44.0465 210.327 42.7879C210.575 40.6519 206.951 40.0988 205.673 41.8342C204.415 43.5696 204.853 45.9537 205.234 48.0707C205.634 50.1877 205.826 52.6861 204.261 54.1736C203.594 55.1844 201.859 54.6502 201.287 53.5825C200.694 52.5145 200.829 51.2174 200.733 50.0161C200.638 48.7952 200.104 47.4221 198.921 47.098C198.101 46.869 197.224 47.2696 196.385 47.384C193.066 47.7845 190.758 43.4938 191.807 40.3278C192.837 37.1425 195.851 35.1019 198.769 33.481C200.905 32.2985 203.556 31.1921 205.673 32.3937C206.665 32.9467 207.351 33.9004 208.324 34.4727C210.002 35.4643 212.082 35.1019 214.008 35.14C217.062 35.2249 219.994 36.3637 222.304 38.3634C223.162 39.145 223.964 40.4421 223.297 41.3767C222.571 42.3683 220.493 42.5781 220.855 43.7415C221.417 43.8968 222.004 43.9319 222.579 43.8445C223.156 43.757 223.706 43.5489 224.196 43.2338C224.685 42.9188 225.104 42.5038 225.422 42.0161C225.74 41.5284 225.952 40.979 226.043 40.4038C226.594 40.658 227.07 41.0524 227.421 41.5477C227.773 42.043 227.988 42.6219 228.045 43.2264C228.673 42.647 229.414 42.2042 230.222 41.9259C231.03 41.6476 231.887 41.5401 232.738 41.61C233.59 41.6799 234.418 41.9258 235.169 42.3321C235.921 42.7383 236.58 43.2962 237.105 43.9703C237.533 44.7818 238.101 45.5114 238.783 46.1256C239.547 46.6213 240.881 46.3733 240.977 45.4769C240.993 45.189 240.94 44.9014 240.824 44.6377C240.366 43.3407 239.889 42.0633 239.432 40.7854C241.205 39.8317 243.304 41.3194 244.505 42.9214C248.968 48.8909 252.154 45.3053 258.447 46.278C262.7 46.9264 264.569 49.6535 266.973 52.9532C274.335 63.0991 284.063 71.4146 290.757 82.0183C291.462 83.1246 292.111 84.2492 292.721 85.3937V85.4136C293.293 86.9391 293.832 88.4745 294.34 90.0215C294.848 91.5685 295.325 93.1287 295.773 94.7014C296.963 98.5854 297.928 102.535 298.662 106.53C298.662 106.53 299.5 113.345 299.701 115.565C299.856 117.265 300.007 118.965 300.1 120.677C300.193 122.388 300.245 124.109 300.255 125.845L300.045 135.438Z" fill="#EBEBEB"/>
<path d="M300.78 127.503C300.78 127.503 300.746 126.839 300.706 125.542C300.686 124.891 300.662 124.086 300.633 123.125C300.61 122.165 300.584 121.049 300.462 119.789L300.129 115.559C299.971 114.005 299.72 112.315 299.493 110.479C298.883 106.263 298.062 102.082 297.035 97.9486C295.721 92.7801 294.066 87.7043 292.077 82.7554C289.739 76.8576 286.925 71.1602 283.662 65.7195C275.694 52.4256 265.272 40.7669 252.952 31.3639C237.986 19.9727 220.563 12.2404 202.075 8.78537C186.408 5.89328 170.327 6.0774 154.731 9.32748C143.607 11.6659 132.875 15.5828 122.861 20.9591C117.689 23.7529 112.716 26.9014 107.979 30.382C103.175 33.9816 98.6198 37.9038 94.3482 42.1214C90.0484 46.4772 86.0608 51.1305 82.4154 56.0469C78.7226 61.065 75.4296 66.3652 72.5667 71.8987C71.8723 73.3062 71.0871 74.6735 70.4629 76.1218C69.8137 77.558 69.1632 78.997 68.5115 80.4388C67.3458 83.3805 66.1405 86.3213 65.1791 89.3639C63.1375 95.4558 61.5988 101.705 60.5783 108.048C58.4724 120.923 58.4706 134.054 60.573 146.929C61.5935 153.274 63.1315 159.526 65.1714 165.621L65.9373 167.884L66.3197 169.014L66.7562 170.123C67.3395 171.602 67.9216 173.077 68.5026 174.549C69.1546 175.991 69.8053 177.43 70.4547 178.867C71.0773 180.316 71.8639 181.684 72.5582 183.091C75.4205 188.627 78.7137 193.929 82.4073 198.948C86.0525 203.867 90.0409 208.522 94.3415 212.879C98.614 217.097 103.169 221.021 107.974 224.621C117.33 231.549 127.638 237.091 138.578 241.075C143.857 242.96 149.253 244.498 154.732 245.68C170.332 248.93 186.414 249.114 202.082 246.22C220.571 242.764 237.994 235.03 252.959 223.637C265.279 214.233 275.699 202.575 283.665 189.28C286.928 183.84 289.742 178.143 292.079 172.246C294.067 167.298 295.723 162.222 297.036 157.053C298.063 152.922 298.884 148.74 299.493 144.526C299.721 142.69 299.971 141 300.129 139.446C300.251 137.89 300.362 136.479 300.462 135.217C300.584 133.956 300.61 132.841 300.633 131.881C300.662 130.921 300.686 130.116 300.706 129.465C300.746 128.168 300.78 127.503 300.78 127.503C300.78 127.503 300.779 128.168 300.754 129.466C300.741 130.116 300.724 130.922 300.705 131.883C300.689 132.845 300.671 133.961 300.556 135.222C300.463 136.486 300.36 137.898 300.245 139.458C300.095 141.013 299.852 142.706 299.632 144.545C299.038 148.768 298.231 152.957 297.213 157.098C295.913 162.279 294.268 167.367 292.288 172.329C289.959 178.243 287.151 183.958 283.891 189.415C275.929 202.756 265.5 214.46 253.161 223.901C238.164 235.347 220.695 243.122 202.154 246.604C186.435 249.52 170.298 249.347 154.645 246.094C143.479 243.754 132.704 239.828 122.65 234.436C117.456 231.633 112.463 228.474 107.706 224.982C102.882 221.37 98.3092 217.434 94.0194 213.2C89.7005 208.828 85.6964 204.157 82.0363 199.221C78.3272 194.184 75.0202 188.862 72.1458 183.306C71.4485 181.892 70.659 180.52 70.0334 179.065C69.3812 177.623 68.7279 176.178 68.0732 174.73C67.4896 173.253 66.9049 171.772 66.3192 170.289L65.8808 169.175L65.4967 168.041L64.7276 165.768C62.6789 159.65 61.1344 153.375 60.1095 147.005C57.9982 134.079 58 120.898 60.1148 107.973C61.1398 101.605 62.6851 95.3316 64.7353 89.2157C65.701 86.1623 66.9111 83.2099 68.0821 80.2569C68.7365 78.8096 69.3896 77.3652 70.0416 75.9234C70.6688 74.4698 71.4568 73.0972 72.1544 71.6845C75.0294 66.1302 78.3362 60.8105 82.0444 55.7741C85.7047 50.84 89.7088 46.1703 94.026 41.7995C98.315 37.5674 102.888 33.6322 107.711 30.0211C117.104 23.073 127.45 17.5169 138.43 13.5247C143.729 11.6364 149.144 10.0958 154.643 8.91282C170.294 5.6609 186.429 5.48745 202.147 8.40218C220.688 11.8825 238.156 19.6558 253.153 31.0996C265.493 40.5405 275.924 52.2439 283.887 65.585C287.147 71.0426 289.956 76.7574 292.285 82.6724C294.266 87.6339 295.912 92.7229 297.212 97.9039C298.23 102.046 299.037 106.236 299.632 110.459C299.852 112.298 300.095 113.992 300.245 115.547C300.36 117.106 300.463 118.518 300.556 119.783C300.671 121.045 300.689 122.161 300.705 123.123C300.724 124.083 300.741 124.889 300.754 125.541C300.779 126.839 300.78 127.503 300.78 127.503Z" fill="#263238"/>
<path d="M91.9258 163.56C120.221 141.338 197.433 98.0529 279.917 102.691" stroke="#B6B9BD" stroke-width="3" stroke-linecap="round" stroke-dasharray="10 10"/>
<path d="M98.9671 149.663C98.9696 148.293 98.6557 146.941 98.0503 145.712C97.4458 144.483 96.5646 143.41 95.4772 142.577C94.3899 141.744 93.1253 141.173 91.7803 140.908C90.4362 140.644 89.0491 140.692 87.7273 141.051C86.4048 141.41 85.1832 142.069 84.1572 142.976C83.1311 143.884 82.3286 145.016 81.8114 146.285C81.2942 147.554 81.0767 148.924 81.1756 150.291C81.2746 151.656 81.6874 152.981 82.382 154.162H82.3769L82.4024 154.196C82.744 154.772 83.1716 155.183 83.6039 155.788L88.7758 162.639C88.9257 162.837 89.1203 162.998 89.3431 163.109C89.5658 163.22 89.811 163.278 90.0594 163.278C90.3087 163.278 90.5538 163.22 90.7766 163.109C90.9994 162.998 91.1932 162.836 91.3439 162.639L96.4288 155.901C96.8917 155.354 97.324 154.782 97.7224 154.187L97.7414 154.162H97.7373C98.5422 152.799 98.9671 151.246 98.9671 149.663ZM90.0594 153.54C89.2843 153.54 88.5265 153.311 87.8822 152.88C87.2371 152.45 86.7352 151.838 86.4379 151.121C86.1414 150.405 86.0636 149.617 86.2151 148.856C86.3667 148.096 86.7393 147.397 87.2876 146.85C87.8358 146.301 88.5348 145.928 89.295 145.776C90.0553 145.626 90.8437 145.703 91.56 146C92.2764 146.297 92.8884 146.798 93.3191 147.444C93.7497 148.088 93.9799 148.846 93.9799 149.621C93.9799 150.661 93.5667 151.658 92.8313 152.393C92.0967 153.128 91.0996 153.54 90.0594 153.54Z" fill="#00285A"/>
<path d="M299.712 71.3579C299.718 68.3151 299.021 65.312 297.677 62.5822C296.332 59.8525 294.376 57.4697 291.961 55.619C289.546 53.7683 286.736 52.4997 283.75 51.9118C280.765 51.3239 277.683 51.4326 274.747 52.2294C271.81 53.0262 269.096 54.4896 266.817 56.5059C264.539 58.5222 262.755 61.037 261.606 63.8547C260.458 66.6723 259.975 69.717 260.194 72.7519C260.414 75.7868 261.331 78.73 262.873 81.3528H262.862L262.919 81.4272C263.677 82.7056 264.628 83.6198 265.589 84.9631L277.076 100.179C277.409 100.62 277.84 100.978 278.335 101.225C278.829 101.471 279.375 101.599 279.927 101.599C280.48 101.599 281.026 101.471 281.52 101.224C282.015 100.978 282.446 100.62 282.779 100.179L294.075 85.2132C295.103 83.9991 296.062 82.7284 296.949 81.4068L296.989 81.3528H296.982C298.769 78.3252 299.712 74.8737 299.712 71.3579ZM279.927 79.9716C278.206 79.9716 276.522 79.461 275.09 78.5043C273.658 77.5476 272.542 76.1878 271.884 74.597C271.224 73.0061 271.052 71.2554 271.388 69.5666C271.724 67.8776 272.553 66.3262 273.771 65.1086C274.988 63.891 276.54 63.0618 278.229 62.7258C279.918 62.3899 281.668 62.5623 283.259 63.2213C284.851 63.8803 286.211 64.9962 287.167 66.428C288.124 67.8598 288.635 69.5431 288.635 71.2651C288.635 73.5742 287.717 75.7888 286.084 77.4215C284.452 79.0543 282.236 79.9716 279.927 79.9716Z" fill="#00285A"/>
<path d="M66.2676 192.11L109.614 170.025C111.419 169.104 113.517 168.939 115.445 169.565C117.372 170.192 118.972 171.558 119.892 173.364L148.413 229.333C148.868 230.227 149.143 231.203 149.222 232.203C149.301 233.203 149.181 234.21 148.872 235.164C148.561 236.119 148.067 237.002 147.415 237.765C146.763 238.528 145.967 239.155 145.073 239.611L101.727 261.697L66.2676 192.11Z" fill="#455A64"/>
<path d="M120.778 225.116C119.22 226.507 117.317 227.454 115.267 227.855C113.217 228.257 111.097 228.099 109.13 227.397C106.048 226.32 103.506 224.087 102.04 221.17C100.525 218.322 100.2 214.989 101.137 211.901C102.074 208.813 104.197 206.224 107.041 204.698C108.449 203.981 109.99 203.559 111.568 203.458C113.146 203.356 114.728 203.577 116.217 204.108C119.29 205.201 121.827 207.43 123.306 210.335C124.787 213.24 125.099 216.601 124.178 219.729C123.562 221.803 122.386 223.667 120.778 225.116ZM105.161 207.016C103.311 208.734 102.077 211.012 101.652 213.5C101.226 215.988 101.631 218.546 102.805 220.78C104.17 223.5 106.539 225.582 109.411 226.587C110.791 227.08 112.257 227.286 113.721 227.193C115.183 227.099 116.611 226.707 117.917 226.042C119.223 225.377 120.379 224.452 121.315 223.324C122.25 222.195 122.945 220.888 123.357 219.481C124.232 216.567 123.94 213.427 122.542 210.724C121.177 208.005 118.808 205.923 115.936 204.918C114.556 204.426 113.089 204.22 111.627 204.314C110.164 204.408 108.737 204.799 107.431 205.463C106.61 205.88 105.846 206.403 105.161 207.016Z" fill="white"/>
<path d="M122.579 209.877L101.938 220.394L102.327 221.159L122.969 210.641L122.579 209.877Z" fill="white"/>
<path d="M107.344 205.043L106.58 205.432L117.442 226.759L118.207 226.369L107.344 205.043Z" fill="white"/>
<path d="M118.173 226.678L117.365 226.39C118.478 223.609 119.009 220.63 118.93 217.635C118.675 214.439 117.294 211.436 115.031 209.164C112.85 207.112 109.763 206.249 107.039 205.489L107.269 204.662C110.089 205.45 113.285 206.342 115.619 208.54C118.052 210.954 119.532 214.165 119.786 217.583C119.856 220.692 119.307 223.783 118.173 226.678Z" fill="white"/>
<path d="M117.728 226.982C114.658 226.425 111.761 225.154 109.271 223.271C106.655 221.057 104.927 217.972 104.403 214.585C103.998 211.414 105.275 207.98 106.3 205.221L107.104 205.52C106.111 208.19 104.875 211.515 105.254 214.476C105.762 217.642 107.379 220.525 109.816 222.61C112.205 224.405 114.982 225.616 117.924 226.147L117.728 226.982Z" fill="white"/>
<path d="M115.449 207.859C111.445 211.442 106.411 213.665 101.067 214.212L100.982 213.358C107.306 212.712 113.133 209.639 117.237 204.785L117.893 205.337C117.139 206.234 116.322 207.077 115.449 207.859Z" fill="white"/>
<path d="M124.21 218.194C117.211 218.885 111.074 221.81 107.37 226.22L106.713 225.669C110.557 221.088 116.905 218.053 124.126 217.34L124.21 218.194Z" fill="white"/>
<path d="M105.493 259.907C105.438 259.935 97.482 244.432 87.7254 225.284C77.9648 206.13 70.0996 190.585 70.1546 190.557C70.2096 190.529 78.1639 206.028 87.9242 225.183C97.6815 244.33 105.548 259.878 105.493 259.907Z" fill="#263238"/>
<path d="M138.424 232.934C138.452 232.99 132.451 236.104 125.022 239.888C117.591 243.675 111.546 246.698 111.518 246.644C111.49 246.589 117.49 243.476 124.921 239.69C132.349 235.904 138.396 232.88 138.424 232.934Z" fill="white"/>
<path d="M136.405 237.181C136.433 237.236 131.985 239.558 126.472 242.367C120.957 245.177 116.465 247.409 116.438 247.355C116.409 247.3 120.856 244.978 126.371 242.168C131.884 239.36 136.376 237.126 136.405 237.181Z" fill="white"/>
<path d="M89.8723 197.426C89.9766 197.613 90.0404 197.82 90.057 198.033C90.0743 198.246 90.0445 198.461 89.9716 198.662C89.8979 198.862 89.7812 199.045 89.6305 199.197C89.4789 199.348 89.2975 199.466 89.0963 199.541L88.5199 199.835L89.0126 200.803L88.0768 201.28L86.1895 197.577L87.7033 196.806C87.8814 196.687 88.0843 196.609 88.2963 196.576C88.5083 196.543 88.7244 196.557 88.9307 196.616C89.1369 196.674 89.3282 196.778 89.4905 196.918C89.6528 197.058 89.7828 197.231 89.8723 197.426ZM88.9265 197.908C88.8942 197.828 88.8437 197.757 88.7799 197.699C88.7162 197.642 88.64 197.599 88.5572 197.575C88.4743 197.551 88.3866 197.546 88.3021 197.561C88.2168 197.575 88.1365 197.609 88.0669 197.66L87.546 197.925L88.0992 199.009L88.6193 198.744C88.7004 198.717 88.775 198.673 88.8371 198.613C88.8984 198.553 88.9456 198.481 88.9754 198.4C89.0052 198.32 89.016 198.234 89.0077 198.148C88.9986 198.063 88.9712 197.981 88.9265 197.908Z" fill="white"/>
<path d="M93.2034 197.762L91.803 198.475L91.9098 199.327L90.9541 199.814L90.5293 195.366L91.4519 194.896L94.8042 197.852L93.8303 198.348L93.2034 197.762ZM92.5359 197.129L91.5065 196.161L91.6837 197.562L92.5359 197.129Z" fill="white"/>
<path d="M94.6699 197.501L94.5838 196.572C95.0194 196.639 95.4658 196.572 95.8624 196.38C96.2508 196.183 96.3395 195.984 96.2484 195.805C95.9494 195.217 94.2848 196.605 93.5834 195.229C93.2471 194.568 93.4542 193.783 94.438 193.281C94.8579 193.06 95.3308 192.96 95.8045 192.992L95.9113 193.916C95.5469 193.88 95.18 193.943 94.8488 194.099C94.4562 194.298 94.39 194.519 94.4844 194.704C94.7726 195.271 96.4347 193.89 97.1304 195.255C97.4591 195.9 97.2571 196.697 96.2724 197.198C95.7829 197.462 95.2231 197.568 94.6699 197.501Z" fill="white"/>
<path d="M97.7324 195.94L97.6463 195.012C98.0819 195.079 98.5283 195.012 98.9249 194.82C99.3125 194.622 99.402 194.424 99.31 194.243C99.0111 193.656 97.3465 195.044 96.6459 193.669C96.3096 193.008 96.5167 192.223 97.5005 191.721C97.9204 191.5 98.3933 191.399 98.8662 191.432L98.9738 192.356C98.6094 192.319 98.2417 192.382 97.9105 192.538C97.5187 192.738 97.4525 192.958 97.5469 193.144C97.8351 193.71 99.4972 192.329 100.193 193.694C100.522 194.339 100.319 195.136 99.3349 195.637C98.8446 195.901 98.2848 196.007 97.7324 195.94Z" fill="white"/>
<path d="M102.993 190.74C103.098 190.928 103.161 191.135 103.178 191.348C103.195 191.561 103.166 191.776 103.092 191.976C103.018 192.177 102.902 192.36 102.752 192.512C102.6 192.663 102.419 192.78 102.217 192.855L101.641 193.149L102.134 194.117L101.197 194.595L99.3105 190.891L100.824 190.12C101.002 190.002 101.205 189.923 101.417 189.891C101.629 189.858 101.846 189.871 102.052 189.931C102.258 189.989 102.448 190.092 102.612 190.232C102.774 190.372 102.904 190.546 102.993 190.74ZM102.048 191.222C102.015 191.143 101.965 191.072 101.901 191.014C101.837 190.956 101.76 190.914 101.677 190.89C101.595 190.866 101.508 190.861 101.423 190.875C101.338 190.89 101.258 190.924 101.187 190.974L100.667 191.239L101.22 192.324L101.74 192.058C101.822 192.032 101.896 191.987 101.957 191.928C102.019 191.868 102.067 191.796 102.096 191.715C102.125 191.635 102.137 191.549 102.128 191.463C102.12 191.378 102.092 191.296 102.048 191.222Z" fill="white"/>
<path d="M103.571 191.054C103.404 190.685 103.349 190.276 103.412 189.876C103.475 189.476 103.655 189.103 103.928 188.804C104.202 188.506 104.557 188.294 104.949 188.196C105.342 188.096 105.755 188.115 106.138 188.249C106.52 188.383 106.854 188.626 107.099 188.948C107.345 189.271 107.489 189.657 107.517 190.061C107.544 190.466 107.451 190.869 107.252 191.221C107.051 191.573 106.753 191.859 106.392 192.042C106.144 192.171 105.871 192.248 105.592 192.268C105.313 192.288 105.032 192.25 104.768 192.158C104.504 192.065 104.261 191.919 104.056 191.729C103.85 191.54 103.685 191.309 103.571 191.054ZM106.305 189.661C106.189 189.505 106.031 189.386 105.85 189.317C105.669 189.248 105.471 189.232 105.282 189.271C105.092 189.311 104.917 189.404 104.778 189.539C104.639 189.675 104.541 189.847 104.497 190.036C104.453 190.225 104.463 190.422 104.528 190.605C104.593 190.788 104.708 190.949 104.86 191.068C105.012 191.189 105.196 191.261 105.389 191.28C105.583 191.3 105.777 191.262 105.95 191.174C106.077 191.102 106.187 191.004 106.274 190.887C106.361 190.77 106.423 190.637 106.456 190.495C106.489 190.353 106.493 190.206 106.467 190.062C106.441 189.919 106.386 189.782 106.305 189.661Z" fill="white"/>
<path d="M109.636 189.056L109.125 189.316L109.626 190.301L108.689 190.778L106.803 187.075L108.317 186.303C108.495 186.185 108.698 186.107 108.91 186.074C109.122 186.042 109.338 186.055 109.544 186.114C109.75 186.172 109.941 186.276 110.104 186.416C110.266 186.556 110.396 186.729 110.486 186.924C110.62 187.153 110.686 187.416 110.677 187.681C110.668 187.947 110.582 188.204 110.433 188.423L111.74 189.223L110.737 189.734L109.636 189.056ZM108.68 187.158L108.159 187.423L108.712 188.507L109.233 188.242C109.31 188.21 109.379 188.162 109.437 188.1C109.494 188.04 109.539 187.968 109.568 187.889C109.596 187.81 109.609 187.727 109.604 187.643C109.599 187.56 109.576 187.478 109.538 187.403C109.5 187.328 109.447 187.263 109.382 187.209C109.318 187.156 109.242 187.117 109.162 187.094C109.082 187.071 108.997 187.064 108.915 187.076C108.832 187.087 108.751 187.115 108.68 187.158Z" fill="white"/>
<path d="M111.385 185.786L110.369 186.304L109.945 185.473L112.911 183.963L113.334 184.793L112.322 185.309L113.785 188.181L112.849 188.659L111.385 185.786Z" fill="white"/>
<path d="M132.248 207.703C132.35 208.161 132.361 208.636 132.278 209.098C132.195 209.559 132.021 210 131.765 210.394C131.509 210.787 131.177 211.126 130.788 211.388C130.399 211.652 129.962 211.835 129.502 211.927C129.502 211.927 128.922 208.512 132.248 207.703Z" fill="white"/>
<path d="M132.957 212.89C132.904 213.297 132.77 213.69 132.563 214.044C132.355 214.399 132.079 214.708 131.75 214.954C131.421 215.2 131.047 215.378 130.648 215.478C130.25 215.577 129.835 215.595 129.43 215.532C129.569 214.725 130.012 214.001 130.668 213.51C131.324 213.019 132.143 212.797 132.957 212.89Z" fill="white"/>
<path d="M132.322 217.392C132.149 217.796 131.898 218.159 131.582 218.463C131.266 218.767 130.893 219.005 130.484 219.163C130.075 219.32 129.639 219.394 129.201 219.381C128.763 219.367 128.332 219.266 127.934 219.083C127.934 219.083 129.365 216.184 132.322 217.392Z" fill="white"/>
<path d="M126.482 211.506C126.893 211.5 127.301 211.577 127.681 211.732C128.062 211.887 128.407 212.116 128.698 212.406C128.988 212.697 129.218 213.042 129.373 213.423C129.528 213.803 129.605 214.211 129.6 214.621C128.781 214.598 128.002 214.262 127.422 213.683C126.843 213.104 126.506 212.325 126.482 211.506Z" fill="white"/>
<path d="M127.568 214.902C127.848 215.049 128.095 215.251 128.294 215.496C128.494 215.741 128.641 216.025 128.728 216.328C128.815 216.632 128.839 216.95 128.8 217.263C128.76 217.577 128.656 217.879 128.496 218.151C127.952 217.836 127.55 217.32 127.377 216.714C127.204 216.108 127.272 215.459 127.568 214.902Z" fill="white"/>
<path d="M129.349 204.896C129.551 205.209 129.69 205.558 129.755 205.925C129.82 206.291 129.811 206.667 129.729 207.03C129.647 207.393 129.493 207.735 129.276 208.038C129.059 208.34 128.784 208.596 128.467 208.79C128.09 208.152 127.97 207.393 128.134 206.669C128.298 205.945 128.733 205.311 129.349 204.896Z" fill="white"/>
<path d="M124.482 204.374C124.846 204.358 125.209 204.416 125.55 204.543C125.89 204.67 126.203 204.864 126.467 205.114C126.731 205.364 126.942 205.665 127.088 205.998C127.234 206.331 127.311 206.69 127.316 207.054C126.59 207.054 125.892 206.777 125.365 206.278C124.838 205.78 124.522 205.098 124.482 204.374Z" fill="white"/>
<path d="M124.994 208.451C125.398 208.304 125.828 208.24 126.258 208.262C126.688 208.284 127.109 208.393 127.496 208.58C127.884 208.767 128.23 209.031 128.514 209.354C128.798 209.677 129.015 210.053 129.151 210.462C128.332 210.72 127.445 210.656 126.673 210.282C125.899 209.909 125.299 209.253 124.994 208.451Z" fill="white"/>
<path d="M126.393 220.785C126.393 220.785 126.402 220.775 126.422 220.757L126.51 220.678C126.587 220.608 126.705 220.509 126.845 220.369C127.245 219.98 127.607 219.552 127.923 219.092C128.39 218.408 128.764 217.664 129.037 216.882C129.198 216.42 129.328 215.948 129.424 215.469L129.488 215.09L129.521 214.898C129.53 214.834 129.535 214.769 129.543 214.704L129.584 214.309L129.604 213.908L129.612 213.707L129.61 213.506C129.608 213.374 129.608 213.241 129.604 213.11C129.595 212.979 129.586 212.849 129.577 212.72C129.572 212.656 129.569 212.591 129.563 212.527L129.538 212.338L129.491 211.962L129.423 211.598L129.389 211.419C129.379 211.36 129.362 211.302 129.348 211.244C129.32 211.127 129.292 211.013 129.264 210.899C129.052 210.098 128.744 209.326 128.347 208.598C128.077 208.109 127.769 207.642 127.426 207.201C127.302 207.048 127.201 206.932 127.135 206.852L127.059 206.76C127.043 206.739 127.034 206.729 127.034 206.729C127.034 206.729 127.044 206.738 127.062 206.758L127.14 206.847C127.208 206.926 127.31 207.041 127.437 207.193C128.306 208.284 128.938 209.543 129.294 210.891C129.323 211.004 129.352 211.119 129.38 211.236C129.394 211.294 129.41 211.352 129.421 211.412L129.455 211.592C129.477 211.712 129.501 211.834 129.524 211.957L129.572 212.333L129.597 212.524C129.603 212.588 129.607 212.652 129.612 212.717C129.621 212.847 129.63 212.977 129.639 213.109C129.643 213.24 129.643 213.373 129.645 213.506L129.647 213.707L129.639 213.909L129.619 214.312L129.577 214.708C129.569 214.773 129.564 214.839 129.554 214.903L129.522 215.095L129.458 215.476C129.361 215.957 129.231 216.43 129.067 216.892C128.793 217.677 128.415 218.421 127.943 219.105C127.624 219.566 127.259 219.992 126.854 220.378C126.712 220.517 126.594 220.615 126.514 220.683L126.424 220.76C126.403 220.777 126.393 220.785 126.393 220.785Z" fill="white"/>
<path d="M94.7324 226.818C95.043 227.171 95.4198 227.457 95.843 227.662C96.2653 227.866 96.7241 227.984 97.1929 228.009C97.6624 228.033 98.1312 227.963 98.5726 227.803C99.014 227.643 99.419 227.397 99.7635 227.079C99.7635 227.079 97.3419 224.602 94.7324 226.818Z" fill="white"/>
<path d="M98.5137 230.441C98.8739 230.637 99.2706 230.76 99.6789 230.8C100.088 230.841 100.5 230.799 100.893 230.678C101.286 230.557 101.65 230.359 101.965 230.095C102.279 229.83 102.538 229.506 102.725 229.14C101.989 228.779 101.144 228.712 100.36 228.953C99.5779 229.195 98.917 229.728 98.5137 230.441Z" fill="white"/>
<path d="M102.529 232.574C102.957 232.671 103.399 232.682 103.83 232.605C104.262 232.528 104.673 232.366 105.041 232.128C105.409 231.889 105.725 231.58 105.972 231.218C106.218 230.855 106.389 230.447 106.475 230.018C106.475 230.018 103.29 229.471 102.529 232.574Z" fill="white"/>
<path d="M101.197 224.389C100.952 224.718 100.775 225.093 100.676 225.492C100.578 225.89 100.559 226.305 100.624 226.711C100.688 227.117 100.833 227.505 101.049 227.854C101.266 228.203 101.55 228.505 101.885 228.742C102.348 228.066 102.534 227.238 102.406 226.429C102.279 225.619 101.846 224.89 101.197 224.389Z" fill="white"/>
<path d="M103.308 227.264C103.262 227.576 103.28 227.895 103.361 228.2C103.443 228.506 103.584 228.792 103.78 229.04C103.974 229.289 104.217 229.496 104.494 229.648C104.771 229.799 105.077 229.894 105.39 229.925C105.455 229.298 105.275 228.671 104.886 228.174C104.498 227.678 103.932 227.351 103.308 227.264Z" fill="white"/>
<path d="M94.166 222.824C94.3002 223.171 94.5014 223.488 94.7598 223.756C95.0174 224.024 95.3263 224.238 95.6683 224.385C96.0103 224.531 96.378 224.608 96.7507 224.611C97.1225 224.613 97.4911 224.541 97.8348 224.399C97.5399 223.718 96.9958 223.175 96.3134 222.883C95.6319 222.589 94.8633 222.569 94.166 222.824Z" fill="white"/>
<path d="M96.6034 218.578C96.3773 218.863 96.21 219.19 96.1131 219.54C96.0154 219.891 95.9897 220.258 96.0361 220.618C96.0833 220.979 96.2025 221.326 96.3864 221.64C96.5702 221.954 96.8145 222.228 97.106 222.445C97.5334 221.858 97.7197 221.13 97.6261 220.411C97.5325 219.692 97.1665 219.035 96.6034 218.578Z" fill="white"/>
<path d="M99.6007 221.389C99.2446 221.63 98.9399 221.939 98.7055 222.3C98.4703 222.662 98.3105 223.066 98.2343 223.489C98.1581 223.912 98.168 224.347 98.2624 224.767C98.3569 225.187 98.5341 225.583 98.7842 225.934C99.4749 225.423 99.9444 224.668 100.096 223.823C100.248 222.978 100.07 222.107 99.6007 221.389Z" fill="white"/>
<path d="M108.758 229.77C108.758 229.77 108.744 229.771 108.718 229.776L108.602 229.801C108.5 229.824 108.351 229.86 108.156 229.891C107.606 229.986 107.047 230.027 106.489 230.012C105.66 229.988 104.839 229.855 104.046 229.615C103.578 229.475 103.12 229.302 102.676 229.097C102.561 229.041 102.447 228.985 102.331 228.927L102.156 228.841C102.099 228.81 102.043 228.776 101.986 228.744C101.872 228.678 101.758 228.612 101.642 228.546L101.307 228.325L101.139 228.215L100.978 228.095C100.871 228.015 100.764 227.937 100.661 227.857L100.361 227.606C100.312 227.564 100.262 227.524 100.214 227.481L100.074 227.35C99.9817 227.262 99.8906 227.176 99.7995 227.091L99.5445 226.822L99.4186 226.689C99.3772 226.645 99.3399 226.598 99.301 226.552C99.224 226.461 99.1469 226.371 99.0716 226.282C98.5482 225.64 98.1043 224.937 97.749 224.188C97.5122 223.682 97.3151 223.159 97.1602 222.622C97.1097 222.431 97.0749 222.282 97.0484 222.181L97.0194 222.066C97.012 222.04 97.0078 222.027 97.0078 222.027C97.0078 222.027 97.0095 222.041 97.0153 222.067L97.0418 222.182C97.0658 222.284 97.0981 222.434 97.1469 222.626C97.5188 223.969 98.1656 225.222 99.0467 226.302C99.1221 226.392 99.1991 226.483 99.2761 226.574C99.3159 226.619 99.3523 226.668 99.3946 226.711L99.5204 226.844L99.7755 227.115C99.8666 227.2 99.9585 227.287 100.051 227.375L100.191 227.506C100.239 227.549 100.289 227.59 100.339 227.631C100.438 227.715 100.538 227.8 100.639 227.884C100.744 227.964 100.85 228.043 100.957 228.123L101.119 228.244L101.287 228.354C101.4 228.429 101.513 228.503 101.625 228.576L101.969 228.774C102.026 228.807 102.083 228.841 102.141 228.871L102.315 228.958C102.431 229.015 102.547 229.072 102.662 229.129C103.107 229.333 103.567 229.506 104.036 229.646C104.833 229.885 105.657 230.017 106.489 230.037C107.048 230.05 107.607 230.005 108.158 229.904C108.354 229.872 108.503 229.833 108.604 229.809L108.719 229.781C108.745 229.774 108.758 229.77 108.758 229.77Z" fill="white"/>
<path d="M319.48 283.85L317.429 288.996C317.429 288.996 287.557 266.206 264.519 268.143C263.942 268.566 263.275 268.854 262.571 268.982C261.867 269.111 261.142 269.079 260.452 268.888L251.873 266.763C251.012 266.564 250.223 266.132 249.59 265.515C248.958 264.897 248.508 264.118 248.288 263.261C248.288 263.261 230.898 248.893 207.326 251.125L198.545 251.495L235.706 189.939L337.126 206.287L319.48 283.85Z" fill="#455A64"/>
<path d="M327.314 278.249L323.898 287.605C323.898 287.605 295.919 260.14 256.861 266.189L280.269 223.605C280.269 223.605 327.925 267.808 327.314 278.249Z" fill="#EBEBEB"/>
<path d="M356.064 211.956C356.064 211.956 324.362 173.327 282.394 198.967L256.861 266.189C256.861 266.189 303.581 247.446 330.373 281.51L356.064 211.956Z" fill="white"/>
<path d="M356.062 211.957C356.062 211.957 355.923 212.387 355.622 213.226C355.315 214.077 354.866 215.319 354.281 216.936C353.088 220.203 351.345 224.974 349.126 231.049C344.647 243.239 338.251 260.649 330.56 281.58L330.437 281.917L330.214 281.635C322.456 271.663 311.319 264.871 298.9 262.539C292.132 261.246 285.211 260.94 278.355 261.632C274.803 261.965 271.276 262.516 267.793 263.281C264.238 264.038 260.739 265.035 257.319 266.266C257.194 266.314 257.069 266.361 256.948 266.408L256.453 266.596L256.64 266.106C265.931 241.675 274.675 218.679 282.199 198.894L282.224 198.828L282.284 198.791C287.28 195.693 292.697 193.331 298.368 191.779C308.066 189.147 318.331 189.491 327.832 192.767C331.59 194.047 335.214 195.693 338.652 197.68C343.478 200.469 347.959 203.817 352.002 207.653C353.403 208.981 354.417 210.061 355.084 210.802C355.419 211.172 355.665 211.46 355.826 211.656C355.989 211.849 356.062 211.957 356.062 211.957C356.062 211.957 355.972 211.866 355.801 211.677C355.622 211.482 355.367 211.207 355.035 210.846C354.353 210.121 353.325 209.057 351.913 207.747C347.844 203.96 343.354 200.653 338.53 197.892C335.098 195.931 331.484 194.309 327.738 193.048C318.291 189.827 308.095 189.514 298.467 192.147C292.837 193.702 287.459 196.058 282.501 199.145L282.586 199.042C275.078 218.832 266.351 241.834 257.079 266.273L256.772 265.972C256.897 265.924 257.025 265.875 257.154 265.826C260.595 264.587 264.116 263.584 267.693 262.823C271.195 262.055 274.741 261.502 278.311 261.169C285.213 260.475 292.178 260.788 298.99 262.096C311.507 264.458 322.726 271.32 330.529 281.387L330.183 281.442C337.933 260.569 344.379 243.21 348.892 231.055C351.16 224.985 352.94 220.216 354.159 216.952C354.77 215.333 355.239 214.088 355.561 213.236C355.882 212.393 356.062 211.957 356.062 211.957Z" fill="#263238"/>
<path d="M256.465 266.068C256.465 266.068 228.293 236.635 197.006 247.748L224.668 187.793L281.513 201.284L256.465 266.068Z" fill="#F5F5F5"/>
<path d="M256.629 266.894L256.138 266.38C255.858 266.088 227.808 237.289 197.156 248.174L196.146 248.533L224.412 187.27L224.771 187.355L282.12 200.965L281.934 201.448L256.629 266.894ZM211.452 244.816C234.251 244.816 253.035 262.086 256.293 265.261L280.905 201.605L224.922 188.318L197.857 246.981C202.244 245.54 206.834 244.809 211.452 244.816Z" fill="#263238"/>
<path d="M282.394 198.967C282.394 198.967 276.689 172.714 250.682 166.546L233.881 163.047L204.654 222.83C204.654 222.83 246.645 231.942 256.913 265.78L282.394 198.967Z" fill="white"/>
<path d="M282.393 198.968C282.393 198.968 282.364 199.074 282.29 199.281L281.956 200.203C281.647 201.03 281.199 202.232 280.617 203.797C279.426 206.956 277.69 211.563 275.484 217.415C271.031 229.151 264.688 245.869 257.104 265.854L256.891 266.417L256.714 265.84C255.246 261.1 253.093 256.6 250.325 252.482C249.638 251.397 248.819 250.389 248.056 249.331C247.211 248.337 246.424 247.278 245.505 246.321C243.705 244.32 241.775 242.44 239.728 240.693C231.421 233.599 221.041 228.143 209.773 224.506C208.052 223.96 206.315 223.459 204.603 223.06L204.312 222.992L204.442 222.727C215.196 200.759 225.21 180.304 233.7 162.959L233.768 162.82L233.921 162.852C238.694 163.852 243.258 164.808 247.613 165.721C251.773 166.437 255.811 167.735 259.609 169.578C265.744 172.686 271.014 177.262 274.953 182.899C277.494 186.484 279.55 190.391 281.064 194.517C281.587 195.942 281.92 197.056 282.125 197.812C282.328 198.568 282.393 198.968 282.393 198.968C282.393 198.968 282.361 198.872 282.308 198.68C282.25 198.477 282.169 198.196 282.065 197.829C281.841 197.08 281.489 195.974 280.95 194.56C279.394 190.467 277.315 186.593 274.764 183.033C270.821 177.458 265.566 172.937 259.464 169.87C255.685 168.053 251.669 166.776 247.534 166.077C243.187 165.177 238.621 164.233 233.839 163.243L234.059 163.135C225.587 180.487 215.595 200.954 204.864 222.933L204.703 222.601C206.447 223.007 208.182 223.509 209.916 224.058C215.5 225.84 220.91 228.129 226.078 230.896C231.054 233.534 235.729 236.704 240.024 240.347C242.084 242.11 244.026 244.005 245.837 246.022C246.762 246.988 247.554 248.055 248.404 249.059C249.172 250.126 249.997 251.142 250.688 252.238C253.474 256.395 255.638 260.937 257.109 265.721L256.719 265.706C264.362 245.767 270.756 229.086 275.244 217.378C277.498 211.537 279.272 206.938 280.49 203.784C281.099 202.223 281.567 201.023 281.89 200.198L282.257 199.278C282.341 199.072 282.393 198.968 282.393 198.968Z" fill="#263238"/>
<path d="M240.147 176.553C240.123 176.765 242.793 177.209 246.883 178.614C252.147 180.444 257.091 183.092 261.532 186.459C265.781 189.691 269.439 193.633 272.346 198.111C274.47 201.464 275.318 203.715 275.557 203.667C275.649 203.651 275.506 203.079 275.163 202.049C274.653 200.571 274 199.145 273.213 197.793C270.456 193.049 266.778 188.905 262.394 185.604C257.816 182.115 252.647 179.479 247.134 177.823C245.468 177.312 243.764 176.932 242.039 176.686C241.42 176.538 240.78 176.493 240.147 176.553Z" fill="#E0E0E0"/>
<path d="M235.705 182.957C235.682 183.17 238.353 183.613 242.441 185.018C247.706 186.849 252.649 189.496 257.091 192.863C261.34 196.096 264.998 200.038 267.905 204.516C270.029 207.869 270.877 210.119 271.116 210.072C271.208 210.055 271.064 209.484 270.721 208.454C270.211 206.975 269.559 205.549 268.772 204.197C266.015 199.453 262.336 195.309 257.953 192.009C253.375 188.52 248.205 185.884 242.692 184.228C241.026 183.717 239.323 183.336 237.598 183.091C236.978 182.942 236.339 182.898 235.705 182.957Z" fill="#E0E0E0"/>
<path d="M232.652 190.537C232.629 190.749 235.299 191.193 239.389 192.598C244.653 194.429 249.597 197.076 254.038 200.443C258.287 203.675 261.945 207.618 264.852 212.096C266.976 215.448 267.824 217.698 268.063 217.652C268.155 217.635 268.012 217.063 267.669 216.034C267.159 214.555 266.506 213.129 265.719 211.777C262.962 207.033 259.284 202.888 254.9 199.588C250.321 196.099 245.153 193.464 239.64 191.808C237.973 191.296 236.27 190.916 234.545 190.67C233.925 190.522 233.286 190.478 232.652 190.537Z" fill="#E0E0E0"/>
<path d="M228.508 197.143C228.485 197.355 231.155 197.799 235.244 199.203C240.508 201.034 245.452 203.682 249.893 207.048C254.142 210.281 257.801 214.224 260.707 218.701C262.832 222.055 263.68 224.304 263.918 224.257C264.01 224.241 263.866 223.669 263.524 222.639C263.014 221.16 262.361 219.735 261.575 218.383C258.817 213.639 255.138 209.495 250.755 206.194C246.177 202.705 241.007 200.069 235.495 198.413C233.829 197.901 232.125 197.521 230.399 197.275C229.781 197.128 229.142 197.083 228.508 197.143Z" fill="#E0E0E0"/>
<path d="M223.977 204.053C223.954 204.265 226.624 204.709 230.713 206.113C235.978 207.944 240.921 210.591 245.363 213.959C249.611 217.191 253.269 221.134 256.176 225.612C258.301 228.964 259.149 231.214 259.388 231.168C259.479 231.151 259.336 230.579 258.994 229.549C258.484 228.07 257.83 226.645 257.044 225.293C254.286 220.549 250.608 216.404 246.224 213.104C241.646 209.615 236.477 206.98 230.964 205.323C229.298 204.812 227.594 204.431 225.869 204.185C225.25 204.038 224.61 203.993 223.977 204.053Z" fill="#E0E0E0"/>
<path d="M218.526 211.666C218.502 211.88 221.405 212.353 225.833 213.95C228.415 214.885 230.935 215.984 233.378 217.239C236.321 218.791 239.159 220.533 241.875 222.456C244.511 224.377 247.007 226.486 249.34 228.766C251.172 230.597 252.848 232.575 254.353 234.682C256.871 238.239 257.76 240.699 258.01 240.647C258.102 240.631 257.93 240.013 257.535 238.894C257.302 238.203 257.007 237.533 256.653 236.894C256.232 236.002 255.745 235.142 255.195 234.323C253.765 232.097 252.121 230.017 250.286 228.112C247.94 225.728 245.403 223.541 242.698 221.573C239.913 219.599 236.983 217.837 233.933 216.303C231.406 215.06 228.787 214.01 226.101 213.165C225.074 212.824 224.03 212.539 222.973 212.31C222.187 212.101 221.388 211.944 220.581 211.838C219.909 211.677 219.215 211.619 218.526 211.666Z" fill="#E0E0E0"/>
<path d="M215.895 218.334C215.871 218.552 218.791 219.017 223.208 220.688C225.781 221.668 228.284 222.821 230.7 224.142C233.603 225.775 236.395 227.598 239.057 229.6C241.634 231.603 244.069 233.783 246.346 236.122C248.129 238.003 249.765 240.02 251.24 242.152C253.71 245.755 254.614 248.219 254.859 248.169C254.951 248.153 254.78 247.531 254.387 246.408C254.155 245.714 253.864 245.042 253.517 244.397C253.104 243.501 252.627 242.634 252.09 241.806C250.696 239.559 249.098 237.446 247.315 235.493C245.033 233.052 242.559 230.795 239.919 228.745C237.187 226.689 234.302 224.843 231.29 223.223C228.784 221.911 226.177 220.802 223.493 219.909C222.468 219.548 221.422 219.247 220.361 219.009C219.573 218.79 218.77 218.625 217.96 218.516C217.284 218.352 216.589 218.291 215.895 218.334Z" fill="#E0E0E0"/>
<path d="M274.267 252.461C274.413 252.645 276.778 251.267 281.132 249.979C287 248.285 293.155 247.818 299.211 248.609C305.458 249.458 311.482 251.501 316.956 254.628C321.14 257.024 323.351 258.996 323.512 258.851C323.572 258.802 323.086 258.258 322.085 257.367C320.637 256.106 319.089 254.964 317.457 253.95C311.926 250.507 305.725 248.281 299.266 247.424C293.024 246.579 286.672 247.18 280.699 249.18C279.006 249.755 277.371 250.485 275.814 251.363C274.743 251.985 274.214 252.396 274.267 252.461Z" fill="#E0E0E0"/>
<path d="M277.795 243.909C277.941 244.094 280.306 242.716 284.659 241.428C290.528 239.734 296.683 239.268 302.74 240.059C308.986 240.907 315.01 242.95 320.484 246.078C324.668 248.473 326.88 250.444 327.04 250.3C327.099 250.251 326.614 249.707 325.613 248.817C324.164 247.555 322.616 246.412 320.984 245.399C315.454 241.955 309.252 239.731 302.794 238.873C296.552 238.029 290.2 238.629 284.227 240.629C282.533 241.203 280.898 241.934 279.34 242.812C278.27 243.434 277.741 243.846 277.795 243.909Z" fill="#E0E0E0"/>
<path d="M281.324 235.359C281.469 235.543 283.835 234.165 288.188 232.877C294.057 231.183 300.212 230.717 306.268 231.508C312.515 232.357 318.539 234.4 324.012 237.526C328.197 239.923 330.408 241.894 330.569 241.75C330.628 241.7 330.143 241.157 329.142 240.265C327.694 239.004 326.146 237.861 324.513 236.848C318.983 233.404 312.782 231.18 306.323 230.323C300.081 229.478 293.728 230.078 287.756 232.078C286.063 232.652 284.427 233.383 282.869 234.261C281.8 234.883 281.269 235.295 281.324 235.359Z" fill="#E0E0E0"/>
<path d="M284.851 226.808C284.997 226.992 287.362 225.614 291.716 224.326C297.584 222.632 303.739 222.166 309.795 222.957C316.042 223.805 322.066 225.849 327.54 228.975C331.724 231.371 333.936 233.343 334.096 233.199C334.156 233.149 333.67 232.606 332.67 231.715C331.221 230.454 329.673 229.311 328.041 228.298C322.51 224.854 316.309 222.628 309.85 221.771C303.608 220.927 297.256 221.528 291.283 223.528C289.59 224.102 287.954 224.832 286.398 225.71C285.327 226.332 284.798 226.744 284.851 226.808Z" fill="#E0E0E0"/>
<path d="M288.381 218.256C288.526 218.44 290.891 217.062 295.245 215.774C301.113 214.08 307.268 213.613 313.325 214.404C319.571 215.253 325.596 217.296 331.069 220.423C335.254 222.819 337.465 224.791 337.626 224.646C337.684 224.597 337.199 224.054 336.199 223.163C334.749 221.902 333.201 220.759 331.569 219.745C326.039 216.302 319.838 214.076 313.379 213.219C307.137 212.374 300.785 212.975 294.812 214.975C293.12 215.55 291.483 216.28 289.926 217.158C288.855 217.78 288.326 218.191 288.381 218.256Z" fill="#E0E0E0"/>
<path d="M291.908 209.704C292.054 209.889 294.419 208.511 298.773 207.223C304.641 205.529 310.796 205.063 316.852 205.853C323.099 206.702 329.123 208.745 334.596 211.872C338.782 214.268 340.993 216.24 341.153 216.095C341.212 216.046 340.727 215.502 339.726 214.611C338.277 213.35 336.73 212.208 335.097 211.194C329.567 207.75 323.366 205.525 316.907 204.668C310.665 203.824 304.312 204.424 298.34 206.424C296.647 206.999 295.011 207.729 293.453 208.606C292.383 209.229 291.853 209.641 291.908 209.704Z" fill="#E0E0E0"/>
<path d="M66.4227 104.744C66.253 104.846 66.0491 104.875 65.8581 104.825C65.6663 104.775 65.5028 104.649 65.4029 104.476C65.3031 104.303 65.2747 104.096 65.3246 103.902C65.3744 103.707 65.499 103.541 65.6693 103.438L66.8498 102.731L64.0727 101.131C55.0152 106.522 48.0808 109.249 46.7467 106.938C45.4136 104.628 51.1255 99.7822 60.1548 94.3434L60.1332 91.0938L58.9526 91.8006C58.7829 91.9024 58.5795 91.9314 58.388 91.8821C58.1962 91.8315 58.0332 91.7053 57.9328 91.5329C57.833 91.3596 57.8051 91.1523 57.855 90.9577C57.9048 90.7631 58.0294 90.5969 58.1997 90.4942L60.122 89.3444L60.0078 72.5059L60.894 71.9755L68.0211 90.0572C75.8027 86.1559 83.5949 82.9962 83.5949 82.9962L85.1896 75.0898L85.9863 74.6124L87.559 80.8082C87.559 80.8082 89.5314 79.7488 90.2059 80.9173C90.8803 82.0859 89.0118 83.3257 89.0118 83.3257L93.5621 87.7387L92.7645 88.2158L85.207 85.7892C85.207 85.7892 78.7067 91.1876 71.575 96.2156L83.6185 111.354L82.7337 111.884L68.3446 103.593L66.4227 104.744Z" fill="#00285A"/>
</svg>
