<svg width="24" height="18" viewBox="0 0 24 18" fill="none" xmlns="http://www.w3.org/2000/svg">
<path d="M11.9721 7.76668C12.1524 7.82936 12.3449 7.88083 12.535 7.92981C12.5664 7.9379 12.5977 7.94591 12.629 7.95389C12.7884 7.99469 12.9449 8.03475 13.095 8.08002C13.5896 8.22887 14.002 8.43457 14.2899 8.72547C14.5743 9.01285 14.7443 9.39043 14.7443 9.90204C14.7443 10.433 14.6059 10.8425 14.3785 11.1527C14.1507 11.4634 13.8275 11.6826 13.4448 11.8221C13.3687 11.8498 13.2882 11.8738 13.2056 11.8939L13.1152 11.9159L13.1139 12.009C13.1083 12.405 12.7956 12.7187 12.4189 12.7187C12.0387 12.7187 11.7238 12.3993 11.7238 11.9981V11.9846V11.8892L11.6309 11.8676C11.1744 11.7611 10.7423 11.5791 10.4015 11.3412C10.0825 11.1192 9.99632 10.6694 10.2131 10.3387C10.4288 10.0091 10.8597 9.92428 11.1754 10.1444C11.5918 10.434 12.2114 10.5954 12.7335 10.5222C12.88 10.5022 13.0341 10.4559 13.1537 10.3572C13.2783 10.2543 13.3543 10.1035 13.3543 9.90204C13.3543 9.75571 13.2429 9.68915 13.192 9.65879C13.1905 9.65785 13.1889 9.65695 13.1875 9.65608C13.0878 9.5967 12.9764 9.55297 12.8655 9.51513C12.6853 9.45292 12.4929 9.40147 12.3028 9.35238C12.2723 9.34451 12.2419 9.33671 12.2115 9.32893C12.0512 9.28779 11.8937 9.24738 11.7427 9.20183C11.2482 9.05298 10.8358 8.84727 10.5479 8.55638C10.2635 8.26899 10.0934 7.89139 10.0934 7.37977C10.0934 6.85752 10.2409 6.45268 10.4661 6.14016C10.7392 5.76095 11.1464 5.50269 11.6336 5.37749L11.7227 5.35458L11.7238 5.26257C11.7288 4.86582 12.0422 4.55144 12.4189 4.55144C12.799 4.55144 13.1139 4.87077 13.1139 5.27201V5.28125V5.37596L13.206 5.3981C13.6651 5.50852 14.1019 5.69942 14.4461 5.94709C14.7609 6.17407 14.8401 6.62541 14.6182 6.95344C14.3978 7.27835 13.9657 7.35629 13.6524 7.13088C13.2389 6.83322 12.6249 6.6745 12.1067 6.7488C11.9585 6.77024 11.8035 6.81906 11.6838 6.91994C11.5593 7.02486 11.4834 7.17736 11.4834 7.37977C11.4834 7.52614 11.5949 7.5927 11.6457 7.62308C11.6473 7.62401 11.6488 7.6249 11.6502 7.62577C11.7498 7.68513 11.8613 7.72886 11.9721 7.76668ZM6.58464 2.89381L6.62995 2.8897L6.66118 2.85662C8.12275 1.30864 10.1632 0.347656 12.4189 0.347656C14.7428 0.347656 16.8387 1.36741 18.3067 2.99828L18.3322 3.0266L18.3693 3.03506C21.4211 3.73026 23.7116 6.541 23.7116 9.90204C23.7116 13.7866 20.6544 16.9342 16.8968 16.9342C16.1616 16.9342 15.4531 16.8136 14.7894 16.5907L14.7527 16.5783L14.7157 16.5897C13.9886 16.8141 13.217 16.9342 12.4189 16.9342C10.6053 16.9342 8.93053 16.3126 7.58429 15.2646L7.54793 15.2362L7.50196 15.2395C7.37465 15.2485 7.24544 15.2527 7.11426 15.2527C3.80672 15.2527 1.11548 12.4817 1.11548 9.06129C1.11548 5.82523 3.52428 3.17131 6.58464 2.89381ZM20.0346 5.34234L19.696 5.09446L19.852 5.48401C20.2418 6.45702 20.4565 7.52307 20.4565 8.64091C20.4565 11.344 19.2008 13.745 17.2598 15.2597L16.9414 15.508L17.3438 15.4741C20.1322 15.2391 22.3216 12.8297 22.3216 9.90204C22.3216 8.02175 21.4191 6.35581 20.0346 5.34234ZM5.20829 4.97498L5.36348 4.65073L5.04448 4.81642C3.53844 5.59865 2.50551 7.2076 2.50551 9.06129C2.50551 11.1734 3.8467 12.9676 5.70196 13.5835L6.03939 13.6955L5.83913 13.4017C4.92065 12.0541 4.38121 10.4121 4.38121 8.64091C4.38121 7.32493 4.67949 6.07981 5.20829 4.97498ZM19.0664 8.64091C19.0664 4.86275 16.0911 1.78879 12.4189 1.78879C8.74658 1.78879 5.77126 4.86275 5.77126 8.64091C5.77126 12.4191 8.74658 15.4931 12.4189 15.4931C16.0911 15.4931 19.0664 12.4191 19.0664 8.64091Z" fill="#0C3C82"/>
<path d="M11.9721 7.76668C12.1524 7.82936 12.3449 7.88083 12.535 7.92981C12.5664 7.9379 12.5977 7.94591 12.629 7.95389C12.7884 7.99469 12.9449 8.03475 13.095 8.08002C13.5896 8.22887 14.002 8.43457 14.2899 8.72547C14.5743 9.01285 14.7443 9.39043 14.7443 9.90204C14.7443 10.433 14.6059 10.8425 14.3785 11.1527C14.1507 11.4634 13.8275 11.6826 13.4448 11.8221C13.3687 11.8498 13.2882 11.8738 13.2056 11.8939L13.1152 11.9159L13.1139 12.009C13.1083 12.405 12.7956 12.7187 12.4189 12.7187C12.0387 12.7187 11.7238 12.3993 11.7238 11.9981V11.9846V11.8892L11.6309 11.8676C11.1744 11.7611 10.7423 11.5791 10.4015 11.3412C10.0825 11.1192 9.99632 10.6694 10.2131 10.3387C10.4288 10.0091 10.8597 9.92428 11.1754 10.1444C11.5918 10.434 12.2114 10.5954 12.7335 10.5222C12.88 10.5022 13.0341 10.4559 13.1537 10.3572C13.2783 10.2543 13.3543 10.1035 13.3543 9.90204C13.3543 9.75571 13.2429 9.68915 13.192 9.65879C13.1905 9.65785 13.1889 9.65695 13.1875 9.65608C13.0878 9.5967 12.9764 9.55297 12.8655 9.51513C12.6853 9.45292 12.4929 9.40147 12.3028 9.35238C12.2723 9.34451 12.2419 9.33671 12.2115 9.32893C12.0512 9.28779 11.8937 9.24738 11.7427 9.20183C11.2482 9.05298 10.8358 8.84727 10.5479 8.55638C10.2635 8.26899 10.0934 7.89139 10.0934 7.37977C10.0934 6.85752 10.2409 6.45268 10.4661 6.14016C10.7392 5.76095 11.1464 5.50269 11.6336 5.37749L11.7227 5.35458L11.7238 5.26257C11.7288 4.86582 12.0422 4.55144 12.4189 4.55144C12.799 4.55144 13.1139 4.87077 13.1139 5.27201V5.28125V5.37596L13.206 5.3981C13.6651 5.50852 14.1019 5.69942 14.4461 5.94709C14.7609 6.17407 14.8401 6.62541 14.6182 6.95344C14.3978 7.27835 13.9657 7.35629 13.6524 7.13088C13.2389 6.83322 12.6249 6.6745 12.1067 6.7488C11.9585 6.77024 11.8035 6.81906 11.6838 6.91994C11.5593 7.02486 11.4834 7.17736 11.4834 7.37977C11.4834 7.52614 11.5949 7.5927 11.6457 7.62308C11.6473 7.62401 11.6488 7.6249 11.6502 7.62577C11.7498 7.68513 11.8613 7.72886 11.9721 7.76668ZM11.9721 7.76668C11.972 7.76664 11.9723 7.76673 11.9721 7.76668ZM11.9721 7.76668L12.0112 7.65303M6.58464 2.89381L6.62995 2.8897L6.66118 2.85662C8.12275 1.30864 10.1632 0.347656 12.4189 0.347656C14.7428 0.347656 16.8387 1.36741 18.3067 2.99828L18.3322 3.0266L18.3693 3.03506C21.4211 3.73026 23.7116 6.541 23.7116 9.90204C23.7116 13.7866 20.6544 16.9342 16.8968 16.9342C16.1616 16.9342 15.4531 16.8136 14.7894 16.5907L14.7527 16.5783L14.7157 16.5897C13.9886 16.8141 13.217 16.9342 12.4189 16.9342C10.6053 16.9342 8.93053 16.3126 7.58429 15.2646L7.54793 15.2362L7.50196 15.2395C7.37465 15.2485 7.24544 15.2527 7.11427 15.2527C3.80672 15.2527 1.11548 12.4817 1.11548 9.06129C1.11548 5.82523 3.52428 3.17131 6.58464 2.89381ZM20.0346 5.34234L19.696 5.09446L19.852 5.48401C20.2418 6.45702 20.4565 7.52307 20.4565 8.64091C20.4565 11.344 19.2008 13.745 17.2598 15.2597L16.9414 15.508L17.3438 15.4741C20.1322 15.2391 22.3216 12.8297 22.3216 9.90204C22.3216 8.02175 21.4191 6.35581 20.0346 5.34234ZM5.20829 4.97498L5.36348 4.65073L5.04448 4.81642C3.53844 5.59865 2.50551 7.2076 2.50551 9.06129C2.50551 11.1734 3.8467 12.9676 5.70196 13.5835L6.03939 13.6955L5.83913 13.4017C4.92065 12.0541 4.38121 10.4121 4.38121 8.64091C4.38121 7.32493 4.67949 6.07981 5.20829 4.97498ZM19.0664 8.64091C19.0664 4.86275 16.0911 1.78879 12.4189 1.78879C8.74658 1.78879 5.77126 4.86275 5.77126 8.64091C5.77126 12.4191 8.74658 15.4931 12.4189 15.4931C16.0911 15.4931 19.0664 12.4191 19.0664 8.64091Z" stroke="#F7EFFF" stroke-width="0.240385"/>
</svg>
