<svg width="50" height="50" viewBox="0 0 50 50" fill="none" xmlns="http://www.w3.org/2000/svg">
<circle cx="25" cy="25" r="25" fill="#0064E1"/>
<path d="M37.8333 13H12.1667C11.8572 13 11.5605 13.1278 11.3417 13.3554C11.1229 13.5829 11 13.8915 11 14.2133V36.0533C11 36.3751 11.1229 36.6837 11.3417 36.9113C11.5605 37.1388 11.8572 37.2667 12.1667 37.2667H37.8333C38.1428 37.2667 38.4395 37.1388 38.6583 36.9113C38.8771 36.6837 39 36.3751 39 36.0533V14.2133C39 13.8915 38.8771 13.5829 38.6583 13.3554C38.4395 13.1278 38.1428 13 37.8333 13ZM36.6667 34.84H34.3333V33.6267H28.5V34.84H13.3333V15.4267H36.6667V34.84ZM23.005 22.3548C23.005 21.8045 23.2152 21.2768 23.5893 20.8877C23.9635 20.4986 24.4709 20.28 25 20.28C26.1083 20.28 26.995 21.2143 26.995 22.3548C26.995 23.5075 26.1083 24.4417 25 24.4417C23.8917 24.4417 23.005 23.5075 23.005 22.3548ZM17.6617 24.2719C17.6617 23.4104 18.3383 22.7067 19.1667 22.7067C19.5658 22.7067 19.9486 22.8716 20.2309 23.1651C20.5131 23.4586 20.6717 23.8568 20.6717 24.2719C20.6717 25.1333 19.995 25.8249 19.1667 25.8249C18.3383 25.8249 17.6617 25.1333 17.6617 24.2719ZM29.3283 24.2719C29.3283 23.8568 29.4869 23.4586 29.7691 23.1651C30.0514 22.8716 30.4342 22.7067 30.8333 22.7067C31.2325 22.7067 31.6153 22.8716 31.8975 23.1651C32.1798 23.4586 32.3383 23.8568 32.3383 24.2719C32.3383 25.1333 31.6617 25.8249 30.8333 25.8249C30.005 25.8249 29.3283 25.1333 29.3283 24.2719ZM34.3333 28.9432V29.9867H15.6667V28.9432C15.6667 27.8027 17.475 26.8684 19.1667 26.8684C19.8083 26.8684 20.4617 27.0019 21.0333 27.2324C21.9083 26.3952 23.4833 25.8249 25 25.8249C26.5167 25.8249 28.0917 26.3952 28.9667 27.2324C29.5383 27.0019 30.1917 26.8684 30.8333 26.8684C32.525 26.8684 34.3333 27.8027 34.3333 28.9432Z" fill="white"/>
</svg>
