<svg width="380" height="254" viewBox="0 0 380 254" fill="none" xmlns="http://www.w3.org/2000/svg">
<path d="M79.6832 94.3965H30.1362V186.544H79.6832V94.3965Z" fill="#EBEBEB"/>
<path d="M82.0799 91.8535H27.7349V94.397H82.0799V91.8535Z" fill="#DBDBDB"/>
<path d="M99.1699 91.8535H82.0801V94.397H99.1699V91.8535Z" fill="#EBEBEB"/>
<path d="M96.4695 94.3965H79.6836V186.544H96.4695V94.3965Z" fill="#DBDBDB"/>
<path d="M74.3484 126.161H35.4668V104.156H74.3484V126.161ZM35.5935 126.034H74.2217V104.283H35.5935V126.034Z" fill="#C7C7C7"/>
<path d="M57.0506 110.58H49.481V114.932H57.0506V110.58Z" fill="#C7C7C7"/>
<path d="M59.3511 114.664H51.6802V110.844H59.3714L59.3511 114.664ZM51.7866 114.537H59.2244V110.991H51.7866V114.537Z" fill="#C7C7C7"/>
<path d="M74.3484 153.737H35.4668V131.758H74.3484V153.737ZM35.5935 153.61H74.2217V131.884H35.5935V153.61Z" fill="#C7C7C7"/>
<path d="M57.0506 138.184H49.481V142.536H57.0506V138.184Z" fill="#C7C7C7"/>
<path d="M59.3511 142.273H51.6802V138.447H59.3714L59.3511 142.273ZM51.7866 142.146H59.2244V138.574H51.7866V142.146Z" fill="#C7C7C7"/>
<path d="M74.3484 181.341H35.4668V159.361H74.3484V181.341ZM35.5935 181.214H74.2217V159.488H35.5935V181.214Z" fill="#C7C7C7"/>
<path d="M57.0506 165.787H49.481V170.139H57.0506V165.787Z" fill="#C7C7C7"/>
<path d="M59.3511 169.875H51.6802V166.055H59.3714L59.3511 169.875ZM51.7866 169.733H59.2244V166.186H51.7866V169.733Z" fill="#C7C7C7"/>
<path d="M332.773 121.25H283.227V186.544H332.773V121.25Z" fill="#EBEBEB"/>
<path d="M335.17 118.707H280.825V121.251H335.17V118.707Z" fill="#DBDBDB"/>
<path d="M352.26 118.707H335.17V121.251H352.26V118.707Z" fill="#EBEBEB"/>
<path d="M349.559 121.25H332.773V186.544H349.559V121.25Z" fill="#DBDBDB"/>
<path d="M327.377 131.074H288.623V152.922H327.377V131.074Z" fill="#A6A6A6"/>
<path d="M323.603 125.48H294.1V146.867H323.603V125.48Z" fill="#C7C7C7"/>
<path d="M304.522 123.262H294.1V125.481H305.125L304.522 123.262Z" fill="#C7C7C7"/>
<path d="M323.522 146.862H294.023L291.749 127.254H321.247L323.522 146.862Z" fill="#A6A6A6"/>
<path d="M301.933 125.223H291.511L291.749 127.254H302.769L301.933 125.223Z" fill="#A6A6A6"/>
<path d="M308.707 131.074H269.952V152.922H308.707V131.074Z" fill="#EBEBEB"/>
<path d="M308.768 153.012H269.891V131.008H308.768V153.012ZM270.018 152.886H308.641V131.134H270.018V152.886Z" fill="#C7C7C7"/>
<path d="M291.475 137.434H283.906V141.786H291.475V137.434Z" fill="#C7C7C7"/>
<path d="M293.77 141.523H286.079V137.697H293.77V141.523ZM286.206 141.396H293.644V137.814H286.206V141.396Z" fill="#C7C7C7"/>
<path d="M327.378 134.348H308.803V152.922H327.378V134.348Z" fill="#DBDBDB"/>
<path d="M327.438 180.591H288.557V158.611H327.438V180.591ZM288.683 180.464H327.306V158.738H288.683V180.464Z" fill="#C7C7C7"/>
<path d="M310.141 165.037H302.571V169.389H310.141V165.037Z" fill="#C7C7C7"/>
<path d="M312.441 169.126H304.75V165.301H312.441V169.126ZM304.877 168.999H312.315V165.427H304.877V168.999Z" fill="#C7C7C7"/>
<path d="M24.8418 186.544L66.1351 186.423L107.423 186.377L190 186.291L272.576 186.377L313.865 186.423L355.158 186.544L313.865 186.671L272.576 186.712L190 186.798L107.423 186.712L66.1351 186.666L24.8418 186.544Z" fill="#263238"/>
<path d="M190 232.474C270.237 232.474 335.281 225.346 335.281 216.554C335.281 207.762 270.237 200.635 190 200.635C109.763 200.635 44.7183 207.762 44.7183 216.554C44.7183 225.346 109.763 232.474 190 232.474Z" fill="#EBEBEB"/>
<path d="M341.67 150.415C341.194 152.149 340.881 153.923 340.733 155.715C340.784 155.801 340.773 156.13 340.733 156.039C340.733 156.333 340.282 156.277 340.282 155.993V155.436C339.269 154.149 337.749 153.333 336.528 152.219C335.551 151.34 334.838 150.207 334.471 148.946C333.457 145.47 334.41 141.786 333.194 138.306C332.15 135.321 330.275 132.732 328.689 130.017C327.017 127.154 325.781 124.144 325.649 120.79C325.553 118.226 325.857 114.801 327.813 112.881C329.885 110.854 332.454 112.374 334.045 114.188C338.645 119.468 340.773 126.141 341.645 132.965C342.121 136.745 342.613 140.565 342.501 144.355C342.426 146.398 342.148 148.428 341.67 150.415Z" fill="#0C3C82"/>
<path d="M340.754 157.098C341.005 153.536 340.963 149.958 340.627 146.403C340.627 146.403 340.627 146.377 340.627 146.362C340.683 143.469 340.911 140.591 340.799 137.693C340.66 134.562 340.234 131.45 339.527 128.396C339.527 128.36 339.462 128.396 339.472 128.396C340.04 131.396 340.379 134.434 340.485 137.485C340.546 139.124 340.534 140.758 340.45 142.39C340.419 142.922 340.368 143.454 340.333 143.991C339.127 135.871 336.19 128.106 331.72 121.221C331.659 121.125 331.492 121.221 331.552 121.323C334.742 126.556 337.104 132.25 338.555 138.205C336.34 134.106 332.981 130.737 330.519 126.795C330.519 126.795 330.473 126.795 330.483 126.82C332.708 131.208 336.391 134.663 338.737 138.98C339.142 140.743 339.477 142.527 339.725 144.305C340.056 146.759 340.234 149.231 340.257 151.708C338.909 149.174 337.511 146.778 336.406 144.108C336.406 144.037 336.275 144.108 336.3 144.158C337.237 146.925 338.499 149.909 340.267 152.265C340.267 154.018 340.218 155.769 340.12 157.519C339.847 162.19 339.046 166.801 338.676 171.457C338.673 171.486 338.681 171.514 338.698 171.536C338.716 171.559 338.742 171.573 338.77 171.576C338.798 171.58 338.827 171.572 338.849 171.554C338.871 171.537 338.886 171.511 338.889 171.483C339.836 166.736 340.459 161.93 340.754 157.098Z" fill="#263238"/>
<path d="M335.793 121.094C335.791 121.089 335.787 121.086 335.782 121.084C335.778 121.081 335.773 121.08 335.768 121.08C335.763 121.08 335.758 121.081 335.754 121.084C335.749 121.086 335.745 121.089 335.743 121.094C336.594 123.45 337.075 125.841 337.693 128.263C337.7 128.283 337.715 128.301 337.733 128.312C337.752 128.323 337.774 128.327 337.795 128.323C337.816 128.319 337.835 128.308 337.849 128.292C337.863 128.275 337.871 128.254 337.871 128.233C337.525 125.766 336.825 123.361 335.793 121.094Z" fill="#263238"/>
<path d="M357.458 130.964C356.89 132.355 356.236 133.709 355.497 135.018C353.977 137.804 352.356 140.363 352.067 143.631C352.022 145.085 351.814 146.53 351.449 147.938C351.048 149.139 350.471 150.275 349.736 151.307C348.069 153.734 345.987 155.821 344.447 158.34C342.84 160.965 341.654 163.825 340.931 166.816C340.89 166.978 340.637 166.933 340.672 166.77C340.675 166.759 340.675 166.747 340.672 166.735C340.672 166.735 340.672 166.735 340.672 166.7C340.429 159.733 340.986 152.716 343.109 146.038C344.046 143.097 345.173 140.219 346.484 137.424C347.557 134.962 349.107 132.735 351.044 130.873C352.341 129.703 355.153 127.489 356.997 128.664C357.873 129.201 357.808 130.093 357.458 130.964Z" fill="#0C3C82"/>
<path d="M350.461 146.756C349.231 148.776 347.877 150.719 346.408 152.572C345.729 153.454 345.045 154.325 344.381 155.207C344.062 155.628 343.702 156.043 343.414 156.489C343.596 155.754 343.773 155.02 343.961 154.29C344.863 150.769 345.724 147.222 347.067 143.837C348.436 140.558 350.052 137.388 351.9 134.353C351.946 134.272 351.819 134.216 351.768 134.292C350.299 136.714 348.804 139.131 347.568 141.684C346.882 143.106 346.287 144.57 345.785 146.067C346.35 142.891 347.143 139.761 348.156 136.699C348.156 136.673 348.126 136.653 348.115 136.699C346.788 139.792 345.957 143.075 345.653 146.427C345.349 147.328 345.07 148.245 344.812 149.163C343.712 153.059 342.75 157.001 341.858 160.953C341.842 158.355 342.067 155.762 342.532 153.206C342.532 153.194 342.527 153.182 342.519 153.174C342.51 153.165 342.498 153.16 342.486 153.16C342.474 153.16 342.463 153.165 342.454 153.174C342.446 153.182 342.441 153.194 342.441 153.206C341.759 155.869 341.532 158.629 341.767 161.368C341.429 162.871 341.1 164.376 340.779 165.883C340.095 169.095 339.259 172.363 338.854 175.621C338.854 175.636 338.859 175.651 338.868 175.662C338.878 175.674 338.892 175.682 338.906 175.685C338.921 175.688 338.937 175.686 338.95 175.679C338.964 175.672 338.974 175.66 338.98 175.646C339.487 173.888 339.745 172.064 340.14 170.285C340.536 168.507 340.936 166.739 341.351 164.94C341.953 162.346 342.581 159.759 343.236 157.178C343.667 156.236 344.498 155.395 345.126 154.599C345.754 153.804 346.494 152.856 347.153 151.969C348.405 150.331 349.527 148.596 350.507 146.781C350.542 146.746 350.482 146.715 350.461 146.756Z" fill="#263238"/>
<path d="M350.755 143.777C349.222 145.734 347.894 147.842 346.793 150.07C346.793 150.101 346.823 150.131 346.844 150.101C348.176 148.013 349.488 145.905 350.816 143.813C350.841 143.783 350.78 143.742 350.755 143.777Z" fill="#263238"/>
<path d="M321.1 137.566C322.007 139.121 323.035 140.991 322.62 142.855C322.376 144.036 321.51 144.998 321.353 146.204C321.003 148.864 323.658 150.622 325.579 151.879C330.362 155.02 336.918 157.817 337.789 164.226C337.825 164.449 338.215 164.394 338.184 164.171C338.186 164.157 338.186 164.144 338.184 164.13C338.184 164.13 338.184 164.13 338.184 164.095C338.813 160.859 338.782 157.529 338.093 154.306C337.384 151.002 335.94 148.033 334.238 145.13C331.36 140.221 328.31 135.189 323.957 131.45C322.751 130.406 320.284 128.537 319.326 130.888C318.369 133.239 319.995 135.671 321.1 137.566Z" fill="#0C3C82"/>
<path d="M325.483 147.977C328.649 151.412 333.696 153.337 336.422 157.183C334.899 151.329 332.018 145.917 328.011 141.385C327.91 141.269 328.072 141.096 328.188 141.208C331.108 144.045 333.442 147.428 335.059 151.164C334.307 148.555 333.317 146.021 332.1 143.594C332.089 143.575 332.086 143.553 332.092 143.532C332.097 143.511 332.111 143.494 332.13 143.483C332.149 143.472 332.171 143.469 332.192 143.475C332.213 143.481 332.231 143.494 332.242 143.513C333.74 146.157 334.81 149.021 335.413 152C339.006 160.709 339.34 170.919 338.585 180.1C338.585 180.231 338.377 180.236 338.382 180.1C338.585 172.864 338.468 165.508 336.736 158.445C336.7 158.298 336.66 158.151 336.624 158.004C333.655 153.864 328.634 151.924 325.407 148.012C325.396 147.997 325.447 147.947 325.483 147.977Z" fill="#263238"/>
<path d="M324.479 138.412C325.953 140.828 327.621 143.12 329.465 145.267C329.467 145.27 329.469 145.274 329.471 145.278C329.472 145.281 329.473 145.285 329.472 145.289C329.472 145.293 329.471 145.297 329.469 145.301C329.468 145.304 329.465 145.308 329.462 145.31C329.459 145.313 329.456 145.315 329.452 145.316C329.448 145.318 329.444 145.318 329.44 145.318C329.436 145.318 329.432 145.317 329.429 145.315C329.425 145.313 329.422 145.311 329.419 145.308C327.352 143.343 325.651 141.027 324.393 138.468C324.386 138.456 324.383 138.443 324.386 138.429C324.389 138.416 324.397 138.404 324.408 138.397C324.42 138.39 324.433 138.387 324.447 138.39C324.46 138.393 324.472 138.401 324.479 138.412Z" fill="#263238"/>
<path d="M331.978 186.591H346.56L344.594 166.973H334.223L331.978 186.591Z" fill="#455A64"/>
<path d="M333.857 170.165H344.913L344.594 166.973H334.222L333.857 170.165Z" fill="#263238"/>
<path d="M332.434 167.936H346.104V164.804H332.434V167.936Z" fill="#455A64"/>
<path d="M112.303 221.626C111.122 222.011 77.4895 221.575 76.2228 220.744C75.7161 220.435 75.5084 215.53 75.4121 209.597V209.41C75.3868 208.189 75.3716 206.927 75.3716 205.655C75.3716 205.478 75.3716 205.301 75.3716 205.149C75.3209 196.586 75.4577 187.699 75.4577 187.699L97.9537 187.922L97.2799 205.199L97.2545 205.883L97.1177 209.461V209.83C97.1177 209.83 109.916 215.753 111.218 216.812C112.52 217.871 113.493 221.251 112.303 221.626Z" fill="#DD6A57"/>
<path d="M102.195 212.12C102.109 212.095 102.063 212.064 102.058 212.039L102.195 212.12Z" fill="#0C3C82"/>
<path d="M112.298 221.626C111.122 222.006 77.4896 221.575 76.2179 220.739C75.7872 220.471 75.5592 216.564 75.4478 211.533C81.6088 212.82 105.493 217.649 106.147 215.587C106.405 214.786 104.363 213.398 103.071 212.612C106.618 214.295 110.509 216.22 111.178 216.787C112.48 217.867 113.493 221.251 112.298 221.626Z" fill="#0C3C82"/>
<path opacity="0.1" d="M91.2001 221.575C83.6305 221.393 76.8057 221.109 76.2433 220.739C75.8126 220.471 75.5846 216.564 75.4731 211.533C76.3497 211.711 77.5809 211.969 79.0553 212.263L91.2001 221.575Z" fill="black"/>
<path d="M68.5522 90.7988C68.5522 90.7988 73.6189 147.632 74.4245 151.969C74.612 152.957 74.7336 158.327 74.8096 165.228C74.9818 180.296 74.8805 207.464 74.8805 207.464H98.5874C98.5874 207.464 97.8832 160.389 96.8344 151.731C95.7856 143.072 89.0773 90.8039 89.0773 90.8039L68.5522 90.7988Z" fill="#37474F"/>
<path d="M97.5131 203.334C93.8144 203.258 94.8784 203.228 91.1798 203.192C89.371 203.192 77.4694 203.071 75.7771 203.349C75.7416 203.349 75.7416 203.42 75.7771 203.425C77.4694 203.704 89.371 203.603 91.1798 203.583C94.8784 203.547 93.8144 203.517 97.5131 203.441C97.5244 203.437 97.5343 203.43 97.5414 203.421C97.5484 203.411 97.5522 203.399 97.5522 203.387C97.5522 203.376 97.5484 203.364 97.5414 203.354C97.5343 203.345 97.5244 203.338 97.5131 203.334Z" fill="#263238"/>
<path d="M79.3848 176.42L79.3088 166.104C79.2835 162.775 79.3088 159.442 79.1315 156.113C78.8072 149.379 77.4392 142.752 76.4715 136.094C75.5037 129.437 74.688 122.739 73.9381 116.046C73.1123 108.537 72.3827 101.013 71.6125 93.4989C71.6125 93.4483 71.5264 93.4483 71.5315 93.4989C72.6512 106.921 73.8976 120.352 75.752 133.678C76.2181 136.995 76.7248 140.307 77.272 143.613C77.8293 146.957 78.3765 150.306 78.64 153.691C78.9035 157.075 78.944 160.323 78.9744 163.647L79.0808 173.953C79.1517 181.588 79.2277 193.338 79.2987 200.968C79.2987 200.999 79.3109 201.029 79.3328 201.05C79.3547 201.072 79.3843 201.085 79.4152 201.085C79.4461 201.085 79.4757 201.072 79.4976 201.05C79.5195 201.029 79.5317 200.999 79.5317 200.968C79.4861 194.153 79.4355 183.23 79.3848 176.42Z" fill="#263238"/>
<path d="M63.5513 90.7988C63.5513 90.7988 73.5985 147.632 74.4243 151.969C74.6118 152.957 74.7334 158.327 74.8094 165.228L86.1334 90.7988H63.5513Z" fill="#263238"/>
<path d="M84.7707 223.632C83.5699 223.931 50.0488 221.099 48.8429 220.192C48.3819 219.853 48.5035 214.943 48.8429 209.046C48.8429 208.985 48.8429 208.919 48.8429 208.858C48.9088 207.637 48.9797 206.38 49.0709 205.109C49.0709 204.931 49.0709 204.759 49.1013 204.602C49.6587 196.06 50.4237 187.203 50.4237 187.203L72.8437 188.987L70.9336 206.168L70.8627 206.852L70.4725 210.398L70.4269 210.773C70.4269 210.773 82.7744 217.588 83.9955 218.738C85.2165 219.888 85.9765 223.344 84.7707 223.632Z" fill="#DD6A57"/>
<path d="M84.7705 223.631C83.5646 223.93 50.0537 221.098 48.8427 220.191C48.4475 219.902 48.4779 216.274 48.7009 211.537C53.8891 212.865 78.9083 219.137 79.6785 217.11C79.8355 216.67 79.3035 216.021 78.5841 215.388C81.1782 216.908 83.5139 218.291 84.0155 218.757C85.2214 219.892 85.9713 223.337 84.7705 223.631Z" fill="#0C3C82"/>
<path d="M71.4401 208.745L47.7534 207.732C47.7534 207.732 54.2185 155.758 54.3401 152.561C54.5174 147.813 56.7924 128.21 58.7076 112.341C58.7076 112.341 55.0798 103.728 61.8691 90.7676H89.0873C89.0873 90.7676 87.2633 103.12 84.1371 110.953C82.0399 111.685 80.0148 112.61 78.0875 113.715C78.0875 113.715 75.3769 149.1 75.2756 153.513C75.0881 162.248 71.4401 208.745 71.4401 208.745Z" fill="#37474F"/>
<path d="M70.817 204.404C67.1285 204.171 68.1874 204.186 64.4938 203.994C62.685 203.897 50.8138 203.294 49.1013 203.487C49.0658 203.487 49.0608 203.553 49.1013 203.558C50.7784 203.913 62.6698 204.313 64.4786 204.374C68.1773 204.495 67.1133 204.419 70.817 204.495C70.8829 204.515 70.888 204.409 70.817 204.404Z" fill="#263238"/>
<path d="M63.6727 91.9394C62.2692 94.9794 60.962 98.1764 60.4705 101.51C60.1149 105.086 60.5137 108.697 61.6409 112.11C61.6409 112.11 61.4433 114.912 61.2305 116.7C61.0177 118.489 60.81 120.297 60.6023 122.096C60.1868 125.731 59.7679 129.365 59.3457 133C58.5148 140.228 57.6855 147.462 56.858 154.7C56.0304 161.939 55.2113 169.174 54.4007 176.406C53.5951 183.621 52.7337 190.831 52.0193 198.056C51.9281 198.957 51.842 199.854 51.7559 200.756C51.7559 200.842 51.9028 200.863 51.9129 200.756C52.8756 193.546 53.6964 186.321 54.5577 179.096C55.4191 171.871 56.2449 164.712 57.0911 157.517C57.9372 150.323 58.7681 143.057 59.5991 135.822C60.4199 128.693 61.342 121.564 62.0463 114.425C62.1296 113.599 62.1499 112.767 62.1071 111.937C62.1071 111.937 60.5871 106.871 60.7745 103.588C60.962 100.157 61.7879 97.5532 63.0089 94.3967C63.3129 93.6063 63.6321 92.8159 63.9361 92.0306C63.9969 91.8938 63.7436 91.7924 63.6727 91.9394Z" fill="#263238"/>
<path d="M85.1807 110.453C82.7244 111.343 80.3509 112.447 78.0873 113.751C78.0703 113.762 78.0576 113.778 78.0516 113.797C78.0456 113.816 78.0468 113.836 78.0549 113.854C78.0631 113.872 78.0776 113.887 78.0957 113.895C78.1138 113.903 78.1343 113.904 78.1532 113.898C80.5396 112.885 82.9716 111.872 85.3023 110.737C85.3327 110.716 85.355 110.686 85.3653 110.651C85.3757 110.616 85.3735 110.578 85.3591 110.544C85.3447 110.511 85.3189 110.483 85.2864 110.467C85.2538 110.45 85.2164 110.445 85.1807 110.453Z" fill="#263238"/>
<path d="M81.847 106.486C82.0801 105.062 82.2726 103.633 82.3942 102.199C82.6417 99.5248 82.6128 96.832 82.3081 94.1635C82.3039 94.1485 82.295 94.1353 82.2827 94.1259C82.2703 94.1165 82.2552 94.1114 82.2397 94.1114C82.2241 94.1114 82.209 94.1165 82.1967 94.1259C82.1843 94.1353 82.1754 94.1485 82.1713 94.1635C82.2316 97.8732 82.0148 101.582 81.5227 105.26C81.2542 107.028 80.3625 109.688 82.2118 109.956C84.0611 110.225 85.3126 105.781 85.5406 104.56C86.1296 101.088 86.2641 97.5539 85.9409 94.047C85.9409 93.9608 85.7889 93.9456 85.7889 94.047C85.789 96.7103 85.6554 99.372 85.3886 102.022C85.2771 103.253 84.2891 110.048 82.1561 109.551C81.8014 109.465 81.619 109.115 81.5633 108.578C81.5725 107.875 81.6678 107.176 81.847 106.496" fill="#263238"/>
<path d="M82.217 109.723C82.0178 110.181 81.8486 110.652 81.7103 111.132C81.5725 111.501 81.5054 111.893 81.5127 112.287C81.5127 112.363 81.6191 112.373 81.6597 112.323C81.8849 111.974 82.0558 111.593 82.1663 111.193C82.3285 110.757 82.5007 110.326 82.673 109.886C82.6837 109.856 82.6883 109.824 82.6867 109.792C82.6851 109.76 82.6772 109.729 82.6636 109.701C82.6499 109.672 82.6307 109.646 82.6072 109.625C82.5836 109.604 82.556 109.587 82.5261 109.576C82.4961 109.566 82.4644 109.561 82.4327 109.563C82.4009 109.564 82.3698 109.572 82.3411 109.586C82.3124 109.6 82.2867 109.619 82.2654 109.642C82.2441 109.666 82.2277 109.693 82.217 109.723Z" fill="#263238"/>
<path d="M74.4801 41.4147C70.0721 45.1944 71.2982 50.707 69.459 53.7014C68.3291 55.5304 64.6609 57.4608 63.9313 59.5686C62.7355 63.0291 65.6691 64.2755 65.0105 66.1552C64.0833 68.8254 60.5113 68.6176 59.8678 72.98C59.2243 77.3424 64.0276 81.9835 75.4174 83.24C86.8073 84.4966 93.0697 80.3267 93.475 76.623C93.8804 72.9192 90.0955 71.688 89.8371 68.9267C89.675 67.1584 92.0107 65.9323 92.1323 62.6795C92.2539 59.4267 89.0923 58.3728 88.6262 55.6115C88.1601 52.8502 89.6395 46.1419 85.5862 42.7168C81.5329 39.2918 76.6739 39.5451 74.4801 41.4147Z" fill="#263238"/>
<path d="M74.987 41.5099C73.7535 42.3848 72.749 43.544 72.0584 44.8894C71.3448 46.3144 70.799 47.8174 70.432 49.3683C70.2386 50.2923 69.9411 51.1915 69.5454 52.0486C69.1575 52.764 68.6424 53.4027 68.0254 53.9334C66.7942 55.048 65.3248 55.8942 64.2152 57.1507C63.1056 58.4072 62.3558 59.9222 62.7712 61.5384C62.9992 62.42 63.5819 63.1344 63.9416 63.9552C64.3014 64.776 64.4179 65.6982 63.7491 66.3467C63.1816 66.899 62.3558 67.1523 61.7224 67.6032C61.0848 68.0467 60.5235 68.5908 60.0606 69.2144C59.5903 69.8317 59.2541 70.5403 59.0735 71.295C58.8929 72.0497 58.8718 72.8338 59.0118 73.5971C59.6856 77.1438 63.0094 79.1704 66.1051 80.4219L67.392 80.9286C67.4579 80.9539 67.5136 80.8576 67.4478 80.8272C64.3672 79.4491 60.7902 77.8328 59.6096 74.3875C59.3388 73.6394 59.2437 72.8391 59.3315 72.0484C59.4194 71.2577 59.6879 70.4979 60.1163 69.8275C60.5518 69.1625 61.1046 68.5822 61.7478 68.115C62.3659 67.6539 63.0803 67.3752 63.7136 66.9395C64.0257 66.7412 64.2797 66.4637 64.4497 66.1352C64.6197 65.8068 64.6996 65.4392 64.6814 65.0699C64.5823 64.2658 64.294 63.4966 63.8403 62.8254C63.3633 62.1213 63.1107 61.2893 63.1158 60.439C63.2071 59.6102 63.5224 58.822 64.0278 58.159C64.9854 56.8011 66.404 55.9144 67.6758 54.8859C68.9794 53.929 69.9504 52.5877 70.4523 51.0504C70.6854 50.2347 70.8323 49.3987 71.035 48.5779C71.2222 47.8162 71.4505 47.0653 71.719 46.3283C72.2217 44.8445 73.0432 43.4887 74.1256 42.356C74.4142 42.0695 74.7298 41.8116 75.068 41.5859C75.0832 41.5454 75.0478 41.4846 74.987 41.5099Z" fill="#263238"/>
<path d="M93.997 73.9057C93.8616 73.3047 93.599 72.7398 93.2269 72.2489C92.8317 71.7422 92.3504 71.3217 91.9096 70.8606C91.4635 70.4505 91.1406 69.9241 90.9773 69.3406C90.9067 68.6268 91.0857 67.9106 91.484 67.3139C91.8667 66.6758 92.2052 66.0122 92.4973 65.3278C92.7487 64.6464 92.8939 63.9304 92.928 63.2049C92.9909 61.7088 92.5911 60.2297 91.7829 58.9691C91.3928 58.3307 90.957 57.7278 90.5669 57.0945C90.1307 56.4055 89.7899 55.6607 89.5536 54.8803C89.0469 53.1678 88.9304 51.3337 88.5098 49.6211C88.0688 47.8232 87.4422 46.076 86.6402 44.4075C86.6402 44.367 86.5592 44.4075 86.5794 44.443C87.2802 45.9381 87.8235 47.5019 88.2008 49.1094C88.5605 50.6294 88.7074 52.1899 88.9709 53.7302C89.0892 54.4873 89.2827 55.2307 89.5485 55.9494C89.828 56.6138 90.1671 57.2514 90.5618 57.8545C91.332 59.111 92.1274 60.3473 92.3402 61.8369C92.5521 63.3008 92.2949 64.7943 91.6056 66.103C91.0077 67.2329 90.1666 68.4793 90.6885 69.8067C91.1344 70.9315 92.2085 71.6054 92.9128 72.5326C93.288 73.0448 93.5511 73.6304 93.6846 74.2511C93.8182 74.8719 93.8194 75.5138 93.688 76.135C93.0698 79.3219 89.8778 80.9078 86.8834 81.0649C86.8672 81.0692 86.8529 81.0787 86.8427 81.092C86.8324 81.1053 86.8269 81.1216 86.8269 81.1383C86.8269 81.1551 86.8324 81.1714 86.8427 81.1847C86.8529 81.198 86.8672 81.2075 86.8834 81.2118C89.4826 81.1814 92.3149 80.0363 93.536 77.5993C94.1128 76.4587 94.2758 75.1531 93.997 73.9057Z" fill="#263238"/>
<path d="M81.0669 68.714C82.6882 72.9902 90.2883 88.5854 95.9933 89.8065C102.372 91.1694 114.74 86.2598 122.695 82.8348C125.552 81.5985 118.581 71.7388 115.439 70.5886C113.554 69.8945 100.437 76.6686 97.5336 76.6686C95.897 76.6686 92.2085 70.6444 84.9125 64.9596C80.92 61.8132 78.8882 62.9633 81.0669 68.714Z" fill="#DD6A57"/>
<path d="M120.683 83.4265C122.391 82.9199 132.027 80.1383 133.968 78.8665C135.909 77.5948 141.213 73.4199 140.367 71.834C139.521 70.2481 137.874 71.3273 137.874 71.3273C137.874 71.3273 139.84 69.2095 138.827 67.6895C137.814 66.1695 135.316 67.9529 135.316 67.9529C135.316 67.9529 137.175 65.6425 136.076 64.1985C134.976 62.7545 132.747 64.9687 132.747 64.9687C132.747 64.9687 134.546 62.942 133.137 62.1263C131.445 61.1585 128.552 65.2777 126.302 66.5495C125.795 66.8383 115.541 71.682 115.541 71.682L120.683 83.4265Z" fill="#DD6A57"/>
<path d="M132.954 64.7811C130.821 67.8211 129.367 68.7584 125.998 70.1568C125.932 70.1821 125.962 70.2885 126.033 70.2632C129.453 69.1992 131.45 68.2669 133.127 64.8773C133.187 64.7101 133.061 64.6392 132.954 64.7811Z" fill="#263238"/>
<path d="M135.498 67.7107C133.005 70.6595 131.445 71.7083 128.019 73.4259C127.969 73.4512 128.019 73.5374 128.055 73.5171C131.551 72.1086 133.527 71.1307 135.624 67.8576C135.721 67.7107 135.609 67.5739 135.498 67.7107Z" fill="#263238"/>
<path d="M137.697 71.3989C135.077 74.0792 133.405 75.3002 129.874 76.5466C129.865 76.549 129.857 76.553 129.85 76.5584C129.843 76.5639 129.837 76.5707 129.832 76.5785C129.823 76.5941 129.821 76.6128 129.826 76.6302C129.83 76.6477 129.842 76.6626 129.857 76.6716C129.873 76.6806 129.892 76.6831 129.909 76.6784C133.638 75.7613 135.736 74.2464 137.768 71.485C137.909 71.2976 137.859 71.2266 137.697 71.3989Z" fill="#263238"/>
<path d="M112.571 71.4382C112.571 71.4382 115.368 67.2278 116.994 65.9155C118.621 64.6033 126.469 61.9534 127.128 63.6153C127.989 65.7635 123.764 68.1753 121.554 69.1025C121.554 69.1025 123.581 74.0678 120.901 76.4643C118.221 78.8609 112.571 71.4382 112.571 71.4382Z" fill="#DD6A57"/>
<path d="M127.173 64.2695C126.55 66.8029 123.551 67.8162 121.458 68.8599C121.427 68.8738 121.399 68.8951 121.377 68.9221C121.356 68.9491 121.341 68.981 121.335 69.0149C121.328 69.0488 121.33 69.0838 121.34 69.1168C121.35 69.1498 121.368 69.1799 121.392 69.2045C122.092 71.3426 122.461 74.5599 121.033 76.4599C121.027 76.4709 121.026 76.4834 121.028 76.4955C121.03 76.5075 121.037 76.5185 121.046 76.5266C121.055 76.5346 121.067 76.5395 121.079 76.5402C121.091 76.541 121.103 76.5377 121.114 76.5309C122.922 74.7069 122.816 71.5149 121.899 69.2197C124.062 68.1759 127.026 67.0258 127.199 64.2746L127.173 64.2695Z" fill="#263238"/>
<path d="M92.8621 90.977L96.3075 75.4122C92.8356 71.5665 89.1514 67.9179 85.2723 64.4834C79.6736 59.6448 77.0085 60.1616 80.3627 68.78C83.7168 77.3984 88.6669 87.3797 92.8621 90.977Z" fill="#0C3C82"/>
<path d="M92.8621 90.977L96.3075 75.4122C92.8356 71.5665 89.1514 67.9179 85.2723 64.4834C79.6736 59.6448 77.0085 60.1616 80.3627 68.78C83.7168 77.3984 88.6669 87.3797 92.8621 90.977Z" fill="#0C3C82"/>
<path d="M94.3565 75.0771C93.7637 77.2051 93.252 79.3382 92.8061 81.5017C92.5832 82.5859 92.3755 83.6753 92.1829 84.7697C91.9853 85.8793 91.8637 87.0041 91.6763 88.1238C91.6763 88.1745 91.7472 88.1846 91.7573 88.1238C92.1627 85.9451 92.644 83.7715 93.0899 81.5929L94.4123 75.0873C94.4427 75.0518 94.3717 75.0315 94.3565 75.0771Z" fill="#263238"/>
<path d="M81.5736 71.2267C81.7211 71.5696 81.8217 71.9309 81.8725 72.3008C81.8725 72.3616 81.8725 72.4224 81.8725 72.4883C81.7611 72.2045 81.6445 71.9309 81.528 71.6523C81.5309 71.5093 81.5461 71.3669 81.5736 71.2267ZM90.8355 70.2741C90.7515 71.0132 90.8579 71.7614 91.1445 72.4477C91.1978 72.0798 91.1978 71.7061 91.1445 71.3381C91.083 70.9696 90.9704 70.6115 90.8101 70.2741H90.8355ZM87.7043 81.4208C87.651 81.787 87.651 82.1591 87.7043 82.5253C87.7538 82.8938 87.8544 83.2536 88.0032 83.5944C88.059 83.2266 88.059 82.8526 88.0032 82.4848C87.9474 82.1162 87.8382 81.7578 87.6789 81.4208H87.7043ZM90.6328 77.9552C91.3719 78.046 92.1219 77.9393 92.8064 77.6461C92.4384 77.5928 92.0647 77.5928 91.6968 77.6461C91.3204 77.6946 90.9532 77.7988 90.6075 77.9552H90.6328ZM79.248 63.3885C79.6161 63.4394 79.9895 63.4394 80.3576 63.3885C80.7261 63.3418 81.0861 63.2429 81.4267 63.0947C81.0587 63.0414 80.685 63.0414 80.3171 63.0947C79.9404 63.1417 79.5722 63.2406 79.2227 63.3885H79.248ZM84.3147 77.8387C84.3112 77.8485 84.3112 77.8592 84.3147 77.8691C84.3269 77.8464 84.3371 77.8226 84.3451 77.7981C84.3259 77.8085 84.3087 77.8222 84.2944 77.8387H84.3147ZM93.7336 83.3613C93.4392 83.5888 93.1782 83.8566 92.9584 84.1568C92.7319 84.4496 92.5492 84.7739 92.4163 85.1195C92.7102 84.895 92.9696 84.6287 93.1864 84.3291C93.4135 84.0339 93.5978 83.7081 93.7336 83.3613ZM87.9779 75.1787C87.7508 74.8856 87.4849 74.6248 87.1875 74.4035C86.8921 74.1779 86.5663 73.9954 86.2197 73.8613C86.6849 74.4421 87.2898 74.8953 87.9779 75.1787ZM85.8752 66.9605C85.5794 67.1861 85.3167 67.4522 85.0949 67.7509C84.8678 68.0443 84.6836 68.3684 84.5477 68.7136C85.1326 68.2522 85.5897 67.6486 85.8752 66.9605Z" fill="white"/>
<path d="M80.3625 68.7798C83.7167 77.3931 88.6465 87.3795 92.862 90.9768L94.2807 84.5675L79.1567 61.9043C78.5841 62.8264 78.8983 65.0254 80.3625 68.7798Z" fill="#263238"/>
<path d="M90.0447 94.7721C90.0447 94.7721 79.2831 97.3055 58.8999 95.5575C58.8999 95.5575 66.8698 70.1177 73.2892 63.2574C76.2127 60.1364 79.0652 60.6126 81.4871 62.6241C82.09 63.1308 89.5938 72.6206 90.2068 75.9342C90.7692 78.8577 88.393 82.1054 88.393 82.1054L90.0447 94.7721Z" fill="#0C3C82"/>
<path d="M81.8471 72.3008C81.9004 72.6671 81.9004 73.0391 81.8471 73.4054C81.6983 73.0668 81.5993 72.7084 81.5532 72.3414C81.4974 71.9736 81.4974 71.5995 81.5532 71.2318C81.7002 71.5728 81.7991 71.9326 81.8471 72.3008ZM82.0345 89.4819C81.9837 89.85 81.9837 90.2234 82.0345 90.5915C82.08 90.9608 82.1808 91.3212 82.3335 91.6606C82.3843 91.2925 82.3843 90.9191 82.3335 90.551C82.285 90.1822 82.1844 89.8223 82.0345 89.4819ZM87.3191 92.7803C87.2283 93.5194 87.3349 94.2694 87.6281 94.9539C87.679 94.5858 87.679 94.2124 87.6281 93.8443C87.5772 93.4765 87.4731 93.1181 87.3191 92.7803ZM70.2039 77.707C70.1481 78.0747 70.1481 78.4488 70.2039 78.8166C70.2499 79.1836 70.3489 79.542 70.4977 79.8806C70.551 79.5143 70.551 79.1423 70.4977 78.776C70.4492 78.4079 70.3503 78.0482 70.2039 77.707ZM87.6788 81.4208C87.6255 81.7871 87.6255 82.1591 87.6788 82.5254C87.7284 82.8939 87.829 83.2537 87.9777 83.5944C88.0335 83.2267 88.0335 82.8526 87.9777 82.4848C87.9301 82.1176 87.8294 81.7592 87.6788 81.4208ZM75.0729 74.7024C75.4409 74.7557 75.8146 74.7557 76.1825 74.7024C76.551 74.6557 76.911 74.5568 77.2516 74.4086C76.8837 74.3553 76.51 74.3553 76.142 74.4086C75.7739 74.4571 75.4142 74.556 75.0729 74.7024ZM68.7295 85.4691C69.4703 85.5603 70.222 85.4537 70.9081 85.16C70.5402 85.1068 70.1665 85.1068 69.7985 85.16C69.4293 85.2116 69.0693 85.3157 68.7295 85.4691ZM79.2935 84.6128C79.6616 84.6637 80.035 84.6637 80.4031 84.6128C80.7716 84.5661 81.1316 84.4672 81.4721 84.319C81.1042 84.2657 80.7305 84.2657 80.3625 84.319C79.9941 84.3658 79.6341 84.4647 79.2935 84.6128ZM60.1313 94.508C60.4978 94.5588 60.8695 94.5588 61.2359 94.508C61.6046 94.4627 61.9648 94.3637 62.3049 94.2142C61.5658 94.1234 60.8159 94.23 60.1313 94.5232V94.508ZM79.2225 63.4139C79.5907 63.4648 79.964 63.4648 80.3321 63.4139C80.7007 63.3672 81.0606 63.2683 81.4012 63.12C81.0333 63.0668 80.6596 63.0668 80.2916 63.12C79.9248 63.1612 79.5652 63.2515 79.2225 63.3886V63.4139ZM75.6353 65.3595C75.3411 65.5852 75.0801 65.8513 74.8601 66.1499C74.6336 66.4446 74.4509 66.7705 74.318 67.1176C74.6109 66.89 74.8701 66.6222 75.0881 66.3222C75.3163 66.0295 75.5006 65.7052 75.6353 65.3595ZM66.0087 79.1054C65.7132 79.3297 65.4521 79.596 65.2335 79.8958C65.0053 80.1902 64.821 80.5162 64.6863 80.8635C65.2704 80.4004 65.7257 79.795 66.0087 79.1054ZM84.3196 77.8235C84.0242 78.0479 83.763 78.3142 83.5444 78.6139C83.3162 78.9084 83.1319 79.2343 82.9972 79.5816C83.5813 79.1185 84.0366 78.5131 84.3196 77.8235ZM75.1642 88.0683C74.8711 88.2954 74.6103 88.5613 74.389 88.8587C74.1634 89.154 73.9809 89.4799 73.8468 89.8264C74.1412 89.5989 74.4021 89.3311 74.622 89.031C74.8574 88.7332 75.047 88.4019 75.1844 88.048L75.1642 88.0683ZM85.2975 67.4976L85.0745 67.7712C84.8464 68.0639 84.6621 68.3882 84.5273 68.7339C84.8241 68.5091 85.0854 68.2409 85.3025 67.9384C85.3532 67.8675 85.3988 67.7966 85.4545 67.7256L85.2975 67.4976ZM87.9575 75.199C87.7304 74.9059 87.4645 74.6451 87.1671 74.4238C86.8717 74.1982 86.5459 74.0157 86.1993 73.8816C86.6645 74.4624 87.2694 74.9157 87.9575 75.199ZM64.6508 87.972C64.4233 87.6776 64.1555 87.4167 63.8553 87.1968C63.5627 86.9687 63.2384 86.7844 62.8927 86.6496C63.1171 86.9451 63.3833 87.2062 63.6831 87.4248C63.9885 87.645 64.3226 87.8223 64.6761 87.9518L64.6508 87.972ZM88.4642 88.3723C88.004 87.7852 87.3977 87.3292 86.706 87.0499C86.9308 87.3467 87.199 87.608 87.5015 87.8251C87.7985 88.047 88.1262 88.2245 88.4743 88.352L88.4642 88.3723ZM72.038 72.4528C71.8092 72.1596 71.5416 71.8988 71.2425 71.6776C70.9497 71.4511 70.6254 71.2685 70.2799 71.1355C70.5044 71.4294 70.7707 71.6889 71.0703 71.9056C71.3654 72.1328 71.6912 72.317 72.038 72.4528ZM78.7969 95.2528C78.3318 94.6721 77.7269 94.2188 77.0388 93.9355C77.2632 94.231 77.5295 94.4921 77.8292 94.7107C78.1246 94.9362 78.4504 95.1188 78.7969 95.2528ZM76.7703 81.2384C76.5538 80.9415 76.2942 80.6785 76.0001 80.4582C75.7057 80.23 75.3797 80.0457 75.0324 79.911C75.4955 80.4951 76.1009 80.9504 76.7905 81.2334L76.7703 81.2384ZM69.1247 92.4966C68.6649 91.9112 68.0608 91.4555 67.3716 91.1742C67.596 91.4696 67.8623 91.7308 68.162 91.9494C68.4604 92.1759 68.7897 92.3585 69.1399 92.4915L69.1247 92.4966Z" fill="white"/>
<path d="M86.3058 68.9305C86.9609 69.8109 87.5681 70.7259 88.1248 71.6716C87.8968 71.1396 87.6789 70.6025 87.4914 70.0502H87.5269C87.7245 70.4404 87.9272 70.8254 88.0893 71.2308C88.2514 71.6361 88.3781 71.9604 88.5149 72.3252C89.1482 73.4399 89.888 74.5647 90.2072 75.8161C90.4751 76.9453 90.4507 78.1241 90.1362 79.2412C89.972 79.817 89.7478 80.374 89.4674 80.903C89.2456 81.3836 88.9498 81.8264 88.5909 82.2153C88.7986 83.3857 88.9354 84.5764 89.0976 85.762C89.2881 86.9122 89.4082 88.0729 89.4573 89.2377C89.4573 89.2538 89.4509 89.2693 89.4395 89.2807C89.4281 89.2921 89.4126 89.2985 89.3965 89.2985C89.3804 89.2985 89.3649 89.2921 89.3535 89.2807C89.3421 89.2693 89.3357 89.2538 89.3357 89.2377L89.2597 88.9945C89.2556 88.9886 89.2533 88.9815 89.2533 88.9743C89.2533 88.967 89.2556 88.9599 89.2597 88.954C89.0354 87.8774 88.8662 86.79 88.753 85.6961C88.601 84.5713 88.3173 82.2305 88.3122 82.2204C88.3072 82.2103 88.8493 81.2375 89.057 80.7916C89.3153 80.248 89.5222 79.6814 89.6752 79.0993C89.9998 78.0045 90.0243 76.8426 89.7461 75.735C89.3504 74.5517 88.82 73.4178 88.1653 72.3556C87.532 71.2206 86.8784 70.0959 86.2248 68.9711C86.2045 68.9407 86.2754 68.9052 86.3058 68.9305Z" fill="#263238"/>
<path d="M71.592 64.9943C66.272 72.1991 56.1082 89.2433 59.5181 92.9977C65.1269 99.1689 78.6144 104.388 82.8248 105.533C84.6386 106.039 90.7085 92.7647 88.9858 91.7361C86.9186 90.4948 72.4736 86.0767 72.5141 84.8505C72.5141 84.1513 74.0341 78.3044 75.2754 70.8057C76.6992 62.1063 74.1304 61.5641 71.592 64.9943Z" fill="#DD6A57"/>
<path d="M83.5697 90.5712C83.5697 90.5712 86.8225 89.5173 90.2324 87.972C92.1324 87.1106 95.522 85.9453 97.2092 85.9453C99.7426 85.9453 110.271 87.6072 109.927 90.1709C109.612 92.4914 100.741 89.9226 100.741 89.9226C100.741 89.9226 109.947 91.7061 109.035 94.432C108.123 97.1578 98.5012 92.912 98.5012 92.912C98.5012 92.912 107.9 94.969 106.537 97.6341C105.524 99.6608 96.5556 96.3066 96.5556 96.3066C96.5556 96.3066 104.622 98.1357 103.649 100.249C102.58 102.589 94.1236 100.026 94.1236 100.026C90.7543 104.991 85.5407 106.926 81.8623 105.239C81.2695 104.981 83.5697 90.5712 83.5697 90.5712Z" fill="#DD6A57"/>
<path d="M97.5995 89.082C98.6888 89.2543 99.7883 89.4215 100.857 89.69C101.926 89.9586 102.985 90.2626 104.024 90.6324C105.389 91.0843 106.698 91.6912 107.925 92.4412C105.65 91.2708 101.845 90.2474 100.771 89.9788C99.6971 89.7103 98.6534 89.3911 97.5894 89.1226C97.564 89.1175 97.5742 89.082 97.5995 89.082Z" fill="#263238"/>
<path d="M96.5604 92.9219C97.9386 93.2005 99.3167 93.4285 100.685 93.768C102.053 94.1075 103.304 94.5483 104.637 94.9789C104.738 95.0144 104.687 95.06 104.586 95.0296C103.233 94.6496 101.956 94.4064 100.604 94.0416C99.2508 93.6768 97.9132 93.2664 96.5503 92.9523L96.5604 92.9219Z" fill="#263238"/>
<path d="M95.081 96.053C97.2035 96.4322 99.2816 97.0281 101.283 97.8314C101.384 97.8719 101.313 97.9175 101.207 97.8871C99.1546 97.2589 97.5484 96.7471 95.0658 96.129C95.0303 96.1189 95.0354 96.0479 95.081 96.053Z" fill="#263238"/>
<path d="M92.2487 87.145C92.7905 86.8226 93.3603 86.5496 93.9511 86.3293C94.4956 86.1011 95.0561 85.9131 95.6282 85.7669C96.8668 85.4512 98.158 85.3994 99.418 85.6149C102.439 86.1075 105.383 86.9879 108.178 88.2344C108.224 88.2344 108.209 88.3458 108.178 88.3306C105.807 87.6922 103.218 86.6789 99.5954 86.1317C98.3555 85.9154 97.0866 85.9274 95.8511 86.1672C95.2173 86.3136 94.5916 86.4929 93.9764 86.7042C93.4242 86.8816 92.882 87.1248 92.3196 87.2514C92.3055 87.2608 92.2882 87.2643 92.2716 87.2609C92.255 87.2576 92.2404 87.2478 92.231 87.2337C92.2216 87.2196 92.2181 87.2023 92.2215 87.1857C92.2248 87.1691 92.2346 87.1544 92.2487 87.145Z" fill="#263238"/>
<path d="M58.2007 90.5509L72.9599 84.5469C74.1547 79.5065 75.0664 74.4031 75.6908 69.2608C76.4964 61.904 74.5559 60.004 69.3676 67.6546C64.1794 75.3053 58.7732 85.0384 58.2007 90.5509Z" fill="#0C3C82"/>
<path d="M70.1124 67.3404C70.0384 67.1777 69.9807 67.0079 69.9401 66.8338C70.0043 66.7392 70.0702 66.648 70.1377 66.5602C70.1634 66.8203 70.1549 67.0826 70.1124 67.3404ZM70.2036 77.7068C70.1478 78.0746 70.1478 78.4487 70.2036 78.8164C70.2497 79.1834 70.3486 79.5418 70.4975 79.8804C70.5508 79.5142 70.5508 79.1422 70.4975 78.7759C70.4489 78.4078 70.3501 78.0481 70.2036 77.7068ZM68.7292 85.469C69.47 85.5602 70.2217 85.4535 70.9079 85.1599C70.5399 85.1066 70.1662 85.1066 69.7983 85.1599C69.429 85.2115 69.069 85.3155 68.7292 85.469ZM65.5524 73.6434L65.37 73.9423H65.5321C65.9008 73.8963 66.2608 73.7973 66.6012 73.6484C66.2539 73.5935 65.9002 73.5918 65.5524 73.6434ZM75.6351 65.3594C75.3408 65.5851 75.0798 65.8512 74.8599 66.1498C74.6333 66.4444 74.4507 66.7704 74.3177 67.1175C74.6106 66.8899 74.8699 66.6221 75.0879 66.322C75.316 66.0294 75.5003 65.7051 75.6351 65.3594ZM66.0084 79.1052C65.7129 79.3296 65.4518 79.5959 65.2332 79.8956C65.005 80.1901 64.8207 80.5161 64.686 80.8634C65.2701 80.4002 65.7254 79.7949 66.0084 79.1052ZM64.6556 87.9719C64.4281 87.6775 64.1603 87.4165 63.8601 87.1967C63.5675 86.9686 63.2432 86.7843 62.8975 86.6495C63.1218 86.945 63.3881 87.2061 63.6879 87.4247C63.9917 87.6445 64.3241 87.8218 64.6759 87.9516L64.6556 87.9719ZM72.0377 72.4527C71.8089 72.1595 71.5413 71.8987 71.2423 71.6775C70.9494 71.451 70.6251 71.2684 70.2796 71.1354C70.5041 71.4293 70.7704 71.6887 71.07 71.9055C71.3651 72.1327 71.6909 72.3169 72.0377 72.4527Z" fill="white"/>
<path d="M75.5591 73.8211C75.3519 74.248 75.1823 74.6922 75.0524 75.1485C74.9967 75.3005 74.951 75.4576 74.9004 75.6096C75.027 74.7584 75.1486 73.9021 75.2652 73.0459C75.2652 72.9901 75.1892 72.9648 75.1791 73.0459C74.8041 74.9763 73.0865 84.0355 73.0105 84.5016C72.9649 84.5016 72.5038 84.7701 72.4785 84.7651C72.4532 84.76 72.4785 84.8613 72.514 84.8411C72.5494 84.8208 73.1068 84.5725 73.1068 84.5675C73.2942 84.1571 74.6268 77.2461 74.7788 76.4051C74.7994 76.369 74.818 76.3317 74.8345 76.2936C74.8801 76.172 74.9207 76.0504 74.9663 75.9339C75.0524 75.7109 75.1233 75.488 75.2044 75.2651C75.3807 74.8079 75.5246 74.339 75.635 73.8616C75.6404 73.8515 75.6416 73.8397 75.6382 73.8288C75.6349 73.8179 75.6274 73.8087 75.6173 73.8033C75.6072 73.798 75.5954 73.7968 75.5845 73.8001C75.5736 73.8035 75.5644 73.811 75.5591 73.8211Z" fill="#263238"/>
<path d="M72.6965 82.8852C72.1116 83.0216 71.5348 83.1908 70.9688 83.3919C70.3962 83.5743 69.8186 83.7415 69.2461 83.9289C68.1466 84.2887 67.0573 84.6788 65.968 85.0841C63.779 85.8697 61.6313 86.766 59.5333 87.7695C59.4877 87.7695 59.5333 87.8657 59.5688 87.8505C61.793 87.0703 63.9818 86.1887 66.1909 85.3628L69.4538 84.1519L71.0802 83.5337C71.6224 83.3361 72.205 83.1791 72.7218 82.9308C72.7522 82.9207 72.7269 82.8801 72.6965 82.8852Z" fill="#263238"/>
<path d="M75.9341 62.4416C76.0557 62.9939 78.6346 66.5811 81.1426 66.495C81.9584 66.4646 81.9938 61.9958 81.9938 61.9958L82.0698 61.6664L83.1541 57.0558L77.7632 53.5091L76.988 53.043C76.988 53.043 76.7701 54.3248 76.5218 55.9208C76.5218 55.9918 76.4965 56.0678 76.4864 56.1488C76.4762 56.2299 76.4509 56.3211 76.4408 56.4072C76.4002 56.6454 76.3597 56.9139 76.3242 57.1318C76.2888 57.3496 76.2685 57.4966 76.2482 57.6942C76.228 57.8918 76.2026 58.0792 76.1722 58.2718C75.9958 59.6545 75.9163 61.0478 75.9341 62.4416Z" fill="#DD6A57"/>
<path d="M76.5068 55.9208C76.9621 57.2262 77.6966 58.4166 78.6592 59.4089C79.6218 60.4013 80.7892 61.1717 82.0802 61.6664L83.1644 57.0558L77.7735 53.5091L76.9983 53.043C76.9983 53.043 76.7703 54.3248 76.5068 55.9208Z" fill="#263238"/>
<path d="M89.817 49.7642C90.881 58.0076 86.0677 59.5783 84.2893 59.8063C82.673 60.014 77.1554 60.5156 75.2402 52.4242C73.325 44.3327 76.821 41.237 80.4842 40.5631C84.1474 39.8892 88.748 41.546 89.817 49.7642Z" fill="#DD6A57"/>
<path d="M88.4689 48.492C88.2771 48.4821 88.086 48.4618 87.8964 48.4312C87.6922 48.4408 87.4907 48.382 87.3239 48.264C87.2795 48.2162 87.252 48.1551 87.2456 48.0901C87.2392 48.0252 87.2542 47.9599 87.2884 47.9043C87.3721 47.8042 87.4811 47.7283 87.6041 47.6846C87.727 47.641 87.8595 47.6311 87.9876 47.656C88.2558 47.6671 88.5103 47.7772 88.702 47.9651C88.7434 48.0101 88.7709 48.0662 88.7808 48.1266C88.7908 48.187 88.783 48.249 88.7582 48.305C88.7334 48.3609 88.6929 48.4084 88.6415 48.4417C88.5901 48.4749 88.5301 48.4924 88.4689 48.492Z" fill="#263238"/>
<path d="M82.7995 49.0802C82.9833 49.0311 83.1643 48.9719 83.3416 48.9029C83.5377 48.865 83.7158 48.7635 83.8483 48.6141C83.8829 48.5595 83.8982 48.4949 83.8918 48.4306C83.8854 48.3663 83.8575 48.3061 83.8128 48.2594C83.7096 48.1783 83.5864 48.1266 83.4562 48.1096C83.326 48.0927 83.1936 48.1112 83.0731 48.1632C82.8147 48.2298 82.5906 48.3907 82.4448 48.6141C82.4117 48.6681 82.3957 48.7308 82.3988 48.7941C82.402 48.8573 82.4242 48.9182 82.4626 48.9686C82.5009 49.019 82.5536 49.0566 82.6137 49.0765C82.6739 49.0965 82.7386 49.0978 82.7995 49.0802Z" fill="#263238"/>
<path d="M84.3246 50.9707C84.3246 50.9707 84.2841 51.0011 84.2892 51.0264C84.3804 51.5838 84.3905 52.2374 83.9092 52.4907C83.9092 52.4907 83.9092 52.5262 83.9092 52.5211C84.5222 52.3539 84.502 51.4824 84.3246 50.9707Z" fill="#263238"/>
<path d="M83.7472 50.4479C82.8352 50.4986 83.0024 52.3175 83.8486 52.2719C84.6947 52.2263 84.5123 50.4074 83.7472 50.4479Z" fill="#263238"/>
<path d="M83.3974 50.5794C83.2504 50.6959 83.1086 50.8885 82.9211 50.929C82.7336 50.9695 82.5158 50.7922 82.3536 50.625H82.3232C82.3536 50.9695 82.5208 51.3191 82.8958 51.3343C83.2707 51.3495 83.4582 51.0202 83.5139 50.6605C83.524 50.6199 83.4582 50.5287 83.3974 50.5794Z" fill="#263238"/>
<path d="M87.4455 50.5645C87.4455 50.5645 87.4911 50.5645 87.4961 50.6101C87.5215 51.1775 87.6532 51.8159 88.1801 51.9629V51.9933C87.5468 51.9578 87.3847 51.1066 87.4455 50.5645Z" fill="#263238"/>
<path d="M87.9016 49.9317C88.8035 49.7899 89.0264 51.6037 88.1904 51.7355C87.3544 51.8672 87.1467 50.0533 87.9016 49.9317Z" fill="#263238"/>
<path d="M88.2968 50.0074C88.4488 50.0834 88.6109 50.2404 88.8034 50.2303C88.996 50.2202 89.1277 50.0074 89.2341 49.8047C89.2341 49.8047 89.2341 49.8047 89.2645 49.8047C89.3152 50.1492 89.2645 50.5242 88.92 50.6306C88.5754 50.737 88.3626 50.4583 88.236 50.1239C88.1954 50.0783 88.2309 49.9719 88.2968 50.0074Z" fill="#263238"/>
<path d="M84.6843 55.6015C84.8262 55.7282 84.968 55.9055 85.191 55.9106C85.3999 55.8981 85.6037 55.841 85.7888 55.7434C85.7888 55.7434 85.8294 55.7434 85.8192 55.7434C85.7432 55.858 85.6377 55.9501 85.5137 56.0099C85.3898 56.0696 85.252 56.0948 85.115 56.0828C84.9984 56.0583 84.8916 56.0001 84.8078 55.9155C84.7241 55.8308 84.667 55.7234 84.6438 55.6066C84.6134 55.5964 84.664 55.5863 84.6843 55.6015Z" fill="#263238"/>
<path d="M86.8275 53.3253C86.8275 53.3253 87.0302 54.1511 87.0707 54.5463C87.0707 54.5869 86.9795 54.6122 86.8478 54.6325C86.5142 54.7303 86.1603 54.7348 85.8244 54.6455C85.4885 54.5562 85.1835 54.3764 84.9427 54.1258C84.9123 54.0903 84.9427 54.0447 84.9984 54.065C85.5383 54.3584 86.1588 54.4686 86.7667 54.3791C86.7667 54.2677 86.3715 52.9757 86.4374 52.9605C86.7482 52.9582 87.0581 52.9957 87.3595 53.0719C86.9846 51.3341 86.3462 49.6671 85.9915 47.9343C85.9907 47.9222 85.9939 47.9101 86.0006 47.9C86.0074 47.8898 86.0172 47.8821 86.0287 47.8781C86.0402 47.8741 86.0527 47.874 86.0643 47.8777C86.0758 47.8814 86.0859 47.8889 86.0928 47.8989C86.8428 49.6614 87.4148 51.4945 87.8003 53.3709C87.8408 53.5887 86.9947 53.3759 86.8275 53.3253Z" fill="#263238"/>
<path d="M76.0255 52.6368C77.3631 52.5912 77.3529 49.7741 77.3529 49.7741C77.3529 49.7741 80.0484 49.4802 80.4994 45.5029C80.5549 46.6732 80.266 47.8341 79.6684 48.8418C79.6684 48.8418 84.3652 47.8032 85.9207 43.6029C85.9207 43.6029 85.3482 45.7157 84.6794 46.5213C85.8441 46.0175 86.8034 45.1333 87.4002 44.0133C87.4002 44.0133 88.4945 46.2122 89.2039 46.7746C89.2039 46.7746 88.0689 38.4805 80.4639 40.2336C80.4639 40.2336 75.6759 41.1 74.3839 45.1128C73.0919 49.1256 76.0255 52.6368 76.0255 52.6368Z" fill="#263238"/>
<path d="M83.1238 54.1773C82.6415 54.181 82.1678 54.0493 81.7566 53.7972C81.3454 53.5452 81.0131 53.1828 80.7974 52.7514C80.5818 52.3199 80.4915 51.8366 80.5368 51.3564C80.5821 50.8762 80.7611 50.4183 81.0535 50.0347C81.346 49.6512 81.7402 49.3573 82.1913 49.1866C82.6424 49.0158 83.1323 48.975 83.6055 49.0687C84.0786 49.1624 84.516 49.387 84.8679 49.7168C85.2198 50.0466 85.4722 50.4686 85.5964 50.9347C85.7708 51.5971 85.6751 52.3018 85.3302 52.8937C84.9853 53.4856 84.4195 53.9163 83.7572 54.0912C83.5502 54.1447 83.3376 54.1736 83.1238 54.1773ZM83.0934 49.3589C82.9072 49.3604 82.7217 49.3842 82.5412 49.4299C81.9881 49.5723 81.5101 49.9203 81.2046 50.4028C80.8991 50.8854 80.789 51.4663 80.8969 52.0272C81.0047 52.588 81.3223 53.0867 81.7849 53.4216C82.2476 53.7565 82.8205 53.9025 83.387 53.8297C83.9535 53.7569 84.4709 53.471 84.8339 53.03C85.1969 52.5891 85.3782 52.0263 85.3407 51.4564C85.3033 50.8865 85.05 50.3523 84.6325 49.9626C84.215 49.5729 83.6646 49.357 83.0934 49.3589Z" fill="#0C3C82"/>
<path d="M88.996 53.4069C87.9827 53.4069 87.1061 52.3935 86.9339 51.0711C86.8453 50.4349 86.9568 49.7868 87.2531 49.2167C87.3651 48.9633 87.5407 48.7432 87.7629 48.5777C87.9851 48.4123 88.2463 48.3071 88.5211 48.2724C88.796 48.2377 89.0752 48.2747 89.3315 48.3798C89.5878 48.4849 89.8126 48.6545 89.984 48.8722C90.4125 49.3526 90.68 49.9549 90.7491 50.5949C90.9264 52.0034 90.2171 53.2599 89.1632 53.3917C89.108 53.4018 89.0521 53.4068 88.996 53.4069ZM88.692 48.6037H88.5653C88.3478 48.6414 88.1423 48.7305 87.9661 48.8636C87.7898 48.9966 87.6479 49.1698 87.552 49.3687C87.2911 49.8774 87.1955 50.4548 87.2784 51.0205C87.4304 52.2415 88.2563 53.1485 89.1227 53.0471C89.9891 52.9458 90.5616 51.8565 90.4045 50.6303C90.3427 50.0661 90.1073 49.535 89.7307 49.1103C89.602 48.9587 89.4432 48.8354 89.2644 48.7481C89.0857 48.6609 88.8908 48.6117 88.692 48.6037Z" fill="#0C3C82"/>
<path d="M85.5507 51.2438L85.2974 51.0108C85.6419 50.6358 86.488 50.0836 87.1974 50.6713L86.9744 50.9398C86.3411 50.4078 85.5811 51.2084 85.5507 51.2438Z" fill="#0C3C82"/>
<path d="M74.7383 53.3673L74.4141 53.2507C74.4698 53.0987 74.9815 51.7662 75.7263 51.5483C76.4711 51.3305 80.5549 51.1683 80.7525 51.1582V51.5078C79.102 51.5422 77.4547 51.6656 75.8175 51.8777C75.3311 52.0246 74.8751 53.0025 74.7383 53.3673Z" fill="#0C3C82"/>
<path d="M75.6201 55.4699C75.7447 55.5123 75.874 55.5395 76.0052 55.5509C76.1361 55.5713 76.2694 55.5713 76.4004 55.5509C76.5686 55.5275 76.7296 55.4669 76.8716 55.3736C76.9846 55.3043 77.087 55.219 77.1756 55.1203C77.3027 54.97 77.4021 54.7985 77.4694 54.6136L76.9172 52.4147C76.9172 52.4147 74.9918 49.8813 73.8468 50.5957C72.7017 51.3101 74.2166 55.0139 75.6201 55.4699Z" fill="#DD6A57"/>
<path d="M74.3027 51.6797V51.7152C75.3161 52.0698 75.8227 52.9464 76.2331 53.8584C76.1722 53.7642 76.0918 53.6843 75.9972 53.624C75.9026 53.5638 75.7961 53.5247 75.6851 53.5093C75.574 53.4939 75.4609 53.5026 75.3535 53.5349C75.2461 53.5671 75.1469 53.6222 75.0627 53.6962C75.0627 53.6962 75.0627 53.757 75.0931 53.7469C75.261 53.6847 75.4441 53.6766 75.6168 53.7239C75.7895 53.7711 75.943 53.8713 76.0558 54.0104C76.2505 54.2419 76.4203 54.4932 76.5625 54.7602C76.6131 54.8464 76.7702 54.7906 76.7297 54.6944C76.6689 53.4176 75.6353 51.7354 74.3027 51.6797Z" fill="#263238"/>
<path d="M75.7161 55.1136C75.7343 55.1875 75.7739 55.2543 75.83 55.3057C75.8861 55.3571 75.9562 55.3907 76.0314 55.4023C76.1066 55.414 76.1835 55.403 76.2525 55.3709C76.3215 55.3388 76.3795 55.287 76.419 55.222C76.4586 55.157 76.478 55.0817 76.4748 55.0057C76.4716 54.9297 76.446 54.8563 76.4012 54.7948C76.3563 54.7334 76.2943 54.6866 76.2229 54.6603C76.1514 54.6341 76.0738 54.6296 75.9999 54.6474C75.901 54.6726 75.816 54.7355 75.7629 54.8226C75.7099 54.9098 75.6931 55.0142 75.7161 55.1136Z" fill="white"/>
<path d="M74.9005 54.5666C74.9195 54.6355 74.9644 54.6944 75.0257 54.7312C75.087 54.768 75.16 54.7798 75.2298 54.7642C75.3003 54.7474 75.3613 54.7032 75.3993 54.6415C75.4373 54.5797 75.4492 54.5054 75.4325 54.4349C75.4242 54.4001 75.409 54.3673 75.3879 54.3384C75.3668 54.3095 75.3401 54.2852 75.3094 54.2668C75.2787 54.2484 75.2447 54.2363 75.2092 54.2312C75.1738 54.2262 75.1377 54.2282 75.1031 54.2373C75.0326 54.2541 74.9717 54.2983 74.9337 54.36C74.8957 54.4218 74.8837 54.4961 74.9005 54.5666Z" fill="white"/>
<path d="M82.0039 62.3495L80.7626 66.1191L75.8986 61.7617L74.6978 63.3324C74.6978 63.3324 79.6428 70.4257 79.6479 70.1015L80.9602 66.8335L83.2908 68.9007L82.7538 63.378L82.0039 62.3495Z" fill="#EBEBEB"/>
<path d="M83.1797 66.1601C83.0632 65.2481 82.9669 64.331 82.8048 63.4292C82.8048 63.3988 82.749 63.3836 82.744 63.4292C82.6173 64.3209 83.0885 67.7966 83.1392 68.6326C83.0429 68.5465 80.9858 66.8238 80.9706 66.8542C80.6717 67.3609 79.709 69.7574 79.6482 69.9753C78.868 68.8454 75.8837 64.7516 74.9768 63.6977C74.9464 63.6673 74.9008 63.6977 74.921 63.7332C75.6253 64.9289 79.5824 70.4465 79.633 70.4262C80.1513 69.3018 80.6079 68.1499 81.001 66.9758C81.3557 67.3558 83.4432 69.3116 83.4432 69.1748C83.409 68.1659 83.3211 67.1596 83.1797 66.1601Z" fill="#263238"/>
<path d="M177.733 70.6543H119.132V145.884H177.733V70.6543Z" fill="#EBEBEB"/>
<path d="M177.734 145.886L148.479 145.987L119.133 146.043H118.97V145.881L118.884 70.6507V70.4277H119.133L177.734 70.4885H177.926V70.676L177.84 108.321L177.734 145.886ZM177.734 145.886L177.607 108.22L177.546 70.6557L177.734 70.8483L119.133 70.904L119.381 70.6557L119.29 145.886L119.133 145.723L148.393 145.784L177.734 145.886Z" fill="#DBDBDB"/>
<path d="M125.542 86.7366L148.433 86.6758L171.324 86.7366L148.433 86.7923L125.542 86.7366Z" fill="#C7C7C7"/>
<path d="M125.542 88.6007L148.433 88.5449L171.324 88.6007L148.433 88.6615L125.542 88.6007Z" fill="#C7C7C7"/>
<path d="M125.542 90.471L148.433 90.4102L171.324 90.471L148.433 90.5267L125.542 90.471Z" fill="#C7C7C7"/>
<path d="M125.542 92.335L148.433 92.2793L171.324 92.335L148.433 92.3908L125.542 92.335Z" fill="#C7C7C7"/>
<path d="M125.542 94.2053L148.433 94.1445L171.324 94.2053L148.433 94.2611L125.542 94.2053Z" fill="#C7C7C7"/>
<path d="M125.542 96.0694L148.433 96.0137L171.324 96.0694L148.433 96.1251L125.542 96.0694Z" fill="#C7C7C7"/>
<path d="M125.542 97.9346L148.433 97.8789L171.324 97.9346L148.433 97.9954L125.542 97.9346Z" fill="#C7C7C7"/>
<path d="M125.542 99.8038L148.433 99.748L171.324 99.8038L148.433 99.8595L125.542 99.8038Z" fill="#C7C7C7"/>
<path d="M125.542 101.669L148.433 101.613L171.324 101.669L148.433 101.73L125.542 101.669Z" fill="#C7C7C7"/>
<path d="M125.542 103.537L148.433 103.477L171.324 103.537L148.433 103.593L125.542 103.537Z" fill="#C7C7C7"/>
<path d="M125.542 105.401L148.433 105.346L171.324 105.401L148.433 105.462L125.542 105.401Z" fill="#C7C7C7"/>
<path d="M125.542 107.272L148.433 107.211L171.324 107.272L148.433 107.327L125.542 107.272Z" fill="#C7C7C7"/>
<path d="M125.542 109.136L148.433 109.08L171.324 109.136L148.433 109.197L125.542 109.136Z" fill="#C7C7C7"/>
<path d="M125.542 111.006L148.433 110.945L171.324 111.006L148.433 111.062L125.542 111.006Z" fill="#C7C7C7"/>
<path d="M125.542 112.87L148.433 112.814L171.324 112.87L148.433 112.931L125.542 112.87Z" fill="#C7C7C7"/>
<path d="M133.856 107.211H130.386V115.044H133.856V107.211Z" fill="#0C3C82"/>
<path d="M140.296 103.031H136.825V115.044H140.296V103.031Z" fill="#0C3C82"/>
<path d="M146.736 98.3555H143.265V115.05H146.736V98.3555Z" fill="#0C3C82"/>
<path d="M153.175 96.3477H149.705V115.049H153.175V96.3477Z" fill="#0C3C82"/>
<path d="M159.615 92.7656H156.145V115.049H159.615V92.7656Z" fill="#0C3C82"/>
<path d="M166.055 89.2246H162.584V115.044H166.055V89.2246Z" fill="#0C3C82"/>
<path d="M126.783 85.4238L126.874 92.8313L126.935 100.234C126.981 105.174 126.991 110.109 127.001 115.049L126.783 114.831H137.93L149.076 114.856L160.223 114.927L171.37 115.054L160.223 115.18L149.076 115.251H137.93H126.783H126.57V115.038C126.57 110.1 126.591 105.162 126.631 100.224L126.697 92.8212L126.783 85.4238Z" fill="#C7C7C7"/>
<path d="M133.856 116.615H130.386V116.929H133.856V116.615Z" fill="#C7C7C7"/>
<path d="M140.296 116.615H136.825V116.929H140.296V116.615Z" fill="#C7C7C7"/>
<path d="M146.736 116.615H143.265V116.929H146.736V116.615Z" fill="#C7C7C7"/>
<path d="M153.175 116.615H149.705V116.929H153.175V116.615Z" fill="#C7C7C7"/>
<path d="M159.615 116.615H156.145V116.929H159.615V116.615Z" fill="#C7C7C7"/>
<path d="M166.055 116.615H162.584V116.929H166.055V116.615Z" fill="#C7C7C7"/>
<path d="M130.776 108.2C132.471 108.174 134.163 108.047 135.843 107.82C137.527 107.6 139.2 107.296 140.853 106.908C144.152 106.164 147.352 105.036 150.389 103.549C153.434 102.082 156.243 100.169 158.724 97.8739L159.195 97.4483L159.641 96.9973L160.522 96.0904C161.069 95.4469 161.657 94.8339 162.154 94.1499C163.205 92.8184 164.157 91.4111 165.001 89.9395H165.027C162.72 94.544 159.285 98.4888 155.04 101.405C153.635 102.38 152.158 103.248 150.622 103.999C144.442 106.954 137.648 108.393 130.801 108.2H130.776Z" fill="#263238"/>
<path d="M165.974 92.3654L165.493 92.487L164.9 90.1158L162.579 90.8808L162.427 90.4096L165.254 89.4824L165.974 92.3654Z" fill="#263238"/>
<path d="M124.564 128.623H172.302V126.693H124.564V128.623Z" fill="#DBDBDB"/>
<path d="M124.564 133.502H151.442V131.572H124.564V133.502Z" fill="#DBDBDB"/>
<path d="M134.991 80.9004H161.87V78.97H134.991V80.9004Z" fill="#DBDBDB"/>
<path d="M166.658 164.226L109.252 176.021L94.1133 102.331L136.734 93.5762L154.402 104.581L166.658 164.226Z" fill="#0C3C82"/>
<path opacity="0.8" d="M166.658 164.226L109.252 176.021L94.1133 102.331L136.734 93.5762L154.402 104.581L166.658 164.226Z" fill="white"/>
<path d="M136.734 93.5762L154.401 104.581L139.617 107.616L136.734 93.5762Z" fill="#0C3C82"/>
<path d="M102.64 115.436L134.557 108.879L134.169 106.988L102.252 113.545L102.64 115.436Z" fill="#DBDBDB"/>
<path d="M103.619 120.212L135.536 113.654L135.148 111.763L103.231 118.321L103.619 120.212Z" fill="#DBDBDB"/>
<path d="M104.608 124.985L136.525 118.428L136.136 116.537L104.219 123.094L104.608 124.985Z" fill="#DBDBDB"/>
<path d="M105.589 129.762L152.35 120.154L151.962 118.263L105.2 127.871L105.589 129.762Z" fill="#DBDBDB"/>
<path d="M106.661 134.286L153.445 124.738L153.059 122.846L106.275 132.394L106.661 134.286Z" fill="#DBDBDB"/>
<path d="M107.551 139.31L154.312 129.703L153.924 127.812L107.163 137.419L107.551 139.31Z" fill="#DBDBDB"/>
<path d="M108.536 144.09L155.297 134.482L154.909 132.592L108.147 142.199L108.536 144.09Z" fill="#DBDBDB"/>
<path d="M109.515 148.863L156.276 139.256L155.888 137.365L109.126 146.972L109.515 148.863Z" fill="#DBDBDB"/>
<path d="M110.495 153.642L157.256 144.035L156.868 142.144L110.106 151.752L110.495 153.642Z" fill="#DBDBDB"/>
<path d="M111.473 158.418L158.235 148.811L157.846 146.92L111.085 156.527L111.473 158.418Z" fill="#DBDBDB"/>
<path d="M112.462 163.191L159.224 153.584L158.835 151.693L112.074 161.3L112.462 163.191Z" fill="#DBDBDB"/>
<path d="M113.442 167.971L160.204 158.363L159.815 156.472L113.054 166.08L113.442 167.971Z" fill="#DBDBDB"/>
<path d="M284.367 110.667L220.066 115.349C212.744 87.5123 220.572 59.6761 214.882 31.8398L279.173 27.1582C286.5 54.9945 278.667 82.8307 284.367 110.667Z" fill="#EBEBEB"/>
<path d="M284.366 110.667L220.106 115.521H219.954C219.937 115.469 219.924 115.417 219.913 115.363C212.551 87.5323 220.364 59.696 214.634 31.8597C214.634 31.7787 214.598 31.6925 214.578 31.6115H214.831L279.133 27.0059H279.31C279.324 27.0658 279.341 27.125 279.361 27.1832C286.621 54.984 278.712 82.8253 284.366 110.667ZM284.366 110.667C278.59 82.8354 286.393 55.0043 279.006 27.1731L279.229 27.3352L214.933 32.0928L215.13 31.8192C220.81 59.6859 212.931 87.4968 220.197 115.338L219.999 115.191L284.366 110.667Z" fill="#DBDBDB"/>
<path d="M222.645 43.7672L258.745 41.168C258.826 41.8807 258.897 42.5951 258.957 43.3112L222.812 45.9154C222.761 45.196 222.705 44.4816 222.645 43.7672Z" fill="#DBDBDB"/>
<path d="M223.004 49.1824L259.216 46.5781C259.26 47.2908 259.3 48.0052 259.337 48.7213L223.091 51.3256C223.065 50.6112 223.035 49.8968 223.004 49.1824Z" fill="#DBDBDB"/>
<path d="M223.171 54.5945L259.469 51.9902C259.469 52.7046 259.504 53.419 259.52 54.1334L223.192 56.7478C223.192 56.0233 223.182 55.3089 223.171 54.5945Z" fill="#DBDBDB"/>
<path d="M223.192 60.0054L276.457 56.1953C276.457 56.9097 276.457 57.6241 276.457 58.3385L223.161 62.1486C223.181 61.4342 223.192 60.7198 223.192 60.0054Z" fill="#DBDBDB"/>
<path d="M223.121 65.4156L276.453 61.6055L276.422 63.7487L223.075 67.5639L223.121 65.4156Z" fill="#DBDBDB"/>
<path d="M222.994 70.8328L276.356 67.0176C276.356 67.732 276.326 68.4464 276.305 69.1608L222.933 72.9608C222.958 72.2616 222.979 71.5472 222.994 70.8328Z" fill="#DBDBDB"/>
<path d="M222.867 76.243L276.224 72.4531C276.224 73.1675 276.194 73.887 276.174 74.6014L222.827 78.4115C222.842 77.6718 222.852 76.9574 222.867 76.243Z" fill="#DBDBDB"/>
<path d="M222.786 81.6558L276.133 77.8457C276.133 78.5601 276.108 79.2745 276.098 79.9889L222.797 83.799C222.776 83.0948 222.776 82.3702 222.786 81.6558Z" fill="#DBDBDB"/>
<path d="M222.792 87.066L276.042 83.2559C276.042 83.9703 276.042 84.6847 276.042 85.3991L222.842 89.2143C222.812 88.4999 222.802 87.7855 222.792 87.066Z" fill="#DBDBDB"/>
<path d="M222.933 92.4832L276.087 88.668C276.087 89.3824 276.118 90.0968 276.143 90.8162L223.04 94.6264C222.999 93.9137 222.964 93.1993 222.933 92.4832Z" fill="#DBDBDB"/>
<path d="M223.263 97.8933L276.28 94.0781C276.316 94.7976 276.361 95.512 276.407 96.2264L223.44 100.037C223.379 99.3069 223.318 98.6077 223.263 97.8933Z" fill="#DBDBDB"/>
<path d="M223.82 103.304L276.67 99.4941C276.736 100.209 276.807 100.923 276.888 101.637L224.114 105.453C224.007 104.738 223.911 104.019 223.82 103.304Z" fill="#DBDBDB"/>
<path d="M275.221 140.464C253.049 136.705 231.129 132.95 209.461 129.201C212.293 101.694 226.176 74.2074 225.467 46.7207C247.638 50.4802 269.558 54.2396 291.227 57.9991C288.415 85.4858 274.512 112.988 275.221 140.464Z" fill="#0C3C82"/>
<path opacity="0.8" d="M275.221 140.464C253.049 136.705 231.129 132.95 209.461 129.201C212.293 101.694 226.176 74.2074 225.467 46.7207C247.638 50.4802 269.558 54.2396 291.227 57.9991C288.415 85.4858 274.512 112.988 275.221 140.464Z" fill="white"/>
<path d="M230.918 59.9688C242.936 62.0596 254.899 64.1504 266.806 66.2413C266.684 66.9506 266.557 67.6549 266.426 68.3591C254.543 66.2717 242.614 64.1808 230.64 62.0866C230.741 61.3824 230.832 60.6781 230.918 59.9688Z" fill="#DBDBDB"/>
<path d="M230.148 65.3145C242.068 67.4053 253.946 69.4961 265.782 71.587C265.63 72.2963 265.478 73.0006 265.321 73.7049C253.516 71.6174 241.668 69.5265 229.778 67.4323C229.905 66.728 230.027 66.0238 230.148 65.3145Z" fill="#DBDBDB"/>
<path d="M229.155 70.6602L264.581 76.9327C264.409 77.637 264.242 78.3463 264.074 79.0506C252.32 76.9563 240.535 74.8655 228.719 72.778C228.861 72.0738 229.013 71.3695 229.155 70.6602Z" fill="#DBDBDB"/>
<path d="M228 76C245.267 79.067 262.477 82.1307 279.629 85.1909C279.442 85.8952 279.249 86.5995 279.057 87.3088C261.908 84.2485 244.72 81.1866 227.493 78.1229C227.645 77.4187 227.812 76.7144 228 76Z" fill="#DBDBDB"/>
<path d="M226.667 81.3516C243.867 84.4186 261.031 87.4822 278.16 90.5425C277.967 91.2468 277.775 91.951 277.577 92.6604L226.12 83.4694C226.303 82.7652 226.48 82.0812 226.667 81.3516Z" fill="#DBDBDB"/>
<path d="M225.259 86.6953L276.681 95.8862C276.488 96.5905 276.291 97.2948 276.098 98.0041L224.687 88.8132C224.879 88.1089 225.072 87.3996 225.259 86.6953Z" fill="#DBDBDB"/>
<path d="M223.8 92.041L275.226 101.232C275.034 101.936 274.846 102.64 274.659 103.345C257.486 100.284 240.337 97.2225 223.212 94.1589C223.41 93.4546 223.602 92.7453 223.8 92.041Z" fill="#DBDBDB"/>
<path d="M222.325 97.3867C239.464 100.447 256.632 103.509 273.828 106.573C273.65 107.282 273.473 107.986 273.321 108.69C256.094 105.63 238.908 102.568 221.763 99.5046C221.92 98.8003 222.127 98.091 222.325 97.3867Z" fill="#DBDBDB"/>
<path d="M220.906 102.732C238.072 105.793 255.289 108.855 272.556 111.918C272.394 112.628 272.237 113.332 272.08 114.036C254.772 110.976 237.528 107.914 220.349 104.85C220.506 104.141 220.694 103.437 220.906 102.732Z" fill="#DBDBDB"/>
<path d="M219.508 108.078C236.735 111.138 254.026 114.2 271.381 117.264C271.239 117.973 271.107 118.678 270.975 119.382C253.556 116.322 236.228 113.26 218.991 110.196C219.158 109.487 219.331 108.782 219.508 108.078Z" fill="#DBDBDB"/>
<path d="M218.247 113.418C235.548 116.485 252.943 119.549 270.433 122.609C270.317 123.313 270.21 124.022 270.109 124.727C252.558 121.666 235.119 118.598 217.791 115.521C217.937 114.832 218.089 114.127 218.247 113.418Z" fill="#DBDBDB"/>
<path d="M217.142 118.764C234.548 121.827 252.06 124.891 269.678 127.955C269.597 128.659 269.526 129.368 269.46 130.072C251.761 127.005 234.196 123.942 216.767 120.882C216.884 120.177 217.01 119.473 217.142 118.764Z" fill="#DBDBDB"/>
<path d="M248.399 129.195H134.758V211.569H248.399V129.195Z" fill="#0C3C82"/>
<path d="M174.912 120.664H134.758V129.196H177.217L174.912 120.664Z" fill="#0C3C82"/>
<g opacity="0.1">
<path d="M248.399 129.197H134.758V211.571H248.399V129.197Z" fill="black"/>
<path d="M174.912 120.664H134.758V129.196H177.217L174.912 120.664Z" fill="black"/>
</g>
<path d="M247.623 180.743C225.437 174.395 203.746 168.122 182.39 161.91C187.761 136.805 202.809 112.212 203.832 86.7363C225.999 92.7201 247.674 98.7038 269.04 104.713C263.573 130.213 248.546 155.04 247.623 180.743Z" fill="#EBEBEB"/>
<path d="M247.623 180.745C225.437 174.447 203.731 168.215 182.36 162.054L182.203 162.008L182.233 161.866C187.583 136.756 202.601 112.152 203.574 86.6667C203.574 86.5907 203.574 86.5096 203.574 86.4336L203.832 86.5045C226.014 92.5035 247.699 98.5176 269.04 104.552L269.218 104.603C269.218 104.653 269.218 104.709 269.182 104.765C263.68 130.26 248.606 155.082 247.623 180.745ZM247.623 180.745C248.485 155.041 263.467 130.215 268.843 104.663C268.888 104.734 268.934 104.805 268.985 104.876C247.644 98.8925 225.974 92.924 203.822 86.9656L204.091 86.8035C203.011 112.274 187.938 136.857 182.542 161.952L182.421 161.77C203.756 168.027 225.467 174.35 247.623 180.745Z" fill="#DBDBDB"/>
<path d="M244.112 134.1C240.814 142.911 230.817 147.821 221.49 145.065C212.162 142.308 207.273 133.001 210.49 124.241C213.707 115.48 223.329 110.495 232.783 113.195C242.238 115.896 247.451 125.284 244.112 134.1Z" fill="#455A64"/>
<path d="M227.311 129.159C223.486 133.527 219.615 137.884 215.84 142.241C213.111 140.232 211.112 137.386 210.146 134.138C209.181 130.889 209.301 127.414 210.49 124.24C213.661 115.52 223.389 110.509 232.783 113.194C242.177 115.88 247.441 125.354 244.122 134.099C238.518 132.448 232.915 130.801 227.311 129.159Z" fill="#DBDBDB"/>
<path d="M227.311 129.16C230.645 133.644 233.943 138.128 237.313 142.627C235.014 144.166 232.406 145.182 229.672 145.603C226.938 146.024 224.145 145.84 221.489 145.064C212.177 142.333 207.303 132.945 210.49 124.24C213.677 115.536 223.389 110.51 232.783 113.195C242.177 115.88 247.441 125.355 244.122 134.1C238.518 132.448 232.915 130.802 227.311 129.16Z" fill="#DBDBDB"/>
<path d="M227.311 129.159L209.684 132.098C209.293 129.452 209.57 126.751 210.49 124.24C213.662 115.52 223.39 110.509 232.783 113.194C242.177 115.88 247.441 125.354 244.122 134.099C238.519 132.448 232.915 130.801 227.311 129.159Z" fill="#0C3C82"/>
<path d="M208.848 97.7871C217.857 100.29 226.799 102.795 235.676 105.301C235.519 105.955 235.362 106.603 235.195 107.252C226.345 104.742 217.441 102.236 208.483 99.7327C208.61 99.0842 208.747 98.4356 208.848 97.7871Z" fill="#DBDBDB"/>
<path d="M206.816 147.979C218.683 151.481 230.613 154.996 242.607 158.522C242.43 159.171 242.253 159.819 242.101 160.468C230.052 156.931 218.085 153.412 206.198 149.909C206.391 149.265 206.604 148.622 206.816 147.979Z" fill="#DBDBDB"/>
<path d="M205.266 152.846C217.21 156.359 229.236 159.888 241.346 163.435C241.194 164.084 241.047 164.737 240.905 165.386C228.745 161.829 216.674 158.292 204.693 154.776C204.881 154.133 205.068 153.489 205.266 152.846Z" fill="#DBDBDB"/>
<path d="M203.878 157.721C215.916 161.25 228.059 164.797 240.307 168.361C240.185 169.009 240.069 169.663 239.962 170.316C227.65 166.739 215.455 163.184 203.376 159.651C203.538 159.013 203.705 158.364 203.878 157.721Z" fill="#DBDBDB"/>
<path d="M199.799 148.028L195.482 146.761L196.136 144.836L200.448 146.108C200.23 146.746 200.012 147.39 199.799 148.028Z" fill="#0C3C82"/>
<path d="M198.264 152.892L193.917 151.615C194.114 150.976 194.317 150.333 194.519 149.689L198.857 150.966C198.654 151.605 198.456 152.248 198.264 152.892Z" fill="#455A64"/>
<path d="M196.896 157.762L192.534 156.48C192.706 155.837 192.883 155.198 193.066 154.555L197.433 155.831C197.241 156.473 197.062 157.117 196.896 157.762Z" fill="#DBDBDB"/>
<path d="M248.099 211.57H134.459L125.694 136.031H239.334L248.099 211.57Z" fill="#0C3C82"/>
<path d="M164.94 128.207H124.787L125.694 136.03H168.153L164.94 128.207Z" fill="#0C3C82"/>
<path d="M203.407 78.2096C203.228 77.5493 203.142 76.867 203.153 76.1829C203.14 75.4987 203.225 74.816 203.407 74.1562C203.745 75.4861 203.745 76.8797 203.407 78.2096Z" fill="#263238"/>
<path d="M199.282 79.4007C198.799 78.9177 198.385 78.3704 198.051 77.7743C197.701 77.1879 197.435 76.5551 197.261 75.8945C197.744 76.3772 198.159 76.9245 198.492 77.5209C198.842 78.1073 199.108 78.7401 199.282 79.4007Z" fill="#263238"/>
<path d="M196.313 82.4903C195.653 82.3164 195.02 82.0503 194.434 81.6999C193.835 81.3692 193.288 80.9546 192.807 80.4688C193.468 80.6427 194.1 80.9087 194.687 81.2591C195.282 81.5942 195.829 82.0083 196.313 82.4903Z" fill="#263238"/>
<path d="M195.285 86.6415C193.955 86.9801 192.561 86.9801 191.231 86.6415C192.562 86.3096 193.954 86.3096 195.285 86.6415Z" fill="#263238"/>
<path d="M196.475 90.7805C195.993 91.264 195.445 91.6783 194.849 92.0117C194.263 92.3621 193.63 92.6281 192.969 92.8021C193.95 91.8434 195.155 91.1465 196.475 90.7754V90.7805Z" fill="#263238"/>
<path d="M199.566 93.7344C199.391 94.3946 199.125 95.0273 198.776 95.6141C198.443 96.2097 198.029 96.7555 197.544 97.2354C197.718 96.5765 197.984 95.9454 198.335 95.3608C198.667 94.7638 199.082 94.2164 199.566 93.7344Z" fill="#263238"/>
<path d="M203.731 94.7832C204.07 96.113 204.07 97.5068 203.731 98.8365C203.391 97.5068 203.391 96.113 203.731 94.7832Z" fill="#263238"/>
<path d="M207.855 93.5879C208.337 94.0719 208.751 94.619 209.086 95.2143C209.437 95.8007 209.703 96.4334 209.877 97.094C209.391 96.6133 208.976 96.0657 208.645 95.4676C208.295 94.8813 208.029 94.2485 207.855 93.5879Z" fill="#263238"/>
<path d="M210.829 90.4953C211.488 90.6692 212.12 90.9353 212.704 91.2857C213.297 91.619 213.841 92.0334 214.32 92.5169C213.001 92.1481 211.796 91.4508 210.819 90.4902L210.829 90.4953Z" fill="#263238"/>
<path d="M211.853 86.3309C212.513 86.1549 213.195 86.0697 213.879 86.0776C214.563 86.0638 215.246 86.1492 215.906 86.3309C215.246 86.5127 214.563 86.598 213.879 86.5843C213.195 86.5922 212.513 86.507 211.853 86.3309Z" fill="#263238"/>
<path d="M210.662 82.2122C211.145 81.7287 211.692 81.3143 212.289 80.981C212.873 80.6266 213.507 80.3587 214.168 80.1855C213.688 80.6714 213.14 81.086 212.542 81.4168C211.955 81.7667 211.322 82.0343 210.662 82.2122Z" fill="#263238"/>
<path d="M207.571 79.2386C207.745 78.578 208.011 77.9452 208.362 77.3588C208.692 76.7608 209.107 76.2131 209.593 75.7324C209.419 76.393 209.153 77.0258 208.802 77.6122C208.469 78.2085 208.055 78.7559 207.571 79.2386Z" fill="#263238"/>
<path d="M205.474 170.423H231.511C232.273 168.795 232.712 167.035 232.803 165.24V144.4H206.766V165.528C206.766 167.621 205.474 170.423 205.474 170.423Z" fill="#455A64"/>
<path d="M209.953 150.541C212.993 150.287 216.078 150.232 219.139 150.217C222.199 150.201 225.264 150.287 228.324 150.541C225.284 150.789 222.199 150.85 219.139 150.86C216.078 150.87 213.013 150.789 209.953 150.541Z" fill="white"/>
<path d="M209.953 153.97C212.709 153.722 215.46 153.661 218.216 153.646C220.973 153.631 223.724 153.717 226.475 153.97C223.724 154.224 220.968 154.28 218.216 154.295C215.465 154.31 212.709 154.224 209.953 153.97Z" fill="white"/>
<path d="M209.953 157.407C212.359 157.154 214.771 157.098 217.178 157.083C219.592 157.07 222.005 157.178 224.408 157.407C221.996 157.656 219.589 157.716 217.178 157.727C214.766 157.737 212.359 157.656 209.953 157.407Z" fill="white"/>
<path d="M209.953 160.836C212.993 160.587 216.078 160.527 219.139 160.511C222.199 160.496 225.264 160.582 228.324 160.836C225.284 161.089 222.199 161.145 219.139 161.16C216.078 161.175 213.013 161.089 209.953 160.836Z" fill="white"/>
</svg>
