<svg width="24" height="20" viewBox="0 0 24 20" fill="none" xmlns="http://www.w3.org/2000/svg">
<g clip-path="url(#clip0_1467_2376)">
<path d="M9.23404 17.1489L11.7165 18.9029L11.7178 18.9038C11.8436 18.9932 11.9785 19.0334 12.104 19.0334C12.2155 19.0334 12.339 18.999 12.4482 18.9291L12.4554 18.9245L13.595 18.2159C15.9704 16.7327 18.1359 14.8912 20.0257 12.7518C20.7516 11.9321 21.3257 10.9997 21.7467 9.9806C21.7861 9.88012 21.826 9.78134 21.867 9.68688C22.1653 8.92004 22.3203 8.10264 22.3203 7.25922V7.21253C22.3146 6.38119 22.1581 5.57705 21.8632 4.82099C21.57 4.07517 21.1461 3.40963 20.6127 2.82997C20.0757 2.2609 19.4522 1.81272 18.7645 1.49437C18.0396 1.17092 17.2852 1.00457 16.5025 1.00457C15.7185 1.00457 14.9632 1.17118 14.2455 1.49504C13.6146 1.77974 13.0378 2.18478 12.529 2.69371L12.1015 3.12127L11.6765 2.69117C11.1754 2.18393 10.6002 1.77985 9.96872 1.49511C9.25183 1.17187 8.48992 1.00457 7.70499 1.00457C6.92732 1.00457 6.16636 1.17109 5.44941 1.49443C4.75675 1.81131 4.13306 2.26059 3.59515 2.83016C3.06295 3.40801 2.64479 4.07328 2.35128 4.82171L2.35003 4.82488C2.04399 5.59243 1.8877 6.41199 1.8877 7.25917C1.8877 8.10604 2.04437 8.92542 2.34982 9.69411L2.35034 9.69541C2.82676 10.9025 3.51188 11.9638 4.39306 12.87L5.13362 13.6335M9.23404 17.1489C9.23373 17.1488 9.23434 17.1492 9.23404 17.1489ZM9.23404 17.1489C7.77562 16.1102 6.3931 14.9288 5.13362 13.6335M5.13362 13.6335C5.13352 13.6335 5.1337 13.6337 5.13362 13.6335Z" stroke="#0C3C82" stroke-width="1.20192"/>
</g>
<defs>
<clipPath id="clip0_1467_2376">
<rect width="22.8365" height="19.2308" fill="white" transform="translate(0.685547 0.402344)"/>
</clipPath>
</defs>
</svg>
