<svg width="18" height="13" viewBox="0 0 18 13" fill="none" xmlns="http://www.w3.org/2000/svg">
<path d="M0 4.08984H17.4545V7.90803H0V4.08984Z" fill="#E6E7E8"/>
<path d="M14.7273 0H2.72727C0.919909 0 0 1.34318 0 3V4.09091H17.4545V3C17.4545 1.34318 16.5346 0 14.7273 0Z" fill="#FF9933"/>
<path d="M0 9.00107C0 10.6579 0.919909 12.0011 2.72727 12.0011H14.7273C16.5346 12.0011 17.4545 10.6579 17.4545 9.00107V7.91016H0V9.00107Z" fill="#128807"/>
<path fill-rule="evenodd" clip-rule="evenodd" d="M8.81303 4.24805C9.1615 4.24805 9.50213 4.35141 9.79183 4.54507C10.0815 4.73872 10.3073 5.01395 10.4405 5.33594C10.5737 5.65793 10.6084 6.0122 10.5403 6.35393C10.4721 6.69566 10.3041 7.00948 10.0575 7.25569C9.81088 7.5019 9.4968 7.66943 9.15496 7.73708C8.81313 7.80473 8.45891 7.76946 8.13713 7.63574C7.81535 7.50201 7.54046 7.27584 7.34726 6.98585C7.15406 6.69585 7.05122 6.35505 7.05176 6.00659C7.05255 5.53997 7.23846 5.09272 7.56867 4.76303C7.89888 4.43333 8.34641 4.24812 8.81303 4.24805ZM7.63894 5.01032C7.66921 5.04468 7.67467 5.0815 7.65449 5.11232C7.64593 5.12651 7.63273 5.1373 7.61712 5.14287C7.60514 5.14732 7.59226 5.1488 7.57957 5.14719C7.56689 5.14557 7.55479 5.14091 7.54431 5.13359C7.4969 5.20147 7.45521 5.27318 7.41967 5.34796C7.46085 5.37496 7.47449 5.40877 7.46085 5.44614C7.45355 5.46515 7.43913 5.48058 7.42065 5.48913C7.40216 5.49769 7.38107 5.4987 7.36185 5.49196C7.34221 5.53123 7.29885 5.69705 7.29831 5.73196C7.31636 5.73541 7.3326 5.74517 7.34412 5.7595C7.35629 5.77373 7.36254 5.79208 7.36158 5.81077C7.3564 5.86205 7.32476 5.88386 7.27649 5.88577C7.26885 5.93514 7.26967 6.10041 7.27731 6.13286C7.32858 6.13832 7.35558 6.16068 7.35994 6.19968C7.36594 6.24168 7.34576 6.26896 7.29667 6.28805C7.3114 6.36905 7.3324 6.44868 7.35994 6.52668C7.37917 6.52088 7.39977 6.52155 7.41858 6.52859C7.43685 6.5365 7.45131 6.55014 7.45894 6.56896C7.46576 6.58368 7.46712 6.59896 7.46358 6.61505C7.46103 6.62701 7.45574 6.63821 7.44812 6.64777C7.4405 6.65733 7.43076 6.66499 7.41967 6.67014C7.45621 6.74596 7.49658 6.81741 7.54431 6.8845C7.58685 6.8635 7.62394 6.86841 7.64903 6.89841C7.66008 6.91074 7.66636 6.92659 7.66676 6.94314C7.66761 6.95536 7.66547 6.96761 7.66053 6.97882C7.65558 6.99003 7.64799 6.99988 7.6384 7.0075C7.69294 7.07132 7.75103 7.12968 7.81431 7.18341C7.85003 7.15205 7.88712 7.14714 7.91903 7.1695C7.93349 7.17959 7.94358 7.19296 7.94821 7.20932C7.95154 7.22091 7.95224 7.23309 7.95025 7.24498C7.94827 7.25687 7.94366 7.26817 7.93676 7.27805C8.00576 7.3255 8.07694 7.36641 8.1514 7.40187C8.18031 7.36123 8.21331 7.34759 8.24903 7.36123C8.26459 7.36682 8.2781 7.37699 8.28776 7.39041C8.3014 7.41223 8.30331 7.43623 8.2954 7.46187C8.37394 7.48968 8.45303 7.51096 8.53485 7.52541C8.55094 7.47932 8.57876 7.45777 8.61585 7.4605C8.63303 7.46186 8.64858 7.46705 8.66221 7.47877C8.68131 7.49623 8.69031 7.51832 8.68867 7.54559C8.77267 7.55159 8.85476 7.55214 8.93631 7.54559C8.94231 7.49296 8.96331 7.4665 9.00558 7.4605C9.02164 7.45829 9.03797 7.46155 9.05194 7.46977C9.06215 7.47555 9.07094 7.48355 9.07764 7.49318C9.08434 7.50281 9.0888 7.51383 9.09067 7.52541C9.17303 7.51014 9.25294 7.48914 9.33012 7.46159C9.32331 7.41005 9.33585 7.37923 9.37049 7.36314C9.38311 7.35771 9.3969 7.35556 9.41058 7.35686C9.42476 7.35796 9.43758 7.36232 9.44794 7.37159C9.45803 7.38005 9.46649 7.39041 9.47631 7.40105C9.55065 7.36596 9.62198 7.32482 9.68958 7.27805C9.66176 7.23441 9.67812 7.19268 9.70076 7.17414C9.70865 7.16737 9.71782 7.16224 9.72771 7.15906C9.73761 7.15587 9.74804 7.15468 9.7584 7.15557C9.76876 7.15646 9.77884 7.1594 9.78804 7.16423C9.79725 7.16906 9.80541 7.17567 9.81203 7.18368C9.87503 7.12968 9.93422 7.07105 9.98712 7.00805C9.95631 6.97286 9.95031 6.93577 9.97294 6.90386C9.9821 6.88956 9.99616 6.87909 10.0125 6.87441C10.0241 6.87072 10.0364 6.86976 10.0485 6.8716C10.0606 6.87345 10.072 6.87805 10.082 6.88505C10.1298 6.81632 10.1712 6.74514 10.2067 6.67041C10.1669 6.64368 10.1524 6.61232 10.1644 6.57659C10.1688 6.5607 10.1784 6.54676 10.1917 6.53705C10.2023 6.52965 10.2144 6.52482 10.2272 6.52293C10.24 6.52103 10.253 6.52213 10.2653 6.52614C10.283 6.48768 10.3272 6.32568 10.3297 6.28641C10.3108 6.28298 10.2938 6.27292 10.2817 6.25805C10.2753 6.25068 10.2706 6.24208 10.2677 6.23279C10.2648 6.2235 10.2639 6.21371 10.265 6.20405C10.2661 6.18677 10.2732 6.17043 10.2852 6.15796C10.2934 6.14931 10.3035 6.14261 10.3146 6.13836C10.3257 6.13412 10.3377 6.13242 10.3496 6.13341C10.3564 6.05091 10.3564 5.968 10.3496 5.8855C10.2975 5.88032 10.2727 5.86014 10.2659 5.81896C10.2628 5.80338 10.2651 5.78723 10.2724 5.77314C10.278 5.76224 10.2861 5.7528 10.296 5.74556C10.3059 5.73832 10.3173 5.73347 10.3294 5.73141C10.3151 5.64993 10.2938 5.56982 10.2659 5.49196C10.2154 5.50041 10.1843 5.48677 10.1677 5.45186C10.1634 5.44253 10.1609 5.43243 10.1606 5.42215C10.1602 5.41188 10.1619 5.40163 10.1655 5.39201C10.1691 5.38239 10.1746 5.37358 10.1817 5.36611C10.1888 5.35864 10.1973 5.35266 10.2067 5.3485C10.1713 5.27352 10.1296 5.20172 10.082 5.13386C10.0381 5.15486 10.0024 5.14996 9.97731 5.11996C9.96616 5.10728 9.95996 5.09101 9.95985 5.07414C9.95934 5.06215 9.96164 5.05021 9.96656 5.03927C9.97149 5.02833 9.9789 5.0187 9.98821 5.01114C9.93435 4.9481 9.87573 4.88929 9.81285 4.83523C9.77522 4.86741 9.73867 4.8715 9.70758 4.84914C9.69346 4.83972 9.68313 4.82562 9.6784 4.80932C9.675 4.79788 9.67427 4.78581 9.67625 4.77404C9.67824 4.76227 9.68289 4.75111 9.68985 4.74141C9.62187 4.69402 9.55007 4.65233 9.47521 4.61677C9.44712 4.65714 9.41549 4.6705 9.37976 4.6585C9.36392 4.65344 9.35009 4.64351 9.34021 4.63014C9.33302 4.6195 9.32843 4.60731 9.32682 4.59456C9.32521 4.58182 9.32662 4.56887 9.33094 4.55677C9.25313 4.52864 9.17301 4.50737 9.09149 4.49323C9.07594 4.53741 9.04785 4.56032 9.01158 4.55814C8.99462 4.55759 8.97832 4.55146 8.96521 4.54068C8.95549 4.53248 8.9479 4.52204 8.9431 4.51026C8.9383 4.49848 8.93644 4.48571 8.93767 4.47305C8.85527 4.46604 8.77242 4.46614 8.69003 4.47332C8.68431 4.52241 8.66303 4.5505 8.62676 4.5565C8.61045 4.55998 8.59345 4.55787 8.57849 4.5505C8.56733 4.54498 8.55765 4.53688 8.55025 4.52688C8.54285 4.51687 8.53795 4.50524 8.53594 4.49296C8.45443 4.50778 8.37425 4.52922 8.29621 4.55705C8.30494 4.60532 8.29131 4.63696 8.25803 4.65414C8.24358 4.6615 8.22831 4.6645 8.2114 4.6615C8.19869 4.65977 8.18665 4.65476 8.17647 4.64696C8.16628 4.63917 8.1583 4.62886 8.15331 4.61705C8.10667 4.6345 7.95831 4.72041 7.93867 4.74196C7.95885 4.78232 7.95421 4.81805 7.9264 4.84368C7.91854 4.85063 7.90936 4.85592 7.89942 4.85925C7.88947 4.86257 7.87896 4.86387 7.8685 4.86305C7.85805 4.86224 7.84786 4.85933 7.83855 4.85451C7.82924 4.84968 7.821 4.84303 7.81431 4.83496C7.75137 4.88875 7.69274 4.94739 7.63894 5.01032Z" fill="#001E43"/>
<path fill-rule="evenodd" clip-rule="evenodd" d="M9.56724 7.31573C9.56397 7.31219 9.5607 7.30973 9.55824 7.30591C9.39969 7.06353 9.24069 6.82144 9.08124 6.57964C9.0777 6.57282 9.07361 6.56601 9.07033 6.55837C9.03324 6.47191 8.99697 6.38546 8.95906 6.29928C8.95778 6.29484 8.95605 6.29054 8.95388 6.28646C8.93861 6.29219 8.9247 6.29873 8.90833 6.30501L8.91379 6.31891C8.94788 6.40264 8.98061 6.48664 9.01524 6.57037C9.02451 6.59273 9.02833 6.61619 9.03324 6.63964C9.05997 6.76482 9.08506 6.89055 9.11206 7.01601L9.20424 7.4641C9.2047 7.46516 9.20486 7.46633 9.20472 7.46748C9.20457 7.46863 9.20413 7.46972 9.20342 7.47064L9.1996 7.4611C9.12488 7.23228 9.04824 7.00373 8.97324 6.77491C8.95824 6.73019 8.94488 6.68601 8.92851 6.64128C8.92088 6.61891 8.91842 6.59601 8.91488 6.57282C8.90533 6.50791 8.89715 6.44246 8.88651 6.37755C8.88515 6.36201 8.8827 6.34673 8.88051 6.33173C8.87985 6.3255 8.87885 6.31931 8.87751 6.31319C8.86115 6.31482 8.84615 6.31701 8.82979 6.31891C8.82979 6.32546 8.83033 6.33228 8.83088 6.3391C8.84042 6.41901 8.84861 6.49919 8.86006 6.57882C8.86606 6.62246 8.86306 6.66528 8.8606 6.70891C8.85897 6.74573 8.85651 6.78255 8.85488 6.81964C8.84997 6.89437 8.84615 6.96882 8.84097 7.04328L8.83279 7.1971C8.82815 7.28437 8.8227 7.37137 8.81806 7.4581C8.81588 7.48264 8.81533 7.50773 8.81288 7.53173L8.80633 7.4491L8.79788 7.27019L8.78806 7.11064C8.78533 7.0561 8.78179 7.00182 8.77879 6.94728C8.77633 6.91155 8.77497 6.87582 8.77279 6.84064C8.76979 6.78419 8.76624 6.72773 8.76351 6.67182C8.76083 6.64202 8.76156 6.61201 8.7657 6.58237C8.77142 6.54201 8.77579 6.50082 8.7807 6.45991C8.78615 6.41955 8.79079 6.37891 8.7957 6.3391C8.79624 6.33282 8.79624 6.32628 8.79706 6.31891L8.74933 6.31264C8.74797 6.32355 8.74551 6.33419 8.74361 6.3451C8.73228 6.42841 8.72064 6.51168 8.7087 6.59491C8.70542 6.62737 8.69261 6.65737 8.6817 6.68764C8.5977 6.94346 8.51342 7.19955 8.42833 7.4551C8.42642 7.45973 8.42561 7.4641 8.42206 7.46846C8.42206 7.46519 8.42206 7.46273 8.42342 7.45973C8.45861 7.28737 8.49406 7.11473 8.53061 6.94237C8.55406 6.82782 8.57833 6.71355 8.60151 6.59928L8.60806 6.58046C8.64324 6.49401 8.67706 6.40673 8.71306 6.32028C8.71432 6.31518 8.71615 6.31024 8.71851 6.30555C8.70349 6.29911 8.6884 6.29284 8.67324 6.28673C8.67133 6.29164 8.66833 6.29573 8.6667 6.30064C8.62906 6.38737 8.59224 6.47437 8.55461 6.5611C8.55226 6.56761 8.54933 6.57391 8.54588 6.57992C8.38495 6.82369 8.2245 7.06779 8.06451 7.31219C8.06232 7.31587 8.05945 7.31911 8.05606 7.32173C8.05742 7.31737 8.05988 7.31382 8.06151 7.31001L8.45588 6.5281C8.45928 6.521 8.46349 6.51432 8.46842 6.50819L8.63697 6.2821C8.64051 6.27828 8.6427 6.27473 8.64597 6.27064C8.63206 6.26055 8.62088 6.25128 8.60697 6.24064C8.60397 6.24419 8.60124 6.24719 8.59879 6.25073C8.53988 6.32464 8.48179 6.3991 8.42424 6.47273C8.4177 6.47955 8.4117 6.48664 8.40433 6.49291C8.18942 6.68519 7.97451 6.87637 7.75879 7.06891C7.75442 7.07246 7.75006 7.07628 7.74461 7.07873C7.74706 7.07628 7.74842 7.07328 7.75006 7.07137C7.92706 6.87364 8.1027 6.67619 8.27888 6.47846C8.28897 6.46755 8.29906 6.45664 8.30861 6.44491C8.32879 6.42146 8.35142 6.40073 8.37597 6.38219L8.57179 6.2281C8.57615 6.22482 8.57942 6.22128 8.58433 6.21801C8.57465 6.20494 8.56465 6.19212 8.55433 6.17955C8.54997 6.18228 8.54642 6.18501 8.54233 6.18801C8.46733 6.24419 8.39206 6.29982 8.31706 6.35628C8.30867 6.36261 8.29972 6.36818 8.29033 6.37291C8.03424 6.50219 7.77679 6.63146 7.52015 6.76073C7.51524 6.76291 7.51061 6.76564 7.50488 6.76564L7.51524 6.75828L7.99415 6.44464C8.07761 6.38982 8.16133 6.33501 8.24424 6.27991C8.25133 6.27582 8.2587 6.27228 8.26497 6.26901C8.35197 6.23219 8.4387 6.1951 8.52488 6.15801C8.52897 6.15637 8.53306 6.15473 8.53797 6.15228L8.5197 6.10728C8.51451 6.10864 8.51124 6.11001 8.50715 6.11137C8.41879 6.14655 8.33124 6.18228 8.24233 6.21719C8.22406 6.22401 8.20415 6.22728 8.18479 6.23137L7.58888 6.35519C7.51388 6.37128 7.43751 6.3871 7.36224 6.40264C7.35921 6.40336 7.35602 6.40297 7.35324 6.40155C7.37397 6.39501 7.3947 6.38764 7.41515 6.38082C7.67261 6.29601 7.92979 6.21146 8.18642 6.1261C8.20661 6.11928 8.22815 6.11737 8.24861 6.1141C8.33151 6.10264 8.41415 6.09064 8.49624 6.07891C8.50128 6.07803 8.50629 6.07694 8.51124 6.07564C8.50961 6.05982 8.50715 6.04401 8.50579 6.02764L8.46597 6.03201L8.30124 6.05191C8.27042 6.05601 8.23988 6.05928 8.20961 6.0631C8.20224 6.06391 8.19515 6.06419 8.18806 6.06391L8.01461 6.05382L7.91206 6.0481L7.73533 6.03773L7.47761 6.02355C7.41542 6.02028 7.35488 6.01619 7.29297 6.01182C7.30279 6.01101 7.3137 6.00937 7.32433 6.00937L7.5357 5.99737L7.81497 5.98155L8.04624 5.96846L8.19133 5.95973C8.19706 5.95946 8.20388 5.96028 8.20961 5.96082L8.37597 5.98073L8.49379 5.99491H8.50579C8.50715 5.97937 8.50961 5.96464 8.51124 5.94773C8.50115 5.94555 8.4897 5.94391 8.47961 5.94201C8.40679 5.93191 8.33451 5.92128 8.2617 5.91064C8.24657 5.90891 8.23148 5.90691 8.21642 5.90464C8.20808 5.90351 8.19986 5.9016 8.19188 5.89891C7.97506 5.82773 7.75961 5.75601 7.54306 5.68482C7.4828 5.66507 7.42261 5.64507 7.36251 5.62482C7.35732 5.62345 7.35242 5.62114 7.34806 5.61801L7.38597 5.62564L7.84879 5.72191C7.97261 5.74782 8.09833 5.77346 8.22215 5.79964C8.2296 5.80129 8.2369 5.80357 8.24397 5.80646C8.33124 5.84082 8.4177 5.87628 8.50579 5.91119L8.51888 5.91637C8.52488 5.90137 8.53142 5.88691 8.53797 5.87137C8.53353 5.86872 8.52888 5.86644 8.52406 5.86455C8.43733 5.82801 8.35088 5.79064 8.26442 5.75328C8.25764 5.75041 8.25107 5.74703 8.24479 5.74319C8.00015 5.5831 7.75661 5.42219 7.5117 5.26182C7.50847 5.26003 7.50589 5.25726 7.50433 5.25391L7.51415 5.25937C7.75797 5.3821 8.00206 5.50482 8.24642 5.62728C8.28679 5.64746 8.32606 5.67173 8.36206 5.69928C8.42151 5.74537 8.48206 5.78955 8.54261 5.83482C8.5467 5.83782 8.55024 5.84055 8.55461 5.84328L8.58461 5.80537L8.57397 5.7961L8.35224 5.62182C8.34461 5.61582 8.33861 5.60955 8.33206 5.60301C8.13897 5.38673 7.94561 5.17019 7.75306 4.95391C7.75028 4.95168 7.74812 4.94877 7.74679 4.94546C7.75251 4.94601 7.7547 4.94982 7.75715 4.95228C7.87415 5.05591 7.99006 5.15955 8.10624 5.26319L8.40679 5.53101C8.41224 5.53591 8.41742 5.54191 8.42233 5.54737L8.59442 5.7661C8.59879 5.77101 8.60206 5.77619 8.60697 5.78273L8.64651 5.75246C8.64406 5.74864 8.64079 5.74564 8.63888 5.7421C8.5827 5.6671 8.52679 5.59182 8.47006 5.5171C8.46422 5.5083 8.45885 5.49919 8.45397 5.48982C8.32306 5.2321 8.19324 4.97328 8.06315 4.71528C8.0607 4.71037 8.05824 4.70655 8.0577 4.70137C8.06015 4.7041 8.06261 4.70655 8.06424 4.70901L8.34297 5.13501L8.54015 5.43501C8.54697 5.44646 8.55461 5.45846 8.55897 5.47101C8.59579 5.55501 8.63124 5.63928 8.66697 5.72328C8.66942 5.7271 8.67106 5.73119 8.67351 5.7361L8.71879 5.71728L8.71388 5.70582C8.67979 5.62073 8.64651 5.53564 8.61188 5.4511C8.60233 5.42955 8.59879 5.40719 8.59415 5.38482C8.56442 5.24273 8.53579 5.10037 8.50606 4.95801C8.47688 4.8211 8.44906 4.68528 8.42042 4.54782C8.41988 4.54701 8.42042 4.54591 8.42151 4.54319L8.44551 4.61601C8.53115 4.87319 8.61597 5.13091 8.69997 5.38864C8.70706 5.40882 8.70951 5.43091 8.71251 5.45191C8.72261 5.52337 8.7327 5.59537 8.74415 5.66737C8.74606 5.68101 8.74688 5.69464 8.74961 5.70964L8.79706 5.70364V5.68564C8.79024 5.62864 8.78288 5.57137 8.77633 5.51464C8.77224 5.48137 8.76924 5.44891 8.76461 5.41646C8.76188 5.39464 8.76188 5.37256 8.76461 5.35073C8.76651 5.31364 8.76924 5.27682 8.77088 5.24001L8.78424 5.01773C8.7867 4.97791 8.78751 4.93755 8.78997 4.89773C8.79351 4.84591 8.79624 4.79328 8.79924 4.74119C8.8017 4.70301 8.80361 4.66455 8.80524 4.62664C8.80742 4.58164 8.81097 4.53691 8.81479 4.49219C8.81588 4.50446 8.81642 4.51701 8.81697 4.5301C8.82079 4.58491 8.82351 4.63973 8.82679 4.69482L8.84097 4.94464L8.84942 5.08482C8.85379 5.16582 8.85761 5.2471 8.86224 5.3281C8.86361 5.34037 8.86415 5.35182 8.86497 5.36382C8.86851 5.39546 8.86224 5.42682 8.85951 5.45819L8.84206 5.6011C8.83933 5.6281 8.83524 5.6551 8.83197 5.68237C8.83142 5.68891 8.83142 5.69601 8.82951 5.70391C8.84642 5.70637 8.8617 5.70801 8.87861 5.71019C8.88106 5.69846 8.88215 5.68755 8.88406 5.6761C8.89715 5.58746 8.9097 5.49882 8.92224 5.40964C8.92333 5.4031 8.92606 5.39628 8.9277 5.38946C9.01661 5.12273 9.10388 4.85573 9.19224 4.58846C9.19661 4.57619 9.19988 4.56446 9.2067 4.55273C9.20596 4.55895 9.20496 4.56514 9.2037 4.57128C9.16388 4.76437 9.12242 4.95691 9.08288 5.14946C9.06515 5.23973 9.04633 5.33028 9.02751 5.42055C9.02619 5.42803 9.0238 5.43529 9.02042 5.4421L8.91515 5.70528C8.91324 5.7091 8.91188 5.71319 8.90997 5.7181C8.92633 5.72437 8.9397 5.73064 8.95551 5.73691L8.96179 5.72382L9.0717 5.46555C9.07606 5.45682 9.07933 5.44837 9.08506 5.44128L9.56097 4.71528C9.56397 4.71146 9.56642 4.70764 9.57106 4.70491C9.56915 4.70873 9.56779 4.71255 9.56533 4.71637L9.17397 5.49364C9.16988 5.50101 9.16579 5.50837 9.16088 5.51491C9.10415 5.59046 9.04715 5.66601 8.99124 5.74101C8.98854 5.7453 8.98553 5.74941 8.98224 5.75328L9.02097 5.78355C9.02403 5.7803 9.02686 5.77684 9.02942 5.77319C9.08724 5.69955 9.14479 5.62564 9.20342 5.55201C9.20988 5.54372 9.2171 5.53605 9.22497 5.5291C9.44042 5.33655 9.65615 5.14428 9.87188 4.95228C9.87542 4.94928 9.87788 4.94628 9.88361 4.94464L9.87651 4.95337C9.78842 5.05291 9.70033 5.15191 9.61088 5.25091C9.50451 5.36955 9.39951 5.48791 9.29397 5.60655C9.28851 5.61255 9.28197 5.61773 9.27624 5.62264L9.05451 5.79691L9.04361 5.80564C9.05397 5.81873 9.06324 5.83128 9.07415 5.84437L9.08588 5.83564L9.31306 5.66546C9.31885 5.66133 9.32486 5.6575 9.33106 5.65401C9.59288 5.52255 9.85306 5.39164 10.1132 5.26019C10.1176 5.25828 10.1212 5.25664 10.1258 5.25664C10.1138 5.26455 10.1026 5.27219 10.0906 5.27955C9.85524 5.43419 9.61988 5.58882 9.3837 5.74346C9.37715 5.74728 9.37115 5.7511 9.36406 5.7541C9.27706 5.79173 9.18924 5.82882 9.10306 5.86619L9.08915 5.87164C9.09651 5.88691 9.1017 5.90137 9.10824 5.91664L9.12079 5.91255C9.20833 5.87791 9.29533 5.84164 9.3837 5.8081C9.40551 5.79937 9.42951 5.79555 9.45324 5.79064L9.85497 5.70719C9.97988 5.68155 10.1037 5.65537 10.2289 5.62946C10.2403 5.62701 10.251 5.62455 10.263 5.62237C10.266 5.62237 10.2687 5.62182 10.2731 5.62346L10.2349 5.63601C9.96842 5.7241 9.70279 5.81191 9.43633 5.89891C9.41615 5.90601 9.39379 5.90791 9.37279 5.91119C9.31306 5.92019 9.25415 5.9281 9.19606 5.93655C9.17479 5.93955 9.15379 5.94282 9.13251 5.94555L9.11697 5.94828C9.11861 5.96437 9.12106 5.97937 9.12215 5.99682L9.16333 5.99246L9.31061 5.97501C9.34742 5.97037 9.38588 5.96519 9.42433 5.96164C9.44151 5.96028 9.45897 5.96191 9.4767 5.96273C9.51406 5.96437 9.55142 5.96764 9.59042 5.96928L9.81079 5.98237C9.84351 5.98428 9.87624 5.98564 9.91006 5.98782L10.1348 6.00064C10.188 6.00391 10.2428 6.00637 10.2957 6.00964C10.3088 6.01039 10.3219 6.01158 10.335 6.01319L10.2952 6.01646L10.1302 6.02546L9.92588 6.03746L9.77179 6.04564C9.70088 6.05001 9.62861 6.0541 9.55715 6.05873C9.51788 6.06037 9.47751 6.06419 9.43797 6.06446C9.41533 6.06501 9.39161 6.06064 9.36951 6.05819C9.32104 6.0525 9.27259 6.04669 9.22415 6.04073L9.13115 6.02955H9.12215C9.12106 6.04537 9.11861 6.06091 9.11697 6.07755C9.2131 6.09178 9.30929 6.10569 9.40551 6.11928C9.43388 6.12282 9.4587 6.13401 9.48542 6.14246L10.2611 6.39855C10.2661 6.39961 10.2708 6.40175 10.275 6.40482C10.2684 6.40373 10.2622 6.40264 10.2556 6.4021L9.58197 6.26164L9.40415 6.22455C9.39842 6.22291 9.39079 6.22073 9.38451 6.21773C9.29697 6.1831 9.20915 6.14764 9.12106 6.11246L9.10933 6.10837C9.10296 6.1233 9.09632 6.13812 9.08942 6.15282L9.10388 6.15964C9.19088 6.19673 9.27733 6.23355 9.36379 6.27091C9.37061 6.27391 9.37742 6.27746 9.38451 6.28237L10.1105 6.75801C10.1141 6.76073 10.1187 6.76401 10.1217 6.76919C10.1182 6.76701 10.1141 6.76564 10.1111 6.76346L9.73279 6.57364C9.60079 6.50655 9.4677 6.44001 9.33433 6.37291C9.32583 6.3687 9.31786 6.36348 9.31061 6.35737C9.23561 6.30146 9.15979 6.24528 9.08479 6.18882C9.08145 6.186 9.07789 6.18344 9.07415 6.18119C9.06379 6.19373 9.05451 6.20601 9.04361 6.2191L9.05397 6.22728C9.12706 6.28564 9.20151 6.34401 9.27488 6.4021C9.28323 6.40807 9.29083 6.41503 9.29751 6.42282L9.87542 7.06946C9.87778 7.0727 9.87962 7.07629 9.88088 7.0801C9.87788 7.07682 9.87379 7.07464 9.87079 7.07219C9.65397 6.87828 9.43688 6.68546 9.21951 6.49182C9.21458 6.48745 9.21019 6.48251 9.20642 6.4771L9.0297 6.25182C9.02724 6.24828 9.02424 6.24501 9.02124 6.24146C9.0087 6.25182 8.99642 6.2611 8.98388 6.27201C8.98497 6.27528 8.98742 6.27882 8.98961 6.2821L9.16115 6.51064C9.16605 6.5173 9.17042 6.52432 9.17424 6.53164C9.30433 6.78964 9.43415 7.04819 9.56397 7.30646C9.56609 7.30997 9.56748 7.31386 9.56806 7.31791H9.56724V7.31573Z" fill="#001E43"/>
<path fill-rule="evenodd" clip-rule="evenodd" d="M9.56543 7.31445C9.56793 7.31695 9.56943 7.3197 9.57143 7.32195C9.57018 7.32245 9.57018 7.3232 9.56868 7.32345C9.56818 7.31995 9.56643 7.3177 9.56593 7.31445H9.56543Z" fill="#001E43"/>
</svg>
