<svg xmlns="http://www.w3.org/2000/svg" width="44" height="44"
                                            viewBox="0 0 44 44" fill="none">
                                            <path fill-rule="evenodd" clip-rule="evenodd"
                                                d="M37.0699 12.4551C40.3463 12.4551 43.0022 9.8006 43.0022 6.52607C43.0022 3.25154 40.3463 0.596996 37.0699 0.596996C33.7938 0.596996 31.1378 3.25154 31.1378 6.52607C31.1378 9.8006 33.7938 12.4551 37.0699 12.4551Z"
                                                fill="#FF2D33" />
                                            <path fill-rule="evenodd" clip-rule="evenodd"
                                                d="M37.0699 28.012C40.3463 28.012 43.0022 25.3575 43.0022 22.083C43.0022 18.8084 40.3463 16.1539 37.0699 16.1539C33.7938 16.1539 31.1378 18.8084 31.1378 22.083C31.1378 25.3575 33.7938 28.012 37.0699 28.012Z"
                                                fill="#D53D5C" />
                                            <path fill-rule="evenodd" clip-rule="evenodd"
                                                d="M37.0699 43.5689C40.3463 43.5689 43.0022 40.9144 43.0022 37.6399C43.0022 34.3653 40.3463 31.7108 37.0699 31.7108C33.7938 31.7108 31.1378 34.3653 31.1378 37.6399C31.1378 40.9144 33.7938 43.5689 37.0699 43.5689Z"
                                                fill="#815EAD" />
                                            <path fill-rule="evenodd" clip-rule="evenodd"
                                                d="M21.9621 28.012C25.2385 28.012 27.8944 25.3575 27.8944 22.083C27.8944 18.8084 25.2385 16.1539 21.9621 16.1539C18.686 16.1539 16.03 18.8084 16.03 22.083C16.03 25.3575 18.686 28.012 21.9621 28.012Z"
                                                fill="#AB4D85" />
                                            <path fill-rule="evenodd" clip-rule="evenodd"
                                                d="M21.9621 43.5689C25.2385 43.5689 27.8944 40.9145 27.8944 37.6399C27.8944 34.3654 25.2385 31.7108 21.9621 31.7108C18.686 31.7108 16.03 34.3654 16.03 37.6399C16.03 40.9145 18.686 43.5689 21.9621 43.5689Z"
                                                fill="#576ED6" />
                                            <path fill-rule="evenodd" clip-rule="evenodd"
                                                d="M6.85687 43.5689C10.1331 43.5689 12.789 40.9144 12.789 37.6399C12.789 34.3653 10.1331 31.7108 6.85687 31.7108C3.58062 31.7108 0.924683 34.3653 0.924683 37.6399C0.924683 40.9144 3.58062 43.5689 6.85687 43.5689Z"
                                                fill="#2D7EFF" />
                                        </svg>