<svg width="88" height="104" viewBox="0 0 88 104" fill="none" xmlns="http://www.w3.org/2000/svg">
<g filter="url(#filter0_d_1171_1248)">
<path d="M4 13C4 7.47715 8.47715 3 14 3H68.8L76.8 13.4L84 22.6V89C84 94.5228 79.5229 99 74 99H14C8.47715 99 4 94.5229 4 89V13Z" fill="white"/>
<path d="M76.4037 13.7049L76.4062 13.7082L83.5 22.7724V89C83.5 94.2467 79.2467 98.5 74 98.5H14C8.75329 98.5 4.5 94.2467 4.5 89V13C4.5 7.7533 8.7533 3.5 14 3.5H68.5538L76.4037 13.7049Z" stroke="black" stroke-opacity="0.2"/>
</g>
<path fill="#1B3B7B" d="M22.4993 77.8092C21.2697 77.3174 20.279 76.3674 19.736 75.1594C18.5058 72.7116 18.9159 70.2637 20.2407 68.207C21.4899 66.2701 23.5592 64.6235 25.8998 63.2419C28.8647 61.5604 31.9986 60.1964 35.2497 59.1726C37.7744 54.6339 40.0122 49.9413 41.9498 45.1226C40.7913 42.4903 39.883 39.7549 39.2369 36.9525C38.6944 34.429 38.4862 31.9306 38.9467 29.7856C39.4199 27.5522 40.6754 25.546 43.0475 24.5933C44.2588 24.1075 45.5711 23.8363 46.8455 24.1075C47.4866 24.244 48.0892 24.5215 48.6097 24.9198C49.1302 25.3181 49.5556 25.8272 49.8549 26.4103C50.4101 27.445 50.6119 28.6563 50.6561 29.8045C50.7003 30.9843 50.5804 32.2965 50.3596 33.6782C49.8296 36.8958 48.6562 40.8325 47.0789 44.9964C48.8195 48.7188 50.8886 52.2785 53.2617 55.6333C56.0698 55.4115 58.8942 55.5174 61.6778 55.9487C63.9743 56.3588 66.3086 57.179 67.7344 58.8824C68.4915 59.7909 68.952 60.9012 68.9962 62.1504C69.0403 63.3617 68.6997 64.5604 68.1255 65.7023C67.6282 66.7606 66.8572 67.6666 65.8922 68.3269C64.9383 68.9491 63.8121 69.2538 62.6746 69.1975C60.5864 69.1092 58.5486 67.9609 56.7884 66.5667C54.6482 64.7968 52.7196 62.7857 51.0409 60.5732C46.7745 61.0571 42.5587 61.9142 38.442 63.1346C36.5546 66.4782 34.4005 69.6641 32.0006 72.6611C30.171 74.8692 28.1648 76.7934 26.1585 77.6262C25.0058 78.1477 23.6983 78.2131 22.4993 77.8092ZM31.1993 65.8159C30.1521 66.2954 29.1805 66.8001 28.3035 67.3174C26.2342 68.5414 24.8904 69.7338 24.2217 70.7684C23.6286 71.6832 23.616 72.3457 23.9693 73.0459C24.0324 73.1847 24.0955 73.2731 24.1333 73.3235C24.2086 73.3034 24.2824 73.2781 24.3542 73.2478C25.2185 72.8945 26.5938 71.7652 28.3603 69.6391C29.365 68.4091 30.3123 67.1333 31.1993 65.8159ZM41.546 57.425C43.6526 56.9329 45.7784 56.5267 47.918 56.2074C46.7688 54.4498 45.6953 52.6438 44.7005 50.7943C43.7111 53.0315 42.6592 55.2405 41.546 57.4187V57.425ZM56.9777 60.264C57.924 61.2861 58.8451 62.1567 59.722 62.8507C61.2362 64.0494 62.2898 64.4469 62.8639 64.4658C63.0176 64.4859 63.1735 64.4525 63.3055 64.3712C63.568 64.1639 63.7723 63.8922 63.8986 63.5825C64.1229 63.1982 64.2506 62.7653 64.2708 62.3208C64.2671 62.1725 64.2087 62.0309 64.1068 61.9233C63.7787 61.5321 62.845 60.9643 60.8387 60.6047C59.5626 60.3914 58.2715 60.2796 56.9777 60.2704V60.264ZM44.4229 38.1449C44.9538 36.4322 45.3753 34.6874 45.6847 32.9211C45.8802 31.735 45.9559 30.7572 45.9244 29.9875C45.9261 29.5628 45.8579 29.1408 45.7225 28.7383C45.4069 28.7774 45.0987 28.8624 44.8077 28.9907C44.2588 29.2115 43.8109 29.6594 43.5712 30.7761C43.3188 31.9874 43.3819 33.735 43.8614 35.962C44.0128 36.6623 44.2021 37.3942 44.4292 38.1449H44.4229Z"/>
<defs>
<filter id="filter0_d_1171_1248" x="0" y="0" width="88" height="104" filterUnits="userSpaceOnUse" color-interpolation-filters="sRGB">
<feFlood flood-opacity="0" result="BackgroundImageFix"/>
<feColorMatrix in="SourceAlpha" type="matrix" values="0 0 0 0 0 0 0 0 0 0 0 0 0 0 0 0 0 0 127 0" result="hardAlpha"/>
<feOffset dy="1"/>
<feGaussianBlur stdDeviation="2"/>
<feComposite in2="hardAlpha" operator="out"/>
<feColorMatrix type="matrix" values="0 0 0 0 0 0 0 0 0 0 0 0 0 0 0 0 0 0 0.16 0"/>
<feBlend mode="normal" in2="BackgroundImageFix" result="effect1_dropShadow_1171_1248"/>
<feBlend mode="normal" in="SourceGraphic" in2="effect1_dropShadow_1171_1248" result="shape"/>
</filter>
</defs>
</svg>
