<svg width="24" height="25" viewBox="0 0 24 25" fill="none" xmlns="http://www.w3.org/2000/svg">
<circle cx="12" cy="12.1133" r="12" fill="#00285A"/>
<g clip-path="url(#clip0_1483_3112)">
<path d="M12.662 5.05531C16.1942 5.05531 19.0591 7.9202 19.0591 11.4524C19.0591 11.8191 18.764 12.1141 18.3973 12.1141C18.0306 12.1141 17.7355 11.8191 17.7355 11.4524C17.7355 8.6509 15.4635 6.37884 12.662 6.37884C12.2953 6.37884 12.0002 6.0838 12.0002 5.71707C12.0002 5.35035 12.2953 5.05531 12.662 5.05531ZM12.8826 10.3494C13.1166 10.3494 13.341 10.4424 13.5065 10.6079C13.672 10.7733 13.7649 10.9978 13.7649 11.2318C13.7649 11.4658 13.672 11.6902 13.5065 11.8557C13.341 12.0212 13.1166 12.1141 12.8826 12.1141C12.6486 12.1141 12.4241 12.0212 12.2587 11.8557C12.0932 11.6902 12.0002 11.4658 12.0002 11.2318C12.0002 10.9978 12.0932 10.7733 12.2587 10.6079C12.4241 10.4424 12.6486 10.3494 12.8826 10.3494ZM12.0002 8.36413C12.0002 7.99741 12.2953 7.70237 12.662 7.70237C14.7328 7.70237 16.412 9.3816 16.412 11.4524C16.412 11.8191 16.117 12.1141 15.7502 12.1141C15.3835 12.1141 15.0885 11.8191 15.0885 11.4524C15.0885 10.1123 14.0021 9.0259 12.662 9.0259C12.2953 9.0259 12.0002 8.73086 12.0002 8.36413ZM8.1813 5.09391C8.71622 4.94777 9.27596 5.22075 9.48828 5.73362L10.5912 8.38068C10.7787 8.83013 10.6491 9.35127 10.2714 9.65733L8.91199 10.7713C9.83019 12.7125 11.4019 14.2842 13.3431 15.2024L14.4543 13.843C14.7631 13.4652 15.2815 13.3356 15.7309 13.5231L18.378 14.6261C18.8909 14.8384 19.1638 15.3981 19.0177 15.9331L18.3559 18.3595C18.2263 18.8393 17.7907 19.173 17.2943 19.173C10.4727 19.173 4.94141 13.6417 4.94141 6.82002C4.94141 6.32369 5.27505 5.88803 5.75483 5.75568L8.1813 5.09391Z" fill="white"/>
</g>
<defs>
<clipPath id="clip0_1483_3112">
<rect width="14.1176" height="14.1176" fill="white" transform="translate(4.94141 5.05469)"/>
</clipPath>
</defs>
</svg>
