<svg width="210" height="210" viewBox="0 0 210 210" fill="none" xmlns="http://www.w3.org/2000/svg">
<mask id="path-1-inside-1_115_1220" fill="white">
<path d="M210 105C210 162.99 162.99 210 105 210C47.0101 210 0 162.99 0 105C0 47.0101 47.0101 0 105 0C162.99 0 210 47.0101 210 105ZM7.34435 105C7.34435 158.934 51.0663 202.656 105 202.656C158.934 202.656 202.656 158.934 202.656 105C202.656 51.0663 158.934 7.34435 105 7.34435C51.0663 7.34435 7.34435 51.0663 7.34435 105Z"/>
</mask>
<path d="M210 105C210 162.99 162.99 210 105 210C47.0101 210 0 162.99 0 105C0 47.0101 47.0101 0 105 0C162.99 0 210 47.0101 210 105ZM7.34435 105C7.34435 158.934 51.0663 202.656 105 202.656C158.934 202.656 202.656 158.934 202.656 105C202.656 51.0663 158.934 7.34435 105 7.34435C51.0663 7.34435 7.34435 51.0663 7.34435 105Z" stroke="url(#paint0_linear_115_1220)" strokeWidth="8" strokeDasharray="2 2" mask="url(#path-1-inside-1_115_1220)"/>
<defs>
<linearGradient id="paint0_linear_115_1220" x1="161.7" y1="239.4" x2="95.55" y2="84" gradientUnits="userSpaceOnUse">
<stop stop-color="#0064E1"/>
<stop offset="1" stop-color="#0064E1" stop-opacity="0"/>
</linearGradient>
</defs>
</svg>
