<svg width="18" height="18" viewBox="0 0 18 18" fill="none" xmlns="http://www.w3.org/2000/svg">
<path d="M11.5682 9.29435L9.80291 8.27553V4.55439C9.80291 4.33125 9.71426 4.11725 9.55648 3.95946C9.3987 3.80168 9.1847 3.71304 8.96156 3.71304C8.73842 3.71304 8.52442 3.80168 8.36664 3.95946C8.20886 4.11725 8.12021 4.33125 8.12021 4.55439V8.76112C8.12017 8.90883 8.15903 9.05395 8.23288 9.18189C8.30672 9.30982 8.41295 9.41605 8.54089 9.4899L10.7268 10.7519C10.8225 10.8072 10.9282 10.8431 11.0378 10.8576C11.1474 10.8721 11.2587 10.8648 11.3655 10.8362C11.4723 10.8076 11.5724 10.7582 11.6601 10.691C11.7478 10.6237 11.8214 10.5398 11.8766 10.444C11.9319 10.3483 11.9678 10.2426 11.9822 10.133C11.9966 10.0234 11.9892 9.91204 11.9606 9.80528C11.932 9.69851 11.8825 9.59844 11.8152 9.51077C11.7479 9.42311 11.6639 9.34956 11.5682 9.29435ZM8.96156 0.347656C7.29753 0.347656 5.67088 0.841097 4.28729 1.76558C2.90371 2.69006 1.82533 4.00407 1.18854 5.54142C0.551741 7.07878 0.385127 8.77045 0.709762 10.4025C1.0344 12.0346 1.8357 13.5337 3.01235 14.7103C4.18899 15.887 5.68812 16.6883 7.32018 17.0129C8.95223 17.3375 10.6439 17.1709 12.1813 16.5341C13.7186 15.8973 15.0326 14.819 15.9571 13.4354C16.8816 12.0518 17.375 10.4251 17.375 8.76112C17.3725 6.53049 16.4853 4.39193 14.908 2.81464C13.3307 1.23735 11.1922 0.350137 8.96156 0.347656ZM8.96156 15.4919C7.63034 15.4919 6.32901 15.0971 5.22215 14.3575C4.11528 13.618 3.25258 12.5668 2.74314 11.3369C2.23371 10.107 2.10041 8.75365 2.36012 7.44801C2.61983 6.14237 3.26087 4.94306 4.20219 4.00174C5.1435 3.06043 6.34281 2.41939 7.64845 2.15968C8.95409 1.89997 10.3074 2.03326 11.5373 2.5427C12.7672 3.05213 13.8184 3.91483 14.558 5.0217C15.2976 6.12857 15.6923 7.4299 15.6923 8.76112C15.6903 10.5456 14.9805 12.2564 13.7187 13.5182C12.4569 14.7801 10.746 15.4898 8.96156 15.4919Z" fill="#0C3C82"/>
</svg>
