<svg width="545" height="419" viewBox="0 0 545 419" fill="none" xmlns="http://www.w3.org/2000/svg">
<path d="M499.482 280.153C466.552 274.738 441.86 292.68 441.86 292.68C467.793 303.845 499.482 280.153 499.482 280.153Z" fill="#E0E0E0"/>
<path d="M402.306 283.256C403.239 303.717 417.629 317.238 417.629 317.238C421.188 300.548 402.306 283.256 402.306 283.256Z" fill="#E0E0E0"/>
<path d="M420.463 326.04C444.795 329.658 464.052 315.944 464.052 315.944C445.203 307.937 420.463 326.04 420.463 326.04Z" fill="#E0E0E0"/>
<path d="M450.033 271.173C449.648 270.93 439.8 285.753 428.039 304.282C416.278 322.809 407.049 338.034 407.435 338.28C407.82 338.524 417.668 323.704 429.431 305.17C441.194 286.635 450.415 271.422 450.033 271.173Z" fill="#E0E0E0"/>
<path d="M484.112 230.628C484.112 230.628 448.835 244.932 445.822 278.808C445.822 278.808 476.086 267.019 484.112 230.628Z" fill="#E0E0E0"/>
<path d="M430.311 237.031C430.311 237.031 410.516 269.546 428.286 298.543C428.286 298.543 445.561 271.035 430.311 237.031Z" fill="#E0E0E0"/>
<path d="M11.3848 294.396C33.7757 276.677 59.6984 279.85 59.6984 279.85C44.9301 298.973 11.3848 294.396 11.3848 294.396Z" fill="#E0E0E0"/>
<path d="M85.3809 256.385C93.1757 272.08 88.0213 288.172 88.0213 288.172C78.4312 277.162 85.3809 256.385 85.3809 256.385Z" fill="#E0E0E0"/>
<path d="M89.5583 295.937C72.8528 308.743 52.7514 306.471 52.7514 306.471C63.531 292.658 89.5583 295.937 89.5583 295.937Z" fill="#E0E0E0"/>
<path d="M44.6613 267.153C44.852 266.808 58.3696 273.815 74.8601 282.796C91.3492 291.778 104.571 299.339 104.386 299.685C104.199 300.028 90.679 293.023 74.1839 284.039C57.6868 275.053 44.4733 267.498 44.6613 267.153Z" fill="#E0E0E0"/>
<path d="M2.33008 250.961C2.33008 250.961 34.6632 247.024 50.9815 271.117C32.4898 272.466 14.4498 264.992 2.33008 250.961Z" fill="#E0E0E0"/>
<path d="M45.2441 233.421C45.2441 233.421 73.5548 249.529 72.2896 278.606C56.6397 268.664 46.6114 251.909 45.2441 233.421Z" fill="#E0E0E0"/>
<path d="M434.346 211.43C434.311 309.524 354.759 389.016 256.664 388.981C158.569 388.944 79.0767 309.393 79.1133 211.299C79.1499 113.206 158.7 33.7128 256.795 33.7481C322.292 33.772 382.459 69.8389 413.349 127.593C417.11 134.591 420.391 141.836 423.172 149.28C423.557 150.316 423.93 151.353 424.292 152.398V152.408C425.923 157.009 427.359 161.693 428.597 166.464C432.424 181.146 434.357 196.257 434.344 211.427L434.346 211.43Z" fill="#0C3C82" fill-opacity="0.2"/>
<path d="M237.226 91.5481C221.044 82.7973 201.726 82.007 184.884 89.4069C177.566 92.5905 169.862 98.3028 167.422 108.616C177.294 102.789 190.077 111.994 192.618 126.763L192.026 126.928C190.684 137.155 193.679 148.293 199.478 154.637C200.24 148.048 204.573 143.564 208.833 140.762C213.095 137.962 217.814 135.926 221.058 131.113C224.914 125.405 225.893 117.062 227.42 109.453C228.942 101.844 231.866 93.6682 237.226 91.5481Z" fill="white"/>
<path d="M181.96 178.598C179.226 182.704 175.574 185.281 172.296 188.488C168.513 191.93 166.03 196.57 165.267 201.626C164.853 205.2 165.495 208.831 165.405 212.446C165.316 216.059 164.112 220.125 161.655 221.024C157.777 222.425 154.816 215.218 150.825 214.716C147.657 214.32 144.803 219.305 145.721 223.628C146.64 227.952 150.953 229.865 153.431 227.044C155.676 230.804 154.092 237.627 150.726 238.782C150.371 241.153 150.016 243.511 149.67 245.879C141.16 239.927 132.563 233.875 125.327 225.161C117.281 215.548 112.289 203.752 110.994 191.282C110.056 181.263 111.449 169.802 106.848 162.095C103.166 155.925 96.8479 154.563 91.1638 154.947C90.127 155.016 89.0803 155.135 88.0449 155.263C91.3976 145.192 95.6561 135.445 100.768 126.144C101.925 125.646 103 124.977 103.956 124.159C109.247 119.668 111.596 110.576 115.891 104.288C116.167 103.882 116.453 103.489 116.75 103.103C121.142 97.3655 127.025 94.4171 132.715 91.6729C145.3 85.562 158.25 79.3736 171.538 80.2231L167.757 80.5893C163.343 92.9492 158.926 105.308 154.506 117.663C153.834 119.558 153.156 121.457 152.473 123.359C149.966 130.387 147.378 137.87 147.764 145.737C147.992 150.396 149.611 155.37 152.69 156.97C155.558 158.451 158.702 156.635 161.475 154.839C162.649 154.091 163.814 153.341 164.988 152.579C169.203 149.865 173.873 147.081 178.324 148.897C182.401 150.556 185.411 156.093 185.985 162.066C186.511 167.868 185.096 173.684 181.96 178.598Z" fill="#F5F7FD"/>
<path d="M207.029 262.975L170.098 240.23L170.306 239.693C162.653 242.608 159.475 256.215 160.738 267.34C162.003 278.465 166.293 288.41 168.459 299.253C171.381 314.088 170.279 329.436 165.266 343.702C181.453 325.539 195.78 305.798 208.027 284.777C209.738 282.128 211.041 279.237 211.894 276.201C212.677 272.971 212.556 269.091 210.989 266.497C209.983 265.01 208.623 263.802 207.029 262.975Z" fill="#F5F7FD"/>
<path d="M158.444 125.078C156.999 128.183 156.776 131.716 157.821 134.975C159.031 138.082 161.595 139.485 163.952 140.654L170.753 144.021C173.016 145.143 175.455 146.276 177.761 145.353C180.545 144.24 182.474 139.878 181.973 135.829C181.442 131.52 178.731 128.556 176.213 126.032L165.668 115.43L163.687 117.855C161.545 119.945 159.774 122.384 158.448 125.067L158.444 125.078Z" fill="white"/>
<path d="M397.883 171.143L407.062 173.306C406.531 183.641 401.406 193.206 394.535 196.67C391.668 198.112 388.484 198.645 386.116 201.339C383.974 203.786 382.886 207.596 381.89 211.239L376.65 230.312C374.779 237.162 372.367 244.773 367.491 247.241C363.305 249.361 358.519 246.768 355.301 242.414C352.082 238.062 350.117 232.208 348.213 226.502C348.331 232.722 345.439 238.823 341.344 240.984C337.247 243.145 332.238 241.191 329.494 236.369C327.519 232.904 326.7 228.334 324.765 224.82C322.831 221.307 318.778 219.293 316.659 222.589C315.266 224.781 315.445 228.138 314.752 230.92C313.677 235.243 310.42 237.959 307.191 238.196C303.963 238.433 300.831 236.575 298.139 234.06C292.582 228.848 288.487 220.576 286.896 211.387C286.04 207.285 286.148 203.042 287.213 198.989C288.426 195.15 291.359 192.188 294.269 192.919C296.184 188.87 292.399 183.502 288.998 183.975C285.597 184.449 282.908 188.111 280.105 190.924C277.303 193.738 273.402 195.782 270.589 192.988C270.716 195.119 269.092 196.951 266.959 197.078C266.862 197.083 266.766 197.085 266.67 197.083C264.853 196.876 263.234 195.415 261.566 194.378C255.12 190.362 246.937 193.028 242.357 200.629C245.227 188.446 249.416 174.469 258.209 171.607C261.803 170.433 265.722 171.401 269.117 169.363C275.129 165.759 276.342 152.15 271.15 146.536C271.812 151.848 271.682 158.045 268.88 161.678C266.077 165.311 260.194 162.942 260.549 157.572C259.741 161.273 255.712 161.836 253.858 158.995C252.001 156.151 252.151 151.502 253.472 148.107C254.836 145.032 256.792 142.254 259.227 139.934C263.916 134.91 268.675 129.831 274.102 126.665C279.53 123.501 285.819 122.442 291.269 125.581C294.137 127.239 296.668 130.002 299.6 131.463C302.531 132.925 306.252 132.748 308.197 129.312C310.379 125.482 309.352 119.796 310.162 115.008C311.613 106.549 320.071 102.591 324.755 108.177C321.251 107.279 317.627 111.42 317.194 116.449C316.762 121.478 319.286 126.553 322.683 128.068C328.387 130.595 333.975 124.238 338.287 118.355C342.789 112.195 347.297 106.039 351.812 99.8873C352.533 98.8392 353.342 97.856 354.23 96.9459C357.163 94.0863 361.815 93.9905 364.863 96.7276C369.42 100.449 371.564 108.079 375.306 113.332C380.735 120.961 388.858 122.817 396.42 124.297C402.054 125.393 407.693 126.496 413.339 127.605C417.101 134.602 420.381 141.847 423.162 149.29C413.616 153.336 404.801 160.926 397.883 171.143Z" fill="#F5F7FD"/>
<path d="M416.104 289.914C411.874 298.501 406.956 306.731 401.394 314.523C397.843 313.001 394.021 315.717 390.695 318.264C387.219 320.929 383.045 323.524 379.481 321.096C375.838 318.608 374.663 311.649 375.818 306.128C376.973 300.607 379.855 296.238 382.649 292.074C385.611 287.652 388.781 283.059 392.893 281.345C397.01 279.632 402.321 282.056 403.526 287.919L406.449 287.822C404.809 285.577 405.668 280.914 407.872 280.09C410.409 279.13 412.61 282.616 414.109 285.701C414.781 287.09 415.463 288.487 416.104 289.914Z" fill="white"/>
<path d="M304.198 248.218C297.918 248.614 292.944 240.881 289.638 233.276C286.332 225.67 283.316 216.973 277.65 213.102C274.407 210.889 270.72 210.586 267.209 209.515C263.167 208.494 259.866 205.586 258.342 201.708L254.357 200.1C249.097 203.058 243.766 206.07 239.232 210.885C234.146 216.286 230.98 223.212 230.219 230.592C229.457 238.567 232.269 247.46 237.519 250.455C241.667 252.826 246.499 251.328 250.701 253.496C255.953 256.204 259.069 264.069 260.25 271.833C261.43 279.597 261.13 287.673 261.974 295.519C262.819 303.366 265.145 311.546 269.958 315.568C275.983 320.604 284.826 316.42 287.529 307.254C288.855 302.756 288.81 297.683 289.803 293.014C291.549 284.793 296.262 278.695 300.002 271.953C303.739 265.207 306.684 256.045 304.198 248.218Z" fill="#F5F7FD"/>
<path d="M242.137 167.442C242.723 167.98 243.27 168.56 243.773 169.177C244.834 171.007 244.796 173.274 243.671 175.067C245.201 174.98 246.624 174.257 247.596 173.071C248.741 171.765 249.75 170.344 250.605 168.829C251.418 167.781 251.74 166.435 251.491 165.133C251.194 164.286 250.494 163.926 250.001 163.288C249.32 162.044 248.855 160.691 248.629 159.29C247.755 156.296 245.67 154.097 243.404 153.783L243.718 153.842C242.619 154.495 242.057 155.772 242.319 157.023C242.509 158.256 243.301 159.277 243.222 160.535C243.108 162.341 241.303 163.189 241.192 164.996C241.174 165.906 241.513 166.784 242.137 167.442Z" fill="white"/>
<path d="M231.379 136.742H231.407C231.601 136.566 231.78 136.374 231.944 136.17L231.379 136.742Z" fill="#E6E6E6"/>
<path d="M233.262 145.221C234.801 143.872 235.459 141.777 234.967 139.792C234.511 137.738 232.896 136.358 231.406 136.736C230.528 137.628 229.253 138.006 228.032 137.734C227.112 137.497 226.099 136.886 225.302 137.58C224.845 138.099 224.526 138.723 224.371 139.397L223.485 142.119C223.344 142.443 223.309 142.804 223.379 143.152C223.496 143.433 223.749 143.635 224.05 143.683L229.37 145.252C230.607 145.82 232.034 145.808 233.262 145.221Z" fill="white"/>
<path d="M367.154 262.291L364.698 258.265C363.892 256.71 362.79 255.328 361.453 254.196C360.24 253.176 358.43 253.335 357.41 254.548C357.395 254.566 357.381 254.586 357.365 254.604L357.464 255.372C359.336 257.716 361.308 260.322 361.783 263.802C361.97 265.172 361.907 266.592 362.069 267.97C362.104 269.26 362.651 270.484 363.589 271.37C364.879 272.231 366.394 270.962 367.313 269.41C368.135 268.136 368.505 266.622 368.36 265.112C368.156 264.102 367.745 263.141 367.154 262.291Z" fill="white"/>
<path d="M403.645 211.026L404.356 206.362C404.74 204.655 404.791 202.887 404.5 201.161C404.226 199.6 402.74 198.556 401.182 198.828C401.157 198.832 401.133 198.837 401.107 198.841L400.689 199.492C400.61 202.485 400.44 205.755 398.569 208.721C397.829 209.892 396.866 210.936 396.104 212.09C395.299 213.1 394.929 214.387 395.077 215.671C395.508 217.168 397.489 217.168 399.19 216.569C400.643 216.123 401.896 215.199 402.76 213.951C403.25 213.046 403.553 212.05 403.645 211.026Z" fill="#E6E6E6"/>
<path d="M380.018 264.04C380.417 262.887 379.841 261.566 379.717 260.297C379.658 258.653 380.093 257.029 380.964 255.634C381.833 254.318 382.491 252.874 382.917 251.356C383.095 250.665 383.061 249.934 382.823 249.262C382.552 248.652 381.893 248.374 381.517 248.858L382.323 249.377C381.234 249.184 380.115 249.237 379.049 249.534C377.816 250.008 376.891 251.051 376.567 252.333C376.433 253.317 376.215 254.289 375.916 255.237C375.434 256.224 374.502 256.554 373.921 257.422C373.11 258.985 373.141 260.853 374.003 262.389C374.738 263.624 375.908 264.544 377.283 264.968C378.269 265.316 379.567 265.334 380.018 264.04Z" fill="white"/>
<path d="M402.92 270.949C403.278 271.876 403.755 272.752 404.34 273.554C405.436 274.658 406.928 273.981 408.257 273.712C410.714 273.324 413.191 274.316 414.697 276.297C413.653 271.075 410.135 266.688 405.268 264.528C402.149 263.448 398.866 262.935 395.569 263.011L395.006 263.158C396.44 267.333 400.945 267.242 402.92 270.949Z" fill="white"/>
<path d="M305.916 279.497L305.924 279.517L306.088 279.201L305.916 279.497Z" fill="#E6E6E6"/>
<path d="M302.444 286.22C301.686 287.598 301.035 289.026 300.494 290.502C299.778 292.892 299.306 295.345 299.08 297.829C298.904 299.242 298.85 301.042 299.735 301.732C300.26 302.08 300.963 301.986 301.376 301.509C301.866 300.989 302.269 300.39 302.565 299.739C304.305 296.744 305.654 293.542 306.582 290.205C307.552 286.666 307.321 282.905 305.923 279.512L302.444 286.22Z" fill="white"/>
<path d="M268.923 107.044C270.051 108.145 271.726 108.473 273.187 107.875C274.666 107.228 276.023 106.331 277.198 105.225C278.171 104.505 278.995 103.604 279.629 102.572C280.334 101.326 280.512 99.8523 280.128 98.4731C279.576 97.1433 278.374 96.1953 276.954 95.9628L271.049 94.2161L272.474 92.9327C271.008 92.1467 269.388 93.6061 268.474 95.412C267.885 96.5925 267.476 97.8533 267.258 99.1535C266.765 101.986 267.245 105.363 268.923 107.044Z" fill="#E6E6E6"/>
<path d="M303.679 95.3737C304.83 96.6443 306.77 96.8021 308.112 95.7343C309.238 94.8891 309.951 93.6043 310.073 92.2027C310.214 90.6545 309.451 88.9345 308.352 88.8007L308.603 87.3511C306.495 86.9764 303.905 86.8947 302.775 89.4529C302 91.4476 302.345 93.703 303.679 95.3737Z" fill="#E6E6E6"/>
<path d="M293.622 119.595C286.151 118.754 279.412 124.126 278.57 131.597C277.726 139.068 281.663 155.295 288.839 162.006C292.217 149.138 304.057 141.507 305.624 134.648C307.297 127.317 301.092 120.437 293.622 119.595Z" fill="#00285A"/>
<path d="M291.141 136.201C293.594 136.201 295.582 134.213 295.582 131.761C295.582 129.308 293.594 127.32 291.141 127.32C288.689 127.32 286.701 129.308 286.701 131.761C286.701 134.213 288.689 136.201 291.141 136.201Z" fill="white"/>
<path d="M286.472 168.405C288.078 168.405 289.38 167.103 289.38 165.497C289.38 163.892 288.078 162.59 286.472 162.59C284.866 162.59 283.564 163.892 283.564 165.497C283.564 167.103 284.866 168.405 286.472 168.405Z" fill="#00285A"/>
<path opacity="0.2" d="M294.813 128.58C296.936 129.806 297.664 132.521 296.44 134.645C295.216 136.768 292.5 137.496 290.375 136.272C290.33 136.245 290.285 136.218 290.24 136.19C292.634 136.718 295.003 135.206 295.531 132.812C295.943 130.95 295.117 129.033 293.483 128.051C293.952 128.155 294.402 128.334 294.813 128.58Z" fill="#231F20"/>
<path opacity="0.2" d="M305.64 134.661C304.073 141.521 292.235 149.152 288.855 162.019C288.182 161.381 287.558 160.695 286.984 159.966C290.781 147.868 301.883 140.523 303.399 133.898C304.752 127.966 300.946 122.328 295.486 119.947C302.093 121.605 307.175 127.944 305.64 134.661Z" fill="#231F20"/>
<path d="M364.317 170.214C356.845 169.373 350.106 174.745 349.263 182.216C348.419 189.687 352.355 205.914 359.531 212.624C362.909 199.757 374.749 192.126 376.317 185.266C377.989 177.938 371.785 171.056 364.317 170.214Z" fill="#00285A"/>
<path d="M361.835 186.822C364.287 186.822 366.275 184.834 366.275 182.382C366.275 179.929 364.287 177.941 361.835 177.941C359.382 177.941 357.395 179.929 357.395 182.382C357.395 184.834 359.382 186.822 361.835 186.822Z" fill="white"/>
<path d="M357.165 219.024C358.771 219.024 360.073 217.722 360.073 216.117C360.073 214.511 358.771 213.209 357.165 213.209C355.56 213.209 354.258 214.511 354.258 216.117C354.258 217.722 355.56 219.024 357.165 219.024Z" fill="#00285A"/>
<path opacity="0.2" d="M365.506 179.201C367.632 180.427 368.357 183.14 367.135 185.264C365.909 187.387 363.195 188.117 361.07 186.891C361.024 186.864 360.977 186.838 360.934 186.809C363.327 187.338 365.696 185.826 366.225 183.431C366.636 181.569 365.811 179.652 364.175 178.67C364.648 178.774 365.095 178.953 365.506 179.201Z" fill="#231F20"/>
<path opacity="0.2" d="M376.335 185.28C374.77 192.141 362.93 199.772 359.55 212.639C358.877 212 358.252 211.314 357.68 210.585C361.476 198.485 372.578 191.142 374.092 184.517C375.446 178.585 371.641 172.949 366.183 170.566C372.787 172.226 377.871 178.565 376.335 185.28Z" fill="#231F20"/>
<path d="M144.858 145.765C137.386 144.921 130.648 150.295 129.804 157.766C128.96 165.237 132.898 181.464 140.074 188.175C143.452 175.307 155.29 167.676 156.86 160.817C158.532 153.487 152.328 146.606 144.858 145.765Z" fill="#00285A"/>
<path d="M142.376 162.373C144.828 162.373 146.816 160.385 146.816 157.932C146.816 155.48 144.828 153.492 142.376 153.492C139.923 153.492 137.936 155.48 137.936 157.932C137.936 160.385 139.923 162.373 142.376 162.373Z" fill="white"/>
<path d="M137.708 194.575C139.314 194.575 140.616 193.273 140.616 191.667C140.616 190.062 139.314 188.76 137.708 188.76C136.103 188.76 134.801 190.062 134.801 191.667C134.801 193.273 136.103 194.575 137.708 194.575Z" fill="#00285A"/>
<path opacity="0.2" d="M146.049 154.752C148.174 155.976 148.902 158.69 147.676 160.815C146.452 162.938 143.736 163.666 141.612 162.442C141.567 162.415 141.522 162.388 141.477 162.36C143.87 162.888 146.239 161.375 146.768 158.982C147.179 157.12 146.355 155.203 144.719 154.221C145.188 154.325 145.638 154.504 146.049 154.752Z" fill="#231F20"/>
<path opacity="0.2" d="M156.876 160.829C155.311 167.689 143.471 175.32 140.091 188.187C139.418 187.549 138.793 186.863 138.221 186.134C142.017 174.036 153.12 166.691 154.633 160.066C155.987 154.134 152.182 148.496 146.721 146.115C153.329 147.773 158.41 154.112 156.876 160.829Z" fill="#231F20"/>
<path d="M257.886 405.644L255.874 410.688C255.874 410.688 226.597 388.351 204.014 390.247C202.868 391.091 201.395 391.36 200.023 390.978L191.613 388.895C189.893 388.496 188.538 387.172 188.102 385.46C188.102 385.46 171.055 371.377 147.951 373.565L139.344 373.927L175.766 313.59L275.176 329.615L257.886 405.644Z" fill="#0C3C82"/>
<path d="M265.566 400.155L262.215 409.33C262.215 409.33 234.789 382.406 196.508 388.335L219.45 346.594C219.45 346.594 266.162 389.921 265.566 400.155Z" fill="#EBEBEB"/>
<path d="M293.745 335.173C293.745 335.173 262.671 297.314 221.535 322.441L196.51 388.333C196.51 388.333 242.304 369.962 268.563 403.353L293.745 335.173Z" fill="white"/>
<path d="M293.745 335.168C293.745 335.168 293.606 335.59 293.312 336.416L291.996 340.053C290.827 343.255 289.12 347.933 286.945 353.884C282.554 365.834 276.284 382.9 268.746 403.419L268.622 403.747L268.402 403.473C260.799 393.698 249.883 387.039 237.712 384.753C231.076 383.486 224.294 383.188 217.572 383.864C214.09 384.192 210.634 384.733 207.218 385.487C203.734 386.226 200.306 387.207 196.953 388.411L196.588 388.55L196.104 388.735L196.287 388.255C205.391 364.305 213.964 341.765 221.34 322.37L221.366 322.306L221.423 322.27C226.323 319.233 231.631 316.917 237.19 315.395C246.695 312.817 256.758 313.154 266.068 316.363C269.75 317.621 273.304 319.233 276.67 321.18C281.399 323.914 285.794 327.196 289.757 330.954C291.129 332.256 292.127 333.315 292.777 334.042C293.105 334.406 293.347 334.688 293.506 334.878C293.664 335.071 293.736 335.175 293.736 335.175C293.736 335.175 293.647 335.085 293.478 334.9C293.311 334.716 293.054 334.44 292.732 334.086C292.063 333.375 291.055 332.332 289.669 331.049C285.684 327.336 281.282 324.094 276.553 321.389C273.187 319.467 269.647 317.876 265.975 316.639C256.714 313.482 246.721 313.175 237.285 315.757C231.766 317.279 226.495 319.592 221.635 322.618L221.721 322.516C214.36 341.916 205.805 364.463 196.719 388.419L196.416 388.124L196.791 387.981C200.165 386.766 203.618 385.781 207.121 385.036C210.554 384.284 214.029 383.741 217.53 383.414C224.294 382.737 231.119 383.041 237.798 384.324C250.066 386.639 261.064 393.364 268.713 403.232L268.374 403.285C275.971 382.83 282.286 365.81 286.708 353.892C288.931 347.941 290.674 343.266 291.871 340.067C292.471 338.478 292.93 337.26 293.243 336.424C293.556 335.59 293.745 335.168 293.745 335.168Z" fill="#263238"/>
<path d="M196.12 388.214C196.12 388.214 168.507 359.365 137.84 370.252L164.952 311.492L220.671 324.713L196.12 388.214Z" fill="#F5F5F5"/>
<path d="M196.284 389.025L195.802 388.526C195.527 388.24 168.032 360.009 137.989 370.679L137 371.03L164.708 310.975L165.06 311.058L221.268 324.405L221.089 324.878L196.284 389.025ZM152.004 367.383C174.349 367.383 192.762 384.313 195.955 387.425L220.078 325.026L165.206 312.003L138.676 369.502C142.977 368.092 147.475 367.376 152.001 367.383H152.004Z" fill="#263238"/>
<path d="M221.536 322.442C221.536 322.442 215.943 296.706 190.454 290.659L173.99 287.229L145.344 345.832C145.344 345.832 186.506 354.761 196.565 387.932L221.536 322.442Z" fill="white"/>
<path d="M221.534 322.441C221.534 322.441 221.504 322.544 221.434 322.749L221.106 323.653C220.804 324.463 220.366 325.642 219.796 327.175L214.764 340.521L196.746 388.001L196.538 388.554L196.365 387.988C194.926 383.341 192.816 378.929 190.103 374.891C189.432 373.828 188.628 372.842 187.88 371.804C187.052 370.827 186.278 369.792 185.385 368.851C183.619 366.891 181.728 365.049 179.721 363.336C171.064 356.178 161.088 350.787 150.359 347.466C148.672 346.933 146.972 346.44 145.292 346.05L145.008 345.982L145.133 345.724L173.81 287.137L173.878 287L174.024 287.03L187.445 289.843C191.524 290.543 195.481 291.815 199.206 293.624C205.22 296.671 210.383 301.156 214.244 306.682C216.737 310.196 218.749 314.026 220.234 318.072C220.744 319.466 221.073 320.559 221.272 321.299C221.472 322.04 221.535 322.432 221.535 322.432C221.535 322.432 221.506 322.34 221.454 322.151C221.401 321.961 221.316 321.675 221.213 321.316C220.994 320.582 220.649 319.499 220.12 318.11C218.595 314.099 216.56 310.301 214.059 306.812C210.194 301.348 205.042 296.917 199.061 293.91C195.357 292.128 191.42 290.877 187.366 290.192L173.944 287.411L174.161 287.307L145.545 345.923L145.387 345.598C147.096 345.995 148.796 346.488 150.502 347.026C155.975 348.774 161.275 351.015 166.341 353.729C171.219 356.316 175.802 359.424 180.01 362.995C182.031 364.723 183.933 366.58 185.708 368.558C186.615 369.503 187.391 370.553 188.224 371.534C188.972 372.58 189.783 373.577 190.462 374.653C193.195 378.727 195.314 383.18 196.756 387.868L196.375 387.854C203.866 368.31 210.135 351.958 214.533 340.48C216.741 334.755 218.483 330.251 219.672 327.155C220.272 325.626 220.729 324.447 221.045 323.642C221.2 323.253 221.32 322.954 221.406 322.737C221.49 322.523 221.534 322.441 221.534 322.441Z" fill="#263238"/>
<path d="M180.125 300.471C180.103 300.679 182.72 301.115 186.729 302.493C191.889 304.286 196.736 306.882 201.088 310.182C205.253 313.35 208.84 317.214 211.69 321.603C213.77 324.89 214.602 327.092 214.834 327.048C214.923 327.032 214.786 326.473 214.449 325.465C213.949 324.015 213.308 322.618 212.538 321.291C209.836 316.641 206.233 312.579 201.936 309.345C197.449 305.925 192.384 303.34 186.98 301.718C185.35 301.217 183.679 300.843 181.99 300.601C181.38 300.456 180.749 300.411 180.125 300.471Z" fill="#E0E0E0"/>
<path d="M175.77 306.748C175.747 306.954 178.364 307.391 182.374 308.767C187.532 310.563 192.378 313.159 196.731 316.458C200.897 319.628 204.483 323.492 207.333 327.879C209.416 331.165 210.246 333.368 210.48 333.325C210.569 333.309 210.431 332.75 210.093 331.738C209.594 330.29 208.954 328.893 208.182 327.567C205.481 322.919 201.876 318.855 197.582 315.619C193.094 312.2 188.027 309.618 182.623 307.992C180.993 307.493 179.324 307.12 177.635 306.879C177.025 306.733 176.394 306.689 175.77 306.748Z" fill="#E0E0E0"/>
<path d="M172.777 314.178C172.755 314.386 175.372 314.821 179.381 316.2C184.542 317.993 189.389 320.588 193.74 323.89C197.906 327.058 201.492 330.921 204.342 335.31C206.424 338.6 207.254 340.799 207.489 340.756C207.578 340.739 207.438 340.18 207.105 339.172C206.603 337.722 205.964 336.325 205.193 334.999C202.491 330.349 198.888 326.286 194.591 323.052C190.103 319.632 185.037 317.048 179.634 315.425C178.005 314.925 176.334 314.552 174.644 314.311C174.034 314.163 173.403 314.118 172.777 314.178Z" fill="#E0E0E0"/>
<path d="M168.715 320.654C168.694 320.86 171.31 321.296 175.319 322.673C180.479 324.467 185.326 327.062 189.679 330.361C193.846 333.531 197.43 337.396 200.281 341.784C202.365 345.071 203.194 347.273 203.428 347.232C203.517 347.215 203.376 346.653 203.041 345.646C202.542 344.196 201.9 342.799 201.132 341.473C198.43 336.82 194.824 332.76 190.531 329.526C186.042 326.104 180.975 323.521 175.573 321.898C173.94 321.398 172.272 321.025 170.583 320.782C169.972 320.637 169.343 320.592 168.715 320.654Z" fill="#E0E0E0"/>
<path d="M164.276 327.432C164.253 327.639 166.87 328.074 170.88 329.453C176.038 331.248 180.885 333.841 185.237 337.143C189.402 340.313 192.99 344.177 195.839 348.566C197.921 351.853 198.751 354.053 198.986 354.011C199.075 353.994 198.937 353.435 198.601 352.425C198.103 350.977 197.46 349.578 196.691 348.251C193.988 343.602 190.383 339.54 186.089 336.305C181.6 332.885 176.535 330.301 171.132 328.678C169.502 328.177 167.831 327.804 166.142 327.563C165.531 327.416 164.898 327.373 164.276 327.432Z" fill="#E0E0E0"/>
<path d="M158.932 334.888C158.909 335.098 161.753 335.563 166.094 337.128C168.626 338.045 171.096 339.121 173.489 340.351C176.373 341.874 179.154 343.582 181.819 345.466C184.404 347.349 186.848 349.417 189.136 351.651C190.93 353.448 192.571 355.386 194.048 357.45C196.517 360.942 197.389 363.348 197.633 363.297C197.723 363.28 197.554 362.674 197.168 361.577C196.94 360.901 196.65 360.244 196.303 359.616C195.892 358.741 195.414 357.9 194.873 357.097C193.472 354.915 191.86 352.876 190.061 351.009C187.761 348.672 185.274 346.527 182.623 344.599C179.893 342.665 177.022 340.937 174.033 339.432C171.557 338.215 168.988 337.184 166.356 336.357C165.348 336.023 164.327 335.742 163.29 335.516C162.518 335.312 161.735 335.158 160.946 335.056C160.288 334.901 159.608 334.843 158.932 334.888Z" fill="#E0E0E0"/>
<path d="M156.354 341.423C156.33 341.638 159.195 342.094 163.521 343.73C166.044 344.692 168.497 345.823 170.866 347.116C173.713 348.718 176.449 350.503 179.058 352.466C181.583 354.43 183.97 356.567 186.201 358.859C187.949 360.704 189.554 362.681 190.999 364.77C193.418 368.301 194.304 370.715 194.546 370.667C194.636 370.651 194.469 370.044 194.081 368.941C193.855 368.263 193.57 367.603 193.231 366.97C192.825 366.093 192.359 365.24 191.832 364.429C190.465 362.227 188.899 360.156 187.151 358.242C184.915 355.85 182.489 353.64 179.901 351.634C177.224 349.615 174.395 347.806 171.444 346.219C168.987 344.935 166.431 343.851 163.801 342.976C162.796 342.621 161.772 342.328 160.73 342.094C159.959 341.878 159.172 341.716 158.377 341.609C157.717 341.447 157.035 341.384 156.354 341.423Z" fill="#E0E0E0"/>
<path d="M213.568 374.885C213.712 375.064 216.028 373.713 220.296 372.452C226.048 370.79 232.081 370.332 238.019 371.107C244.141 371.942 250.045 373.944 255.412 377.008C259.514 379.356 261.681 381.287 261.839 381.147C261.896 381.099 261.423 380.566 260.441 379.693C259.02 378.457 257.501 377.337 255.904 376.343C250.482 372.968 244.405 370.787 238.074 369.946C231.957 369.118 225.729 369.708 219.874 371.667C218.214 372.231 216.612 372.947 215.087 373.807C214.033 374.412 213.515 374.816 213.568 374.885Z" fill="#E0E0E0"/>
<path d="M217.027 366.493C217.169 366.675 219.49 365.322 223.755 364.06C229.506 362.399 235.541 361.941 241.477 362.717C247.601 363.55 253.505 365.553 258.871 368.617C262.974 370.965 265.139 372.898 265.298 372.756C265.356 372.709 264.879 372.177 263.9 371.304C262.48 370.065 260.961 368.947 259.362 367.952C253.94 364.577 247.86 362.398 241.525 361.555C235.407 360.727 229.182 361.317 223.329 363.28C221.668 363.842 220.065 364.557 218.54 365.418C217.497 366.025 216.977 366.431 217.027 366.493Z" fill="#E0E0E0"/>
<path d="M220.484 358.112C220.629 358.294 222.948 356.941 227.215 355.679C232.966 354.017 238.998 353.562 244.936 354.338C251.058 355.169 256.963 357.172 262.328 360.238C266.43 362.586 268.598 364.519 268.754 364.376C268.815 364.33 268.339 363.797 267.357 362.924C265.935 361.689 264.421 360.567 262.821 359.576C257.4 356.2 251.322 354.018 244.992 353.179C238.873 352.35 232.645 352.939 226.792 354.9C225.133 355.462 223.531 356.178 222.002 357.04C220.953 357.646 220.433 358.05 220.484 358.112Z" fill="#E0E0E0"/>
<path d="M223.943 349.73C224.086 349.911 226.405 348.561 230.672 347.297C236.425 345.635 242.457 345.18 248.395 345.955C254.515 346.787 260.421 348.791 265.789 351.855C269.889 354.203 272.055 356.136 272.216 355.993C272.273 355.944 271.796 355.413 270.815 354.538C269.394 353.303 267.876 352.183 266.278 351.19C260.857 347.812 254.779 345.632 248.45 344.791C242.332 343.964 236.104 344.552 230.248 346.514C228.588 347.076 226.987 347.793 225.461 348.654C224.41 349.258 223.895 349.667 223.943 349.73Z" fill="#E0E0E0"/>
<path d="M227.402 341.35C227.547 341.53 229.863 340.179 234.132 338.915C239.882 337.255 245.918 336.798 251.855 337.574C257.977 338.406 263.882 340.409 269.246 343.474C273.346 345.822 275.515 347.754 275.674 347.613C275.732 347.565 275.254 347.032 274.275 346.158C272.855 344.922 271.337 343.802 269.739 342.809C264.316 339.434 258.236 337.252 251.901 336.411C245.784 335.583 239.557 336.173 233.703 338.134C232.044 338.694 230.442 339.411 228.915 340.273C227.869 340.882 227.347 341.286 227.402 341.35Z" fill="#E0E0E0"/>
<path d="M230.861 332.97C231.006 333.15 233.322 331.797 237.589 330.535C243.341 328.874 249.374 328.418 255.312 329.193C261.434 330.027 267.339 332.03 272.704 335.092C276.806 337.442 278.974 339.376 279.132 339.231C279.188 339.185 278.713 338.651 277.731 337.779C276.31 336.539 274.796 335.419 273.198 334.422C267.775 331.047 261.693 328.866 255.36 328.026C249.243 327.198 243.015 327.787 237.162 329.746C235.503 330.31 233.901 331.026 232.376 331.888C231.325 332.502 230.808 332.906 230.861 332.97Z" fill="#E0E0E0"/>
<path d="M418.445 366.76L426.262 382.377L460.86 411.458L469.365 400.381L435.395 372.024L418.445 366.76Z" fill="#0C3C82"/>
<g opacity="0.7">
<path d="M435.395 372.024C435.395 372.593 434.936 373.055 434.363 373.055C434.274 373.055 434.185 373.043 434.098 373.021C435.108 374.408 434.805 376.352 433.42 377.364C432.637 377.935 431.634 378.11 430.706 377.836C431.226 379.77 430.079 381.758 428.145 382.275C427.508 382.446 426.837 382.439 426.208 382.257L418.447 366.76L435.395 372.024Z" fill="white"/>
</g>
<path d="M421.59 373.04C421.59 373.04 424.887 373.603 425.39 368.916L418.443 366.76L421.59 373.04Z" fill="#0C3C82"/>
<g opacity="0.3">
<path d="M430.704 377.834L464.772 406.035L460.86 411.458L426.262 382.374L426.203 382.257C426.719 382.409 427.262 382.439 427.794 382.346C428.491 382.221 429.142 381.905 429.664 381.429C430.302 380.842 430.707 380.047 430.805 379.182C430.856 378.73 430.821 378.272 430.704 377.834Z" fill="black"/>
</g>
<g opacity="0.3">
<path d="M434.098 373.021L468.274 401.805L469.364 400.382L435.395 372.023C435.368 372.588 434.915 373.042 434.35 373.067C434.262 373.06 434.178 373.046 434.098 373.021Z" fill="black"/>
</g>
<path d="M426.94 377.051C426.976 377.103 427.032 377.141 427.095 377.158C427.286 377.2 427.477 377.095 427.536 376.907C427.614 376.621 427.6 376.317 427.497 376.035C427.443 375.858 427.333 375.704 427.188 375.592C427.028 375.463 426.809 375.427 426.618 375.499C426.412 375.596 426.26 375.779 426.199 375.997C426.119 376.234 426.078 376.48 426.074 376.731C426.039 377.285 426.115 377.84 426.307 378.36C426.395 378.641 426.605 378.868 426.876 378.984C427.17 379.065 427.487 378.994 427.715 378.794C428.166 378.316 428.405 377.674 428.375 377.017C428.405 375.724 427.711 374.521 426.576 373.9C426.323 373.783 426.028 373.79 425.783 373.921C425.551 374.053 425.356 374.239 425.213 374.462C424.95 374.866 424.749 375.311 424.616 375.776C424.417 376.452 424.36 377.159 424.444 377.86C424.474 378.112 424.515 378.298 424.543 378.424C424.572 378.554 424.584 378.62 424.584 378.62C424.501 378.377 424.44 378.122 424.406 377.865C424.309 377.161 424.357 376.444 424.551 375.758C424.682 375.285 424.881 374.832 425.15 374.418C425.298 374.182 425.504 373.984 425.744 373.846C426.016 373.701 426.339 373.693 426.619 373.819C427.79 374.452 428.51 375.687 428.477 377.019C428.473 377.362 428.42 377.702 428.314 378.027C428.222 378.351 428.038 378.644 427.786 378.868C427.529 379.088 427.179 379.164 426.855 379.071C426.557 378.947 426.332 378.702 426.232 378.398C426.037 377.865 425.96 377.298 426.001 376.73C426.011 376.472 426.057 376.218 426.139 375.973C426.214 375.738 426.381 375.542 426.605 375.438C426.819 375.362 427.057 375.404 427.235 375.548C427.391 375.669 427.505 375.835 427.562 376.025C427.663 376.318 427.672 376.637 427.584 376.936C427.512 377.13 427.305 377.238 427.104 377.186C427.029 377.172 426.966 377.121 426.94 377.051Z" fill="white"/>
<path d="M428.348 369.988C428.361 369.988 428.272 370.171 428.204 370.524C428.12 371.018 428.135 371.525 428.252 372.014C428.428 372.738 428.692 373.437 429.033 374.097C429.464 374.912 429.758 375.792 429.905 376.701C429.996 377.626 429.816 378.559 429.384 379.384C428.783 380.511 427.742 381.34 426.506 381.671C426.328 381.721 426.146 381.757 425.959 381.772C426.005 381.757 426.052 381.745 426.1 381.738C426.19 381.717 426.328 381.686 426.496 381.634C426.979 381.49 427.431 381.273 427.845 380.989C428.461 380.566 428.96 380.003 429.305 379.342C429.723 378.533 429.898 377.618 429.803 376.712C429.657 375.812 429.367 374.943 428.944 374.137C428.603 373.466 428.347 372.758 428.176 372.027C428.066 371.529 428.062 371.014 428.159 370.517C428.199 370.331 428.262 370.155 428.348 369.988Z" fill="white"/>
<path d="M432.264 370.988C431.962 371.166 431.734 371.448 431.624 371.781C431.422 372.604 431.35 373.455 431.41 374.302C431.44 375.151 431.544 375.996 431.729 376.827C431.799 377.147 431.867 377.401 431.91 377.574C431.943 377.664 431.964 377.757 431.977 377.851C431.934 377.764 431.9 377.675 431.874 377.584C431.817 377.411 431.74 377.157 431.662 376.837C431.347 375.545 431.24 374.213 431.347 372.887C431.364 372.5 431.436 372.117 431.562 371.75C431.65 371.5 431.806 371.281 432.013 371.115C432.089 371.059 432.174 371.016 432.264 370.988Z" fill="white"/>
<path d="M433.755 377.06C433.653 376.897 433.57 376.722 433.507 376.542C433.315 376.108 433.226 375.64 433.242 375.17C433.256 374.686 433.486 374.237 433.865 373.94C433.983 373.855 434.111 373.793 434.249 373.757C434.3 373.738 434.353 373.733 434.404 373.738C434.227 373.796 434.059 373.884 433.905 373.995C433.558 374.291 433.349 374.72 433.336 375.177C433.324 375.633 433.403 376.087 433.567 376.512C433.641 376.691 433.705 376.873 433.755 377.06Z" fill="white"/>
<path d="M426.087 369.098C426.103 369.12 426.117 369.146 426.122 369.172C426.146 369.222 426.176 369.296 426.211 369.393C426.26 369.513 426.284 369.641 426.284 369.768C426.274 369.939 426.224 370.105 426.138 370.254C425.977 370.591 425.705 370.944 425.448 371.354C425.166 371.8 424.924 372.269 424.724 372.756C424.37 373.648 424.09 374.566 423.881 375.5L423.68 376.351C423.659 376.455 423.632 376.56 423.594 376.661C423.602 376.554 423.616 376.45 423.64 376.344C423.678 376.138 423.735 375.845 423.809 375.485C424.001 374.538 424.276 373.611 424.631 372.714C424.835 372.219 425.079 371.746 425.367 371.299C425.634 370.887 425.91 370.543 426.074 370.216C426.234 369.972 426.273 369.67 426.174 369.398C426.141 369.299 426.111 369.199 426.087 369.098Z" fill="white"/>
<path d="M222.655 77.9007L221.73 33.6211L206.637 41.376L200.244 68.0088L222.655 77.9007Z" fill="#263238"/>
<path d="M205.386 98.1288L189.593 106.053L183.639 105.361L194.038 97.1652L204.275 95.1113L205.386 98.1288Z" fill="#263238"/>
<path d="M97.9986 71.4883L38.7305 117.513L105.422 74.5747L97.9986 71.4883Z" fill="#E0E0E0"/>
<path d="M135.019 83.9186C134.119 84.3694 48.1786 118.564 48.1786 118.564L38.7305 117.515L103.971 71.1699L135.019 83.9186Z" fill="#263238"/>
<path d="M109.925 91.6144L117.126 94.5501C118.416 95.0756 119.887 94.4557 120.412 93.1668L120.452 93.0668C120.979 91.7792 120.362 90.3085 119.073 89.7831L119.069 89.7817L111.867 86.8474C110.578 86.3219 109.108 86.9403 108.582 88.2293L108.541 88.3321C108.019 89.6197 108.636 91.089 109.925 91.6144Z" fill="#455A64"/>
<path d="M68.8045 111.216L76.0058 114.153C77.2947 114.678 78.7654 114.06 79.2909 112.771L79.3331 112.67C79.8586 111.379 79.2387 109.91 77.9512 109.383L70.7485 106.446C69.4596 105.922 67.9889 106.542 67.462 107.829L67.4226 107.931C66.8957 109.22 67.5128 110.689 68.8017 111.216H68.8045Z" fill="#455A64"/>
<path d="M80.3555 76.9696C80.3555 76.9696 106.216 80.535 102.6 94.0994C98.9827 107.664 73.4642 93.3767 73.4642 93.3767C73.4642 93.3767 69.686 91.2059 71.1328 83.9708C72.5795 76.7358 80.3555 76.9696 80.3555 76.9696Z" fill="#0C3C82"/>
<path d="M73.3149 83.5252C73.7656 81.7925 74.725 80.2359 76.0717 79.0554C77.4818 77.8862 79.5033 77.8087 80.9993 78.868L81.7163 79.323C83.6068 81.3572 84.1787 84.2901 83.1898 86.8863C83.2786 86.613 83.3659 86.3383 83.4547 86.0651C82.9335 88.8444 81.3839 91.3223 79.1117 93.0085C78.5242 93.4945 77.8114 93.8073 77.0564 93.9115C76.0914 93.927 75.1631 93.5368 74.4982 92.8367C73.3318 91.6421 72.6472 90.0601 72.5725 88.3922C72.5077 86.7356 72.7584 85.086 73.3149 83.5252Z" fill="#263238"/>
<path d="M236.261 83.9355C236.261 83.9355 246.819 94.4951 226.731 97.0716C206.643 99.6467 171.875 98.3577 132.73 84.9723C93.5839 71.5854 58.7356 52.7934 52.6415 47.8813C48.1112 44.2314 40.8564 37.9908 43.4526 29.047C44.8796 24.4293 48.4084 20.7611 52.9655 19.1551C61.5783 15.8687 70.9898 15.2883 79.9407 17.4957C97.448 22.1289 236.261 83.9355 236.261 83.9355Z" fill="white"/>
<path d="M236.26 83.9363C236.26 83.9363 235.896 83.7997 235.207 83.5052L232.148 82.1825L220.4 77.0449L177.191 58.1585C158.931 50.229 137.183 40.7921 112.901 30.6354C106.822 28.1209 100.594 25.5345 94.192 23.0116C91.0027 21.7029 87.7303 20.5393 84.4494 19.2855C82.7829 18.7615 81.1249 18.1628 79.4302 17.6937C77.7159 17.2655 75.9747 16.9499 74.2181 16.7485C66.9957 15.9878 59.6944 16.9401 52.9087 19.5293C49.4574 20.8196 46.5865 23.3088 44.8214 26.5432C43.0394 29.8268 42.7689 33.7233 44.0846 37.2197C45.5905 40.6414 47.9078 43.6433 50.8379 45.9649C53.6708 48.3582 56.7389 50.4544 59.9987 52.2223C66.397 55.9131 72.8741 59.2531 79.3006 62.4058C92.1592 68.697 104.845 74.1881 117.109 78.9453C128.682 83.5348 140.525 87.4186 152.57 90.5727C163.077 93.2689 173.755 95.251 184.53 96.5047C193.416 97.5767 202.364 98.0543 211.312 97.9317C215.262 97.9021 218.934 97.6612 222.305 97.3964C225.38 97.1865 228.434 96.7428 231.44 96.068C234.092 95.3636 236.477 94.3832 237.842 92.735C238.475 91.9898 238.859 91.0671 238.945 90.0937C238.985 89.2837 238.859 88.4737 238.581 87.713C238.197 86.6734 237.656 85.7 236.977 84.8252C236.525 84.2265 236.265 83.9419 236.265 83.9419C236.542 84.2025 236.797 84.4843 237.03 84.7843C237.737 85.6507 238.303 86.6241 238.705 87.6679C239 88.4455 239.137 89.2738 239.106 90.105C239.029 91.1164 238.64 92.0771 237.992 92.8576C236.59 94.5748 234.174 95.5806 231.506 96.3117C228.489 97.0104 225.422 97.4753 222.333 97.7049C218.956 97.9909 215.277 98.2487 211.319 98.2937C202.353 98.4557 193.385 98.0092 184.478 96.9611C173.678 95.7369 162.973 93.7789 152.439 91.0981C140.365 87.9624 128.492 84.0912 116.89 79.5073C104.605 74.7572 91.9014 69.2788 79.0203 62.9805C72.5826 59.8279 66.0927 56.4864 59.6719 52.7844C56.3783 50.9967 53.275 48.8766 50.4125 46.4579C47.4007 44.0688 45.0186 40.9767 43.476 37.4535C42.0969 33.781 42.3773 29.6916 44.2466 26.2431C46.085 22.8693 49.0784 20.273 52.6763 18.9277C59.5591 16.3047 66.9633 15.3412 74.2899 16.1188C76.0733 16.3287 77.8426 16.6541 79.5852 17.0936C81.3038 17.5754 82.9759 18.1769 84.6607 18.708C87.9472 19.9646 91.2323 21.138 94.4188 22.4495C100.83 24.9823 107.058 27.5772 113.136 30.0987C137.411 40.2892 159.14 49.7683 177.378 57.7542L220.507 76.8252L232.205 82.0768L235.241 83.4587C235.921 83.763 236.26 83.9363 236.26 83.9363Z" fill="#263238"/>
<path d="M203.324 72.8423V76.9698L174.936 64.7366L179.301 62.3672L203.324 72.8423Z" fill="#263238"/>
<path d="M201.114 70.5306V77.5628L198.527 76.4401V69.2402L201.114 70.5306Z" fill="white"/>
<path d="M195.659 67.5437V74.5745L193.072 73.4518V66.252L195.659 67.5437Z" fill="white"/>
<path d="M190.202 65.4558V72.4867L187.615 71.3639V64.1641L190.202 65.4558Z" fill="white"/>
<path d="M179.465 61.1263V68.1571L176.879 67.0358V59.8359L179.465 61.1263Z" fill="white"/>
<path d="M290.021 2.09467L168.344 68.326L140.973 55.1969L275.419 0.929688L290.021 2.09467Z" fill="#263238"/>
<path d="M146.118 44.4302L275.421 0.929688L140.975 55.1969" fill="white"/>
<path d="M140.973 55.1946C140.973 55.1946 141.192 55.0833 141.632 54.8917L143.598 54.0648L151.18 50.9389L179.103 39.5566L271.324 2.23178L275.299 0.625863L275.524 1.23583L183.903 31.9553L156.258 41.1484L148.747 43.6108L146.792 44.2349C146.351 44.373 146.119 44.4279 146.119 44.4279C146.119 44.4279 146.336 44.3321 146.771 44.1785L148.708 43.4939L156.181 40.9146L183.759 31.5285L275.319 0.623047L275.546 1.23019C274.288 1.73733 272.925 2.28672 271.567 2.83611C235.538 17.3358 202.919 30.4677 179.278 39.982C167.473 44.7012 157.912 48.5216 151.276 51.1727L143.652 54.1859L141.656 54.9537C141.209 55.1227 140.973 55.1946 140.973 55.1946Z" fill="#263238"/>
<path d="M225.854 33.5557L232.111 38.1706C233.231 38.9961 234.81 38.7594 235.637 37.6395L235.701 37.5507C236.526 36.4308 236.288 34.8517 235.17 34.0262L228.912 29.4113C227.792 28.5844 226.215 28.8211 225.388 29.941L225.386 29.9424L225.323 30.0297C224.496 31.1496 224.734 32.7288 225.854 33.5557Z" fill="#455A64"/>
<path d="M276.157 65.4778C275.742 65.7539 237.473 85.4432 237.473 85.4432L229.115 80.7607L265.777 64.9199L276.157 65.4778Z" fill="#263238"/>
<path d="M265.077 64.9238H262.447L224.621 78.7699L229.112 80.7604L265.077 64.9238Z" fill="white"/>
<path d="M141.774 46.1584L138.22 48.8448L81.3652 24.5518L82.0118 20.5469L141.774 46.1584Z" fill="#263238"/>
<path d="M138.617 42.9773V50.0081L136.029 48.8854V41.6855L138.617 42.9773Z" fill="white"/>
<path d="M132.815 40.3473V47.3781L130.229 46.2554V39.0527L132.815 40.3473Z" fill="white"/>
<path d="M127.01 37.7175V44.7484L124.424 43.627V36.4258L127.01 37.7175Z" fill="white"/>
<path d="M121.207 35.0819V42.1141L118.621 40.9914V33.793L121.207 35.0819Z" fill="white"/>
<path d="M115.406 32.4572V39.4895L112.818 38.3667V31.1641L115.406 32.4572Z" fill="white"/>
<path d="M109.604 29.8264V36.8558L107.018 35.7345V28.5332L109.604 29.8264Z" fill="white"/>
<path d="M103.799 27.6657V34.6951L101.213 33.5724V26.3711L103.799 27.6657Z" fill="white"/>
<path d="M184.939 63.2826V70.3134L182.35 69.192V61.9922L184.939 63.2826Z" fill="white"/>
<path d="M97.9985 25.193V32.2238L95.4121 31.1011V23.8984L97.9985 25.193Z" fill="white"/>
<path d="M92.121 22.8722V29.903L89.5332 28.7802V21.5762L92.121 22.8722Z" fill="white"/>
<path d="M86.2387 20.5496V27.5818L83.6523 26.4591V19.2578L86.2387 20.5496Z" fill="white"/>
<path d="M68.5843 21.0774C68.5843 21.0774 58.8558 18.2079 52.959 19.1517C54.7368 18.36 56.6061 17.7923 58.5248 17.4627C58.5248 17.4627 62.1902 16.1399 69.4886 18.0853L68.5843 21.0774Z" fill="#263238"/>
<path d="M183.646 105.363L190.896 97.3887L194.367 97.6577L183.646 105.363Z" fill="#E0E0E0"/>
<path d="M183.424 105.555L183.621 105.337L190.881 97.3535H190.896L194.451 97.6296L194.382 97.6789L183.424 105.555ZM190.908 97.4155L183.869 105.159L194.278 97.6747L190.908 97.4155Z" fill="#263238"/>
<path d="M200.412 47.1411L206.669 51.756C207.79 52.5815 209.368 52.3435 210.195 51.2235L210.259 51.1362C211.084 50.0149 210.846 48.4371 209.727 47.6116L203.47 42.9967C202.35 42.1698 200.771 42.4079 199.945 43.5278L199.882 43.6166C199.055 44.7365 199.292 46.3156 200.412 47.1411Z" fill="#455A64"/>
<path d="M252.798 19.0859L259.055 23.7008C260.175 24.5263 261.753 24.2882 262.58 23.1697L262.644 23.081C263.471 21.9625 263.233 20.3833 262.116 19.5578L262.113 19.5564L255.855 14.9415C254.736 14.116 253.158 14.3527 252.333 15.4712L252.331 15.4726L252.267 15.5614C251.443 16.6827 251.679 18.259 252.798 19.0859Z" fill="#455A64"/>
<path d="M177.858 30.7955C177.858 30.7955 202.75 38.663 196.902 51.4244C191.055 64.1858 168.304 45.8122 168.304 45.8122C168.304 45.8122 164.945 43.037 167.589 36.1513C170.233 29.2642 177.858 30.7955 177.858 30.7955Z" fill="#0C3C82"/>
<path d="M169.816 36.0717C170.55 34.4404 171.758 33.0669 173.284 32.1316C174.872 31.2159 176.876 31.4808 178.174 32.7768L178.805 33.3445C180.328 35.6688 180.395 38.6566 178.984 41.0486C179.117 40.7993 179.25 40.5387 179.382 40.2823C178.4 42.9334 176.455 45.1169 173.933 46.3946C173.271 46.7764 172.518 46.9623 171.754 46.937C170.801 46.7891 169.952 46.2481 169.413 45.448C168.466 44.0731 168.056 42.3982 168.263 40.7429C168.478 39.099 169.004 37.5142 169.816 36.0717Z" fill="#263238"/>
<g opacity="0.1">
<path d="M61.2812 36.33C64.7944 35.3439 67.9443 37.1921 70.849 38.9417C116.54 66.4789 167.679 88.4659 220.97 88.3419C222.191 88.3335 223.294 89.066 223.759 90.1944C224.387 91.7312 223.65 93.4879 222.113 94.1176C221.791 94.25 221.449 94.3232 221.103 94.3387C163.741 96.7561 107.282 79.4502 61.1276 45.3034C59.4132 44.0243 57.5664 42.4959 57.8468 40.1053C58.1285 38.2726 59.4808 36.785 61.2812 36.33Z" fill="black"/>
</g>
<path d="M170.902 386.513L107.665 413.341L64.5929 311.813L127.83 284.985C133.315 282.658 139.65 285.219 141.977 290.704L141.979 290.706L176.622 372.367C178.95 377.85 176.389 384.185 170.902 386.513Z" fill="#00285A"/>
<path d="M138.116 363.693C133.367 367.372 126.987 368.165 121.483 365.754C117.249 363.934 113.887 360.538 112.113 356.284C108.341 347.387 112.232 337.201 120.783 333.574C124.937 331.812 129.634 331.841 133.768 333.651C142.529 337.478 146.772 347.48 143.438 356.442C142.364 359.301 140.522 361.811 138.116 363.693ZM117.905 336.655C112.2 341.251 110.283 349.103 113.227 355.81C114.88 359.775 118.012 362.944 121.959 364.642C129.641 368.012 138.601 364.516 141.972 356.834C142.092 356.563 142.201 356.286 142.305 356.01C143.826 351.99 143.725 347.538 142.022 343.593C140.366 339.627 137.234 336.46 133.288 334.76C129.455 333.083 125.104 333.056 121.253 334.689C120.056 335.197 118.93 335.857 117.905 336.655Z" fill="white"/>
<path d="M142.158 342.409L112.041 355.186L112.514 356.301L142.631 343.525L142.158 342.409Z" fill="white"/>
<path d="M121.183 334.089L120.068 334.561L133.24 365.685L134.355 365.213L121.183 334.089Z" fill="white"/>
<path d="M134.293 365.642L133.184 365.157C135.025 361.347 136.07 357.205 136.252 352.979C136.21 348.451 134.561 344.086 131.599 340.661C128.729 337.556 124.464 336.032 120.704 334.693L121.11 333.552C125.002 334.938 129.417 336.511 132.485 339.84C135.675 343.48 137.441 348.149 137.462 352.989C137.252 357.374 136.176 361.675 134.293 365.642Z" fill="white"/>
<path d="M133.634 366.022C129.363 364.933 125.409 362.855 122.087 359.958C118.622 356.58 116.492 352.062 116.089 347.24C115.833 342.732 117.97 338.024 119.687 334.232L120.789 334.732C119.126 338.397 117.059 342.958 117.299 347.168C117.703 351.677 119.696 355.894 122.921 359.07C126.112 361.834 129.902 363.813 133.994 364.852L133.634 366.022Z" fill="white"/>
<path d="M132.312 338.859C126.319 343.511 119.009 346.146 111.427 346.389L111.387 345.179C120.358 344.892 128.869 341.138 135.129 334.709L136 335.552C134.849 336.743 133.618 337.847 132.312 338.859Z" fill="white"/>
<path d="M143.633 354.281C133.706 354.565 124.771 358.078 119.119 363.927L118.247 363.084C124.117 357.013 133.357 353.364 143.593 353.072L143.633 354.281Z" fill="white"/>
<path d="M113.147 411.189C113.069 411.224 103.393 388.599 91.5423 360.662C79.6888 332.726 70.1442 310.043 70.223 310.006C70.3018 309.97 79.9766 332.591 91.8322 360.537C103.688 388.483 113.228 411.151 113.147 411.189Z" fill="#263238"/>
<path d="M162.198 376.45C162.232 376.53 153.471 380.322 142.633 384.921C131.796 389.52 122.978 393.185 122.942 393.105C122.909 393.023 131.667 389.229 142.511 384.63C153.352 380.03 162.162 376.374 162.198 376.45Z" fill="white"/>
<path d="M158.935 382.226C158.968 382.309 152.475 385.138 144.432 388.55C136.387 391.962 129.839 394.665 129.803 394.585C129.768 394.506 136.262 391.674 144.307 388.26C152.354 384.847 158.899 382.153 158.935 382.226Z" fill="white"/>
<path d="M97.3191 321.634C97.8138 322.678 97.3674 323.926 96.324 324.421C96.2246 324.468 96.1231 324.506 96.0178 324.537L95.1762 324.893L95.7746 326.311L94.4088 326.891L92.1163 321.485L94.325 320.553C95.33 319.98 96.6093 320.333 97.1802 321.338C97.2344 321.432 97.2812 321.53 97.3191 321.634ZM95.9387 322.22C95.803 321.798 95.3515 321.568 94.9295 321.703C94.8673 321.724 94.8075 321.75 94.7514 321.785L93.9941 322.107L94.6659 323.689L95.4231 323.366C95.8531 323.259 96.1126 322.823 96.0042 322.394C95.99 322.334 95.9673 322.275 95.9387 322.22Z" fill="white"/>
<path d="M101.978 322.438L99.9364 323.302L100.003 324.513L98.6091 325.105L98.4495 318.8L99.7951 318.226L104.225 322.723L102.807 323.327L101.978 322.438ZM101.1 321.479L99.745 320.008L99.8554 321.999L101.1 321.479Z" fill="white"/>
<path d="M104.069 322.215L104.035 320.898C104.643 321.036 105.279 320.986 105.857 320.752C106.422 320.512 106.566 320.242 106.455 319.977C106.092 319.123 103.61 320.911 102.758 318.906C102.348 317.942 102.719 316.856 104.155 316.25C104.767 315.982 105.443 315.887 106.107 315.979L106.167 317.29C105.659 317.203 105.135 317.256 104.655 317.442C104.082 317.685 103.967 317.989 104.081 318.257C104.432 319.084 106.909 317.305 107.753 319.296C108.155 320.238 107.789 321.338 106.353 321.948C105.64 322.274 104.841 322.365 104.069 322.215Z" fill="white"/>
<path d="M108.534 320.318L108.502 318.999C109.11 319.139 109.746 319.089 110.324 318.854C110.888 318.616 111.035 318.345 110.923 318.083C110.559 317.224 108.077 319.015 107.226 317.007C106.818 316.044 107.186 314.955 108.622 314.354C109.235 314.083 109.912 313.99 110.575 314.08L110.635 315.394C110.127 315.307 109.605 315.36 109.124 315.545C108.554 315.789 108.436 316.093 108.551 316.362C108.9 317.188 111.38 315.408 112.224 317.398C112.623 318.339 112.259 319.439 110.823 320.054C110.105 320.375 109.306 320.467 108.534 320.318Z" fill="white"/>
<path d="M116.459 313.513C116.954 314.557 116.507 315.803 115.464 316.298C115.366 316.345 115.263 316.383 115.157 316.416L114.317 316.773L114.914 318.191L113.55 318.77L111.259 313.368L113.466 312.431C114.471 311.86 115.751 312.21 116.321 313.218C116.375 313.313 116.421 313.411 116.459 313.513ZM115.08 314.101C114.943 313.679 114.49 313.448 114.068 313.584C114.005 313.605 113.947 313.63 113.892 313.666L113.134 313.987L113.804 315.57L114.563 315.246C114.993 315.142 115.253 314.705 115.146 314.277C115.131 314.216 115.11 314.155 115.08 314.101Z" fill="white"/>
<path d="M117.244 314.011C116.682 312.5 117.452 310.82 118.962 310.258C120.474 309.696 122.153 310.465 122.716 311.975C123.26 313.44 122.556 315.072 121.118 315.68C119.651 316.318 117.944 315.644 117.309 314.176C117.286 314.122 117.264 314.065 117.244 314.011ZM121.232 312.318C120.804 311.649 119.917 311.454 119.247 311.88C118.578 312.308 118.382 313.198 118.81 313.866C119.188 314.459 119.939 314.689 120.585 314.414C121.331 314.058 121.646 313.165 121.289 312.418C121.273 312.381 121.253 312.346 121.233 312.312L121.232 312.318Z" fill="white"/>
<path d="M125.981 311.797L125.237 312.113L125.845 313.547L124.48 314.127L122.188 308.725L124.397 307.788C125.402 307.218 126.679 307.568 127.251 308.574C127.305 308.668 127.353 308.769 127.391 308.873C127.734 309.56 127.648 310.382 127.17 310.984L128.932 312.239L127.469 312.86L125.981 311.797ZM124.822 309.029L124.063 309.352L124.735 310.933L125.492 310.611C125.941 310.453 126.175 309.961 126.016 309.51C125.856 309.062 125.364 308.829 124.916 308.989C124.886 308.999 124.852 309.015 124.822 309.029Z" fill="white"/>
<path d="M128.77 307.365L127.288 307.994L126.773 306.783L131.099 304.947L131.613 306.159L130.136 306.783L131.914 310.975L130.548 311.556L128.77 307.365Z" fill="white"/>
<path d="M155.99 340.301C156.404 343.013 154.541 345.545 151.828 345.959C151.786 345.966 151.745 345.972 151.704 345.976C151.704 345.976 151.226 341.109 155.99 340.301Z" fill="white"/>
<path d="M156.476 347.677C155.998 350.03 153.705 351.551 151.35 351.074C151.316 351.067 151.281 351.061 151.245 351.052C151.818 348.719 154.113 347.238 156.476 347.677Z" fill="white"/>
<path d="M155.136 353.954C153.966 356.233 151.171 357.127 148.894 355.957C148.858 355.938 148.824 355.922 148.79 355.902C148.79 355.902 151.091 351.959 155.136 353.954Z" fill="white"/>
<path d="M147.496 345.086C149.894 345.223 151.726 347.279 151.588 349.675C151.585 349.71 151.584 349.746 151.58 349.782C149.189 349.545 147.398 347.485 147.496 345.086Z" fill="white"/>
<path d="M148.685 349.973C150.234 350.931 150.715 352.96 149.76 354.512C149.733 354.557 149.703 354.6 149.673 354.644C148.141 353.606 147.705 351.544 148.685 349.973Z" fill="white"/>
<path d="M152.185 336.059C153.237 337.962 152.548 340.357 150.645 341.408C150.615 341.426 150.586 341.441 150.557 341.456C149.583 339.511 150.298 337.142 152.185 336.059Z" fill="white"/>
<path d="M145.379 334.838C147.495 334.896 149.166 336.657 149.109 338.777C149.109 338.813 149.106 338.854 149.105 338.895C146.982 338.749 145.344 336.967 145.379 334.838Z" fill="white"/>
<path d="M145.698 340.634C148.118 339.948 150.635 341.354 151.321 343.772C151.331 343.807 151.342 343.842 151.35 343.879C151.35 343.879 146.984 344.874 145.698 340.634Z" fill="white"/>
<path d="M146.451 358.148C146.465 358.135 146.48 358.123 146.493 358.113L146.627 358.008C146.743 357.919 146.919 357.791 147.129 357.608C147.733 357.099 148.283 356.531 148.775 355.915C149.501 354.998 150.103 353.989 150.564 352.916C150.837 352.281 151.065 351.628 151.246 350.96C151.289 350.788 151.332 350.609 151.375 350.434L151.44 350.167C151.459 350.076 151.473 349.987 151.491 349.895C151.522 349.712 151.558 349.524 151.59 349.345C151.622 349.165 151.633 348.971 151.655 348.782C151.663 348.686 151.677 348.591 151.687 348.499L151.707 348.213C151.72 348.026 151.733 347.842 151.738 347.656C151.744 347.469 151.737 347.282 151.737 347.104C151.737 347.012 151.737 346.92 151.737 346.831L151.722 346.56C151.71 346.38 151.701 346.204 151.69 346.028C151.679 345.852 151.65 345.681 151.63 345.507C151.622 345.424 151.611 345.334 151.6 345.255C151.59 345.173 151.574 345.086 151.561 345.002C151.532 344.836 151.504 344.67 151.471 344.507C151.251 343.361 150.894 342.242 150.406 341.18C150.075 340.466 149.688 339.776 149.247 339.122C149.086 338.892 148.958 338.727 148.871 338.594L148.773 338.463L148.741 338.417C148.753 338.429 148.765 338.442 148.776 338.46L148.878 338.592C148.966 338.709 149.1 338.88 149.262 339.109C150.379 340.73 151.144 342.565 151.51 344.498C151.54 344.661 151.566 344.826 151.6 344.993C151.614 345.076 151.632 345.161 151.641 345.246C151.65 345.332 151.662 345.417 151.672 345.498C151.692 345.672 151.709 345.847 151.731 346.021C151.753 346.198 151.753 346.376 151.762 346.554L151.778 346.827C151.78 346.916 151.779 347.009 151.78 347.101C151.781 347.285 151.779 347.47 151.781 347.653C151.782 347.839 151.76 348.028 151.75 348.215L151.73 348.499C151.723 348.595 151.707 348.688 151.697 348.783C151.674 348.974 151.652 349.162 151.629 349.349C151.608 349.536 151.563 349.721 151.531 349.902C151.515 349.996 151.501 350.085 151.481 350.174L151.415 350.442C151.37 350.621 151.33 350.796 151.285 350.973C151.101 351.639 150.87 352.29 150.596 352.926C150.132 354.001 149.525 355.011 148.794 355.926C148.299 356.542 147.744 357.109 147.136 357.611C146.924 357.792 146.746 357.92 146.627 358.008C146.567 358.05 146.523 358.081 146.494 358.107L146.451 358.148Z" fill="white"/>
<path d="M101.261 363.52C102.922 365.703 106.038 366.128 108.222 364.467C108.254 364.441 108.287 364.417 108.32 364.391C108.32 364.391 105.152 360.659 101.261 363.52Z" fill="white"/>
<path d="M106.225 368.995C108.25 370.284 110.938 369.689 112.229 367.663C112.248 367.634 112.267 367.603 112.286 367.574C110.207 366.368 107.55 366.993 106.225 368.995Z" fill="white"/>
<path d="M111.671 372.398C114.123 373.138 116.711 371.75 117.451 369.295C117.462 369.259 117.473 369.222 117.483 369.187C117.483 369.187 113.049 368.101 111.671 372.398Z" fill="white"/>
<path d="M110.604 360.736C109.037 362.553 109.241 365.3 111.06 366.866C111.086 366.889 111.114 366.912 111.142 366.937C112.635 365.053 112.398 362.333 110.604 360.736Z" fill="white"/>
<path d="M113.293 364.993C112.904 366.771 114.028 368.525 115.807 368.914C115.858 368.926 115.91 368.936 115.963 368.946C116.281 367.124 115.101 365.377 113.293 364.993Z" fill="white"/>
<path d="M100.857 357.829C101.493 359.907 103.694 361.077 105.773 360.442C105.805 360.433 105.838 360.424 105.87 360.412C105.146 358.358 102.948 357.225 100.857 357.829Z" fill="white"/>
<path d="M104.705 352.097C103.275 353.66 103.383 356.086 104.944 357.517C104.973 357.544 105.001 357.569 105.032 357.593C106.402 355.966 106.258 353.551 104.705 352.097Z" fill="white"/>
<path d="M108.652 356.351C106.476 357.614 105.734 360.399 106.996 362.577C107.015 362.606 107.035 362.643 107.054 362.673C107.054 362.673 110.807 360.223 108.652 356.351Z" fill="white"/>
<path d="M120.723 369.062L120.666 369.068L120.5 369.092C120.355 369.114 120.142 369.151 119.862 369.171C119.078 369.252 118.288 369.256 117.502 369.178C116.337 369.064 115.195 368.795 114.101 368.377C113.454 368.136 112.827 367.846 112.222 367.515L111.752 367.242L111.512 367.101C111.433 367.053 111.358 367.001 111.281 366.946L110.817 366.634L110.365 366.291L110.14 366.119L109.925 365.933C109.781 365.811 109.64 365.69 109.5 365.568C109.362 365.444 109.234 365.309 109.105 365.183C109.039 365.119 108.971 365.058 108.908 364.991C108.843 364.926 108.786 364.858 108.725 364.795L108.363 364.402L108.031 364.003L107.866 363.805C107.812 363.739 107.763 363.672 107.714 363.599L107.417 363.197C106.741 362.24 106.185 361.205 105.758 360.114C105.474 359.379 105.249 358.623 105.084 357.851C105.031 357.576 104.993 357.363 104.969 357.218C104.957 357.146 104.947 357.091 104.938 357.055C104.929 357.017 104.928 356.998 104.928 356.998C104.929 357.018 104.931 357.036 104.935 357.056C104.939 357.094 104.948 357.151 104.96 357.222C104.985 357.367 105.014 357.582 105.064 357.854C105.456 359.784 106.243 361.611 107.376 363.221L107.671 363.627C107.723 363.694 107.77 363.764 107.825 363.83L107.989 364.03L108.322 364.436L108.686 364.829L108.869 365.028C108.932 365.092 108.998 365.154 109.066 365.218C109.196 365.355 109.329 365.476 109.462 365.604C109.596 365.733 109.745 365.849 109.889 365.973L110.103 366.159L110.33 366.333L110.782 366.677L111.25 366.993C111.325 367.041 111.402 367.096 111.481 367.144L111.721 367.286L112.19 367.559C112.799 367.892 113.43 368.182 114.077 368.425C115.175 368.84 116.322 369.107 117.492 369.217C118.28 369.291 119.073 369.283 119.858 369.194C120.138 369.168 120.349 369.129 120.49 369.104L120.654 369.073L120.723 369.062Z" fill="white"/>
<path d="M362.863 364.186L368.504 365.951L406.34 245.034C403.129 244.217 399.836 246.052 398.841 249.215L362.863 364.186Z" fill="#0C3C82"/>
<path d="M487.228 206.457H462.281V133.133H487.228C497.165 133.144 505.218 141.198 505.228 151.133V188.455C505.218 198.392 497.165 206.446 487.228 206.457Z" fill="#0C3C82"/>
<path d="M483.755 167.176C482.022 167.173 480.615 165.769 480.613 164.033V136.799H486.899V164.033C486.895 165.77 485.49 167.175 483.755 167.176Z" fill="#0C3C82"/>
<path d="M491.31 200.694H473.057C470.868 200.693 469.093 198.918 469.092 196.729V185.809C469.093 183.618 470.87 181.843 473.057 181.842H491.31C493.5 181.845 495.275 183.62 495.278 185.809V196.729C495.277 198.918 493.5 200.694 491.31 200.694Z" fill="#0C3C82"/>
<path d="M438.09 125.503C437.661 125.503 437.245 125.356 436.914 125.083C436.497 124.745 436.241 124.246 436.21 123.711C435.619 114.314 437.252 104.91 440.974 96.2639C443.495 90.4235 446.396 86.6594 450.102 84.4252C455.045 81.4388 461.827 81.1993 468.717 83.7688C472.107 84.8619 475.118 86.8989 477.392 89.6388C479.931 92.9493 480.726 97.1951 481.209 101.292C481.937 107.488 482.108 113.739 481.72 119.967C481.685 120.623 481.299 121.209 480.709 121.499C480.076 121.812 479.324 121.764 478.734 121.375C478.617 121.298 478.497 121.229 478.373 121.164C477.1 120.526 475.595 120.546 474.342 121.216C473.888 121.484 473.458 121.792 473.056 122.137L470.58 124.142C469.956 124.639 469.087 124.693 468.404 124.279C466.611 123.259 464.602 122.666 462.541 122.547C459.805 122.445 457.064 122.643 454.371 123.14L438.368 125.48C438.275 125.494 438.18 125.501 438.087 125.501H438.09V125.503Z" fill="#0C3C82"/>
<path d="M435.952 392.359H427.411L423.344 359.402H435.961L435.952 392.359Z" fill="#FFB6B6"/>
<path d="M440.552 408.58H434.495L433.41 402.857L430.639 408.58H414.552C412.554 408.576 410.939 406.955 410.941 404.956C410.946 403.773 411.526 402.665 412.498 401.991L425.345 393.123V387.336L438.852 388.14L440.552 408.58Z" fill="#0C3C82"/>
<path d="M534.284 385.046L526.41 388.359L509.893 359.554L521.514 354.666L534.284 385.046Z" fill="#FFB6B6"/>
<path d="M544.811 398.22L539.219 400.573L536.003 395.716L535.668 402.066L520.844 408.302C519.003 409.073 516.883 408.207 516.111 406.361C515.656 405.271 515.762 404.024 516.396 403.026L524.796 389.873L522.55 384.536L535.316 380.047L544.811 398.22Z" fill="#0C3C82"/>
<path d="M431.959 167.902L429.512 200.708L413.273 249.694L406.752 245.903L415.6 196.083L418.603 167.342L431.959 167.902Z" fill="#FFB6B6"/>
<path d="M409.486 256.837C413.26 256.837 416.32 253.778 416.32 250.004C416.32 246.229 413.26 243.17 409.486 243.17C405.712 243.17 402.652 246.229 402.652 250.004C402.652 253.778 405.712 256.837 409.486 256.837Z" fill="#FFB6B6"/>
<path d="M473.63 205.683V214.731C473.63 214.731 487.638 239.412 481.933 250.003L502.959 307.52C502.959 307.52 531.474 336.036 529.028 356.405L530.658 362.921L511.924 371.068L507.851 365.365L476.076 310.78L449.182 261.088L444.297 319.749C444.297 319.749 447.554 365.372 438.591 370.263L437.78 377.586H418.763V370.617C418.763 370.617 411.709 345.814 415.783 327.076L414.156 248.046C414.156 248.046 421.487 214.643 430.451 208.939L433.709 200.793L473.63 205.683Z" fill="#0C3C82"/>
<path d="M488.595 142.964L470.835 134.647L465.709 125.715L448.471 126.692L443.257 135.205L427.912 138.313L430.17 193.768C429.164 195.505 428.807 197.543 429.157 199.521C429.698 202.996 432.43 200.262 429.698 202.996C426.967 205.73 424.905 204.355 426.275 206.752C427.647 209.146 424.273 212.882 424.273 212.882C424.273 212.882 467.913 235.113 480.244 206.752C480.244 206.752 482.675 198.457 478.567 181.077C474.458 163.699 488.595 142.964 488.595 142.964Z" fill="#E4E4E4"/>
<path d="M432.954 141.847L427.911 138.318C427.911 138.318 420.941 141.184 420.703 146.972C420.467 152.759 416.461 170.1 416.461 170.1L432.382 178.658L432.954 141.847Z" fill="#E4E4E4"/>
<path d="M492.789 170.637L490.342 203.441L463.165 244.227L456.645 240.436L476.428 198.816L479.433 170.076L492.789 170.637Z" fill="#FFB6B6"/>
<path d="M480.287 144.815L488.594 142.963C488.594 142.963 493.599 144.562 494.282 152.079C494.965 159.597 495.54 172.682 495.54 172.682L478.106 185.503L473.781 167.116L480.287 144.815Z" fill="#E4E4E4"/>
<path d="M458.695 251.37C462.469 251.37 465.528 248.311 465.528 244.537C465.528 240.763 462.469 237.703 458.695 237.703C454.921 237.703 451.861 240.763 451.861 244.537C451.861 248.311 454.921 251.37 458.695 251.37Z" fill="#FFB6B6"/>
<path d="M455.533 122.785C464.328 122.785 471.457 115.656 471.457 106.861C471.457 98.0669 464.328 90.9375 455.533 90.9375C446.739 90.9375 439.609 98.0669 439.609 106.861C439.609 115.656 446.739 122.785 455.533 122.785Z" fill="#FFB7B7"/>
<path d="M442.561 104.461C440.535 104.461 438.504 104.46 436.47 104.454C435.98 104.453 435.511 104.253 435.17 103.899C434.834 103.557 434.654 103.091 434.671 102.61C434.977 95.7611 438.617 89.4938 444.415 85.834C454.005 79.9865 466.519 83.0194 472.369 92.6098C474.119 95.4808 475.132 98.7391 475.312 102.096C475.368 103.082 474.613 103.93 473.624 103.986C473.616 103.986 473.606 103.986 473.596 103.988C466.55 104.285 458.732 104.43 448.249 104.457C447.518 104.458 446.86 104.016 446.587 103.341L446.417 102.929C446.186 102.361 445.538 102.088 444.97 102.321C444.642 102.455 444.395 102.741 444.312 103.088C444.116 103.893 443.396 104.463 442.565 104.46L442.561 104.461Z" fill="#0C3C82"/>
<path d="M478.207 184.773C473.929 180.746 472.087 174.901 472.058 169.131C472.026 162.539 474.412 156.284 477.496 150.546C479.367 147.08 481.485 143.763 483.615 140.456C484.332 139.343 482.559 138.312 481.845 139.422C474.648 150.615 466.721 163.877 471.368 177.637C472.433 180.898 474.287 183.847 476.762 186.222C477.724 187.127 479.175 185.678 478.21 184.773H478.207Z" fill="#0C3C82"/>
<path d="M362.973 307.124C359.446 306.011 355.675 305.915 352.099 306.851C352.091 306.851 352.081 306.851 352.074 306.856C349.302 307.577 346.717 308.888 344.495 310.699C344.371 310.801 344.246 310.906 344.122 311.013C341.309 313.426 339.231 316.582 338.128 320.119L322.91 368.74C321.779 372.34 321.7 376.187 322.687 379.828L322.866 380.442C323.604 382.855 324.793 385.107 326.37 387.077C326.379 387.087 326.386 387.098 326.395 387.113C328.856 390.165 332.169 392.419 335.912 393.585L364.607 402.566L391.665 316.102L362.973 307.124Z" fill="#00285A"/>
<path d="M408.22 245.623L371.263 363.723C370.811 365.288 371.711 366.927 373.281 367.382C374.798 367.823 376.397 366.991 376.902 365.49L412.001 253.337C412.987 250.168 411.329 246.782 408.22 245.623Z" fill="#0C3C82"/>
<path d="M362.127 409.047C365.049 409.047 367.418 406.678 367.418 403.756C367.418 400.834 365.049 398.465 362.127 398.465C359.205 398.465 356.836 400.834 356.836 403.756C356.836 406.678 359.205 409.047 362.127 409.047Z" fill="#0C3C82"/>
<path d="M327.666 398.264C330.588 398.264 332.957 395.895 332.957 392.973C332.957 390.051 330.588 387.682 327.666 387.682C324.744 387.682 322.375 390.051 322.375 392.973C322.375 395.895 324.744 398.264 327.666 398.264Z" fill="#0C3C82"/>
<path d="M352.1 306.85C346.618 324.03 332.269 368.959 326.397 387.114C326.389 387.102 326.382 387.088 326.372 387.079C324.795 385.108 323.607 382.859 322.868 380.444L322.689 379.831C328.979 360.103 339.515 326.831 344.121 311.011C344.245 310.905 344.372 310.8 344.496 310.694C346.716 308.884 349.301 307.574 352.073 306.854C352.088 306.852 352.088 306.852 352.1 306.85Z" fill="#0C3C82"/>
</svg>
