<svg width="83" height="83" viewBox="0 0 83 83" fill="none" xmlns="http://www.w3.org/2000/svg">
<g filter="url(#filter0_d_1467_1966)">
<rect x="3.05762" y="2.94141" width="76.9231" height="76.9231" rx="14.4231" fill="#F7F0FF"/>
<path fill-rule="evenodd" clip-rule="evenodd" d="M65.5574 12.5349V46.6696C63.538 68.1489 45.424 71.8161 41.4929 72.4537C41.3332 72.507 19.6584 69.7956 17.4805 46.6684V12.5349C17.4805 12.5349 38.1462 9.87677 65.5574 12.5349ZM26.1808 55.6245C25.8504 55.5063 25.5199 55.388 25.2362 55.1752C25.5024 56.2375 25.7674 57.1436 26.3518 58.206C26.6712 58.8448 27.2556 57.3554 26.6712 55.814C26.5117 55.7429 26.3463 55.6837 26.1808 55.6245ZM24.9726 38.5474C25.1328 38.4666 25.2272 38.419 25.2362 38.4278C25.2362 39.8639 21.3063 41.8845 19.6051 42.735C21.4586 43.3784 23.2575 42.3247 24.0256 41.8749C24.3365 41.6928 24.4785 41.6096 24.3868 41.778C24.172 42.1762 23.0223 43.2633 21.8222 44.3981C20.9401 45.2321 20.0308 46.0919 19.4454 46.7228C20.5089 47.0411 21.5169 46.1905 22.3154 45.4996C22.5808 45.2668 22.9033 44.9303 23.2148 44.6052C23.9001 43.8901 24.5324 43.2304 24.3868 43.8517C22.0492 46.7228 20.2428 52.6767 21.3583 53.0494C21.6527 52.4356 22.3884 50.6326 23.1058 48.8742C23.9427 46.8234 24.7547 44.8333 24.8126 44.862C24.9 44.862 24.8261 45.4107 24.7334 46.0989C24.6579 46.6599 24.5699 47.3135 24.5465 47.8384L24.5457 47.8565C24.4386 50.4501 24.3881 51.6724 24.9712 54.2193C25.2894 53.8467 25.5556 53.8467 26.0335 53.8999C26.0727 53.7041 26.0542 53.6812 25.9362 53.5344C25.8938 53.4816 25.8386 53.4129 25.7685 53.3144C25.3415 52.7658 25.4393 52.0769 25.53 51.4385C25.5973 50.9646 25.6606 50.5185 25.5024 50.1783C25.3718 49.8394 25.2671 49.7946 25.1755 49.7553C25.0804 49.7145 24.9993 49.6797 24.918 49.3277C25.0732 49.2113 25.4253 49.1515 25.6872 49.107C25.7845 49.0904 25.8694 49.076 25.9271 49.0616C26.14 46.4034 27.0426 45.0217 26.7244 46.7228C26.7163 46.7658 26.708 46.8101 26.6994 46.8555C26.5388 47.7095 26.3039 48.9578 26.405 49.0083C26.4335 49.0226 26.4582 49.0331 26.4812 49.0427C26.5438 49.0692 26.5932 49.0901 26.6712 49.168C26.6823 49.168 26.886 48.8463 27.1779 48.3849C28.275 46.6511 30.6197 42.9459 28.6894 46.9346C28.3711 47.5734 27.0426 49.381 27.0426 49.381C27.362 49.7004 27.6803 50.1251 27.7335 50.3901C27.7335 50.4146 28.0425 50.0247 28.472 49.4831C29.9267 47.648 32.7628 44.0705 29.6464 48.9551C29.486 49.2342 28.7609 50.0495 28.2732 50.5978C28.1098 50.7816 27.9731 50.9353 27.8932 51.0289C27.84 51.0821 27.9985 52.5182 27.9985 52.5182C28.6361 52.0924 29.4867 51.1886 29.9114 50.6562C29.881 50.2017 29.9199 50.0413 29.9688 49.8394C30.0056 49.6872 30.0482 49.5113 30.0711 49.168C30.226 49.0902 30.3815 49.2402 30.5789 49.4305C30.6513 49.5004 30.7294 49.5757 30.8152 49.6471C30.8488 49.6808 31.2728 49.0094 31.7547 48.2463C32.7815 46.6204 34.0713 44.5781 32.4087 48.0513C31.9828 48.8486 31.1334 49.8589 31.0802 49.9121C31.2387 50.0718 31.5049 50.6562 31.771 51.295C31.771 51.304 31.9207 51.0951 32.1543 50.7691C33.3052 49.1628 36.4928 44.714 33.8425 49.4874C33.6949 49.724 33.1513 50.4225 32.6987 51.0042C32.3386 51.467 32.036 51.8558 32.036 51.8794C32.4619 52.8376 32.7801 53.7402 32.7801 53.7402C32.6737 52.9961 32.5151 51.5612 34.0554 50.338C34.2339 51.4129 34.4889 51.6196 34.8508 51.913C34.9182 51.9677 34.9894 52.0254 35.0645 52.0924C35.1246 52.1374 35.1972 52.2289 35.2718 52.3228C35.4616 52.5618 35.6636 52.8163 35.701 52.3585C35.82 50.9818 35.5311 50.6528 35.1787 50.2514C35.0548 50.1103 34.923 49.9602 34.7983 49.7524C34.693 49.5939 34.693 49.1148 34.7983 49.1692C37.466 49.2813 38.168 51.0692 38.5755 52.1068C38.7442 52.5365 38.8624 52.8376 39.0488 52.8376C38.7827 51.9327 38.7306 51.0821 39.0488 50.338C38.0397 49.5939 38.2515 48.3707 38.4644 47.8395C37.3489 46.6696 37.9853 44.1711 38.5177 43.6388C38.0955 42.989 38.2688 42.458 38.4188 41.998C38.5144 41.7052 38.6005 41.4412 38.5177 41.1936C38.3533 39.9849 37.735 39.5849 37.1095 39.1803C36.5242 38.8016 35.9326 38.4189 35.701 37.3655C35.3827 37.7902 34.7983 39.1199 35.0645 39.5457C35.219 39.7777 35.4612 39.9096 35.6757 40.0264C35.9032 40.1503 36.0994 40.2572 36.1268 40.4483C36.1268 40.4827 36.1293 40.5294 36.1321 40.5826C36.1424 40.7766 36.1572 41.0568 36.0736 41.1404C35.8378 41.2079 35.6445 41.0825 35.4264 40.941C35.3009 40.8596 35.1671 40.7728 35.0124 40.7145C34.6927 40.5866 34.186 40.7231 33.6865 40.8577C32.9384 41.0592 32.2063 41.2563 32.1425 40.5548C32.1154 40.1762 32.1848 40.1278 32.2525 40.0805C32.3178 40.0349 32.3816 39.9904 32.3554 39.651C32.3554 39.3288 32.2744 39.2608 32.1878 39.1883C32.0889 39.1054 31.9828 39.0165 31.9828 38.5343C31.9828 38.1348 32.2958 37.9025 32.5426 37.7192C32.6898 37.61 32.8135 37.5181 32.8334 37.4187C32.8728 37.1819 33.0656 37.2521 33.3278 37.3474C33.7728 37.5093 34.4176 37.7439 34.8516 36.6735C34.4269 36.7267 33.6307 36.4617 33.6828 36.0358C33.8957 34.9724 33.8957 32.3142 31.4517 32.8986C31.2597 32.9439 30.998 33.0373 30.7019 33.143C29.6056 33.5342 28.0373 34.0939 27.7867 33.0051C26.9273 34.5226 28.4705 34.3564 29.0808 34.2906C29.1122 34.2872 29.1412 34.2841 29.1673 34.2815C29.1322 34.299 29.0958 34.3208 29.0565 34.3443C28.857 34.4637 28.5844 34.6269 28.0517 34.4944C26.6712 35.3982 21.6245 38.5875 20.1907 39.3849C21.8227 40.1365 24.1875 38.9435 24.9726 38.5474ZM29.9615 51.7166C29.963 51.6148 29.9646 51.5099 29.9646 51.4003C29.7154 51.6495 29.5285 51.809 29.3915 51.926C29.1485 52.1333 29.062 52.2071 29.062 52.4106C29.1829 52.7332 29.3949 52.9641 29.6288 53.2191C29.7038 53.3007 29.781 53.3849 29.8581 53.4752C29.9226 53.5316 29.9809 53.5855 30.0324 53.6331C30.3203 53.8993 30.3943 53.9677 30.1243 53.1558C29.9479 52.6276 29.9542 52.2082 29.9615 51.7166ZM36.7645 34.6009C36.7645 34.6009 35.9151 35.2385 36.2865 35.8761C36.7443 36.6771 37.6633 36.5083 38.6298 36.3308C39.459 36.1785 40.323 36.0198 40.9606 36.4617C40.802 36.1423 40.6423 35.9294 40.3241 35.7697C39.8649 35.5501 39.2482 35.5857 38.6572 35.6199C37.6753 35.6766 36.7645 35.7292 36.7645 34.6009ZM22.526 21.2025C20.4545 21.2025 20.5078 18.0665 22.526 18.0665C24.5974 18.0665 24.5974 21.2025 22.526 21.2025ZM22.526 27.4759C20.4013 27.4759 20.4013 24.3398 22.526 24.3398C24.5974 24.3398 24.5974 27.4759 22.526 27.4759ZM26.4571 18.9159H24.6506L24.6518 20.7234H26.4571V18.9159ZM26.4571 25.1903H24.6506L24.6518 26.9979H26.4571V25.1903ZM37.0295 28.912C39.2606 29.0705 41.1723 30.0808 41.1723 30.0808H41.2256V15.6201C41.2256 15.6201 37.9321 13.2802 32.5661 15.3539C30.9726 15.9927 27.1479 15.4604 27.1479 15.4604V30.2937C28.9863 30.4107 31.1293 29.934 33.0486 29.5071C34.6232 29.1568 36.0474 28.84 37.0295 28.912ZM44.4658 33.1648C44.4658 33.1648 44.9981 33.0062 44.8917 32.4739C44.2415 32.8415 43.6516 32.6073 43.0579 32.3716C42.5356 32.1643 42.0104 31.9558 41.4385 32.1545C40.9606 32.2077 40.4294 32.4739 40.2697 32.9518C40.1547 33.0669 40.0894 32.9932 40.0051 32.8981C39.8944 32.7732 39.751 32.6115 39.4191 32.7921C39.2951 32.9792 39.4624 33.3119 39.5903 33.5662C39.6807 33.7461 39.7515 33.8868 39.6853 33.9089C39.3107 34.034 39.1925 33.7001 39.0837 33.3926C39.0072 33.1767 38.9354 32.9738 38.7827 32.9518C38.2503 33.1115 36.9762 34.2815 38.2503 35.2385C38.1983 34.6009 39.4191 33.9089 39.7918 35.2906C41.0126 35.2385 41.3853 35.9294 41.545 36.3552C43.2982 36.6746 42.8191 37.8434 42.7658 37.8434C42.6073 37.5773 41.81 36.4073 40.5879 37.2058C40.3229 37.3655 39.845 37.5784 39.5788 37.3123C39.5788 37.6837 40.11 38.0564 40.4282 37.9499C41.545 37.6305 41.81 38.694 40.9606 38.9602C41.1191 39.2263 41.4917 39.2263 41.81 39.0134C42.1385 38.7939 42.2663 38.5995 42.366 38.4479C42.4114 38.3789 42.4509 38.3189 42.5008 38.2693C42.7391 39.5597 41.3033 39.7758 40.5866 39.8836C40.5063 39.8957 40.4351 39.9065 40.3762 39.9172C40.4283 40.2299 40.6323 40.2875 40.9905 40.3885L41.0138 40.3951C39.1009 40.5016 38.7294 42.2559 38.8347 43.3194C39.066 43.3451 39.334 43.1354 39.5435 42.9714C39.7679 42.7957 39.9252 42.6726 39.8982 42.948C38.5154 44.3829 38.0918 46.3502 38.7815 47.5734C39.1373 47.4717 39.2505 47.1274 39.3516 46.8194C39.3564 46.8049 39.3612 46.7904 39.3659 46.7761C39.4191 46.7228 40.11 47.0411 38.9956 48.3707L38.9911 48.3841C38.8781 48.7188 38.528 49.7561 39.3659 50.0186C39.664 49.7214 39.6896 49.4235 39.7151 49.1254C39.7215 49.0509 39.7279 48.9764 39.7385 48.9019C40.0035 48.7954 40.1632 49.5927 40.0568 49.8589C38.9412 50.2848 39.1009 53.7402 40.3762 55.6022C39.7918 54.2193 39.8439 52.5182 40.3762 51.1353C40.4565 50.924 40.554 50.667 40.6593 50.3896C41.1102 49.2009 41.7035 47.6367 41.7035 47.6798C42.1826 48.3175 42.8191 50.9224 42.8191 52.0391C43.1983 51.7141 43.412 51.375 43.6076 51.0643C43.7959 50.7655 43.9675 50.493 44.254 50.2848C44.4125 50.857 44.5142 51.315 44.616 51.7729C44.6844 52.0808 44.7528 52.3887 44.8384 52.7311C44.8784 52.6027 44.9292 52.4719 44.9832 52.3332C45.2868 51.5521 45.6873 50.5216 44.7852 48.2642C44.9143 48.1345 45.1229 48.4987 45.2903 48.7908C45.3975 48.978 45.4877 49.1356 45.5293 49.1148C45.6346 49.0616 45.7943 48.5304 45.4228 47.4669C44.6787 46.7761 44.519 45.7126 44.6255 45.6593C44.6427 45.6422 44.693 45.7469 44.7658 45.8983C44.9186 46.2162 45.1705 46.74 45.4228 46.7761C45.4444 46.4105 45.4918 46.0535 45.5372 45.7121C45.604 45.2096 45.6663 44.7411 45.6346 44.3297C45.6346 44.17 45.3164 43.2662 44.519 42.5221C44.0411 42.0974 43.8293 41.1936 43.8814 41.0339C44.1134 41.2401 44.208 41.4214 44.2864 41.5717C44.3694 41.7311 44.4344 41.8555 44.6255 41.9377C44.7852 41.5651 44.6787 40.2366 44.2008 39.651C43.9346 39.2263 44.0411 39.2784 44.3605 39.5446C44.5381 39.7672 44.6042 39.8874 44.6482 39.9675C44.7095 40.0789 44.7281 40.1127 44.9449 40.2366C45.5689 38.7365 45.2475 38.2159 45.1044 37.984C45.0649 37.92 45.0389 37.878 45.0502 37.8434C45.0679 37.7907 45.1445 37.8673 45.2564 37.9792C45.4807 38.2036 45.8469 38.57 46.1658 38.3214C45.4874 38.0049 45.4257 37.4951 45.3564 36.9232C45.3444 36.8238 45.3321 36.7226 45.3164 36.6202C45.2886 36.3428 45.1739 36.1522 45.0933 36.0182C45.0197 35.8957 44.9745 35.8205 45.0502 35.7697C45.7943 36.3552 46.0605 35.6632 46.0605 35.5579C45.9008 35.6632 45.2099 35.7176 45.1034 34.653C45.0502 34.2283 44.4137 34.0153 44.4137 34.0153C44.4641 34.0009 44.532 33.9875 44.611 33.9718C45.115 33.872 46.0704 33.6828 45.7943 32.5804C45.6346 32.8986 45.2643 33.3777 44.4658 33.1648ZM49.7074 29.3884C51.9862 29.8363 54.8087 30.3911 56.5252 30.2937L56.5785 15.5668C56.5785 15.5668 52.4345 16.1524 48.876 14.8216C45.954 13.7593 41.9164 15.6201 41.9164 15.6201V30.0275C41.9164 30.0275 43.3502 28.8587 46.4319 28.8587C47.0124 28.8587 48.2485 29.1017 49.7074 29.3884ZM62.0498 26.1994C62.0498 26.1994 61.7848 24.3918 60.2446 24.6048C57.7099 24.981 57.1654 24.5677 57.1096 24.4297V27.2097C57.1096 27.2097 58.6499 27.2097 60.4031 26.0941C60.8811 25.7747 61.6795 25.8812 62.0498 26.1994ZM62.0652 20.5566C62.0565 20.5111 62.0498 20.4614 62.0498 20.4052C61.9978 20.139 61.2004 19.9793 60.6693 20.1923C60.5245 20.2597 60.3412 20.3517 60.1338 20.4559C59.1987 20.9254 57.7719 21.6418 57.1629 21.4675V18.6497C58.479 19.2318 59.2035 18.9934 59.7259 18.8215C59.92 18.7576 60.0862 18.7029 60.2446 18.7029C61.9978 18.7029 62.1031 20.352 62.1031 20.352C62.0825 20.4339 62.0698 20.5001 62.0652 20.5566ZM57.8537 50.9756C58.172 50.4445 59.5526 49.9121 60.0849 49.7536C60.0135 46.7939 58.7718 43.6198 58.1858 42.1219C57.8979 41.3861 57.7683 41.0548 58.0134 41.3521C59.2958 42.9291 59.9716 45.7728 60.6866 48.7818C61.0079 50.1336 61.3371 51.5189 61.7328 52.8376C61.7328 52.8376 62.5289 53.2623 62.3692 47.8384C62.3692 46.7228 61.8913 45.2867 61.3601 44.2765C60.6758 42.9748 59.528 41.0998 58.8121 39.9303C58.4167 39.2844 58.153 38.8537 58.172 38.8537C58.4854 38.6024 59.058 39.5181 59.7039 40.5512C60.1526 41.2688 60.6367 42.043 61.094 42.5221C61.8381 43.2662 63.803 44.0114 63.9627 43.905C63.0288 42.1559 61.3772 40.4581 60.2 39.2481C59.3017 38.3247 58.6797 37.6853 58.864 37.524C61.7316 40.1833 62.6342 40.3419 62.7407 40.1833L60.1902 37.6849C59.753 37.0776 59.1876 36.5349 58.8727 36.2327C58.6908 36.0581 58.5926 35.9639 58.6511 35.9838C59.7666 36.2488 58.0134 35.0256 56.6838 34.653C56.6349 34.6409 56.5746 34.6289 56.5109 34.6161C56.2985 34.5735 56.0473 34.5231 56.0473 34.4412C56.0153 34.3103 56.1429 34.3001 56.3079 34.2869C56.4112 34.2787 56.5292 34.2693 56.6317 34.2283C56.7914 34.175 57.0032 34.0153 57.0032 33.7492C56.472 33.8556 55.9408 33.7492 55.5161 33.5374C54.6135 33.1115 52.9656 32.5804 52.2227 32.8986C52.0883 32.9585 51.9875 32.9973 51.9014 33.0305C51.6813 33.1153 51.5572 33.1631 51.2136 33.4309C51.2096 33.4289 51.2055 33.4269 51.2013 33.4248C50.9788 33.313 50.4014 33.023 49.6189 33.9633C49.3539 34.2283 49.0345 34.5997 49.0345 34.8659C49.0128 35.1321 49.0092 35.1764 49.024 35.1838C49.0447 35.1941 49.1016 35.1321 49.1954 35.5047C49.2475 35.7176 48.9825 36.1955 47.7604 36.6202C47.2825 36.7799 47.3878 37.259 47.3878 37.259C47.4328 37.2411 47.4792 37.2185 47.5281 37.1948C47.769 37.0778 48.0709 36.9314 48.5566 37.1526C49.3576 37.5526 49.6754 37.1991 50.0787 36.7505C50.2109 36.6035 50.3522 36.4463 50.5227 36.302C50.5227 36.302 50.3098 36.9929 50.5227 37.0461C51.3721 37.2058 51.1071 37.8434 51.0007 37.9499C50.3145 38.568 50.2487 38.9424 50.1881 39.2874C50.1548 39.4766 50.1231 39.657 49.9916 39.864C49.6189 40.4483 49.0878 40.6092 48.2384 40.6092C47.8088 40.5883 47.9384 40.3232 48.1147 39.9626C48.3963 39.3867 48.797 38.5672 47.2293 38.1096C47.654 38.7472 47.8125 39.2784 46.9099 39.8107C46.7339 39.9167 46.6456 40.1691 46.5537 40.4318C46.3686 40.9605 46.1689 41.531 45.2111 41.0339C45.2111 41.0339 45.1034 42.2559 44.9449 42.3092C46.3001 43.4832 46.19 44.2775 46.0261 45.4595C45.9524 45.9914 45.8677 46.6017 45.9008 47.3605C46.4852 48.9551 45.8475 49.6471 45.6878 49.7524C45.7943 50.8159 45.9008 51.4015 46.5384 52.2509C46.7774 52.5703 46.7641 52.9696 46.7507 53.3685C46.7374 53.7675 46.7241 54.1661 46.9631 54.4843C47.1537 53.8482 47.3444 53.5673 47.5114 53.3212C47.7632 52.9502 47.9614 52.6581 48.0254 51.3483C48.1851 50.9756 48.9292 50.338 49.3539 50.2848C49.3539 50.9848 49.4866 51.6557 49.5966 52.2116C49.6954 52.7106 49.7758 53.117 49.7254 53.3688C49.7254 53.3688 50.841 53.1558 51.1603 53.2623C51.4254 53.3688 51.6383 53.7402 51.6383 53.9532C51.4755 54.0694 51.3839 54.1146 51.2837 54.164C51.1544 54.2276 51.0109 54.2983 50.6824 54.5376C49.7063 55.2576 49.2272 56.6712 49.1959 56.766C49.2224 56.7327 49.4553 56.5374 49.7693 56.2741C50.4731 55.6838 51.5844 54.7518 51.6915 54.5376C51.8393 54.1741 51.9634 53.8015 52.063 53.422C52.063 53.4078 51.9762 53.3445 51.8429 53.2472C51.4758 52.9793 50.7558 52.4539 50.5216 51.987C49.8398 50.6541 50.7141 51.5161 51.4407 52.2325C51.845 52.6313 52.2037 52.9848 52.2227 52.8897C52.3824 52.1988 52.8603 51.5068 52.8603 51.5068C52.8286 51.4754 52.7866 51.4439 52.7345 51.4049C52.5238 51.2473 52.1493 50.9671 51.6371 50.0718C50.1501 47.5202 53.3382 51.1886 53.3382 51.1886C54.1116 50.7524 54.1808 51.2428 54.2674 51.8555C54.2759 51.9158 54.2846 51.9772 54.2941 52.0391C54.2941 52.0748 54.94 52.5652 55.3812 52.9002C55.5976 53.0646 55.7648 53.1916 55.7823 53.2091C56.1352 52.8545 56.4227 52.4404 56.6317 51.9859C56.6506 51.9674 56.3357 51.6682 55.9024 51.2564C55.1134 50.5064 53.9314 49.383 53.6565 48.9019C51.4269 45.0713 53.1175 47.1058 54.7696 49.094C55.7543 50.2791 56.7254 51.4477 56.8446 51.3483C57.0032 50.8692 57.0564 50.2304 57.0564 49.3277C57.0564 49.3277 55.8876 48.4772 55.0914 47.2019C52.6295 43.1092 55.5875 46.8088 56.6813 48.1769C56.9094 48.4622 57.0564 48.6461 57.0564 48.6369C57.0389 48.2784 56.9306 47.5212 56.8171 46.7278C56.594 45.1674 56.3508 43.467 56.7382 44.3829C57.0564 45.0738 58.0134 47.9981 57.8537 50.9756ZM53.7097 55.0167C53.55 55.2828 53.9226 55.0699 54.507 54.5908L54.0291 54.2726C53.9759 54.4843 53.8694 54.7505 53.7097 55.0167ZM54.2369 53.3757C54.2116 53.5469 54.185 53.7261 54.1344 53.9532C54.1013 53.987 54.2826 54.064 54.5009 54.1566C54.6257 54.2096 54.7627 54.2677 54.8785 54.3258C54.9816 54.2227 55.0845 54.1356 55.1905 54.0459C55.3581 53.904 55.5334 53.7556 55.7291 53.5273C55.6808 53.5037 55.4028 53.2718 55.1135 53.0306C54.7653 52.7401 54.4006 52.4359 54.4006 52.465C54.4006 52.544 54.3874 52.5836 54.3741 52.6234C54.3608 52.6634 54.3474 52.7037 54.3474 52.7844C54.2915 53.0073 54.2649 53.1866 54.2369 53.3757ZM54.3868 56.7122C55.7417 56.5366 57.0941 56.3613 58.1187 55.336C58.3512 55.1269 58.5428 54.857 58.7336 54.5883C58.9797 54.2416 59.2245 53.8969 59.5537 53.687C59.2544 53.4177 58.9551 53.604 58.7032 53.7609C58.508 53.8824 58.3414 53.9861 58.2252 53.8467C58.7031 53.0494 59.0225 52.465 59.0758 51.508C59.1132 51.1723 59.4126 50.8097 59.6425 50.5314C59.7399 50.4135 59.8248 50.3107 59.8719 50.2315C59.2875 50.338 57.7473 51.2406 57.429 51.773C57.2053 52.0642 57.031 52.353 56.8546 52.6453C56.1932 53.7413 55.5015 54.8874 52.063 56.3984C51.9775 56.3984 52.0891 56.2785 52.274 56.08C52.5496 55.7839 52.9881 55.3129 53.1786 54.8037C53.3383 54.379 53.8683 52.5182 53.4979 51.6133C52.8517 52.2975 52.7764 52.6286 52.6887 53.0143C52.6537 53.168 52.6168 53.3304 52.5409 53.5273C51.8781 55.2626 51.5583 55.479 50.0793 56.4798C50.0167 56.5222 49.952 56.5659 49.8851 56.6113C49.8455 56.641 49.771 56.7314 49.6654 56.8595C49.2031 57.4203 48.1441 58.7049 46.8046 58.7915C46.8645 58.7714 46.8942 58.7056 46.9366 58.6114C47.0064 58.4566 47.1107 58.2252 47.441 57.9942C48.2309 57.4827 48.5433 56.6968 48.8446 55.9387C49.2325 54.9631 49.602 54.0336 50.9474 53.7946C50.1082 53.5387 49.4699 53.9847 49.0833 54.2547C48.9069 54.3779 48.783 54.4645 48.7163 54.4311C49.3361 53.5696 49.1968 52.7972 49.0659 52.0709C48.9949 51.6771 48.9263 51.297 48.9825 50.9236C48.6631 51.1353 48.3448 51.5079 48.2916 51.8262C48.1943 52.993 47.8212 53.5671 47.5205 54.0299C47.3276 54.3268 47.1644 54.5778 47.1228 54.9102C47.3081 56.1205 46.4768 57.0853 45.7326 57.9488C45.6265 58.0719 45.5222 58.193 45.4228 58.3124C45.2631 57.5151 45.4761 56.771 46.4852 56.1334C47.0163 55.7608 46.4319 54.644 46.4319 54.644C46.219 55.8672 45.5293 56.2398 45.1034 56.2931C44.9748 56.3111 45.0946 56.1188 45.2975 55.7934C45.6802 55.1794 46.3582 54.0916 46.219 53.0494C46.1687 52.7191 46.0937 52.6197 46.0176 52.5187C45.9345 52.4084 45.8499 52.2962 45.7943 51.8794C45.0808 52.6735 44.9854 53.3223 44.8863 53.9967C44.7862 54.6775 44.6823 55.3844 43.9346 56.2931C43.4648 56.9087 43.1915 57.7956 43.0314 58.3153C42.9564 58.5585 42.9062 58.7213 42.8723 58.7383C42.9117 57.0472 42.951 56.9852 43.3771 56.315C43.5271 56.0789 43.7251 55.7674 43.9879 55.2828C44.6135 54.1874 44.29 53.1208 44.0332 52.2741C43.9409 51.9695 43.8572 51.6935 43.8293 51.4547C42.3935 52.4261 42.1991 54.171 42.1536 54.5792C42.1419 54.6846 42.1401 54.7009 42.1294 54.592C42.1173 54.4708 42.0941 54.3304 42.0687 54.1764C41.9826 53.6537 41.8706 52.9744 42.0761 52.3585C42.4476 50.9756 41.5982 48.9019 41.5982 48.9019C39.4645 52.238 40.6028 56.0576 40.939 57.1858C41.0046 57.4061 41.0397 57.5238 41.0138 57.5151C40.5521 56.7534 40.1407 56.3124 39.8013 55.9485C39.3589 55.4741 39.0386 55.1307 38.888 54.379C38.7815 53.687 37.4542 49.7004 35.0633 49.6471C36.0287 50.4864 36.0322 50.7623 36.0435 51.6798C36.0465 51.9238 36.0501 52.213 36.0725 52.5703C35.6415 55.0689 37.4805 56.261 39.018 57.2576C40.1309 57.9789 41.0857 58.5978 40.9073 59.5356C40.1112 58.2894 38.9867 57.6978 37.2737 56.7967C37.1591 56.7364 37.0418 56.6747 36.9219 56.6113C36.7036 56.4219 36.4733 56.2645 36.253 56.1139C35.6694 55.7151 35.1552 55.3636 35.1166 54.5908C35.1641 54.2588 35.1904 54.0962 35.1955 53.9328C35.2019 53.73 35.1756 53.5262 35.1166 52.9961C35.0706 52.6977 34.9257 52.5975 34.733 52.4643C34.4796 52.2891 34.1437 52.0568 33.8413 51.2418C32.8945 52.0948 33.0866 53.0746 33.215 53.7291C33.2306 53.8089 33.2453 53.8839 33.2569 53.9532C33.3102 54.1117 33.4166 54.8037 33.2569 55.1763C33.0267 55.0114 32.837 54.7243 32.6249 54.4034C32.4947 54.2064 32.3561 53.9967 32.1946 53.7946C31.6767 53.1376 31.4952 52.4137 31.3297 51.7539C31.2405 51.398 31.156 51.0607 31.0258 50.7627C30.8661 50.3912 30.6011 49.8589 30.4414 49.8589H30.3882C30.1764 51.4015 30.2817 52.7844 30.9726 53.9532C30.9726 53.9532 30.7608 54.2726 30.6011 54.379C29.9102 54.1661 28.9532 53.6338 28.5829 52.5182C27.9303 53.0828 28.2021 53.7896 28.2942 54.0291C28.3148 54.0827 28.3265 54.1129 28.3167 54.1129C27.4806 53.6826 27.3963 52.6935 27.3155 51.7446C27.2165 50.5829 27.1227 49.4816 25.6609 49.5395C26.1331 50.053 26.0212 50.7123 25.9102 51.3658C25.8716 51.5931 25.8332 51.8196 25.8194 52.0391C25.8194 53.4752 27.5726 54.5376 27.5726 54.5376C25.6077 53.9011 25.235 54.8037 25.235 54.8037C25.235 54.8037 28.157 56.0801 32.779 56.5581C33.3634 56.6113 34.2139 57.3022 34.0542 57.3022C33.9462 57.2923 33.8182 57.2589 33.6705 57.2203C33.0195 57.0501 31.9867 56.7802 30.6011 57.9942C30.9729 57.9942 31.3014 58.2107 31.6479 58.4389C32.2418 58.8301 32.8881 59.2559 33.8946 58.6851C37.5357 57.6581 39.1667 59.1335 39.9775 59.8671C40.0895 59.9684 40.1859 60.0556 40.2697 60.12C40.2268 60.1916 39.9763 60.0863 39.5854 59.922C38.5232 59.4754 36.4245 58.5931 34.6386 59.6421C33.3634 60.4394 31.292 59.7486 29.6452 58.5254C30.2817 60.2265 33.0984 62.0873 34.001 62.0873C34.4884 62.0873 35.0365 61.8033 35.6367 61.4922C36.4103 61.0913 37.2703 60.6456 38.1983 60.7056C40.8541 60.812 41.1735 63.1508 40.9073 62.9911C40.9073 62.9911 38.8347 59.5356 36.1789 63.204C37.4009 62.6196 39.0997 62.7793 40.5347 63.4702C40.7319 63.5677 40.2451 64.123 39.877 64.5428C39.8477 64.5762 39.8192 64.6087 39.7918 64.6401C39.7723 64.6634 39.7487 64.6934 39.721 64.7285C39.3697 65.1743 38.3741 66.4377 37.2412 64.9584C37.2213 64.9333 37.1986 64.8975 37.1705 64.8533C36.9008 64.4281 36.1432 63.2341 32.7258 63.5234C33.8884 64.0401 35.1194 65.2548 35.9695 66.0937C36.1686 66.2902 36.3468 66.466 36.4983 66.6074C37.9131 68.023 39.8516 66.1871 40.866 65.2265C41.2604 64.8529 41.5152 64.6116 41.545 64.7455C41.545 65.4737 41.8204 65.9246 42.0694 66.3322C42.148 66.4609 42.224 66.5853 42.2879 66.7127C42.9255 68.0424 41.4385 67.7762 40.6412 67.4568C40.6412 67.4568 42.2347 69.85 43.5099 68.5215C44.2762 67.7261 43.6789 67.037 43.1176 66.3895C42.6278 65.8246 42.1655 65.2912 42.6605 64.7466C42.9919 64.3542 43.8013 64.8853 44.6144 65.4187C45.2353 65.8261 45.8584 66.2348 46.2722 66.2348C47.7681 66.3909 48.35 65.6323 48.8435 64.9889C49.1915 64.5353 49.4954 64.139 50.0448 64.1611C48.8228 62.8858 47.4422 63.5767 47.176 63.8949C46.3255 64.9051 45.3696 64.2154 44.6787 63.6831C44.3073 63.204 43.6696 63.0976 43.1385 63.2573C42.8723 63.2573 43.6696 62.3002 44.732 62.5132C47.0696 62.9911 49.4072 62.1405 49.9916 61.8223C50.598 61.4846 51.0335 60.9973 51.5421 60.4282C51.8352 60.1003 52.1526 59.7452 52.5409 59.3759C52.3296 59.4466 51.3918 59.9393 50.5987 60.3558C50.1974 60.5666 49.8332 60.758 49.6189 60.8653C48.1306 61.6317 47.0845 60.9999 46.6176 60.7178C46.5014 60.6476 46.4211 60.5991 46.3787 60.5991C46.0605 60.5991 46.1137 60.2797 46.6981 60.12C47.7481 59.8867 48.6222 59.2684 49.505 58.6439C50.2295 58.1314 50.9598 57.6147 51.798 57.3033C52.5998 56.9438 53.4938 56.8279 54.3868 56.7122ZM57.3758 58.6318C58.172 57.5151 58.5967 56.3452 58.8628 55.0699C58.3716 55.6598 57.7543 56.1319 57.0564 56.4516C56.6317 57.8877 56.8435 59.4303 57.3758 58.6318ZM55.0938 22.5843C55.2002 22.5843 55.412 22.5843 55.5185 22.6375C55.6249 22.6907 55.6782 22.9037 55.5185 22.8504C55.3588 22.8504 55.147 22.8504 55.0405 22.7972C54.8808 22.7972 54.9873 22.5843 55.0938 22.5843ZM55.5185 23.3295C55.3588 23.3295 55.147 23.3295 55.0405 23.2763C54.8276 23.223 54.9341 23.0634 55.0938 23.0634C55.2002 23.0634 55.412 23.0634 55.5185 23.1166C55.6249 23.1166 55.6249 23.3295 55.5185 23.3295ZM54.4561 25.5618C54.6592 25.7111 54.8543 25.871 55.0405 26.0409C55.147 25.9344 55.3055 26.0409 55.147 26.0941C55.0959 26.1446 54.9959 26.2321 54.894 26.3212C54.7834 26.418 54.6706 26.5166 54.6158 26.5721C54.4808 26.5383 54.3244 26.3767 54.2012 26.2493C54.1301 26.1757 54.07 26.1136 54.0314 26.0941C53.9782 26.1474 53.925 26.1994 53.8185 26.2527V28.1667C53.7229 28.1667 53.6342 28.1736 53.5525 28.1799C53.4069 28.1912 53.2832 28.2008 53.1809 28.1667V26.4124C53.1809 26.1474 52.7562 26.0409 52.49 26.0409C52.5711 25.9872 52.7326 25.8522 52.8933 25.718C53.0512 25.5861 53.2082 25.4549 53.2873 25.4021C53.5523 25.615 53.7653 25.828 53.8717 25.9877C53.9516 25.9344 54.0578 25.8546 54.1639 25.7747C54.2701 25.6949 54.3763 25.615 54.4561 25.5618ZM54.6158 22.744C54.6158 23.1166 54.4029 23.5945 54.2432 23.8607C54.0842 23.9565 53.9443 24.0903 53.8004 24.228C53.7044 24.3197 53.6067 24.4132 53.5003 24.4983C52.7029 24.4983 52.3315 23.5413 52.3315 23.1166C52.3315 22.3725 52.8626 21.6816 53.6588 21.4155C54.3497 21.6272 54.6158 22.3193 54.6158 22.744ZM52.9159 23.1698C53.0744 23.5413 53.6056 23.9671 53.7653 24.0204C53.9782 23.7542 54.0847 23.223 54.0847 22.7451C54.0314 22.4246 53.6056 22.1063 53.2341 21.9466C52.7562 22.266 52.7562 22.744 52.9159 23.1698ZM54.2964 19.9793L53.712 20.6181C53.5523 20.5117 53.447 20.352 53.3406 20.0858C52.9571 20.1819 52.6595 20.4083 52.4494 20.568C52.4268 20.5852 52.4053 20.6016 52.3847 20.617C52.1718 20.4584 51.9056 20.0326 51.9056 19.7132C51.9056 19.4061 52.1535 18.9988 52.3143 18.8271C52.2335 18.7857 52.1599 18.7443 52.1185 18.7029C52.0653 18.6508 52.0121 18.4912 52.1185 18.3847C52.225 18.225 52.5976 17.7459 52.9679 17.6927C53.1809 17.6927 53.5003 17.7459 53.925 18.1185C53.8717 18.1718 53.8717 19.448 53.8717 19.6067V19.6067C54.0303 19.7664 54.2964 19.9793 54.2964 19.9793ZM52.3847 18.8626C52.3847 18.8626 52.3547 18.8626 52.3397 18.84C52.3546 18.8476 52.3697 18.8551 52.3847 18.8626ZM52.3315 18.5965C52.5432 18.7562 53.1276 19.0223 53.3938 19.1288V19.1287C53.3938 18.9158 53.3938 18.6497 53.3394 18.5444C53.3938 18.3847 52.8094 18.0653 52.7029 18.0653C52.5976 18.0653 52.4368 18.225 52.3315 18.4379C52.2782 18.5444 52.2782 18.5444 52.3315 18.5965ZM52.9159 20.1923C53.1276 20.0858 53.2341 20.0326 53.3938 20.0326V19.3417C53.1612 19.2952 52.8889 19.1674 52.6462 19.0293C52.3346 19.5585 52.7568 20.0862 52.9159 20.1923ZM52.5432 18.9691C52.5726 18.9867 52.6026 19.0044 52.6331 19.0218C52.586 19.0127 52.5432 18.9691 52.5432 18.9691ZM50.6315 17.3212C50.6315 17.3744 51.5341 17.3744 51.6927 17.3744C51.7991 17.3744 51.8003 17.6406 51.6938 17.5874C51.5874 17.5874 50.4718 17.7459 50.4718 17.7459C50.4186 17.7459 50.525 19.1288 50.5771 19.2352C50.6315 19.3417 50.7368 19.5014 50.8433 19.3949C50.9497 19.2353 51.1094 19.4482 50.9497 19.5546C50.8965 19.6599 50.6315 20.139 50.525 20.1923C50.3121 20.2987 50.1003 19.9261 49.9939 19.7132C49.8862 19.3417 49.7821 18.4379 49.7821 17.7991C49.795 17.7991 49.7689 17.7861 49.7263 17.765C49.5969 17.7007 49.3157 17.561 49.5159 17.4809C49.9927 17.268 50.4718 16.6303 50.525 16.4706C50.6315 16.3109 50.7368 16.3642 50.6847 16.5227C50.5643 16.772 50.5452 17.0582 50.6315 17.3212ZM49.1433 19.2885L48.6654 19.874V19.9261H48.1863C47.9745 19.7132 47.868 19.5546 47.816 19.3938V17.9588L47.2848 17.6406C47.1783 17.7459 47.0186 17.7459 47.0719 17.6406L47.816 17.0018H47.9745L48.4524 17.4809V18.9159C48.6654 19.182 48.8251 19.2352 49.1433 19.2885ZM48.5601 16.4174L48.2939 16.6303H48.1342L47.9213 16.4174V15.9927L48.2407 15.7265L48.5601 16.0448V16.4174ZM46.5926 16.2311C46.8054 16.2178 47.0185 16.2045 47.1251 16.2045C47.338 16.2045 47.338 16.3109 47.0719 16.3109C46.8601 16.363 46.6472 16.6292 46.5939 16.8953C46.5407 17.1615 45.6902 19.6599 45.5848 19.8196C45.3719 19.0235 44.5225 17.1615 44.2563 16.79C44.0233 16.5104 43.832 16.5164 43.6451 16.5222C43.6185 16.523 43.592 16.5239 43.5655 16.5239C43.3526 16.5239 43.459 16.3642 43.6187 16.3642C43.7413 16.3948 44.2512 16.4431 44.7329 16.4888C45.0875 16.5224 45.4268 16.5545 45.5848 16.5771C45.6902 16.6303 45.6901 16.7368 45.5316 16.7889C45.4251 16.7889 45.2134 16.8953 45.2134 17.003C45.2134 17.1615 45.6901 18.225 45.8498 18.4379C45.8541 18.4274 45.8589 18.4154 45.8642 18.4021C45.9933 18.0804 46.43 16.9924 46.3278 16.7368C46.3182 16.7129 46.3095 16.6907 46.3015 16.6702C46.2196 16.4615 46.2023 16.4174 46.0095 16.4174C45.8498 16.4174 45.8498 16.3109 46.0628 16.2577C46.1685 16.2577 46.3804 16.2444 46.5926 16.2311ZM43.8429 23.5157C43.4281 23.2975 43.0864 23.1178 43.0864 22.2128C43.0864 21.574 43.6187 21.0961 44.0434 20.8831C44.4681 20.6702 45.4251 20.5117 45.7434 20.617C45.9031 20.6702 46.0628 20.617 46.0628 20.5637C46.0628 20.4584 46.2213 20.4584 46.2213 20.5637V21.7869C46.2213 21.8283 46.1974 21.8536 46.1681 21.8628V22.4778C46.1681 22.5843 46.0628 22.531 46.0084 22.4778C45.9031 22.4246 45.3719 22.3725 45.1058 22.3725C45.0593 22.3658 45.0086 22.3583 44.9552 22.3504C44.5814 22.2951 44.07 22.2195 43.8837 22.266C43.7252 22.3713 43.8837 22.6907 44.0434 22.9037C44.5746 23.5957 45.5316 23.6477 45.9031 23.0634C46.0628 22.9037 46.0628 22.8504 46.0628 22.6907C46.0628 22.5843 46.2213 22.5843 46.2213 22.6907V23.7542C46.2213 23.8607 46.0628 23.8607 46.0628 23.7542C46.0628 23.5945 45.9563 23.5945 45.7434 23.6478C45.159 23.8074 44.416 23.8607 43.9902 23.5945C43.9404 23.5669 43.8912 23.541 43.8429 23.5157ZM46.0635 21.7991C46.0437 21.8107 46.0246 21.826 46.0095 21.8413C45.9743 21.8758 45.6833 21.934 45.4291 21.9849C45.299 22.011 45.1786 22.0351 45.1069 22.0531C44.8407 22.1063 44.0966 22.1596 43.9381 22.1063C43.7252 22.0531 43.7784 21.6272 43.9902 21.4155C44.5225 20.7234 45.5848 20.7767 45.9563 21.3622C46.0628 21.574 46.0628 21.6284 46.0628 21.7869V21.7869C46.0628 21.7912 46.063 21.7952 46.0635 21.7991ZM43.2969 25.5127C43.2716 24.8303 43.2472 24.1733 43.2472 24.0204C43.4058 24.0736 43.8316 24.0736 43.937 24.0204V26.7318C43.9902 26.9447 44.1499 27.0511 44.3628 26.9447C44.4681 26.9447 44.5214 26.9979 44.416 27.1044C44.202 27.2629 43.937 27.6355 43.8316 27.7952C43.6187 27.6355 43.3526 27.4226 43.3526 27.2097C43.3526 27.0168 43.3242 26.2499 43.2969 25.5127ZM44.8407 26.9447C44.8407 26.6785 45.159 26.2527 45.3187 26.0941L45.2122 26.0397C45.1601 25.9877 45.0525 25.5086 45.1601 25.4033C45.2654 25.2424 45.6901 24.658 46.0628 24.6048C46.2214 24.6048 46.3808 24.7841 46.5402 24.9635C46.5936 25.0236 46.647 25.0837 46.7004 25.1371C46.6472 25.1903 46.6472 26.2526 46.6472 26.4123V26.4124C46.9122 26.6785 46.9654 26.7318 47.1251 26.6253C47.2848 26.5721 47.3369 26.6253 47.2304 26.7318C47.1786 26.7841 47.0497 26.9391 46.9193 27.0958C46.7844 27.2578 46.6481 27.4217 46.5939 27.4759C46.5449 27.4393 46.4987 27.4083 46.4559 27.3797C46.3131 27.2839 46.2091 27.2141 46.1681 27.0511C45.815 27.1565 45.6266 27.333 45.4461 27.502C45.3551 27.5873 45.2661 27.6706 45.159 27.742C45.0004 27.5291 44.8407 27.2629 44.8407 26.9447ZM46.051 26.331C45.866 26.3722 45.7624 26.3952 45.5848 26.3059C45.3486 26.7311 45.4897 26.8628 45.6353 26.9986C45.6538 27.0159 45.6723 27.0332 45.6901 27.0511C45.7696 26.9982 45.849 26.9584 45.9283 26.9187C46.0084 26.8786 46.0884 26.8385 46.1681 26.785V26.3059C46.1253 26.3145 46.0867 26.3231 46.051 26.331ZM45.7434 25.1903C45.6369 25.1903 45.5316 25.1903 45.4251 25.4033C45.3719 25.5097 45.3719 25.9344 45.4251 25.9877C45.6902 26.2527 45.9019 26.2527 46.1681 26.1994V25.615C46.2213 25.4565 45.8498 25.1903 45.7434 25.1903ZM47.8132 25.2573C47.693 25.1913 47.4462 25.0558 47.603 24.9774C48.0277 24.7645 48.4004 24.3918 48.5057 24.1801C48.6121 23.9671 48.7718 24.0736 48.6654 24.2333C48.5589 24.3918 48.5057 24.8177 48.5589 24.9242C48.6121 24.9774 48.8783 25.0295 49.0368 25.0295C49.1433 25.0295 49.1433 25.2956 49.0368 25.2956H48.5589C48.5057 25.35 48.5057 26.6785 48.5589 26.785C48.6121 26.8915 48.9315 26.9447 49.0368 26.8382C49.1445 26.7318 49.303 26.8382 49.1445 26.9435C49.1032 26.9644 49.0467 27.0396 48.9807 27.1274C48.8744 27.2689 48.7435 27.443 48.6121 27.4759C48.4004 27.5291 48.081 27.4226 47.9745 27.2097C47.8143 26.9689 47.8362 26.3625 47.8564 25.8049C47.8629 25.6255 47.8692 25.4511 47.8692 25.2956C47.8829 25.2956 47.8562 25.2809 47.8132 25.2573ZM47.1251 23.701C47.4433 23.3816 47.7095 22.7972 47.7095 22.2116C47.7095 21.7227 47.4389 21.4593 47.3137 21.3375C47.3029 21.3269 47.2932 21.3175 47.2848 21.309C47.1601 21.3714 47.0353 21.4516 46.932 21.5181C46.8589 21.5651 46.7966 21.6052 46.7525 21.6272C46.6472 21.6805 46.5939 21.5208 46.7004 21.4675C46.9654 21.309 47.5498 20.8831 47.6563 20.7767C47.9213 20.8299 48.2407 21.0428 48.2939 21.2558C48.4631 21.1707 48.701 20.9158 48.8441 20.7624C48.8801 20.7238 48.9101 20.6916 48.9315 20.6702C49.0368 20.8831 49.4095 21.0961 49.7809 21.2558C49.4083 21.8934 48.6121 21.5208 48.5057 21.3622C48.3471 21.574 48.3471 21.6805 48.4524 21.9466C48.6121 22.3193 49.2498 22.6375 49.568 22.744C49.5411 22.7708 49.4907 22.8247 49.4278 22.892C49.2412 23.0914 48.9445 23.4084 48.8251 23.4881C48.5589 23.3816 48.2407 23.0634 48.081 22.7983C48.0046 22.8999 47.9435 22.9954 47.8868 23.0841C47.7062 23.3662 47.5698 23.5795 47.1251 23.701ZM50.7543 21.8065C50.6308 21.8996 50.4601 22.0283 50.4186 22.3193C50.3653 22.7972 50.7368 23.1698 51.0562 23.3816C51.2657 23.5078 51.5757 23.4677 51.7484 23.4454C51.7942 23.4395 51.8303 23.4348 51.8524 23.4348C51.93 23.4348 51.951 23.4065 51.9774 23.3709C51.9872 23.3578 51.9977 23.3436 52.0121 23.3295C52.0653 23.223 52.1718 23.3295 52.1185 23.3816C52.0639 23.4089 51.8693 23.5905 51.6714 23.7752C51.4838 23.9503 51.2931 24.1283 51.2159 24.1801C51.0562 24.1801 50.6847 24.1801 50.4718 23.9139C50.4184 23.845 50.3671 23.7827 50.3188 23.724C50.0315 23.3748 49.8495 23.1537 49.9406 22.4246C49.9939 21.8402 51.003 21.309 51.2159 21.2025C51.2683 21.229 51.4 21.3606 51.5454 21.5058C51.6922 21.6525 51.853 21.8131 51.96 21.8934C51.9056 21.9999 51.6406 22.1063 51.4277 22.1063C51.2001 22.1063 51.0502 21.9494 50.9113 21.8039C50.8884 21.7799 50.8659 21.7563 50.8433 21.7337C50.8199 21.757 50.789 21.7804 50.7543 21.8065ZM49.7034 25.2462C49.7924 25.1687 49.8715 25.0998 49.9406 25.0306C50.2056 25.2436 50.3121 25.3489 50.4186 25.5618C50.4186 25.7288 50.404 25.9973 50.3901 26.2535C50.3775 26.4875 50.3653 26.7112 50.3653 26.8382C50.3653 27.1044 51.3212 27.2629 51.3744 26.8915C51.4125 26.6253 51.3962 26.3327 51.3838 26.1095C51.3788 26.0202 51.3744 25.9421 51.3744 25.8812C51.3744 25.7215 51.003 25.6683 50.7912 25.6683C50.9764 25.4451 51.1356 25.3004 51.2692 25.179C51.3268 25.1267 51.3796 25.0787 51.4277 25.0306C51.6406 25.1903 51.8524 25.4553 52.0121 25.6683C52.0121 25.782 52.0071 25.9408 52.0017 26.1125C51.9894 26.5015 51.9751 26.9567 52.0121 27.1044C52.0653 27.3694 52.0653 27.3694 52.225 27.4759C52.138 27.5635 52.0504 27.635 51.9715 27.6994C51.9067 27.7524 51.8478 27.8004 51.8003 27.8485C51.5874 27.7952 51.3212 27.5291 51.3212 27.2629C51.0562 27.4226 50.4186 27.6888 50.2056 27.742C50.1557 27.6918 50.1057 27.6475 50.0584 27.6056C49.9053 27.47 49.7809 27.3598 49.7809 27.1565C49.7581 27.0201 49.7646 26.7957 49.7712 26.5713C49.7799 26.272 49.7885 25.9725 49.7277 25.8812C49.6745 25.6683 49.5159 25.615 49.303 25.615C49.4533 25.4641 49.5868 25.3478 49.7034 25.2462ZM42.7887 33.2061C43.0752 33.3687 43.3542 33.5271 43.672 33.5906C43.3559 33.6495 43.0766 33.8113 42.7987 33.9724C42.3285 34.2447 41.8621 34.5149 41.2279 34.2815C41.2173 34.2762 41.2052 34.2704 41.1919 34.2641C41.0719 34.2066 40.8617 34.1059 40.9097 33.9621C40.9813 33.9801 41.0591 33.9981 41.1369 34.0161C41.2892 34.0513 41.4416 34.0866 41.5473 34.1218C41.4807 34.0684 41.426 34.0017 41.3869 33.9259C41.3477 33.8501 41.3248 33.7669 41.3198 33.6817C41.3148 33.5965 41.3277 33.5113 41.3577 33.4314C41.3877 33.3515 41.4342 33.2788 41.494 33.218C40.9629 33.5374 40.75 33.4842 40.75 33.2712C40.75 33.1648 41.494 32.6324 42.1838 32.8986C42.3983 32.9844 42.5952 33.0962 42.7887 33.2061ZM42.3446 33.5906C42.3446 33.8024 42.0784 34.0686 42.0784 34.0686L42.9811 33.6439C42.7682 33.4842 42.2902 33.218 42.0784 33.1648C42.0784 33.1648 42.3446 33.3245 42.3446 33.5906ZM37.2447 26.6785L36.9786 26.9979L36.7124 27.2097C36.6519 27.1492 36.6 27.1017 36.5555 27.0609C36.4442 26.9588 36.379 26.8991 36.3409 26.785V25.5086L35.9162 25.2956C35.7565 25.4553 35.5968 25.4021 35.7565 25.2424L36.3942 24.658H36.5527L36.9253 25.2424V26.4656C36.9808 26.5214 36.9974 26.5577 37.0093 26.5836C37.0314 26.6318 37.037 26.6439 37.2447 26.6785ZM38.1474 23.5424C37.7747 23.5424 37.2968 23.3295 37.0839 22.744C36.8721 22.1584 37.2436 21.6272 37.4565 21.5219C37.5387 21.4397 37.7789 21.2623 37.9821 21.1122C38.0421 21.0679 38.0988 21.026 38.1474 20.9896C38.2704 21.0515 38.3759 21.1134 38.4636 21.1648C38.5268 21.2018 38.5807 21.2335 38.6253 21.2558C38.6171 21.2721 38.6089 21.291 38.6002 21.3112C38.5519 21.4223 38.4861 21.574 38.3059 21.574C38.2053 21.574 38.1123 21.5662 38.0272 21.559C37.7981 21.5398 37.6253 21.5252 37.5097 21.6805C37.35 21.8402 37.5097 22.4246 37.7215 22.6375C37.8812 22.7972 38.3591 23.0101 38.4656 22.7972C38.5721 22.531 38.7318 22.6907 38.5721 22.9037C38.4062 23.0994 38.2637 23.3138 38.1474 23.5424ZM37.6162 26.785C37.6162 26.4656 37.7747 26.1994 37.9865 25.9877C37.88 25.8812 37.7747 25.2956 37.8812 25.1903C37.9877 25.0839 38.5188 24.6048 38.8371 24.5515C38.9889 24.5515 39.1944 24.7953 39.377 25.0119C39.4504 25.099 39.5201 25.1817 39.5812 25.2424C39.5415 25.282 39.5903 26.0577 39.6179 26.496C39.6274 26.6468 39.6344 26.7577 39.6344 26.785C39.6876 26.9447 39.9526 26.9979 40.0059 26.8915C40.1135 26.785 40.2188 26.8915 40.1135 26.9979C40.0059 27.0512 39.6876 27.3694 39.5812 27.4759C39.5154 27.4101 39.4317 27.3533 39.3449 27.2944C39.221 27.2103 39.0907 27.122 38.9968 26.9968C38.6774 27.1044 38.307 27.3162 38.0409 27.5291C37.7215 27.3694 37.6162 27.1044 37.6162 26.785ZM38.0941 25.7747C38.3591 26.0409 38.5709 26.0941 38.8371 26.0941C38.8906 25.9026 38.8906 25.7001 38.8371 25.5086C38.8371 25.3489 38.3591 25.0295 38.2527 25.0295C38.168 25.0295 38.1514 25.0646 38.0929 25.1883C38.0786 25.2186 38.0618 25.2541 38.0409 25.2956C37.9877 25.4021 38.0409 25.7215 38.0941 25.7747ZM38.8371 26.2527C38.5709 26.3059 38.4124 26.3059 38.2006 26.1474C37.7759 26.52 38.2527 26.8382 38.4124 26.9447L38.8903 26.785C38.8903 26.7584 38.877 26.7318 38.8637 26.7051C38.8504 26.6785 38.8371 26.6519 38.8371 26.6253V26.2527ZM40.3252 23.2763L40.0591 23.5945L39.6344 23.9139C39.5743 23.8538 39.5227 23.8064 39.4785 23.7657C39.3661 23.6624 39.3011 23.6026 39.2629 23.4881V22.1596L38.9435 21.9466C38.785 22.1063 38.6253 22.0531 38.785 21.8934L39.4215 21.309H39.5812L39.8473 21.6816V23.1166C39.907 23.1566 39.9442 23.1816 39.9844 23.2C40.0511 23.2306 40.126 23.2431 40.3252 23.2763ZM39.5812 18.6497C39.4747 18.6497 39.2629 18.8626 40.0059 18.9691C40.1123 18.9159 40.272 18.6497 39.5812 18.6497ZM39.5812 18.1718C39.4747 18.1718 39.2629 18.4912 40.0059 18.4912C40.1656 18.4912 40.2188 18.225 39.5812 18.1718ZM39.4215 20.0858L39.7409 20.4052V20.7234L39.5279 20.9364H39.3162L39.1032 20.7234V20.352L39.4215 20.0858ZM38.9468 17.2313C39.0017 17.2855 39.0525 17.3355 39.1032 17.3733C39.0582 17.4634 38.8231 17.6299 38.526 17.8403C38.4721 17.8784 38.4163 17.918 38.3591 17.9588C38.4124 17.9588 38.4656 17.9588 38.5188 18.0121C39.1021 18.3315 39.2629 18.7562 38.7318 19.1809C38.4124 19.447 37.9877 19.7132 37.4565 19.7132C37.0839 19.7664 36.5006 19.4482 36.3942 19.3417C36.6592 19.0756 36.9786 18.7562 37.1903 18.5976C36.8721 18.3315 36.5527 17.9588 36.8189 17.5874C37.0318 17.3212 37.615 16.8421 38.1474 16.8421C38.5519 16.8421 38.7711 17.0582 38.9468 17.2313ZM38.0388 18.6229C37.9463 18.5834 37.854 18.544 37.7747 18.4912C37.5097 18.6497 37.2968 18.8094 37.1903 18.9159C37.2968 19.0756 37.828 19.5014 38.1474 19.3417C38.4656 19.2352 38.5721 18.9159 38.3071 18.7573C38.2266 18.7031 38.1327 18.663 38.0388 18.6229ZM38.2973 17.7555C38.3007 17.7521 38.304 17.7489 38.3071 17.7459H38.3059C38.0941 17.5341 37.7215 17.3212 37.563 17.268C37.4033 17.268 37.0839 17.4277 37.1903 17.5874C37.2308 17.6275 37.2677 17.6712 37.3047 17.7148C37.4137 17.8435 37.5228 17.9723 37.7215 18.0121H37.9877C38.1383 17.9117 38.2405 17.8113 38.2973 17.7555ZM35.4028 18.8093C35.6292 18.9176 35.8881 18.9366 36.128 18.8626C36.5006 18.8094 36.6059 18.9691 36.2877 19.1288C36.2267 19.1493 36.142 19.2091 36.0486 19.275C35.8992 19.3804 35.7279 19.5014 35.5968 19.5014C34.8527 19.5014 34.0033 18.9691 34.1098 18.0121C34.2683 17.0018 35.0657 16.6292 35.3839 16.6292C35.6567 16.6292 35.7868 16.8004 35.9201 16.9756C35.9689 17.0398 36.018 17.1045 36.0748 17.1615C35.7565 17.4277 35.2254 17.9588 34.906 18.2782L34.906 18.2782C34.9989 18.5114 35.1763 18.701 35.4028 18.8093ZM35.1189 16.9497C34.7474 17.268 34.641 17.4809 34.8527 18.1185C34.9493 18.0541 35.1043 17.8734 35.2586 17.6934C35.3594 17.5758 35.4599 17.4586 35.5436 17.3744C35.3644 17.2763 35.217 17.129 35.1189 16.9497ZM33.8436 17.4277C33.9501 17.3212 34.1098 17.4277 33.9501 17.5341C33.8436 17.6406 33.5254 17.8524 33.4189 17.8524C33.3372 17.7975 33.2548 17.7004 33.1797 17.6119C33.1093 17.5289 33.0452 17.4534 32.9942 17.4277C32.9335 17.493 32.8613 17.5467 32.7813 17.5862V19.5535C32.7081 19.5535 32.6351 19.5598 32.5643 19.5659C32.4291 19.5775 32.3021 19.5884 32.1981 19.5535V17.8524C32.1981 17.6375 32.0574 17.5969 31.8345 17.5324C31.7825 17.5174 31.726 17.5011 31.6657 17.4809C31.8243 17.2695 32.1391 17.0581 32.2988 16.9509L32.3022 16.9486C32.4229 17.0451 32.5217 17.0979 32.6036 17.1416C32.7022 17.1943 32.7763 17.2339 32.8345 17.3212C32.8916 17.2831 32.969 17.2383 33.0497 17.1915C33.1947 17.1074 33.3505 17.017 33.4189 16.9486C33.547 17.1197 33.6891 17.28 33.8436 17.4277ZM30.5502 21.574C30.6566 21.2558 31.1878 20.8831 31.506 20.8299C31.6481 20.8299 31.7902 21.0432 31.9161 21.2323C31.9789 21.3265 32.0377 21.4148 32.0904 21.4675C32.0372 21.5208 32.0372 22.9037 32.0372 23.0101C32.0904 23.0633 32.2501 23.1698 32.3034 23.1166C32.4087 23.0101 32.5163 23.1166 32.4087 23.223C32.3054 23.2741 31.8953 23.6844 31.7789 23.8008L31.7722 23.8074C31.6125 23.701 31.5593 23.488 31.5593 23.2763C31.4175 23.3038 31.2829 23.3605 31.1642 23.4428C31.0455 23.5251 30.9452 23.6311 30.8696 23.7542C30.6034 23.6477 30.3372 23.3816 30.3372 23.0634C30.3372 22.7838 30.5003 22.6266 30.6838 22.4498C30.7099 22.4246 30.7365 22.3989 30.7631 22.3725L30.6566 22.266C30.5502 22.2128 30.4969 21.7337 30.5502 21.574ZM30.7631 22.1596C31.0281 22.4246 31.1346 22.479 31.506 22.2128V21.7881C31.506 21.6272 31.241 21.2558 31.1346 21.2558C31.0281 21.2558 30.8163 21.4675 30.7099 21.6272C30.6801 21.7146 30.6695 21.8073 30.6786 21.8992C30.6878 21.991 30.7166 22.0798 30.7631 22.1596ZM31.506 23.1166V22.9037V22.4246C31.476 22.4426 31.448 22.4599 31.4216 22.4763C31.2141 22.6049 31.1047 22.6727 30.8696 22.531C30.5148 22.8414 30.898 23.041 31.1275 23.1606C31.1736 23.1845 31.2134 23.2053 31.2399 23.223L31.2528 23.2167C31.3559 23.1656 31.4549 23.1166 31.506 23.1166ZM31.2365 20.0292L31.2399 20.0326C31.3463 20.1923 31.241 20.352 31.0281 20.139C31.0067 20.107 30.9897 20.0771 30.9743 20.0502C30.9131 19.943 30.8791 19.8836 30.7099 19.9261C30.1787 20.0858 29.6475 20.2455 29.2217 19.9793C29.152 19.9328 29.0846 19.8919 29.0203 19.8529C28.6433 19.6241 28.3723 19.4596 28.3723 18.5976C28.3723 18.0121 28.9034 17.5341 29.2749 17.3212C29.6475 17.055 30.3372 17.2147 30.6555 17.3212C30.8163 17.3744 30.9216 17.3744 30.9216 17.1627C30.9216 17.055 31.0813 17.055 31.0813 17.1627V18.5976C31.0813 18.648 31.0325 18.6743 30.9816 18.6765C31.0325 18.6786 31.0813 18.7052 31.0813 18.7562V19.7664C31.0813 19.8707 31.1834 19.9749 31.2365 20.0292ZM30.9681 18.6765C30.9172 18.6786 30.8684 18.7052 30.8684 18.7562C30.8684 18.9159 30.8684 19.1288 30.7631 19.3417C30.3905 19.874 29.6996 20.139 29.2217 19.4482C29.0631 19.2352 29.0099 18.8626 29.0099 18.6497C28.9705 18.414 29.1056 18.1192 29.1784 17.9606C29.2039 17.905 29.2217 17.8662 29.2217 17.8524C29.8593 17.055 30.7099 17.6406 30.7631 17.9588C30.8163 18.1718 30.8684 18.4379 30.8684 18.5976C30.8684 18.648 30.9172 18.6743 30.9681 18.6765ZM28.532 23.3295C27.9464 22.8504 28.1061 21.9999 28.4787 21.4675V21.4687C28.6905 21.0961 29.2749 20.7767 29.6996 20.6702C29.7641 20.7347 29.8481 20.8577 29.9398 20.992C29.9995 21.0795 30.0625 21.1718 30.1255 21.2558C29.9592 21.3394 29.8243 21.4879 29.723 21.5994C29.6953 21.6299 29.6702 21.6576 29.6475 21.6805C29.5943 21.574 29.1164 20.8831 28.797 21.3622C28.584 21.6272 28.4255 22.3725 29.0099 22.8504C29.3281 23.0633 29.6475 23.1166 30.0178 23.0634C29.8061 23.3295 29.7528 23.4348 29.6475 23.6478C29.0652 23.7538 28.8 23.5428 28.5349 23.3318L28.532 23.3295ZM29.9125 27.742C29.4878 27.5823 28.584 26.9979 28.6905 26.0409C28.8171 25.2402 29.4438 24.84 29.8573 24.576C29.9656 24.5068 30.0592 24.4471 30.1255 24.3918C30.1775 24.7112 30.4969 25.1903 30.7099 25.4021C30.3905 25.6683 29.5943 26.3059 29.3281 26.5188C29.4878 26.785 30.0722 26.9979 30.284 26.785C30.4449 26.6253 30.6034 26.6785 30.4449 26.8915C30.2414 27.1578 30.0632 27.4426 29.9125 27.742ZM30.1255 25.7215C30.0178 25.6683 29.7528 25.2424 29.6475 25.0306C28.797 25.5097 28.9567 26.0409 29.2228 26.4124C29.3814 26.3059 29.9125 25.9344 30.1255 25.7215ZM31.3405 24.904C31.4266 24.8176 31.5061 24.7378 31.6125 24.658C31.6546 24.7286 31.6893 24.7993 31.7216 24.865C31.811 25.0467 31.8816 25.1903 32.0372 25.1903C32.0949 25.1471 32.1603 25.0999 32.2282 25.0509C32.4109 24.9192 32.6116 24.7744 32.7281 24.658C32.7445 24.669 32.7621 24.68 32.7804 24.6915C32.9389 24.7909 33.1528 24.9249 33.1528 25.4021C33.206 25.9344 33.2592 26.7318 33.2592 26.8915C33.2592 26.9979 33.2592 26.9979 33.4189 26.9447C33.5786 26.8915 33.6319 26.9447 33.5254 27.0511C33.478 27.0975 33.3591 27.1854 33.2272 27.2828C33.0595 27.4067 32.8707 27.5462 32.7813 27.6355C32.5684 27.3162 32.5684 27.0511 32.6216 26.7306C32.6617 26.5308 32.6414 26.0588 32.6289 25.7701C32.6248 25.6758 32.6216 25.6011 32.6216 25.5618C32.6216 25.4592 32.5122 25.4005 32.4057 25.3434C32.3465 25.3117 32.2882 25.2805 32.2501 25.2424C32.0904 25.3489 32.0372 25.4021 31.9319 25.5086C31.9319 25.5738 31.9287 25.7126 31.9246 25.8881C31.9122 26.428 31.8917 27.3151 31.9319 27.4759H31.3996V25.7747C31.3628 25.5868 31.2459 25.452 31.1428 25.3332C31.0999 25.2837 31.0594 25.237 31.0281 25.1903C31.1613 25.0838 31.2542 24.9906 31.3405 24.904ZM33.912 23.1163C33.8379 23.2065 33.7346 23.3321 33.6319 23.4348L33.6307 23.436C33.4722 23.5413 33.1528 23.3816 32.9942 23.1698C32.8342 22.9298 32.8546 22.4501 32.8746 21.978C32.8812 21.8218 32.8878 21.6664 32.8878 21.5208C32.941 21.5208 32.7813 21.3622 32.6748 21.3622C32.5163 21.309 32.4619 21.2558 32.7281 21.1493C33.0463 21.0417 33.5254 20.2987 33.5786 20.139C33.6319 19.9793 33.7372 20.139 33.6319 20.2987C33.4722 20.6702 33.5254 21.0961 33.5786 21.2025C33.5786 21.2421 33.9022 21.2228 34.1112 21.2103C34.1831 21.206 34.2414 21.2025 34.2683 21.2025C34.3748 21.2025 34.3216 21.4155 34.2683 21.4155C34.163 21.4155 33.4189 21.5208 33.4189 21.5208C33.3657 21.5208 33.5254 22.6907 33.5786 22.7972C33.5786 22.7972 33.7904 23.0101 33.898 22.9037C34.0022 22.7972 34.1098 22.9037 34.0022 23.0101C33.9839 23.0288 33.9522 23.0674 33.912 23.1163ZM36.1462 23.7548C36.158 23.7364 36.1696 23.7184 36.1812 23.701C36.2877 23.9128 36.5006 24.0204 36.6592 24.0725C36.5808 24.152 36.5022 24.2439 36.4235 24.3358C36.3431 24.4299 36.2626 24.524 36.1824 24.6048C36.0215 24.4983 35.8098 24.3386 35.6501 24.1801C35.9336 24.0852 36.0491 23.9058 36.1462 23.7548ZM35.3844 23.1056C35.2352 23.0831 35.1042 23.0634 35.0124 23.0634C34.906 23.0634 34.8527 23.0634 34.8527 23.223C34.8527 23.3295 34.6942 23.3816 34.641 23.223C34.5877 23.0622 34.5345 22.3725 34.5345 22.1596C34.5345 21.9466 34.6942 21.9466 34.6398 22.3181C34.6942 22.531 34.7474 22.6907 34.906 22.8504C35.0657 23.0101 35.863 23.223 36.1812 22.9569C36.4474 22.744 36.3942 22.3193 36.1292 22.1596C36.0359 22.1036 35.8513 22.0346 35.644 21.9571C35.2596 21.8134 34.7972 21.6404 34.6942 21.4675C34.4356 20.9515 34.9297 20.585 35.1532 20.4192C35.1598 20.4144 35.1661 20.4097 35.1721 20.4052C35.4914 20.2222 35.85 20.2358 36.0459 20.2432C36.0779 20.2445 36.1056 20.2455 36.128 20.2455C36.1478 20.2455 36.1713 20.2473 36.1965 20.2493C36.3064 20.2579 36.4474 20.269 36.4474 20.139C36.5006 19.9793 36.6059 19.9793 36.6059 20.139C36.6059 20.3451 36.6185 20.3888 36.6314 20.4338C36.6451 20.4815 36.6592 20.5307 36.6592 20.7767C36.6592 20.9896 36.6059 20.9896 36.5006 20.8299C36.4474 20.7234 35.863 20.1923 35.3318 20.5117C34.8527 20.7767 35.0657 21.0428 35.4371 21.1493C35.5404 21.1751 35.6562 21.1884 35.7753 21.2021C36.1472 21.2448 36.552 21.2913 36.7124 21.7349C36.9242 22.3713 36.5006 23.1166 36.0215 23.1698C35.8101 23.1698 35.5815 23.1353 35.3844 23.1056ZM34.163 25.5086C34.163 25.5618 33.7372 25.3489 33.9501 25.1903C34.163 25.0295 34.5877 24.2854 34.5877 24.1268C34.641 23.9671 34.6942 24.0204 34.6942 24.1801C34.641 24.4451 34.5345 25.0306 34.5877 25.1371C34.5877 25.1903 34.9592 25.1903 35.0657 25.1903C35.1189 25.1903 35.1189 25.4021 35.0657 25.4021C35.0124 25.4021 34.5877 25.4553 34.5877 25.4553C34.5345 25.5097 34.5877 26.3059 34.6398 26.4124C34.6535 26.4226 34.6667 26.4327 34.6796 26.4424C34.8669 26.5844 34.9729 26.6648 35.1721 26.4656C35.2786 26.3591 35.3839 26.4656 35.2786 26.5732C35.2581 26.6137 35.1983 26.6938 35.1294 26.7859C35.0191 26.9335 34.8855 27.1121 34.8527 27.2097C34.8007 27.3694 34.3748 27.2629 34.2683 27.0511C34.1419 26.7964 34.1502 26.3392 34.1587 25.8675C34.1608 25.7478 34.163 25.6271 34.163 25.5086Z" fill="#800000"/>
</g>
<defs>
<filter id="filter0_d_1467_1966" x="0.653771" y="0.53756" width="81.7305" height="81.7315" filterUnits="userSpaceOnUse" color-interpolation-filters="sRGB">
<feFlood flood-opacity="0" result="BackgroundImageFix"/>
<feColorMatrix in="SourceAlpha" type="matrix" values="0 0 0 0 0 0 0 0 0 0 0 0 0 0 0 0 0 0 127 0" result="hardAlpha"/>
<feMorphology radius="2.40385" operator="dilate" in="SourceAlpha" result="effect1_dropShadow_1467_1966"/>
<feOffset/>
<feComposite in2="hardAlpha" operator="out"/>
<feColorMatrix type="matrix" values="0 0 0 0 0.968627 0 0 0 0 0.941176 0 0 0 0 1 0 0 0 1 0"/>
<feBlend mode="normal" in2="BackgroundImageFix" result="effect1_dropShadow_1467_1966"/>
<feBlend mode="normal" in="SourceGraphic" in2="effect1_dropShadow_1467_1966" result="shape"/>
</filter>
</defs>
</svg>
