<svg width="88" height="104" viewBox="0 0 88 104" fill="none" xmlns="http://www.w3.org/2000/svg">
<g filter="url(#filter0_d_1247_1213)">
<path d="M4 13C4 7.47715 8.47715 3 14 3H68.8L76.8 13.4L84 22.6V89C84 94.5228 79.5229 99 74 99H14C8.47715 99 4 94.5229 4 89V13Z" fill="white"/>
<path d="M76.4037 13.7049L76.4062 13.7082L83.5 22.7724V89C83.5 94.2467 79.2467 98.5 74 98.5H14C8.75329 98.5 4.5 94.2467 4.5 89V13C4.5 7.7533 8.7533 3.5 14 3.5H68.5538L76.4037 13.7049Z" stroke="black" stroke-opacity="0.2"/>
</g>
<g clip-path="url(#clip0_1247_1213)">
<path d="M30.25 33.5C28.5924 33.5 27.0027 34.1585 25.8306 35.3306C24.6585 36.5027 24 38.0924 24 39.75V57.25C24 58.9076 24.6585 60.4973 25.8306 61.6694C27.0027 62.8415 28.5924 63.5 30.25 63.5H52.75C54.4076 63.5 55.9973 62.8415 57.1694 61.6694C58.3415 60.4973 59 58.9076 59 57.25V39.75C59 38.0924 58.3415 36.5027 57.1694 35.3306C55.9973 34.1585 54.4076 33.5 52.75 33.5H30.25ZM36.5 42.89C36.5003 42.5495 36.5933 42.2155 36.7691 41.9239C36.9449 41.6323 37.1967 41.394 37.4976 41.2347C37.7986 41.0753 38.1372 41.001 38.4772 41.0195C38.8172 41.0381 39.1457 41.1489 39.4275 41.34L48.4525 47.4675C48.6212 47.5819 48.7594 47.7359 48.855 47.9159C48.9506 48.096 49.0008 48.2967 49.001 48.5006C49.0012 48.7045 48.9516 48.9053 48.8565 49.0856C48.7613 49.2659 48.6235 49.4202 48.455 49.535L39.43 55.68C39.1482 55.8718 38.8194 55.9832 38.479 56.0021C38.1387 56.021 37.7996 55.9468 37.4982 55.7873C37.1969 55.6279 36.9447 55.3894 36.7688 55.0974C36.593 54.8053 36.5 54.4709 36.5 54.13V42.89ZM35.25 68.5C34.2796 68.5008 33.3224 68.2752 32.4544 67.8412C31.5864 67.4072 30.8316 66.7768 30.25 66H54C55.9891 66 57.8968 65.2098 59.3033 63.8033C60.7098 62.3968 61.5 60.4891 61.5 58.5V39.75C63.0175 40.89 64 42.705 64 44.75V58.5C64 61.1522 62.9464 63.6957 61.0711 65.5711C59.1957 67.4464 56.6522 68.5 54 68.5H35.25Z" fill="#1B3B7B"/>
</g>
<defs>
<filter id="filter0_d_1247_1213" x="0" y="0" width="88" height="104" filterUnits="userSpaceOnUse" color-interpolation-filters="sRGB">
<feFlood flood-opacity="0" result="BackgroundImageFix"/>
<feColorMatrix in="SourceAlpha" type="matrix" values="0 0 0 0 0 0 0 0 0 0 0 0 0 0 0 0 0 0 127 0" result="hardAlpha"/>
<feOffset dy="1"/>
<feGaussianBlur stdDeviation="2"/>
<feComposite in2="hardAlpha" operator="out"/>
<feColorMatrix type="matrix" values="0 0 0 0 0 0 0 0 0 0 0 0 0 0 0 0 0 0 0.16 0"/>
<feBlend mode="normal" in2="BackgroundImageFix" result="effect1_dropShadow_1247_1213"/>
<feBlend mode="normal" in="SourceGraphic" in2="effect1_dropShadow_1247_1213" result="shape"/>
</filter>
<clipPath id="clip0_1247_1213">
<rect width="50" height="50" fill="white" transform="translate(19 26)"/>
</clipPath>
</defs>
</svg>
