<svg xmlns="http://www.w3.org/2000/svg" width="190.647" height="70.001" viewBox="0 0 190.647 70.001"><g transform="translate(-14.702 -10)"><path d="M82.006,79.882H81v-7.75H78.264v-.893h6.479v.893H82.006v7.75"/><path d="M90.33,79.882V75.691a1.7,1.7,0,0,0-.36-1.183,1.471,1.471,0,0,0-1.13-.39,1.852,1.852,0,0,0-1.492.555,2.818,2.818,0,0,0-.471,1.821v3.388H85.9v-9.2h.981v2.783a6.159,6.159,0,0,1-.047.834h.059a1.99,1.99,0,0,1,.825-.735,2.675,2.675,0,0,1,1.221-.27,2.5,2.5,0,0,1,1.782.564,2.38,2.38,0,0,1,.6,1.794v4.228H90.33"/><path d="M95.8,74.106a1.6,1.6,0,0,0-1.245.51,2.34,2.34,0,0,0-.547,1.406H97.4a2.163,2.163,0,0,0-.414-1.422,1.456,1.456,0,0,0-1.182-.494M96.064,80a2.98,2.98,0,0,1-2.268-.875,3.385,3.385,0,0,1-.831-2.429,3.759,3.759,0,0,1,.772-2.49,2.563,2.563,0,0,1,2.071-.921,2.446,2.446,0,0,1,1.928.8,3.071,3.071,0,0,1,.71,2.113v.621H93.982a2.569,2.569,0,0,0,.576,1.732,2,2,0,0,0,1.54.591,5.228,5.228,0,0,0,2.069-.437v.874a5.183,5.183,0,0,1-.984.322A5.359,5.359,0,0,1,96.064,80Z"/><path d="M107.457,79.882V75.691a1.7,1.7,0,0,0-.361-1.183,1.468,1.468,0,0,0-1.129-.39,1.859,1.859,0,0,0-1.489.549A2.773,2.773,0,0,0,104,76.482v3.4h-.981V73.4h.8l.159.887h.047a1.993,1.993,0,0,1,.846-.741,2.741,2.741,0,0,1,1.212-.264,2.465,2.465,0,0,1,1.762.564,2.4,2.4,0,0,1,.592,1.806v4.228h-.983"/><path d="M112.925,74.106a1.6,1.6,0,0,0-1.244.51,2.34,2.34,0,0,0-.547,1.406h3.388a2.157,2.157,0,0,0-.414-1.422,1.458,1.458,0,0,0-1.183-.494M113.19,80a2.981,2.981,0,0,1-2.267-.875,3.385,3.385,0,0,1-.831-2.429,3.759,3.759,0,0,1,.771-2.49,2.566,2.566,0,0,1,2.073-.921,2.447,2.447,0,0,1,1.927.8,3.071,3.071,0,0,1,.71,2.113v.621h-4.464a2.569,2.569,0,0,0,.576,1.732,2,2,0,0,0,1.54.591,5.224,5.224,0,0,0,2.069-.437v.874a5.183,5.183,0,0,1-.984.322A5.369,5.369,0,0,1,113.19,80Z"/><path d="M118.808,76.566,116.556,73.4h1.117l1.709,2.483,1.7-2.483h1.106l-2.252,3.163,2.372,3.316H121.2l-1.814-2.625-1.833,2.625h-1.111l2.37-3.316"/><path d="M125.684,79.191a3.151,3.151,0,0,0,.5-.039,3.245,3.245,0,0,0,.385-.079v.751a1.818,1.818,0,0,1-.47.127,3.608,3.608,0,0,1-.559.05q-1.881,0-1.881-1.98V74.167h-.928v-.473l.928-.408.414-1.383h.568v1.5h1.879v.763h-1.879V77.98a1.312,1.312,0,0,0,.277.9.971.971,0,0,0,.764.313"/><rect width="0.982" height="9.198" transform="translate(131.009 70.684)"/><path d="M136.543,74.106a1.6,1.6,0,0,0-1.245.51,2.339,2.339,0,0,0-.546,1.406h3.387a2.157,2.157,0,0,0-.413-1.422,1.458,1.458,0,0,0-1.183-.494M136.809,80a2.981,2.981,0,0,1-2.267-.875,3.384,3.384,0,0,1-.83-2.429,3.759,3.759,0,0,1,.771-2.49,2.566,2.566,0,0,1,2.073-.921,2.445,2.445,0,0,1,1.926.8,3.066,3.066,0,0,1,.71,2.113v.621h-4.464a2.575,2.575,0,0,0,.577,1.732,2,2,0,0,0,1.54.591,5.232,5.232,0,0,0,2.069-.437v.874a5.229,5.229,0,0,1-.984.322A5.4,5.4,0,0,1,136.809,80Z"/><path d="M142.284,79.882l-2.46-6.479h1.052l1.4,3.843a17.814,17.814,0,0,1,.556,1.75h.048a13.147,13.147,0,0,1,.41-1.3q.345-.984,1.553-4.295h1.053l-2.46,6.479h-1.148"/><path d="M149.4,74.106a1.6,1.6,0,0,0-1.245.51,2.339,2.339,0,0,0-.546,1.406H151a2.151,2.151,0,0,0-.414-1.422,1.454,1.454,0,0,0-1.182-.494M149.667,80a2.979,2.979,0,0,1-2.267-.875,3.384,3.384,0,0,1-.83-2.429,3.759,3.759,0,0,1,.771-2.49,2.566,2.566,0,0,1,2.073-.921,2.445,2.445,0,0,1,1.926.8,3.066,3.066,0,0,1,.71,2.113v.621h-4.463a2.564,2.564,0,0,0,.576,1.732,1.993,1.993,0,0,0,1.54.591,5.232,5.232,0,0,0,2.069-.437v.874a5.229,5.229,0,0,1-.984.322A5.393,5.393,0,0,1,149.667,80Z"/><rect width="0.981" height="9.198" transform="translate(153.724 70.684)"/><path d="M162.8,74.119a1.711,1.711,0,0,0-1.447.575,4.45,4.45,0,0,0,.012,3.9,1.728,1.728,0,0,0,1.46.589,1.514,1.514,0,0,0,1.348-.66,3.378,3.378,0,0,0,.443-1.894,3.256,3.256,0,0,0-.443-1.887,1.573,1.573,0,0,0-1.373-.619m.143-.823a2.408,2.408,0,0,1,1.983.872,4.668,4.668,0,0,1-.007,4.948,2.4,2.4,0,0,1-1.977.884,2.793,2.793,0,0,1-1.156-.233,2.174,2.174,0,0,1-.878-.719h-.071l-.207.834h-.7v-9.2h.981v2.233c0,.5-.017.95-.048,1.349h.048A2.334,2.334,0,0,1,162.946,73.3Z"/><path d="M169.821,74.106a1.6,1.6,0,0,0-1.245.51,2.346,2.346,0,0,0-.547,1.406h3.388A2.157,2.157,0,0,0,171,74.6a1.456,1.456,0,0,0-1.182-.494M170.087,80a2.976,2.976,0,0,1-2.267-.875,3.385,3.385,0,0,1-.831-2.429,3.759,3.759,0,0,1,.771-2.49,2.562,2.562,0,0,1,2.072-.921,2.447,2.447,0,0,1,1.927.8,3.07,3.07,0,0,1,.709,2.113v.621h-4.463a2.569,2.569,0,0,0,.576,1.732,2,2,0,0,0,1.541.591,5.223,5.223,0,0,0,2.068-.437v.874a5.183,5.183,0,0,1-.984.322A5.372,5.372,0,0,1,170.087,80Z"/><path d="M176.731,80a2.765,2.765,0,0,1-2.178-.866,3.558,3.558,0,0,1-.772-2.451,3.675,3.675,0,0,1,.784-2.512,2.815,2.815,0,0,1,2.231-.886,4.363,4.363,0,0,1,.934.1,3.062,3.062,0,0,1,.733.236l-.3.833a4.735,4.735,0,0,0-.71-.215,3.117,3.117,0,0,0-.68-.086q-1.976,0-1.975,2.519a3,3,0,0,0,.482,1.833,1.676,1.676,0,0,0,1.427.638,4.362,4.362,0,0,0,1.662-.349v.869a3.524,3.524,0,0,1-1.637.337"/><path d="M180.877,76.566a11.223,11.223,0,0,1,.773-.945l2.093-2.218h1.165l-2.625,2.761,2.808,3.719H183.9l-2.287-3.063-.738.64v2.423h-.971v-9.2h.971v4.877c0,.217-.018.552-.048,1h.047"/><path d="M186.918,76.636a3.087,3.087,0,0,0,.5,1.893,1.974,1.974,0,0,0,2.924,0,3.06,3.06,0,0,0,.5-1.9,3.013,3.013,0,0,0-.5-1.877,1.754,1.754,0,0,0-1.475-.641,1.729,1.729,0,0,0-1.455.632,3.047,3.047,0,0,0-.49,1.886m4.936,0a3.573,3.573,0,0,1-.8,2.474A2.812,2.812,0,0,1,188.85,80a2.914,2.914,0,0,1-1.542-.408,2.7,2.7,0,0,1-1.042-1.171,4.081,4.081,0,0,1-.365-1.785,3.573,3.573,0,0,1,.792-2.469,2.8,2.8,0,0,1,2.2-.883,2.743,2.743,0,0,1,2.16.9A3.55,3.55,0,0,1,191.854,76.636Z"/><path d="M198.008,79.882V75.691a1.7,1.7,0,0,0-.36-1.183,1.468,1.468,0,0,0-1.129-.39,1.861,1.861,0,0,0-1.489.549,2.773,2.773,0,0,0-.474,1.815v3.4h-.981V73.4h.8l.159.887h.047a2,2,0,0,1,.846-.741,2.738,2.738,0,0,1,1.212-.264,2.465,2.465,0,0,1,1.762.564,2.4,2.4,0,0,1,.592,1.806v4.228h-.984"/><path d="M205.186,78.115a1.628,1.628,0,0,1-.674,1.4,3.169,3.169,0,0,1-1.892.49,4.121,4.121,0,0,1-2.011-.408v-.91a4.888,4.888,0,0,0,1,.372,4.168,4.168,0,0,0,1.031.137,2.342,2.342,0,0,0,1.184-.246.844.844,0,0,0,.085-1.4,5.168,5.168,0,0,0-1.279-.635,6.916,6.916,0,0,1-1.285-.588,1.744,1.744,0,0,1-.568-.571,1.489,1.489,0,0,1-.187-.762,1.452,1.452,0,0,1,.645-1.25,2.993,2.993,0,0,1,1.768-.459,5.185,5.185,0,0,1,2.046.425l-.349.8a4.678,4.678,0,0,0-1.769-.4,2.034,2.034,0,0,0-1.052.219.675.675,0,0,0-.354.6.727.727,0,0,0,.133.443,1.3,1.3,0,0,0,.429.35,9.5,9.5,0,0,0,1.136.479,4.248,4.248,0,0,1,1.557.846,1.478,1.478,0,0,1,.4,1.067"/><path d="M92.156,52.63l-2.321-5.271L87.49,52.63h4.666M89.824,35.414l11.609,25.419H95.9l-1.719-3.782H85.47l-1.719,3.782H78.232Z"/><path d="M118.191,50.649V35.416h5.142V50.665a9.76,9.76,0,0,1-3.012,7.2,10.39,10.39,0,0,1-14.544,0,9.774,9.774,0,0,1-3.013-7.2V35.416h5.145V50.649a5.142,5.142,0,0,0,10.282,0"/><path d="M133.1,35.41l4.342,7.553L141.8,35.41h5.858l-7.283,12.7,7.283,12.727H141.8l-4.356-7.585L133.1,60.833H127.24L134.5,48.106l-7.258-12.7H133.1"/><rect width="5.109" height="25.423" transform="translate(152.131 35.41)"/><path d="M167.309,35.41V55.753H177.53v5.08H162.2V35.41h5.108"/><path d="M187.194,42.746a7.616,7.616,0,0,0,10.762,10.779,7.616,7.616,0,1,0-10.762-10.779m14.368-3.573a12.672,12.672,0,0,1,0,17.97,12.7,12.7,0,0,1-21.678-8.979,12.683,12.683,0,0,1,21.678-8.991Z"/><path d="M65.528,60.833H52.822l12.706-12.7v12.7"/><path d="M27.409,34.468l12.7,12.7v-10.8l-12.7-12.7v10.8" fill="#f37021"/><path d="M28.371,22.721l12.706,12.7,10.777-.012-12.7-12.694-10.787,0" fill="#f37021"/><path d="M15.654,35.417,28.362,48.125l10.79-.015L26.459,35.417h-10.8" fill="#f37021"/><path d="M14.7,48.154,27.409,60.813V49.071L14.7,36.369V48.154" fill="#f37021"/><path d="M52.822,10H41.056L53.764,22.708l11.764-.017L52.822,10" fill="#f37021"/><path d="M40.113,21.776l12.708,12.7V23.69l-12.708-12.7v10.79" fill="#f37021"/><path d="M202.8,36.317a2.549,2.549,0,1,1,2.551-2.549A2.553,2.553,0,0,1,202.8,36.317Zm0-4.779a2.231,2.231,0,1,0,2.231,2.23,2.233,2.233,0,0,0-2.231-2.23Z" fill="#010101"/><path d="M203.436,35.043a1.047,1.047,0,0,0-.638-.965l-.317-.137v1.1h-.318v-2.39a.158.158,0,0,1,.159-.159h.716a.718.718,0,0,1,.126,1.424,1.365,1.365,0,0,1,.591,1.125Zm-.956-1.434h.557a.4.4,0,0,0,0-.8h-.557Z" fill="#010101"/></g></svg>