<svg width="234" height="44" viewBox="0 0 234 44" fill="none" xmlns="http://www.w3.org/2000/svg">
<path d="M89.8739 35.2591C88.1612 35.2591 86.4997 34.9223 84.9347 34.2572C84.182 33.9375 83.4577 33.5407 82.7789 33.0811C82.1086 32.6244 81.4752 32.102 80.9015 31.5225C80.3278 30.9459 79.8052 30.3122 79.3507 29.6357C78.8906 28.9535 78.4986 28.2256 78.1805 27.4691C77.5187 25.8963 77.1836 24.2264 77.1836 22.5051C77.1836 20.7838 77.5187 19.1139 78.1805 17.5411C78.4986 16.7846 78.8934 16.0567 79.3507 15.3745C79.8052 14.698 80.3249 14.0643 80.9015 13.4877C81.4752 12.9111 82.1058 12.3858 82.7789 11.9291C83.4577 11.4695 84.182 11.0727 84.9347 10.753C86.4997 10.0879 88.1612 9.7511 89.8739 9.7511C91.5866 9.7511 93.2482 10.0879 94.8131 10.753C95.563 11.0727 96.2901 11.4667 96.9689 11.9291C97.6392 12.3858 98.2726 12.9082 98.8463 13.4877C98.8861 13.5248 98.9287 13.5704 98.9742 13.6161L95.0375 17.4612C95.0148 17.4355 94.9892 17.4126 94.9665 17.3869C94.3076 16.7247 93.5379 16.2023 92.6801 15.8369C91.7939 15.4601 90.851 15.2689 89.8796 15.2689C88.9082 15.2689 87.9653 15.4601 87.0791 15.8369C86.2213 16.2023 85.4516 16.7218 84.7927 17.3869C84.1309 18.0492 83.614 18.8228 83.2504 19.6848C82.8755 20.5783 82.6852 21.5231 82.6852 22.4994C82.6852 23.4756 82.8755 24.4233 83.2504 25.314C83.614 26.1732 84.1309 26.9467 84.7927 27.6118C85.4545 28.277 86.2242 28.7965 87.0791 29.1619C87.9653 29.5387 88.9082 29.7299 89.8796 29.7299C90.851 29.7299 91.7939 29.5387 92.6801 29.1619C93.5379 28.7965 94.3076 28.277 94.9665 27.6118C94.9921 27.5862 95.0148 27.5633 95.0375 27.5376L98.977 31.3827C98.9287 31.4312 98.8889 31.474 98.8492 31.5111C98.2754 32.0877 97.6449 32.6101 96.9718 33.0697C96.2929 33.5293 95.5687 33.9261 94.816 34.2458C93.251 34.9109 91.5894 35.2477 89.8768 35.2477L89.8739 35.2591Z" fill="#562AD0"/>
<path d="M112.707 20.6783C114.147 20.6783 115.766 19.1853 115.754 17.4755C115.74 15.7571 114.178 14.424 112.707 14.4126H107.52V20.6783H112.707ZM101.996 9.80252H113.505C117.831 9.7911 121.02 13.0395 121.094 16.6362C121.148 20.0845 120.961 21.783 117.336 24.5575C121.1 35.2135 121.29 35.2106 121.29 35.2106C121.29 35.2106 120.603 35.2249 115.544 35.2106C115.439 35.2106 115.078 35.2106 115.078 35.2106L111.679 24.883H107.671V34.5198C107.665 34.7139 107.671 35.2106 107.671 35.2106C107.671 35.2106 107.165 35.2049 106.984 35.2106H101.996V9.80252Z" fill="#562AD0"/>
<path d="M124.389 9.84814H140.658V15.1633H130.004V19.0768C138.371 19.0825 138.894 19.0768 138.894 19.0768V24.3919H130.004V29.8469H140.658V35.1649H124.389V9.84814Z" fill="#562AD0"/>
<path d="M152.849 29.9896C156.816 29.9896 159.696 26.8468 159.696 22.8219C159.696 18.797 156.822 15.6942 152.849 15.6942H149.494V29.9868H152.849V29.9896ZM144.004 10.6645C144.004 10.5104 144.004 9.97656 144.004 9.97656C144.004 9.97656 144.438 9.98513 144.649 9.97656H153.4C160.324 9.97656 165.988 15.6371 165.988 22.5564C165.979 29.5415 160.347 35.1991 153.4 35.2077H144.649C144.492 35.202 144.004 35.2077 144.004 35.2077C144.004 35.2077 144.004 34.731 144.004 34.5226V10.6645Z" fill="#562AD0"/>
<path d="M224.884 35.2563C223.171 35.2563 221.509 34.9195 219.944 34.2544C219.192 33.9347 218.468 33.5379 217.789 33.0783C217.118 32.6216 216.485 32.0992 215.911 31.5197C215.338 30.9431 214.815 30.3094 214.36 29.6329C213.9 28.9507 213.508 28.2228 213.19 27.4663C212.529 25.8935 212.193 24.2236 212.193 22.5023C212.193 20.781 212.529 19.1111 213.19 17.5383C213.508 16.7818 213.903 16.0539 214.36 15.3717C214.815 14.6952 215.335 14.0615 215.911 13.4849C216.485 12.9082 217.116 12.383 217.789 11.9263C218.468 11.4667 219.192 11.0699 219.944 10.7502C221.509 10.0851 223.171 9.74829 224.884 9.74829C226.596 9.74829 228.258 10.0851 229.823 10.7502C230.573 11.0699 231.3 11.4639 231.979 11.9263C232.649 12.383 233.282 12.9054 233.856 13.4849C233.896 13.522 233.938 13.5676 233.984 13.6133L230.047 17.4584C230.025 17.4327 229.999 17.4098 229.976 17.3841C229.317 16.7219 228.548 16.1995 227.69 15.8341C226.804 15.4573 225.861 15.2661 224.889 15.2661C223.918 15.2661 222.975 15.4573 222.089 15.8341C221.231 16.1995 220.461 16.719 219.802 17.3841C219.144 18.0464 218.624 18.82 218.26 19.682C217.885 20.5755 217.695 21.5203 217.695 22.4966C217.695 23.4728 217.885 24.4205 218.26 25.3111C218.624 26.1704 219.141 26.9439 219.802 27.609C220.464 28.2741 221.234 28.7937 222.089 29.159C222.975 29.5358 223.918 29.7271 224.889 29.7271C225.861 29.7271 226.804 29.5358 227.69 29.159C228.548 28.7937 229.317 28.2741 229.976 27.609C230.002 27.5833 230.025 27.5605 230.047 27.5348L233.987 31.3799C233.938 31.4284 233.899 31.4712 233.859 31.5083C233.285 32.0849 232.655 32.6073 231.982 33.0669C231.303 33.5265 230.578 33.9232 229.826 34.243C228.261 34.9081 226.599 35.2449 224.887 35.2449L224.884 35.2563Z" fill="#562AD0"/>
<path d="M168.611 9.84814H184.88V15.1633H174.227V19.0768C182.594 19.0825 183.117 19.0768 183.117 19.0768V24.3919H174.227V29.8469H184.88V35.1649H168.611V9.84814Z" fill="#562AD0"/>
<path d="M193.672 20.2272V35.1135H187.988V9.80249H193.672L203.706 24.9714V9.80249H209.387V35.1135H203.797L193.672 20.2272Z" fill="#562AD0"/>
<path d="M21.975 43.9797C21.6086 43.9711 21.2393 43.954 20.8729 43.9283C20.5122 43.9026 20.1458 43.8655 19.7879 43.8227C19.4301 43.7799 19.0722 43.7256 18.72 43.6628C18.3707 43.6 18.0156 43.5315 17.6691 43.4516C17.3254 43.3717 16.9789 43.286 16.6381 43.189C16.3001 43.0948 15.9621 42.9892 15.627 42.8778C15.2975 42.7665 14.9652 42.6466 14.6385 42.5182C14.3147 42.3926 13.991 42.2555 13.6757 42.1128C13.3604 41.9701 13.0451 41.8188 12.7356 41.6618C12.4288 41.5048 12.1221 41.3649 11.821 41.1937C11.5228 41.0224 11.2103 40.8683 10.9206 40.6827C10.6309 40.4972 10.344 40.3031 10.0629 40.1061C9.78452 39.9091 9.50617 39.7007 9.23634 39.4895C8.96652 39.2783 8.69953 39.0585 8.44107 38.833C8.1826 38.6103 7.92414 38.3763 7.67703 38.1393C7.42993 37.9024 7.18567 37.6569 6.94708 37.4114C6.71134 37.1631 6.47844 36.9062 6.25406 36.6493C6.02968 36.3895 5.80814 36.124 5.59796 35.8529C5.38494 35.5845 5.1776 35.3048 4.97878 35.0279C4.77996 34.7482 4.58398 34.4598 4.39936 34.1715C4.21474 33.8832 4.03297 33.5835 3.85971 33.2866C3.68645 32.9869 3.52172 32.6815 3.36266 32.376C3.20361 32.0678 3.05307 31.7538 2.90822 31.4369C2.76621 31.1201 2.62703 30.7975 2.49922 30.4749C2.37141 30.1524 2.24928 29.8184 2.13567 29.4901C2.02205 29.159 1.91696 28.8193 1.8204 28.4825C1.72383 28.1428 1.63294 27.7974 1.55341 27.4548C1.47388 27.1094 1.40004 26.7583 1.33755 26.4072C1.27222 26.0561 1.21826 25.6993 1.16997 25.3425C1.12453 24.9857 1.08476 24.6232 1.05636 24.2635C1.02796 23.901 1.00808 23.5327 0.996717 23.1674C0.985355 22.802 0.985355 22.428 0.991036 22.0598C0.999557 21.6916 1.0166 21.3205 1.04216 20.9522C1.06772 20.5897 1.10465 20.2215 1.14725 19.8618C1.1927 19.505 1.24382 19.1425 1.30631 18.7885C1.36595 18.4374 1.43696 18.0806 1.51649 17.7323C1.59317 17.3869 1.68122 17.0387 1.77779 16.6962C1.87152 16.3565 1.97661 16.0139 2.08738 15.6799C2.19815 15.346 2.31744 15.012 2.44525 14.6866C2.57023 14.3612 2.70656 14.0357 2.84857 13.7189C2.99059 13.402 3.14112 13.0852 3.29734 12.774C3.45355 12.4657 3.61829 12.1575 3.7887 11.8577C3.95912 11.558 4.13806 11.2583 4.32267 10.9671C4.50729 10.676 4.70043 10.3877 4.89925 10.1051C5.09523 9.82531 5.30257 9.54557 5.51275 9.27439C5.72293 9.00321 5.94163 8.73489 6.16601 8.47513C6.38755 8.21536 6.62045 7.9556 6.8562 7.70726C7.09194 7.45892 7.3362 7.21343 7.58047 6.97365C7.82757 6.73672 8.08319 6.50265 8.33882 6.27714C8.59728 6.05164 8.86143 5.82898 9.13125 5.61775C9.39824 5.40366 9.67658 5.19528 9.95493 4.99546C10.2333 4.79565 10.5201 4.59868 10.807 4.41314C11.0939 4.2276 11.3921 4.04491 11.6875 3.87078C11.9857 3.69665 12.2896 3.53109 12.5964 3.37124C12.9031 3.21139 13.2156 3.0601 13.5308 2.91451C13.8461 2.77179 14.1671 2.63192 14.488 2.50346C14.8118 2.37501 15.1413 2.25227 15.4679 2.13808C15.7974 2.0239 16.1354 1.91829 16.4705 1.82123C16.8085 1.72418 17.1522 1.63283 17.493 1.55291C17.8367 1.47298 18.186 1.39876 18.5325 1.33596C18.8819 1.27031 19.2398 1.21607 19.592 1.1704C19.947 1.12473 20.3077 1.08477 20.6656 1.05622C21.0263 1.02768 21.3927 1.00769 21.7534 0.996275C22.1198 0.984857 22.489 0.984857 22.8554 0.990566C23.3695 1.00198 23.8865 1.03053 24.3977 1.07906C24.9004 1.12473 25.4088 1.19038 25.9059 1.27316C26.3973 1.35595 26.8943 1.45585 27.38 1.57003C27.86 1.68422 28.3343 1.79554 28.8058 1.94398C30.6946 2.56055 32.0948 3.35982 33.106 3.93643C33.4809 4.15052 33.9467 4.41599 34.1086 4.46452L34.279 4.51876C36.7784 5.44933 39.0933 4.41314 41.3314 3.4112C41.8682 3.17142 42.3937 2.93735 42.9078 2.73753C45.3362 1.68422 47.9975 1.08191 50.7923 1.03338C50.8207 1.03338 50.8492 1.03338 50.8776 1.03338C50.8804 1.03338 50.8832 1.03338 50.8889 1.03338C50.9429 1.03338 50.9997 1.03338 51.0537 1.03338C51.0593 1.03338 51.0622 1.03338 51.0679 1.03338C51.0963 1.03338 51.1218 1.03338 51.1502 1.03338C51.1758 1.03338 51.2013 1.03338 51.2298 1.03338C51.2354 1.03338 51.2411 1.03338 51.2468 1.03338C51.2724 1.03338 51.2979 1.03338 51.3235 1.03338C51.3292 1.03338 51.3348 1.03338 51.3405 1.03338C51.3632 1.03338 51.386 1.03338 51.4087 1.03338C51.4144 1.03338 51.4172 1.03338 51.4229 1.03338C51.4484 1.03338 51.4769 1.03338 51.5024 1.03338H51.5195C51.5479 1.03338 51.5734 1.03338 51.599 1.03338C51.6274 1.03338 51.6558 1.03338 51.687 1.03338H51.7098C51.7382 1.03338 51.7666 1.03338 51.7978 1.03624H51.8035C51.8319 1.03624 51.8575 1.03624 51.8859 1.03909C51.8915 1.03909 51.9001 1.03909 51.9057 1.03909C51.9341 1.03909 51.9654 1.03909 51.9938 1.04195H52.0023C52.0307 1.04195 52.0563 1.04195 52.0847 1.0448C52.0904 1.0448 52.096 1.0448 52.1017 1.0448C52.1301 1.0448 52.1614 1.0448 52.1898 1.05051H52.2011C52.2267 1.05051 52.2522 1.05337 52.2807 1.05622C52.2863 1.05622 52.292 1.05622 52.2977 1.05622C52.3261 1.05622 52.3545 1.05907 52.3857 1.06193C52.3914 1.06193 52.3943 1.06193 52.3999 1.06193C52.4255 1.06193 52.4511 1.06193 52.4766 1.06764C52.4823 1.06764 52.488 1.06764 52.4937 1.06764C52.5221 1.06764 52.5505 1.07049 52.5817 1.07335C52.5874 1.07335 52.5902 1.07335 52.5959 1.07335C52.6243 1.07335 52.6499 1.0762 52.6783 1.07906C52.6811 1.07906 52.6868 1.07906 52.6897 1.07906C52.7181 1.07906 52.7493 1.08477 52.7777 1.08477C52.7834 1.08477 52.7891 1.08477 52.7947 1.08477C52.8203 1.08477 52.8487 1.08762 52.8743 1.09047C52.8743 1.09047 52.8799 1.09047 52.8828 1.09047C52.9112 1.09047 52.9424 1.09618 52.9708 1.09618H52.985C53.0134 1.09904 53.0418 1.10189 53.0702 1.10475H53.0759C53.1043 1.1076 53.1356 1.11046 53.164 1.11331H53.181C53.2094 1.11617 53.2378 1.12187 53.2662 1.12187C53.2946 1.12187 53.3259 1.12758 53.3571 1.13044C53.3628 1.13044 53.3656 1.13044 53.3713 1.13044C53.431 1.13615 53.4906 1.14186 53.5503 1.15042H53.5645C53.6241 1.15898 53.6837 1.16469 53.7405 1.17326H53.7548C53.8144 1.18182 53.8712 1.19038 53.9308 1.19609C53.9365 1.19609 53.9422 1.19609 53.9479 1.19609C53.9763 1.19895 54.0075 1.20466 54.0359 1.20751H54.0388C54.0672 1.21036 54.0956 1.21607 54.124 1.21893C54.1297 1.21893 54.1325 1.21893 54.1382 1.21893C54.1666 1.22178 54.195 1.22749 54.2234 1.23035H54.2319C54.2575 1.23606 54.283 1.23891 54.3114 1.24462C54.3171 1.24462 54.3228 1.24462 54.3285 1.24462C54.3569 1.25033 54.3853 1.25318 54.4137 1.25889H54.4251C54.4506 1.2646 54.4762 1.26746 54.5017 1.27316C54.5074 1.27316 54.5131 1.27316 54.5188 1.27602C54.5472 1.28173 54.5756 1.28458 54.604 1.29029C54.6097 1.29029 54.6125 1.29029 54.6182 1.29029C54.6438 1.29315 54.6693 1.29885 54.6949 1.30171C54.7006 1.30171 54.7034 1.30171 54.7091 1.30171C54.7375 1.30742 54.763 1.31027 54.7914 1.31598C54.7971 1.31598 54.8028 1.31598 54.8085 1.31884C54.8312 1.32455 54.8568 1.3274 54.8795 1.33311C54.8852 1.33311 54.8909 1.33311 54.8937 1.33596C54.9193 1.34167 54.9477 1.34453 54.9761 1.35024C54.9817 1.35024 54.9903 1.35024 54.9959 1.35309C55.0187 1.35595 55.0414 1.36165 55.0641 1.36736C55.0698 1.36736 55.0755 1.36736 55.0812 1.37022C55.1067 1.37593 55.1351 1.38164 55.1607 1.38449C55.1692 1.38449 55.1749 1.38735 55.1834 1.3902C55.2061 1.39591 55.2288 1.39876 55.2516 1.40447C55.2573 1.40447 55.2629 1.40447 55.2658 1.40733C55.2913 1.41304 55.3169 1.41874 55.3425 1.42445C55.351 1.42445 55.3595 1.42731 55.3709 1.43016C55.3907 1.43587 55.4135 1.43873 55.4333 1.44444C55.4447 1.44444 55.4532 1.44729 55.4646 1.45014C55.4845 1.45585 55.5072 1.45871 55.5271 1.46442C55.5384 1.46442 55.547 1.47013 55.5583 1.47013C55.5782 1.47584 55.6009 1.47869 55.6208 1.4844L55.6521 1.49296C55.6719 1.49582 55.689 1.50153 55.7089 1.50438C55.7202 1.50438 55.7316 1.51009 55.7429 1.51294C55.7628 1.51865 55.7799 1.52151 55.7997 1.52436C55.8139 1.52722 55.831 1.53007 55.8452 1.53578C55.8594 1.53863 55.8736 1.54149 55.8906 1.54434C55.9048 1.5472 55.9162 1.55005 55.9304 1.55291C55.9446 1.55576 55.9588 1.55862 55.973 1.56433C55.9957 1.57003 56.0156 1.57289 56.0383 1.5786C56.0497 1.58145 56.0611 1.58431 56.0696 1.58716C56.0838 1.59002 56.1008 1.59573 56.115 1.59858C56.1235 1.59858 56.1321 1.60429 56.1406 1.60429C56.169 1.61285 56.1974 1.61856 56.2286 1.62713C56.2371 1.62713 56.2428 1.62998 56.2513 1.63283C56.3053 1.64711 56.3593 1.66138 56.4161 1.67565C56.4218 1.67565 56.4246 1.67565 56.4303 1.67851C56.4871 1.69278 56.5439 1.70705 56.6007 1.72418H56.6064C58.9013 2.34646 61.0372 3.3484 62.943 4.65863C63.9542 5.35228 64.9 6.13442 65.7691 6.99363C65.948 7.17061 66.4451 7.75293 66.2576 7.99557C66.1554 8.12973 65.8344 8.15256 65.5589 8.14686C65.3431 8.14115 65.1528 8.11831 65.113 8.11546C63.5565 7.92991 62.0057 7.43893 60.5004 6.65394C59.3756 6.08304 58.2083 5.48929 57.0466 4.99832C55.1749 4.21332 53.2492 3.87078 51.3263 3.97925C49.4773 4.12198 47.6425 4.57585 45.856 5.33515C45.7736 5.36655 45.6912 5.39795 45.606 5.42935C44.6716 5.81471 43.4133 6.33994 42.7771 6.62539C40.9764 7.43037 38.69 8.45229 36.0968 8.39805C35.1481 8.37807 34.1597 8.21536 33.1401 7.84428C32.5919 7.68442 32.0522 7.37613 31.3791 6.99363C31.1178 6.84519 30.8309 6.68249 30.5213 6.51407C30.2316 6.36563 29.922 6.19722 29.6266 6.06591C29.3284 5.93175 29.0217 5.80615 28.7149 5.69197C28.4082 5.57493 28.0929 5.46646 27.7805 5.36655C27.4652 5.26664 27.1414 5.1753 26.8233 5.09252C26.4995 5.00973 26.17 4.93552 25.8434 4.86986C25.5139 4.80421 25.1788 4.74997 24.8436 4.7043C24.5085 4.65863 24.1648 4.62152 23.8268 4.59583C23.486 4.57014 23.1366 4.55301 22.793 4.54445C12.9514 4.33607 4.77428 12.2174 4.56978 22.1083C4.36812 31.8251 12.3294 40.029 23.1736 40.4201V40.4144C27.2465 40.5543 31.6887 39.7978 35.5685 38.1907L37.2528 37.5313C38.4656 37.0518 39.4994 36.6293 40.414 36.2553C43.1634 35.1307 46.3218 34.0745 48.824 33.5064C49.287 33.3837 49.7556 33.2724 50.1135 33.2181C50.6333 33.1382 52.1443 32.8956 53.0873 32.907C53.1924 32.907 53.2889 32.9127 53.3798 32.9213C53.5162 32.9213 53.6525 32.9213 53.7945 32.9298C55.0158 32.9926 56.1775 33.3637 56.2968 33.4037C57.3193 33.7576 58.3389 34.2115 59.3416 34.7596C60.6055 35.419 61.8836 36.0156 63.1873 36.4837C63.6389 36.6493 64.0933 36.7834 64.562 36.8833C64.7296 36.9176 65.0647 37.0032 65.1471 37.1859C65.238 37.3829 65.0391 37.6969 64.8744 37.8396C64.2382 38.3991 63.5565 38.9272 62.8351 39.4153C62.7158 39.4981 62.446 39.6437 62.0711 39.6522C61.7558 39.6579 61.3383 39.5352 61.1849 39.4581C61.0855 39.4096 60.9747 39.3554 60.8668 39.2954C59.742 38.7245 58.5747 38.1308 57.413 37.6398C55.5413 36.8548 53.6156 36.5122 51.6927 36.6207C50.5594 36.7092 48.3014 37.2573 48.3014 37.2573C48.2588 37.2716 48.2191 37.2801 48.1793 37.2915C48.1452 37.3001 48.114 37.3058 48.0799 37.3144C45.9667 37.8082 44.3535 38.4676 41.7404 39.5352C40.4225 40.0747 38.8604 40.7113 36.8779 41.4763C32.9356 43.1091 28.1497 43.954 23.9234 43.9825C23.8013 43.9882 23.5541 43.9882 23.273 43.9825C22.7617 43.9711 22.1425 43.9483 21.9863 43.9454L21.975 43.9797Z" fill="#562AD0"/>
<path d="M34.6599 14.8178C34.018 14.6494 33.379 14.4496 32.7342 14.2155C32.5894 14.1642 32.2741 14.03 32.1719 13.7788C32.0923 13.5932 32.2003 13.2964 32.2912 13.1108C32.5979 12.4828 33.0808 11.5694 33.3421 11.1327C33.396 11.0413 33.5636 10.8757 33.8221 10.8072C34.0606 10.7444 34.393 10.7815 34.535 10.8215C36.1397 11.2497 37.7274 11.2411 39.3123 10.7102C40.7978 10.2363 42.269 9.66543 43.7374 9.1145C45.2826 8.52076 46.6658 8.06404 48.1626 7.54737C48.3643 7.47886 49.7787 7.07067 51.4573 7.05354C51.8947 7.05068 53.3177 7.02499 54.7549 7.31615C56.6238 7.69295 58.5353 8.58642 58.9812 8.82905C60.2451 9.48845 61.7789 10.0594 63.0825 10.5275C64.764 11.1469 66.3318 11.1897 68.0019 10.8215C68.1127 10.7958 68.3768 10.7616 68.6012 10.8329C68.7972 10.8957 68.9534 11.0641 69.0073 11.1526C69.3993 11.8035 69.76 12.4828 70.0923 13.1965C70.1264 13.2735 70.1861 13.422 70.1179 13.5704C70.0753 13.6646 69.9134 13.7702 69.8452 13.7959C69.2686 14.0072 68.6807 14.2184 68.0928 14.4353C67.2918 14.7008 66.4681 14.7979 65.6501 14.7265C63.9233 14.5866 62.2134 14.0785 60.5604 13.2165C59.4356 12.6455 58.2654 12.0518 57.1066 11.5608C55.2349 10.7758 53.3092 10.4333 51.3863 10.5418C49.5373 10.6845 47.7025 11.1384 45.9159 11.8977C43.4591 12.8739 40.9909 13.7731 38.5199 14.6466C37.7388 14.9092 36.9435 15.0319 36.1482 15.0148C35.6512 15.0034 35.1541 14.9406 34.6599 14.8207V14.8178ZM34.7338 21.349C33.5295 21.0321 32.3338 20.604 31.1494 20.0616C31.0272 20.0045 30.7631 19.8447 30.6239 19.5678C30.5075 19.3337 30.5103 18.9854 30.533 18.8399C30.6296 18.2119 30.7546 17.5753 30.9108 16.9473C30.9363 16.8388 31.0414 16.5848 31.2261 16.4877C31.4362 16.3793 31.7458 16.4449 31.8964 16.502C32.774 16.8331 33.6687 17.1329 34.5662 17.3955C36.171 17.8237 37.807 17.7694 39.3918 17.2385C40.8773 16.7646 42.3486 16.1937 43.8198 15.6428C45.4388 15.0205 46.9526 14.5695 48.5546 14.0271C48.813 13.9386 50.645 13.4734 51.3323 13.4049C52.0452 13.3335 54.1499 13.0166 56.7573 14.0985C57.527 14.384 59.6202 15.4687 59.8872 15.6028C60.8898 16.0995 61.9152 16.5562 62.9576 16.9302C64.9912 17.6809 66.9339 18.032 69.1238 17.0701C69.6095 16.9045 70.0952 16.7332 70.5951 16.5534C70.703 16.5134 70.9728 16.4192 71.1603 16.4992C71.308 16.562 71.379 16.7903 71.4017 16.8874C71.5835 17.6153 71.7312 18.366 71.8391 19.1453C71.8505 19.2195 71.8675 19.3993 71.7681 19.5506C71.6914 19.6677 71.4954 19.7533 71.4159 19.7847C70.3707 20.1872 69.3936 20.6068 68.1723 20.9636C67.3713 21.2291 66.5477 21.3262 65.7297 21.2548C64.0028 21.1149 62.2929 20.6068 60.6399 19.7447C59.5152 19.1738 58.3478 18.5801 57.1861 18.0891C55.3144 17.3041 53.3887 16.9616 51.4658 17.0701C49.6168 17.2128 47.782 17.6667 45.9983 18.426C43.5415 19.4022 41.0733 20.3014 38.5994 21.1749C37.8212 21.4375 37.023 21.5602 36.2278 21.5431C35.7307 21.5317 35.2337 21.4689 34.7395 21.349H34.7338ZM34.8076 27.8773C33.6573 27.5776 32.5184 27.1722 31.3851 26.6641C31.2743 26.6156 30.9903 26.4786 30.8142 26.2531C30.6694 26.0675 30.6239 25.7935 30.604 25.6793C30.4791 24.9685 30.391 24.2292 30.3399 23.467C30.3399 23.4271 30.3342 23.0617 30.4478 22.9047C30.6211 22.6706 30.996 22.6307 31.3311 22.7563C32.3565 23.1445 33.8902 23.704 34.6401 23.9238C36.2448 24.3491 37.8808 24.2977 39.4628 23.7668C40.9483 23.2929 42.4196 22.722 43.888 22.1711C45.2826 21.6373 46.6686 21.1006 48.0745 20.5811C48.3472 20.4812 50.9801 19.6505 53.5534 19.9988C55.6865 20.2871 58.5722 21.5888 59.1289 21.8942C60.3928 22.5536 61.7249 22.9875 63.0286 23.4556C65.0622 24.2064 67.164 24.252 69.1948 23.5955C69.9333 23.3472 70.6689 23.0817 71.4131 22.8048C71.4983 22.7734 71.6886 22.7534 71.8107 22.8134C71.9442 22.879 72.0038 23.0446 71.9981 23.1588C71.9527 24.0265 71.8533 24.8886 71.7028 25.7478C71.6886 25.8306 71.646 26.0618 71.521 26.2159C71.4159 26.3444 71.1745 26.4586 71.0978 26.4871C70.8762 26.5671 70.152 26.9496 69.3283 27.1979C68.3086 27.5062 67.1526 27.6803 66.8885 27.6946C66.4539 27.7146 65.9967 27.6946 65.5905 27.6603C63.8636 27.5205 62.3611 27.1323 60.7081 26.2702C59.5833 25.6993 58.416 25.1055 57.2543 24.6146C55.3826 23.8296 53.4569 23.487 51.534 23.5955C49.685 23.7382 47.8502 24.1921 46.0665 24.9514C43.6096 25.9276 41.1414 26.8268 38.6704 27.7003C37.8893 27.9629 37.0941 28.0828 36.2988 28.0685C35.8017 28.0571 35.3047 27.9915 34.8105 27.8744L34.8076 27.8773ZM34.8815 34.4084C34.7565 34.3742 34.4526 34.3142 34.2027 34.1401C33.9783 33.9831 33.805 33.7119 33.7369 33.6092C33.1376 32.6957 32.5979 31.7223 32.1378 30.6947C32.0639 30.5291 32.0583 30.2094 32.152 30.0382C32.277 29.8069 32.578 29.7613 32.8308 29.8498C33.4471 30.0667 34.0777 30.2694 34.7111 30.4549C36.3158 30.8831 37.9518 30.8289 39.5367 30.3008C41.0222 29.8241 42.4934 29.256 43.9618 28.7051C45.8591 27.9772 47.711 27.4148 49.6083 26.7412C51.0426 26.2588 52.9342 26.1874 54.397 26.4871C56.1778 26.8639 57.5497 27.3321 59.2539 28.2655C60.5178 28.9249 61.7959 29.5215 63.0996 29.9896C65.1332 30.7404 67.235 30.786 69.2658 30.1295C69.4987 30.0496 69.9645 29.9497 70.1378 30.1466C70.2798 30.3093 70.1463 30.7575 70.0497 30.9659C69.6578 31.8051 69.2062 32.6215 68.7006 33.4122C68.6353 33.5121 68.4847 33.7919 68.2092 33.9745C67.9536 34.143 67.5758 34.2172 67.4253 34.2429C66.9197 34.3314 66.3943 34.3542 65.8717 34.3114C64.1448 34.1715 62.435 33.6634 60.7819 32.8013C59.6572 32.2304 58.487 31.6367 57.3281 31.1457C55.4564 30.3607 53.5307 30.0182 51.6078 30.1266C49.756 30.2694 47.924 30.7232 46.1375 31.4825C43.6806 32.4588 41.2124 33.358 38.7414 34.2314C37.9603 34.4941 37.1651 34.614 36.3698 34.5997C35.8727 34.5883 35.3757 34.5226 34.8815 34.4056V34.4084ZM44.2828 42.4896C44.2828 42.4896 44.1152 42.4039 44.084 42.3897C43.7034 42.2013 43.5727 41.6789 44.1095 41.4106C45.5552 40.9082 47.4497 40.2088 48.8613 39.7064C50.7984 39.0556 52.7922 38.93 54.7662 39.3353C56.1778 39.6351 57.6974 40.2088 59.2311 40.8311C59.2908 40.8568 60.1059 41.3135 59.2311 41.8816C58.5296 42.2983 55.2803 43.8341 51.7044 43.9197C51.5113 43.9254 51.3125 43.9254 51.1165 43.9197C48.4267 43.8626 45.6149 43.0177 44.2828 42.4924V42.4896Z" fill="url(#paint0_linear_339_309)"/>
<defs>
<linearGradient id="paint0_linear_339_309" x1="30.2461" y1="25.5394" x2="71.9988" y2="23.8437" gradientUnits="userSpaceOnUse">
<stop stop-color="#562AD0"/>
<stop offset="1" stop-color="#77BFEF"/>
</linearGradient>
</defs>
</svg>
