<svg width="129" height="25" viewBox="0 0 129 25" fill="none" xmlns="http://www.w3.org/2000/svg">
<path d="M48.8372 19.3361C47.8962 19.3361 46.9834 19.151 46.1236 18.7856C45.7101 18.61 45.3122 18.392 44.9392 18.1395C44.571 17.8886 44.223 17.6016 43.9078 17.2833C43.5926 16.9665 43.3055 16.6183 43.0558 16.2466C42.803 15.8718 42.5877 15.4719 42.4129 15.0564C42.0494 14.1923 41.8652 13.2748 41.8652 12.3292C41.8652 11.3835 42.0494 10.4661 42.4129 9.602C42.5877 9.18642 42.8046 8.78652 43.0558 8.41171C43.3055 8.04003 43.5911 7.69188 43.9078 7.3751C44.223 7.05831 44.5694 6.76975 44.9392 6.51884C45.3122 6.26635 45.7101 6.04836 46.1236 5.87272C46.9834 5.50732 47.8962 5.32227 48.8372 5.32227C49.7781 5.32227 50.6909 5.50732 51.5507 5.87272C51.9627 6.04836 52.3621 6.26478 52.7351 6.51884C53.1033 6.76975 53.4513 7.05674 53.7665 7.3751C53.7884 7.39548 53.8118 7.42058 53.8367 7.44567L51.674 9.55809C51.6615 9.54398 51.6475 9.53143 51.635 9.51732C51.273 9.15348 50.8501 8.8665 50.3788 8.66576C49.892 8.45875 49.3739 8.35368 48.8403 8.35368C48.3066 8.35368 47.7886 8.45875 47.3017 8.66576C46.8305 8.8665 46.4076 9.15192 46.0456 9.51732C45.682 9.88115 45.398 10.3061 45.1983 10.7798C44.9923 11.2706 44.8878 11.7897 44.8878 12.326C44.8878 12.8624 44.9923 13.383 45.1983 13.8723C45.398 14.3444 45.682 14.7694 46.0456 15.1348C46.4092 15.5002 46.832 15.7856 47.3017 15.9863C47.7886 16.1933 48.3066 16.2984 48.8403 16.2984C49.3739 16.2984 49.892 16.1933 50.3788 15.9863C50.8501 15.7856 51.273 15.5002 51.635 15.1348C51.649 15.1207 51.6615 15.1081 51.674 15.094L53.8383 17.2064C53.8118 17.2331 53.7899 17.2566 53.7681 17.277C53.4529 17.5938 53.1065 17.8808 52.7366 18.1332C52.3637 18.3857 51.9658 18.6037 51.5523 18.7794C50.6925 19.1448 49.7797 19.3298 48.8387 19.3298L48.8372 19.3361Z" fill="#562AD0"/>
<path d="M61.3814 11.3246C62.1725 11.3246 63.062 10.5044 63.0557 9.56506C63.0479 8.62098 62.1897 7.88861 61.3814 7.88234H58.5321V11.3246H61.3814ZM55.4971 5.34963H61.8199C64.1964 5.34335 65.9487 7.12801 65.9893 9.104C66.0189 10.9984 65.916 11.9315 63.9249 13.4559C65.9924 19.3101 66.097 19.3086 66.097 19.3086C66.097 19.3086 65.7193 19.3164 62.9402 19.3086C62.8825 19.3086 62.6843 19.3086 62.6843 19.3086L60.8165 13.6347H58.6148V18.929C58.6117 19.0357 58.6148 19.3086 58.6148 19.3086C58.6148 19.3086 58.337 19.3054 58.2372 19.3086H55.4971V5.34963Z" fill="#562AD0"/>
<path d="M67.7988 5.375H76.7369V8.29507H70.8838V10.4451C75.4807 10.4483 75.7679 10.4451 75.7679 10.4451V13.3652H70.8838V16.3621H76.7369V19.2838H67.7988V5.375Z" fill="#562AD0"/>
<path d="M83.4343 16.4403C85.6142 16.4403 87.1965 14.7136 87.1965 12.5024C87.1965 10.2912 85.6173 8.5865 83.4343 8.5865H81.5915V16.4387H83.4343V16.4403ZM78.5752 5.82326C78.5752 5.73857 78.5752 5.44531 78.5752 5.44531C78.5752 5.44531 78.8139 5.45002 78.9294 5.44531H83.737C87.5413 5.44531 90.6528 8.55514 90.6528 12.3566C90.6481 16.1941 87.5538 19.3023 83.737 19.307H78.9294C78.8436 19.3039 78.5752 19.307 78.5752 19.307C78.5752 19.307 78.5752 19.0451 78.5752 18.9306V5.82326Z" fill="#562AD0"/>
<path d="M123.01 19.3341C122.069 19.3341 121.156 19.1491 120.296 18.7837C119.883 18.608 119.485 18.3901 119.112 18.1376C118.744 17.8866 118.396 17.5997 118.081 17.2813C117.765 16.9645 117.478 16.6164 117.229 16.2447C116.976 15.8699 116.761 15.47 116.586 15.0544C116.222 14.1903 116.038 13.2729 116.038 12.3272C116.038 11.3816 116.222 10.4642 116.586 9.60005C116.761 9.18446 116.977 8.78456 117.229 8.40975C117.478 8.03808 117.764 7.68993 118.081 7.37314C118.396 7.05636 118.742 6.7678 119.112 6.51688C119.485 6.2644 119.883 6.04641 120.296 5.87077C121.156 5.50536 122.069 5.32031 123.01 5.32031C123.951 5.32031 124.864 5.50536 125.724 5.87077C126.136 6.04641 126.535 6.26283 126.908 6.51688C127.276 6.7678 127.624 7.05479 127.939 7.37314C127.961 7.39353 127.985 7.41862 128.01 7.44371L125.847 9.55614C125.834 9.54202 125.82 9.52948 125.808 9.51536C125.446 9.15153 125.023 8.86454 124.552 8.66381C124.065 8.4568 123.547 8.35173 123.013 8.35173C122.48 8.35173 121.961 8.4568 121.475 8.66381C121.003 8.86454 120.58 9.14996 120.218 9.51536C119.856 9.8792 119.571 10.3042 119.371 10.7778C119.165 11.2687 119.061 11.7877 119.061 12.3241C119.061 12.8604 119.165 13.3811 119.371 13.8704C119.571 14.3424 119.855 14.7674 120.218 15.1328C120.582 15.4982 121.005 15.7836 121.475 15.9844C121.961 16.1914 122.48 16.2964 123.013 16.2964C123.547 16.2964 124.065 16.1914 124.552 15.9844C125.023 15.7836 125.446 15.4982 125.808 15.1328C125.822 15.1187 125.834 15.1062 125.847 15.092L128.011 17.2045C127.985 17.2311 127.963 17.2546 127.941 17.275C127.626 17.5918 127.279 17.8788 126.91 18.1313C126.537 18.3838 126.139 18.6018 125.725 18.7774C124.865 19.1428 123.953 19.3279 123.012 19.3279L123.01 19.3341Z" fill="#562AD0"/>
<path d="M92.0946 5.375H101.033V8.29507H95.1796V10.4451C99.7766 10.4483 100.064 10.4451 100.064 10.4451V13.3652H95.1796V16.3621H101.033V19.2838H92.0946V5.375Z" fill="#562AD0"/>
<path d="M105.863 11.0768V19.2552H102.74V5.34961H105.863L111.376 13.6833V5.34961H114.496V19.2552H111.425L105.863 11.0768Z" fill="#562AD0"/>
<path d="M11.5343 24.1257C11.333 24.121 11.1301 24.1116 10.9289 24.0974C10.7307 24.0833 10.5294 24.0629 10.3328 24.0394C10.1362 24.0159 9.93955 23.9861 9.74606 23.9516C9.55413 23.9171 9.35908 23.8795 9.16871 23.8355C8.9799 23.7916 8.78953 23.7446 8.60227 23.6913C8.41659 23.6395 8.2309 23.5815 8.04677 23.5203C7.86576 23.4592 7.68319 23.3933 7.50374 23.3227C7.32586 23.2537 7.14797 23.1784 6.97476 23.1C6.80156 23.0216 6.62835 22.9385 6.45827 22.8523C6.28974 22.766 6.12122 22.6892 5.95581 22.5951C5.79197 22.501 5.62032 22.4163 5.46116 22.3143C5.302 22.2124 5.1444 22.1058 4.98992 21.9976C4.837 21.8894 4.68408 21.7749 4.53584 21.6588C4.3876 21.5428 4.24092 21.422 4.09892 21.2981C3.95692 21.1758 3.81493 21.0472 3.67917 20.917C3.54341 20.7869 3.40922 20.652 3.27814 20.5171C3.14863 20.3807 3.02068 20.2396 2.8974 20.0984C2.77413 19.9557 2.65242 19.8099 2.53695 19.6609C2.41992 19.5135 2.30601 19.3598 2.19678 19.2077C2.08755 19.054 1.97988 18.8956 1.87845 18.7372C1.77703 18.5788 1.67716 18.4141 1.58197 18.251C1.48679 18.0864 1.39628 17.9186 1.3089 17.7508C1.22152 17.5814 1.13882 17.4089 1.05924 17.2348C0.981215 17.0607 0.904754 16.8835 0.834536 16.7063C0.764317 16.5291 0.697219 16.3456 0.634803 16.1653C0.572386 15.9833 0.514651 15.7967 0.461597 15.6117C0.408543 15.4251 0.35861 15.2353 0.314918 15.0471C0.271227 14.8573 0.230656 14.6645 0.196327 14.4716C0.160437 14.2787 0.130789 14.0826 0.104262 13.8866C0.0792956 13.6906 0.0574498 13.4914 0.0418457 13.2938C0.0262416 13.0946 0.0153187 12.8923 0.00907701 12.6916C0.00283535 12.4909 0.00283535 12.2854 0.00595618 12.0831C0.0106374 11.8808 0.0199999 11.677 0.0340436 11.4746C0.0480874 11.2755 0.0683727 11.0732 0.0917789 10.8756C0.116746 10.6795 0.144833 10.4804 0.179162 10.2859C0.211931 10.093 0.250941 9.89699 0.294633 9.70567C0.336764 9.51591 0.385137 9.32458 0.438191 9.1364C0.489684 8.94977 0.54742 8.76159 0.608276 8.5781C0.669132 8.39462 0.734669 8.21113 0.804888 8.03235C0.873546 7.85357 0.948446 7.67479 1.02647 7.50072C1.10449 7.32664 1.18719 7.15257 1.27301 6.98163C1.35883 6.81226 1.44934 6.64289 1.54296 6.47822C1.63659 6.31356 1.73489 6.14889 1.83632 5.98893C1.93775 5.82897 2.04386 5.67058 2.15309 5.51532C2.26075 5.36163 2.37466 5.20795 2.49013 5.05896C2.60561 4.90998 2.72576 4.76256 2.84903 4.61985C2.97074 4.47714 3.0987 4.33443 3.22821 4.198C3.35772 4.06156 3.49192 3.92669 3.62612 3.79496C3.76187 3.66479 3.90231 3.5362 4.04275 3.41231C4.18474 3.28842 4.32986 3.16609 4.4781 3.05004C4.62478 2.93242 4.7777 2.81794 4.93062 2.70817C5.08354 2.59839 5.24114 2.49018 5.39875 2.38824C5.55635 2.28631 5.72019 2.18594 5.88247 2.09028C6.04632 1.99461 6.21328 1.90366 6.38181 1.81583C6.55033 1.72801 6.72198 1.6449 6.89518 1.56492C7.06839 1.4865 7.24472 1.40966 7.42104 1.33909C7.59893 1.26852 7.77994 1.20108 7.95938 1.13835C8.14039 1.07562 8.32608 1.0176 8.51021 0.964278C8.6959 0.910958 8.88471 0.860774 9.07196 0.816864C9.26077 0.772953 9.4527 0.732178 9.64307 0.697677C9.835 0.661607 10.0316 0.631811 10.2251 0.606719C10.4202 0.581627 10.6183 0.559672 10.8149 0.543989C11.0131 0.528307 11.2144 0.517329 11.4126 0.511056C11.6139 0.504783 11.8167 0.504783 12.018 0.50792C12.3005 0.514193 12.5845 0.529875 12.8653 0.556535C13.1415 0.581627 13.4208 0.617697 13.6939 0.663176C13.9639 0.708655 14.2369 0.763543 14.5038 0.826273C14.7675 0.889003 15.0281 0.950164 15.2871 1.03171C16.3248 1.37045 17.094 1.80956 17.6496 2.12635C17.8555 2.24397 18.1114 2.38981 18.2004 2.41647L18.294 2.44627C19.6672 2.95752 20.9389 2.38824 22.1685 1.83779C22.4634 1.70606 22.7521 1.57746 23.0345 1.46768C24.3687 0.889003 25.8308 0.558103 27.3662 0.531443C27.3819 0.531443 27.3975 0.531443 27.4131 0.531443C27.4146 0.531443 27.4162 0.531443 27.4193 0.531443C27.4489 0.531443 27.4802 0.531443 27.5098 0.531443C27.5129 0.531443 27.5145 0.531443 27.5176 0.531443C27.5332 0.531443 27.5473 0.531443 27.5629 0.531443C27.5769 0.531443 27.591 0.531443 27.6066 0.531443C27.6097 0.531443 27.6128 0.531443 27.6159 0.531443C27.63 0.531443 27.644 0.531443 27.658 0.531443C27.6612 0.531443 27.6643 0.531443 27.6674 0.531443C27.6799 0.531443 27.6924 0.531443 27.7049 0.531443C27.708 0.531443 27.7095 0.531443 27.7127 0.531443C27.7267 0.531443 27.7423 0.531443 27.7564 0.531443H27.7657C27.7813 0.531443 27.7954 0.531443 27.8094 0.531443C27.825 0.531443 27.8406 0.531443 27.8578 0.531443H27.8703C27.8859 0.531443 27.9015 0.531443 27.9186 0.533011H27.9218C27.9374 0.533011 27.9514 0.533011 27.967 0.53458C27.9701 0.53458 27.9748 0.53458 27.9779 0.53458C27.9935 0.53458 28.0107 0.53458 28.0263 0.536148H28.031C28.0466 0.536148 28.0606 0.536148 28.0762 0.537716C28.0794 0.537716 28.0825 0.537716 28.0856 0.537716C28.1012 0.537716 28.1184 0.537716 28.134 0.540853H28.1402C28.1543 0.540853 28.1683 0.542421 28.1839 0.543989C28.187 0.543989 28.1901 0.543989 28.1933 0.543989C28.2089 0.543989 28.2245 0.545557 28.2416 0.547126C28.2448 0.547126 28.2463 0.547126 28.2494 0.547126C28.2635 0.547126 28.2775 0.547126 28.2916 0.550262C28.2947 0.550262 28.2978 0.550262 28.3009 0.550262C28.3165 0.550262 28.3321 0.55183 28.3493 0.553399C28.3524 0.553399 28.354 0.553399 28.3571 0.553399C28.3727 0.553399 28.3868 0.554967 28.4024 0.556535C28.4039 0.556535 28.407 0.556535 28.4086 0.556535C28.4242 0.556535 28.4414 0.559672 28.457 0.559672C28.4601 0.559672 28.4632 0.559672 28.4663 0.559672C28.4804 0.559672 28.496 0.56124 28.51 0.562808C28.51 0.562808 28.5132 0.562808 28.5147 0.562808C28.5303 0.562808 28.5475 0.565945 28.5631 0.565945H28.5709C28.5865 0.567513 28.6021 0.569081 28.6177 0.570649H28.6208C28.6364 0.572218 28.6536 0.573786 28.6692 0.575354H28.6786C28.6942 0.576922 28.7098 0.580059 28.7254 0.580059C28.741 0.580059 28.7581 0.583195 28.7753 0.584764C28.7784 0.584764 28.78 0.584764 28.7831 0.584764C28.8159 0.5879 28.8486 0.591036 28.8814 0.595741H28.8892C28.922 0.600446 28.9548 0.603582 28.986 0.608287H28.9938C29.0265 0.612992 29.0577 0.617697 29.0905 0.620833C29.0936 0.620833 29.0967 0.620833 29.0999 0.620833C29.1155 0.622401 29.1326 0.625538 29.1482 0.627106H29.1498C29.1654 0.628674 29.181 0.631811 29.1966 0.633379C29.1997 0.633379 29.2013 0.633379 29.2044 0.633379C29.22 0.634947 29.2356 0.638084 29.2512 0.639652H29.2559C29.27 0.642789 29.284 0.644357 29.2996 0.647493C29.3027 0.647493 29.3058 0.647493 29.309 0.647493C29.3246 0.65063 29.3402 0.652198 29.3558 0.655334H29.362C29.3761 0.658471 29.3901 0.660039 29.4042 0.663176C29.4073 0.663176 29.4104 0.663176 29.4135 0.664744C29.4291 0.66788 29.4447 0.669449 29.4603 0.672585C29.4634 0.672585 29.465 0.672585 29.4681 0.672585C29.4822 0.674153 29.4962 0.67729 29.5103 0.678858C29.5134 0.678858 29.5149 0.678858 29.5181 0.678858C29.5337 0.681995 29.5477 0.683563 29.5633 0.686699C29.5664 0.686699 29.5696 0.686699 29.5727 0.688268C29.5852 0.691404 29.5992 0.692972 29.6117 0.696109C29.6148 0.696109 29.6179 0.696109 29.6195 0.697677C29.6335 0.700814 29.6491 0.702382 29.6647 0.705518C29.6679 0.705518 29.6725 0.705518 29.6757 0.707087C29.6881 0.708655 29.7006 0.711791 29.7131 0.714928C29.7162 0.714928 29.7194 0.714928 29.7225 0.716496C29.7365 0.719632 29.7521 0.722769 29.7662 0.724337C29.7708 0.724337 29.774 0.725905 29.7787 0.727474C29.7911 0.73061 29.8036 0.732178 29.8161 0.735315C29.8192 0.735315 29.8223 0.735315 29.8239 0.736883C29.8379 0.74002 29.852 0.743156 29.866 0.746293C29.8707 0.746293 29.8754 0.747861 29.8816 0.749429C29.8926 0.752566 29.905 0.754134 29.916 0.75727C29.9222 0.75727 29.9269 0.758839 29.9331 0.760407C29.9441 0.763543 29.9565 0.765112 29.9675 0.768248C29.9737 0.768248 29.9784 0.771385 29.9846 0.771385C29.9955 0.774521 30.008 0.776089 30.019 0.779226L30.0361 0.78393C30.047 0.785499 30.0564 0.788635 30.0673 0.790203C30.0736 0.790203 30.0798 0.79334 30.0861 0.794908C30.097 0.798045 30.1063 0.799613 30.1173 0.801181C30.1251 0.802749 30.1344 0.804318 30.1422 0.807454C30.15 0.809022 30.1578 0.810591 30.1672 0.812159C30.175 0.813727 30.1812 0.815295 30.189 0.816864C30.1968 0.818432 30.2046 0.82 30.2124 0.823137C30.2249 0.826273 30.2358 0.827841 30.2483 0.830978C30.2546 0.832546 30.2608 0.834114 30.2655 0.835682C30.2733 0.837251 30.2827 0.840387 30.2905 0.841955C30.2951 0.841955 30.2998 0.845092 30.3045 0.845092C30.3201 0.849797 30.3357 0.852933 30.3529 0.857638C30.3576 0.857638 30.3607 0.859206 30.3654 0.860774C30.395 0.868616 30.4247 0.876457 30.4559 0.884298C30.459 0.884298 30.4606 0.884298 30.4637 0.885866C30.4949 0.893708 30.5261 0.901549 30.5573 0.910958H30.5604C31.8212 1.25284 32.9947 1.80329 34.0417 2.52311C34.5972 2.9042 35.1168 3.33389 35.5943 3.80594C35.6926 3.90317 35.9657 4.22309 35.8627 4.35639C35.8065 4.4301 35.6302 4.44264 35.4788 4.43951C35.3602 4.43637 35.2557 4.42382 35.2339 4.42226C34.3787 4.32032 33.5268 4.05058 32.6997 3.61931C32.0818 3.30567 31.4405 2.97947 30.8023 2.70973C29.774 2.27847 28.716 2.09028 27.6596 2.14987C26.6438 2.22828 25.6358 2.47763 24.6543 2.89479C24.609 2.91204 24.5637 2.92929 24.5169 2.94654C24.0036 3.15825 23.3123 3.44681 22.9628 3.60363C21.9735 4.04588 20.7173 4.60731 19.2927 4.57751C18.7715 4.56653 18.2285 4.47714 17.6683 4.27327C17.3671 4.18545 17.0706 4.01608 16.7008 3.80594C16.5573 3.72439 16.3997 3.635 16.2296 3.54247C16.0704 3.46092 15.9003 3.3684 15.738 3.29626C15.5742 3.22255 15.4057 3.15355 15.2372 3.09082C15.0686 3.02652 14.8954 2.96693 14.7238 2.91204C14.5506 2.85715 14.3727 2.80696 14.1979 2.76149C14.02 2.71601 13.839 2.67523 13.6596 2.63916C13.4786 2.60309 13.2944 2.5733 13.1103 2.5482C12.9262 2.52311 12.7374 2.50273 12.5517 2.48861C12.3644 2.4745 12.1725 2.46509 11.9837 2.46038C6.57686 2.3459 2.08443 6.67582 1.97208 12.1098C1.86129 17.4481 6.23513 21.9552 12.1928 22.1701V22.1669C14.4304 22.2438 16.8709 21.8282 19.0024 20.9453L19.9278 20.583C20.5941 20.3195 21.162 20.0874 21.6645 19.882C23.175 19.2641 24.9102 18.6839 26.2849 18.3718C26.5392 18.3043 26.7967 18.2432 26.9933 18.2134C27.2789 18.1695 28.109 18.0362 28.6271 18.0424C28.6848 18.0424 28.7379 18.0456 28.7878 18.0503C28.8627 18.0503 28.9376 18.0503 29.0156 18.055C29.6866 18.0895 30.3248 18.2934 30.3903 18.3153C30.9521 18.5098 31.5123 18.7591 32.0631 19.0602C32.7575 19.4225 33.4597 19.7503 34.1759 20.0075C34.424 20.0984 34.6737 20.1721 34.9311 20.227C35.0232 20.2458 35.2073 20.2929 35.2526 20.3932C35.3025 20.5015 35.1933 20.674 35.1028 20.7524C34.7532 21.0597 34.3787 21.3499 33.9824 21.618C33.9169 21.6635 33.7686 21.7435 33.5627 21.7482C33.3894 21.7513 33.1601 21.6839 33.0758 21.6416C33.0212 21.6149 32.9603 21.5851 32.901 21.5522C32.2831 21.2385 31.6418 20.9123 31.0036 20.6426C29.9753 20.2113 28.9173 20.0231 27.8609 20.0827C27.2383 20.1314 25.9978 20.4325 25.9978 20.4325C25.9744 20.4403 25.9525 20.445 25.9307 20.4513C25.9119 20.456 25.8948 20.4591 25.8761 20.4638C24.7151 20.7351 23.8288 21.0974 22.3932 21.6839C21.6692 21.9803 20.811 22.33 19.7218 22.7503C17.5559 23.6474 14.9266 24.1116 12.6047 24.1272C12.5376 24.1304 12.4019 24.1304 12.2474 24.1272C11.9665 24.121 11.6264 24.1084 11.5405 24.1068L11.5343 24.1257Z" fill="#562AD0"/>
<path d="M18.5033 8.10449C18.1506 8.01196 17.7996 7.90219 17.4453 7.77359C17.3658 7.74536 17.1925 7.67166 17.1364 7.53365C17.0927 7.43171 17.152 7.26862 17.2019 7.16668C17.3704 6.82167 17.6357 6.31983 17.7793 6.07989C17.8089 6.0297 17.901 5.93875 18.043 5.90111C18.174 5.86661 18.3566 5.88699 18.4346 5.90895C19.3163 6.14419 20.1885 6.13948 21.0593 5.84779C21.8754 5.58746 22.6836 5.27381 23.4904 4.97114C24.3392 4.64495 25.0992 4.39403 25.9215 4.11017C26.0323 4.07254 26.8094 3.84828 27.7316 3.83887C27.9719 3.8373 28.7537 3.82319 29.5432 3.98315C30.57 4.19016 31.6201 4.68102 31.8651 4.81432C32.5595 5.17658 33.4021 5.49023 34.1184 5.74742C35.0421 6.08773 35.9035 6.11125 36.821 5.90895C36.8818 5.89484 37.027 5.87602 37.1502 5.91522C37.2579 5.94972 37.3437 6.04225 37.3734 6.09087C37.5887 6.44843 37.7869 6.82167 37.9695 7.21373C37.9882 7.25607 38.021 7.33762 37.9835 7.41917C37.9601 7.47092 37.8712 7.52895 37.8337 7.54306C37.5169 7.65911 37.1939 7.77516 36.8709 7.89435C36.4309 8.04019 35.9784 8.09351 35.529 8.05431C34.5802 7.97746 33.6409 7.69832 32.7327 7.22471C32.1148 6.91106 31.4719 6.58486 30.8352 6.31512C29.8069 5.88386 28.749 5.69567 27.6926 5.75526C26.6767 5.83367 25.6687 6.08302 24.6872 6.50018C23.3375 7.03652 21.9815 7.53051 20.6239 8.0104C20.1948 8.15468 19.7579 8.22211 19.321 8.2127C19.0479 8.20643 18.7748 8.17193 18.5033 8.10606V8.10449ZM18.5439 11.6926C17.8823 11.5186 17.2253 11.2833 16.5746 10.9854C16.5075 10.954 16.3624 10.8662 16.2859 10.714C16.222 10.5855 16.2235 10.3941 16.236 10.3141C16.2891 9.96913 16.3577 9.61941 16.4436 9.2744C16.4576 9.21481 16.5153 9.07523 16.6168 9.02191C16.7322 8.96232 16.9023 8.99839 16.985 9.02975C17.4672 9.21167 17.9587 9.37634 18.4518 9.52062C19.3334 9.75585 20.2322 9.72605 21.1029 9.43436C21.919 9.17403 22.7273 8.86038 23.5356 8.55771C24.4251 8.21584 25.2568 7.96805 26.1368 7.67009C26.2788 7.62147 27.2853 7.36585 27.6629 7.32821C28.0546 7.289 29.2109 7.11493 30.6433 7.70929C31.0662 7.86612 32.2162 8.46205 32.3629 8.53576C32.9137 8.80863 33.477 9.05955 34.0497 9.26499C35.167 9.67744 36.2343 9.87033 37.4374 9.34184C37.7042 9.25088 37.971 9.15678 38.2456 9.05798C38.3049 9.03603 38.4532 8.98428 38.5562 9.02819C38.6373 9.06269 38.6763 9.18815 38.6888 9.24147C38.7887 9.64137 38.8698 10.0538 38.9291 10.4819C38.9354 10.5227 38.9447 10.6215 38.8901 10.7046C38.848 10.7689 38.7403 10.816 38.6966 10.8332C38.1224 11.0544 37.5856 11.2849 36.9146 11.4809C36.4746 11.6268 36.0221 11.6801 35.5727 11.6409C34.6239 11.564 33.6846 11.2849 32.7764 10.8113C32.1585 10.4976 31.5171 10.1714 30.8789 9.9017C29.8506 9.47043 28.7927 9.28224 27.7363 9.34184C26.7204 9.42025 25.7124 9.6696 24.7325 10.0868C23.3827 10.6231 22.0267 11.1171 20.6676 11.597C20.24 11.7412 19.8016 11.8087 19.3646 11.7993C19.0916 11.793 18.8185 11.7585 18.547 11.6926H18.5439ZM18.5844 15.2792C17.9525 15.1145 17.3267 14.8918 16.7041 14.6127C16.6433 14.586 16.4872 14.5108 16.3905 14.3869C16.3109 14.2849 16.286 14.1344 16.275 14.0717C16.2064 13.6812 16.158 13.275 16.1299 12.8563C16.1299 12.8343 16.1268 12.6336 16.1892 12.5473C16.2844 12.4187 16.4904 12.3968 16.6745 12.4658C17.2378 12.6791 18.0804 12.9864 18.4924 13.1072C19.374 13.3409 20.2728 13.3126 21.142 13.0209C21.9581 12.7606 22.7663 12.447 23.5731 12.1443C24.3392 11.851 25.1007 11.5562 25.8731 11.2708C26.0229 11.2159 27.4694 10.7595 28.8832 10.9509C30.055 11.1092 31.6404 11.8244 31.9463 11.9922C32.6406 12.3544 33.3725 12.5928 34.0887 12.85C35.206 13.2624 36.3607 13.2875 37.4764 12.9268C37.8821 12.7904 38.2862 12.6446 38.695 12.4924C38.7419 12.4752 38.8464 12.4642 38.9135 12.4971C38.9868 12.5332 39.0196 12.6242 39.0165 12.6869C38.9915 13.1636 38.9369 13.6373 38.8542 14.1093C38.8464 14.1548 38.823 14.2818 38.7543 14.3665C38.6966 14.4371 38.564 14.4998 38.5218 14.5155C38.4001 14.5594 38.0022 14.7695 37.5497 14.906C36.9895 15.0753 36.3544 15.171 36.2093 15.1788C35.9706 15.1898 35.7193 15.1788 35.4962 15.16C34.5475 15.0832 33.722 14.8699 32.8139 14.3963C32.1959 14.0826 31.5546 13.7564 30.9164 13.4867C29.8881 13.0554 28.8301 12.8672 27.7737 12.9268C26.7579 13.0053 25.7499 13.2546 24.7699 13.6718C23.4202 14.2081 22.0642 14.7021 20.7066 15.182C20.2775 15.3263 19.8406 15.3921 19.4037 15.3843C19.1306 15.378 18.8575 15.3419 18.586 15.2776L18.5844 15.2792ZM18.625 18.8673C18.5564 18.8485 18.3894 18.8156 18.2521 18.7199C18.1288 18.6337 18.0336 18.4847 17.9962 18.4282C17.6669 17.9264 17.3704 17.3916 17.1177 16.8271C17.0771 16.7361 17.074 16.5605 17.1255 16.4664C17.1941 16.3393 17.3595 16.3142 17.4984 16.3629C17.837 16.482 18.1834 16.5934 18.5314 16.6953C19.413 16.9306 20.3118 16.9008 21.1825 16.6106C21.9986 16.3487 22.8069 16.0367 23.6137 15.734C24.656 15.3341 25.6734 15.0251 26.7158 14.655C27.5038 14.39 28.543 14.3508 29.3466 14.5155C30.325 14.7225 31.0787 14.9797 32.0149 15.4925C32.7093 15.8548 33.4115 16.1825 34.1277 16.4397C35.245 16.8522 36.3997 16.8772 37.5154 16.5165C37.6433 16.4726 37.8992 16.4177 37.9944 16.526C38.0724 16.6153 37.9991 16.8616 37.9461 16.976C37.7307 17.4371 37.4826 17.8856 37.2049 18.32C37.169 18.3749 37.0863 18.5286 36.9349 18.629C36.7945 18.7215 36.5869 18.7623 36.5042 18.7764C36.2265 18.825 35.9378 18.8376 35.6507 18.814C34.702 18.7372 33.7626 18.458 32.8544 17.9844C32.2365 17.6708 31.5936 17.3446 30.957 17.0748C29.9286 16.6436 28.8707 16.4554 27.8143 16.515C26.7969 16.5934 25.7904 16.8427 24.8089 17.2599C23.4592 17.7962 22.1032 18.2902 20.7456 18.7701C20.3165 18.9144 19.8796 18.9803 19.4427 18.9724C19.1696 18.9661 18.8965 18.9301 18.625 18.8658V18.8673ZM23.79 23.307C23.79 23.307 23.6979 23.26 23.6807 23.2522C23.4717 23.1487 23.3999 22.8617 23.6948 22.7142C24.489 22.4382 25.5298 22.054 26.3054 21.778C27.3696 21.4204 28.465 21.3514 29.5495 21.5741C30.325 21.7388 31.1598 22.054 32.0024 22.3959C32.0352 22.41 32.483 22.6609 32.0024 22.973C31.617 23.202 29.8319 24.0457 27.8673 24.0927C27.7612 24.0959 27.652 24.0959 27.5443 24.0927C26.0666 24.0614 24.5218 23.5972 23.79 23.3086V23.307Z" fill="url(#paint0_linear_2123_4727)"/>
<defs>
<linearGradient id="paint0_linear_2123_4727" x1="16.0784" y1="13.9948" x2="39.0168" y2="13.0632" gradientUnits="userSpaceOnUse">
<stop stop-color="#562AD0"/>
<stop offset="1" stop-color="#77BFEF"/>
</linearGradient>
</defs>
</svg>
