<svg width="65" height="25" viewBox="0 0 65 25" fill="none" xmlns="http://www.w3.org/2000/svg">
<g clip-path="url(#clip0_2123_4740)">
<path d="M23.2145 24.2703H22.875V21.6549H21.9517V21.3535H24.1382V21.6549H23.2145V24.2703Z" fill="black"/>
<path d="M26.0237 24.2708V22.8564C26.0347 22.7128 25.9914 22.5703 25.9022 22.4572C25.8514 22.4098 25.7912 22.3736 25.7255 22.3509C25.6598 22.3282 25.5901 22.3196 25.5209 22.3256C25.4283 22.3174 25.335 22.33 25.2479 22.3624C25.1608 22.3948 25.0821 22.4462 25.0173 22.5129C24.8955 22.6935 24.8394 22.9104 24.8584 23.1274V24.2708H24.5287V21.166H24.8597V22.1052C24.8608 22.1993 24.8555 22.2933 24.8439 22.3867H24.8638C24.9313 22.2794 25.0278 22.1934 25.1422 22.1386C25.2704 22.0761 25.4116 22.0449 25.5543 22.0475C25.7718 22.0308 25.9873 22.099 26.1556 22.2378C26.229 22.3196 26.2848 22.4154 26.3196 22.5196C26.3545 22.6237 26.3676 22.7339 26.3581 22.8433V24.2701H26.0237" fill="black"/>
<path d="M27.8697 22.321C27.7914 22.3174 27.7132 22.331 27.6406 22.3607C27.5681 22.3904 27.5029 22.4356 27.4495 22.4931C27.3373 22.6265 27.2724 22.7934 27.2649 22.9676H28.4096C28.421 22.7962 28.3715 22.6262 28.2699 22.4877C28.2206 22.4313 28.1589 22.387 28.0898 22.3581C28.0207 22.3292 27.9458 22.3165 27.871 22.321M27.9588 24.3101C27.8176 24.3174 27.6765 24.2949 27.5446 24.244C27.4127 24.1931 27.293 24.115 27.1934 24.0148C26.9959 23.7889 26.8952 23.4945 26.9129 23.195C26.8968 22.8928 26.9892 22.5948 27.1735 22.3547C27.2583 22.2528 27.3655 22.1717 27.4867 22.1178C27.6079 22.064 27.7399 22.0387 27.8724 22.0439C27.994 22.0381 28.1155 22.0593 28.228 22.106C28.3405 22.1527 28.4412 22.2237 28.523 22.3139C28.6894 22.5132 28.7749 22.7677 28.7626 23.027V23.2365H27.2562C27.2472 23.4486 27.3164 23.6566 27.4505 23.8211C27.518 23.8893 27.5993 23.9425 27.6889 23.9769C27.7785 24.0112 27.8744 24.0261 27.9703 24.0205C28.2106 24.0194 28.4482 23.9692 28.6685 23.873V24.168C28.5617 24.2152 28.4505 24.2516 28.3364 24.2766C28.2121 24.301 28.0855 24.3122 27.9588 24.3101Z" fill="black"/>
<path d="M31.8037 24.2707V22.8563C31.8146 22.7127 31.7711 22.5702 31.6818 22.4571C31.6311 22.4097 31.571 22.3735 31.5053 22.3508C31.4397 22.3281 31.37 22.3195 31.3008 22.3255C31.2086 22.3174 31.1157 22.3298 31.0288 22.3618C30.9419 22.3938 30.8632 22.4447 30.7983 22.5108C30.675 22.69 30.6179 22.9066 30.637 23.1233V24.2707H30.3059V22.0832H30.5759L30.6296 22.3825H30.6454C30.7146 22.2735 30.8137 22.1867 30.9309 22.1324C31.0587 22.0719 31.1986 22.0414 31.34 22.0433C31.5554 22.0272 31.7686 22.0954 31.9346 22.2337C32.0076 22.3163 32.063 22.413 32.0974 22.5178C32.1317 22.6226 32.1443 22.7333 32.1344 22.8432V24.27H31.8026" fill="black"/>
<path d="M33.649 22.3209C33.5707 22.3175 33.4926 22.331 33.4201 22.3608C33.3476 22.3905 33.2825 22.4356 33.2292 22.4931C33.1169 22.6265 33.052 22.7933 33.0446 22.9676H34.1879C34.1995 22.7961 34.15 22.6261 34.0482 22.4877C33.9988 22.4313 33.9371 22.387 33.8679 22.3581C33.7987 22.3292 33.7238 22.3165 33.649 22.3209ZM33.7384 24.31C33.5973 24.3173 33.4562 24.2948 33.3244 24.2439C33.1926 24.193 33.073 24.1149 32.9734 24.0147C32.7759 23.7889 32.6751 23.4945 32.6929 23.195C32.6766 22.8928 32.7689 22.5948 32.9531 22.3547C33.0381 22.2527 33.1454 22.1717 33.2667 22.1178C33.388 22.0639 33.5201 22.0386 33.6527 22.0439C33.7743 22.0382 33.8956 22.0594 34.0081 22.1061C34.1205 22.1528 34.2212 22.2237 34.303 22.3139C34.4694 22.5132 34.5549 22.7676 34.5426 23.0269V23.2365H33.0361C33.0272 23.4486 33.0964 23.6566 33.2305 23.821C33.298 23.8893 33.3792 23.9424 33.4689 23.9768C33.5585 24.0112 33.6544 24.0261 33.7502 24.0205C33.9906 24.0194 34.2282 23.9692 34.4485 23.873V24.168C34.3417 24.2152 34.2304 24.2516 34.1164 24.2766C33.9919 24.301 33.8652 24.3122 33.7384 24.31Z" fill="black"/>
<path d="M35.6344 23.1524L34.8744 22.084H35.2513L35.8281 22.9219L36.4018 22.084H36.775L36.015 23.1514L36.8155 24.2705H36.4416L35.8294 23.3846L35.2108 24.2705H34.8359L35.6357 23.1514" fill="black"/>
<path d="M37.9549 24.0377C38.0114 24.0378 38.0678 24.0334 38.1236 24.0245C38.1674 24.0182 38.2108 24.0093 38.2535 23.9978V24.2513C38.2028 24.2726 38.1495 24.287 38.0949 24.2941C38.0326 24.3047 37.9695 24.3103 37.9063 24.311C37.4831 24.311 37.2715 24.0883 37.2715 23.6428V22.3422H36.9583V22.1825L37.2715 22.0449L37.4112 21.5781H37.6029V22.0843H38.237V22.3418H37.6029V23.629C37.5954 23.7383 37.6287 23.8465 37.6963 23.9327C37.7289 23.9682 37.7689 23.996 37.8135 24.0143C37.858 24.0325 37.9061 24.0408 37.9542 24.0383" fill="black"/>
<path d="M40.0833 21.166H39.7519V24.2701H40.0833V21.166Z" fill="black"/>
<path d="M41.6195 22.3209C41.5412 22.3174 41.463 22.331 41.3905 22.3607C41.3179 22.3904 41.2527 22.4356 41.1994 22.4931C41.0872 22.6265 41.0224 22.7934 41.0151 22.9676H42.1581C42.1698 22.7962 42.1204 22.6262 42.0187 22.4877C41.9693 22.4313 41.9076 22.387 41.8384 22.3581C41.7692 22.3292 41.6944 22.3165 41.6195 22.3209ZM41.7093 24.31C41.5682 24.3173 41.4271 24.2948 41.2953 24.2439C41.1635 24.193 41.0439 24.1149 40.9442 24.0147C40.7468 23.7889 40.6462 23.4944 40.6641 23.195C40.6478 22.8928 40.7401 22.5948 40.9243 22.3547C41.0093 22.2527 41.1166 22.1717 41.2379 22.1178C41.3592 22.0639 41.4913 22.0386 41.6239 22.0439C41.7454 22.0382 41.8668 22.0594 41.9791 22.1061C42.0915 22.1528 42.1921 22.2237 42.2739 22.3139C42.4404 22.5131 42.5259 22.7676 42.5135 23.0269V23.2365H41.007C40.9983 23.4486 41.0676 23.6565 41.2017 23.821C41.2692 23.8893 41.3504 23.9424 41.4401 23.9768C41.5297 24.0112 41.6256 24.0261 41.7214 24.0205C41.9618 24.0194 42.1994 23.9692 42.4197 23.873V24.168C42.3128 24.2151 42.2016 24.2515 42.0876 24.2766C41.963 24.3009 41.8362 24.3121 41.7093 24.31Z" fill="black"/>
<path d="M43.557 24.2712L42.7268 22.0847H43.0818L43.5543 23.3816C43.6269 23.5751 43.6896 23.7722 43.7419 23.9722H43.7581C43.7966 23.8236 43.8428 23.6772 43.8965 23.5334C43.9741 23.3121 44.1488 22.8289 44.4206 22.084H44.7759L43.9457 24.2705H43.5583" fill="black"/>
<path d="M45.9585 22.3209C45.8801 22.3174 45.802 22.331 45.7294 22.3607C45.6568 22.3904 45.5916 22.4356 45.5383 22.4931C45.4262 22.6265 45.3614 22.7934 45.354 22.9676H46.4984C46.5101 22.7961 46.4606 22.626 46.3587 22.4877C46.3094 22.4313 46.2477 22.3869 46.1786 22.358C46.1095 22.3291 46.0346 22.3164 45.9598 22.3209M46.0486 24.31C45.9074 24.3173 45.7664 24.2948 45.6346 24.2439C45.5027 24.1931 45.3831 24.115 45.2835 24.0147C45.0861 23.7889 44.9855 23.4944 45.0034 23.195C44.9871 22.8928 45.0794 22.5948 45.2636 22.3547C45.3486 22.2527 45.4559 22.1717 45.5772 22.1178C45.6985 22.0639 45.8305 22.0386 45.9632 22.0439C46.0847 22.0382 46.206 22.0594 46.3184 22.1061C46.4308 22.1528 46.5314 22.2237 46.6132 22.3139C46.7797 22.5131 46.8652 22.7676 46.8528 23.0269V23.2365H45.3466C45.3375 23.4486 45.4067 23.6566 45.541 23.821C45.6084 23.8894 45.6896 23.9426 45.7793 23.977C45.8689 24.0114 45.9649 24.0263 46.0607 24.0205C46.3011 24.0194 46.5387 23.9692 46.759 23.873V24.168C46.6521 24.2151 46.5409 24.2515 46.4269 24.2766C46.3023 24.3009 46.1755 24.3121 46.0486 24.31Z" fill="black"/>
<path d="M47.7488 21.166H47.4177V24.2701H47.7488V21.166Z" fill="black"/>
<path d="M50.4806 22.3265C50.3897 22.3179 50.298 22.3311 50.2131 22.3648C50.1282 22.3985 50.0526 22.4519 49.9923 22.5206C49.893 22.7259 49.8418 22.9511 49.8425 23.1791C49.8432 23.4072 49.8958 23.6321 49.9964 23.8367C50.0569 23.9065 50.1331 23.9609 50.2188 23.9955C50.3044 24.0301 50.3971 24.0438 50.4891 24.0355C50.5777 24.0411 50.6663 24.0235 50.7461 23.9845C50.8259 23.9454 50.8941 23.8862 50.944 23.8128C51.0554 23.619 51.1074 23.3967 51.0935 23.1736C51.1095 22.9511 51.0573 22.7289 50.944 22.5368C50.8904 22.466 50.8199 22.4098 50.739 22.3733C50.658 22.3368 50.5692 22.3212 50.4806 22.3279M50.5289 22.0501C50.6557 22.0435 50.7823 22.0667 50.8985 22.1178C51.0147 22.1689 51.1173 22.2465 51.1981 22.3444C51.3542 22.595 51.4368 22.8844 51.4364 23.1797C51.436 23.4749 51.3526 23.7641 51.1958 24.0143C51.1157 24.1128 51.0136 24.1911 50.8977 24.2429C50.7818 24.2948 50.6554 24.3186 50.5286 24.3126C50.3944 24.3144 50.2614 24.2876 50.1384 24.2339C50.0199 24.1807 49.9177 24.097 49.8421 23.9913H49.8182L49.7483 24.2728H49.5121V21.168H49.8432V21.9216C49.8432 22.0903 49.8374 22.2422 49.827 22.3768H49.8432C49.9207 22.2688 50.0244 22.1822 50.1445 22.1251C50.2646 22.068 50.3972 22.0422 50.5299 22.0501H50.5289Z" fill="black"/>
<path d="M52.8501 22.3209C52.7717 22.3174 52.6936 22.331 52.621 22.3607C52.5485 22.3904 52.4833 22.4356 52.4299 22.4931C52.3178 22.6266 52.2529 22.7934 52.2453 22.9676H53.3887C53.3999 22.796 53.3501 22.626 53.248 22.4877C53.1986 22.4313 53.137 22.387 53.0678 22.3581C52.9987 22.3292 52.9239 22.3165 52.8491 22.3209M52.9399 24.31C52.7987 24.3174 52.6576 24.2949 52.5258 24.244C52.394 24.1931 52.2744 24.115 52.1748 24.0147C51.9773 23.7889 51.8766 23.4945 51.8943 23.195C51.8781 22.8928 51.9704 22.5948 52.1545 22.3547C52.2394 22.2527 52.3467 22.1716 52.4679 22.1177C52.5892 22.0638 52.7212 22.0386 52.8538 22.0439C52.9754 22.0382 53.0967 22.0594 53.2092 22.1061C53.3216 22.1528 53.4223 22.2237 53.5041 22.3139C53.6704 22.5132 53.7558 22.7677 53.7434 23.0269V23.2365H52.2372C52.2283 23.4486 52.2974 23.6566 52.4316 23.821C52.4991 23.8894 52.5804 23.9425 52.6701 23.9769C52.7598 24.0113 52.8558 24.0262 52.9517 24.0205C53.1919 24.0194 53.4294 23.9692 53.6496 23.873V24.168C53.5428 24.2152 53.4315 24.2516 53.3175 24.2766C53.1931 24.3009 53.0666 24.3121 52.9399 24.31Z" fill="black"/>
<path d="M55.182 24.311C55.0456 24.3191 54.909 24.2971 54.782 24.2466C54.655 24.1961 54.5406 24.1183 54.447 24.0187C54.2602 23.7851 54.1673 23.4901 54.1865 23.1916C54.167 22.886 54.2613 22.5841 54.4511 22.3438C54.5468 22.2416 54.6639 22.1617 54.7941 22.11C54.9242 22.0584 55.0642 22.0361 55.204 22.0448C55.31 22.0447 55.4156 22.056 55.5192 22.0786C55.6047 22.0946 55.6878 22.1214 55.7666 22.1582L55.6653 22.4393C55.5875 22.4089 55.5073 22.3847 55.4257 22.3668C55.3505 22.3487 55.2735 22.339 55.1962 22.3377C54.7516 22.3377 54.5295 22.6211 54.5297 23.1879C54.5157 23.4062 54.5727 23.6232 54.6924 23.8064C54.7491 23.8788 54.8226 23.9362 54.9065 23.9737C54.9904 24.0112 55.0822 24.0277 55.1739 24.0218C55.3668 24.0196 55.5574 23.9796 55.7348 23.904V24.1972C55.5625 24.2789 55.3726 24.3179 55.182 24.311Z" fill="black"/>
<path d="M56.5812 23.1514C56.6623 23.0404 56.7494 22.934 56.8421 22.8325L57.5484 22.084H57.9416L57.0557 23.0157L58.0033 24.2708H57.6014L56.8296 23.2371L56.5805 23.4531V24.2708H56.2529V21.166H56.5805V22.8119C56.5805 22.8851 56.5745 22.9982 56.5643 23.1494H56.5802" fill="black"/>
<path d="M58.6199 23.1756C58.6053 23.4013 58.6646 23.6255 58.7886 23.8145C58.8511 23.8833 58.9273 23.9383 59.0122 23.976C59.0972 24.0136 59.1891 24.0331 59.282 24.0331C59.375 24.0331 59.4669 24.0136 59.5519 23.976C59.6368 23.9383 59.713 23.8833 59.7754 23.8145C59.9006 23.6251 59.9599 23.3998 59.9442 23.1733C59.9594 22.9493 59.9001 22.7266 59.7754 22.5398C59.7157 22.4667 59.6394 22.4089 59.5528 22.3713C59.4662 22.3336 59.3719 22.3173 59.2777 22.3235C59.1847 22.3173 59.0917 22.3334 59.0062 22.3705C58.9208 22.4076 58.8455 22.4646 58.7866 22.5368C58.6633 22.7251 58.6052 22.9487 58.6213 23.1733M60.287 23.1733C60.3051 23.4756 60.2087 23.7737 60.0171 24.0082C59.9226 24.1101 59.8069 24.1901 59.6781 24.2424C59.5494 24.2947 59.4107 24.3181 59.2719 24.3109C59.089 24.3143 58.9088 24.2666 58.7515 24.1732C58.5978 24.0792 58.4754 23.9416 58.3999 23.778C58.3139 23.5891 58.2718 23.3832 58.2767 23.1756C58.2583 22.8742 58.3537 22.5769 58.544 22.3424C58.6384 22.2415 58.7538 22.1625 58.8821 22.111C59.0104 22.0595 59.1484 22.0368 59.2864 22.0444C59.4228 22.0382 59.5589 22.0621 59.6849 22.1147C59.8109 22.1672 59.9238 22.2469 60.0154 22.3481C60.2061 22.5803 60.3025 22.8757 60.2857 23.1756L60.287 23.1733Z" fill="black"/>
<path d="M62.3625 24.2707V22.8563C62.3736 22.7127 62.3302 22.5702 62.241 22.4571C62.1903 22.4097 62.1302 22.3735 62.0645 22.3508C61.9989 22.3281 61.9292 22.3195 61.86 22.3255C61.7678 22.3174 61.6749 22.3298 61.588 22.3619C61.5012 22.3939 61.4225 22.4447 61.3575 22.5108C61.2347 22.6901 61.1781 22.9067 61.1976 23.1233V24.2707H60.8665V22.0832H61.1365L61.1901 22.3825H61.206C61.2753 22.2736 61.3744 22.1868 61.4915 22.1324C61.6192 22.0718 61.7592 22.0414 61.9005 22.0433C62.1159 22.0272 62.3292 22.0954 62.4952 22.2337C62.5682 22.3163 62.6236 22.413 62.658 22.5178C62.6923 22.6226 62.7049 22.7333 62.695 22.8432V24.27H62.3629" fill="black"/>
<path d="M64.7849 23.6746C64.7894 23.766 64.7709 23.8572 64.7312 23.9397C64.6915 24.0222 64.6318 24.0935 64.5575 24.147C64.3674 24.2681 64.1439 24.3259 63.919 24.3124C63.6848 24.3245 63.4513 24.2771 63.2403 24.1747V23.8676C63.3479 23.9216 63.4611 23.9637 63.5778 23.9931C63.6914 24.023 63.8083 24.0386 63.9257 24.0394C64.0639 24.0472 64.2017 24.0185 64.3253 23.9564C64.3657 23.9327 64.3996 23.8995 64.4241 23.8596C64.4486 23.8198 64.4629 23.7745 64.4658 23.7278C64.4686 23.6811 64.4599 23.6344 64.4404 23.5919C64.4209 23.5493 64.3912 23.5122 64.354 23.4839C64.2207 23.3928 64.0755 23.3207 63.9224 23.2696C63.7714 23.2184 63.6261 23.1519 63.4887 23.0712C63.4106 23.0228 63.345 22.9568 63.297 22.8785C63.2534 22.7999 63.2316 22.7111 63.2339 22.6213C63.2315 22.5383 63.2502 22.4561 63.2882 22.3823C63.3263 22.3085 63.3825 22.2456 63.4516 22.1995C63.6295 22.0869 63.8381 22.0328 64.0482 22.0446C64.2857 22.045 64.5207 22.0938 64.7387 22.188L64.6209 22.458C64.4326 22.3745 64.2298 22.3286 64.0239 22.323C63.9011 22.3153 63.7785 22.3409 63.6689 22.3969C63.6325 22.4166 63.6021 22.4458 63.581 22.4815C63.56 22.5172 63.5491 22.5579 63.5494 22.5994C63.5477 22.6528 63.5635 22.7053 63.5943 22.7489C63.6335 22.7982 63.6829 22.8385 63.7391 22.867C63.8633 22.9291 63.9913 22.9831 64.1225 23.0286C64.3158 23.0858 64.4948 23.1831 64.6479 23.3141C64.6931 23.3622 64.7283 23.4188 64.7515 23.4807C64.7747 23.5425 64.7854 23.6083 64.7829 23.6742" fill="black"/>
<path d="M26.6399 15.0737L25.8566 13.2948L25.0653 15.0737H26.6399ZM25.8529 9.26367L29.7707 17.842H27.9034L27.3233 16.5657H24.3836L23.8034 17.842H21.9409L25.8529 9.26367Z" fill="black"/>
<path d="M35.4261 14.4064V9.26562H37.1614V14.4118C37.1683 14.865 37.0816 15.3147 36.9067 15.7328C36.7317 16.1509 36.4724 16.5284 36.145 16.8416C35.4895 17.4839 34.6085 17.8436 33.6908 17.8436C32.7732 17.8436 31.8921 17.4839 31.2367 16.8416C30.9094 16.5282 30.6502 16.1507 30.4752 15.7326C30.3003 15.3146 30.2134 14.865 30.2199 14.4118V9.26562H31.9562V14.4064C31.9652 14.8606 32.1519 15.2932 32.4763 15.6113C32.8007 15.9293 33.2369 16.1075 33.6912 16.1075C34.1455 16.1075 34.5817 15.9293 34.9061 15.6113C35.2304 15.2932 35.4172 14.8606 35.4261 14.4064Z" fill="black"/>
<path d="M40.4576 9.26307L41.9229 11.812L43.3936 9.26307H45.3706L42.9127 13.549L45.3706 17.8441H43.3936L41.9236 15.2843L40.4576 17.8427H38.48L40.93 13.5477L38.4806 9.26172H40.4576" fill="black"/>
<path d="M48.6043 9.26367H46.8801V17.8434H48.6043V9.26367Z" fill="black"/>
<path d="M52.0023 9.26367V16.129H55.4517V17.8434H50.2782V9.26367H52.002" fill="black"/>
<path d="M58.7131 11.7381C58.2348 12.2206 57.9671 12.8728 57.9683 13.5521C57.9695 14.2314 58.2397 14.8827 58.7197 15.3634C59.1997 15.8442 59.8505 16.1153 60.5298 16.1176C61.2091 16.1199 61.8617 15.8532 62.345 15.3757C62.5859 15.1377 62.7774 14.8544 62.9085 14.5422C63.0395 14.2299 63.1076 13.8948 63.1087 13.5562C63.1099 13.2175 63.0441 12.882 62.9152 12.5688C62.7862 12.2557 62.5967 11.9711 62.3574 11.7314C62.1181 11.4918 61.8338 11.3018 61.5209 11.1723C61.2079 11.0429 60.8725 10.9766 60.5338 10.9772C60.1952 10.9778 59.86 11.0454 59.5475 11.1759C59.235 11.3065 58.9515 11.4976 58.7131 11.7381ZM63.5619 10.5323C63.9615 10.9297 64.2786 11.4022 64.495 11.9225C64.7114 12.4429 64.8228 13.0009 64.8228 13.5645C64.8228 14.1281 64.7114 14.6861 64.495 15.2065C64.2786 15.7268 63.9615 16.1993 63.5619 16.5967C62.9625 17.1959 62.1989 17.6038 61.3677 17.769C60.5365 17.9343 59.6749 17.8494 58.8919 17.5251C58.109 17.2008 57.4397 16.6516 56.9688 15.947C56.4978 15.2424 56.2463 14.414 56.2461 13.5665C56.2428 12.7175 56.492 11.8866 56.9622 11.1796C57.4324 10.4726 58.1022 9.92138 58.8865 9.5961C59.6708 9.27081 60.5341 9.18614 61.3666 9.35284C62.1992 9.51954 62.9633 9.93009 63.5619 10.5323Z" fill="black"/>
<path d="M17.6536 17.8426H13.3656L17.6536 13.5566V17.8426Z" fill="black"/>
<path d="M4.7893 8.94553L9.07526 13.2315V9.58674L4.7893 5.30078V8.94553Z" fill="#F37021"/>
<path d="M5.11395 4.98054L9.40194 9.2665L13.0389 9.26245L8.75297 4.97852H5.1126" fill="#F37021"/>
<path d="M0.822254 9.26562L5.11091 13.5543L8.75229 13.5492L4.46869 9.26562H0.823942" fill="#F37021"/>
<path d="M0.500301 13.5631L4.7893 17.8352V13.8726L0.500301 9.58594V13.5631Z" fill="#F37021"/>
<path d="M13.3656 0.6875H9.39484L13.6835 4.97616L17.6536 4.97042L13.3656 0.6875Z" fill="#F37021"/>
<path d="M9.07661 4.66151L13.3653 8.94747V5.30744L9.07661 1.02148V4.66286" fill="#F37021"/>
<path d="M63.9797 9.56811C63.8096 9.56798 63.6434 9.51742 63.502 9.42281C63.3606 9.32821 63.2505 9.19381 63.1855 9.03661C63.1205 8.87942 63.1035 8.70647 63.1368 8.53965C63.1701 8.37283 63.252 8.21961 63.3724 8.09937C63.4927 7.97914 63.646 7.89727 63.8128 7.86414C63.9797 7.831 64.1526 7.84807 64.3098 7.9132C64.4669 7.97833 64.6012 8.08859 64.6957 8.23004C64.7902 8.37149 64.8406 8.53778 64.8406 8.70789C64.8403 8.93604 64.7494 9.15474 64.588 9.316C64.4266 9.47727 64.2079 9.56794 63.9797 9.56811ZM63.9797 7.95531C63.8308 7.95531 63.6852 7.99948 63.5614 8.08222C63.4376 8.16497 63.3411 8.28258 63.2841 8.42017C63.2271 8.55777 63.2122 8.70917 63.2413 8.85523C63.2704 9.00129 63.3421 9.13545 63.4475 9.24073C63.5528 9.34601 63.687 9.41769 63.833 9.44671C63.9791 9.47572 64.1305 9.46076 64.2681 9.40372C64.4057 9.34669 64.5232 9.25013 64.6059 9.12627C64.6886 9.00241 64.7327 8.85681 64.7326 8.70789C64.7324 8.50831 64.6529 8.317 64.5118 8.17591C64.3706 8.03483 64.1793 7.95549 63.9797 7.95531Z" fill="#010101"/>
<path d="M64.1944 9.13825C64.1944 9.06882 64.1741 9.0009 64.1358 8.94298C64.0975 8.88506 64.043 8.83971 63.9791 8.81258L63.8721 8.76635V9.13757H63.7648V8.331C63.7647 8.32394 63.7661 8.31695 63.7688 8.31042C63.7714 8.30389 63.7754 8.29795 63.7804 8.29296C63.7854 8.28797 63.7913 8.28402 63.7978 8.28134C63.8044 8.27866 63.8114 8.2773 63.8184 8.27734H64.06C64.1203 8.27773 64.1783 8.30059 64.2227 8.34145C64.267 8.38231 64.2945 8.43823 64.2999 8.49829C64.3052 8.55835 64.2879 8.61824 64.2514 8.66625C64.2149 8.71426 64.1619 8.74694 64.1026 8.75791C64.1641 8.80028 64.2144 8.85697 64.2492 8.92312C64.2839 8.98926 64.3021 9.06286 64.302 9.13757L64.1944 9.13825ZM63.8717 8.65431H64.0597C64.0955 8.65431 64.1298 8.64008 64.1552 8.61477C64.1805 8.58945 64.1947 8.55512 64.1947 8.51932C64.1947 8.48351 64.1805 8.44918 64.1552 8.42386C64.1298 8.39855 64.0955 8.38432 64.0597 8.38432H63.8717V8.65431Z" fill="#010101"/>
</g>
<defs>
<clipPath id="clip0_2123_4740">
<rect width="64.339" height="23.6237" fill="white" transform="translate(0.500977 0.6875)"/>
</clipPath>
</defs>
</svg>
