<svg width="20" height="20" viewBox="0 0 20 20" fill="none" xmlns="http://www.w3.org/2000/svg">
<path d="M18.3264 4.06104H0.00203666C0.00203666 4.06104 0.0177004 15.0107 0.00203666 15.6166C0.00191947 15.6218 0.00191947 15.627 0.00207572 15.6322C0.0178176 16.2152 0.255899 16.7607 0.672415 17.1683C1.08991 17.5768 1.64099 17.8018 2.2243 17.8018H11.9031C11.981 17.8018 12.0556 17.7708 12.1107 17.7156L18.534 11.2717C18.589 11.2164 18.6199 11.1416 18.6199 11.0634V4.35549C18.6199 4.19282 18.4885 4.06104 18.3264 4.06104Z" fill="#E0E0E2"/>
<path d="M5.31055 11.7611H6.51006L7.47188 8.73318L12.1291 4.06104H11.0332L6.376 8.73318L5.31055 11.7611Z" fill="#C6C5CA"/>
<path d="M18.3261 4.06104H17.3477V12.4615L18.5337 11.2717C18.5887 11.2164 18.6196 11.1416 18.6196 11.0634V4.35549C18.6197 4.19282 18.4882 4.06104 18.3261 4.06104Z" fill="#C6C5CA"/>
<path d="M13.374 12.0026H5.24472C5.08262 12.0026 4.95117 11.8707 4.95117 11.7081C4.95117 11.5454 5.08262 11.4136 5.24472 11.4136H13.374C13.5362 11.4136 13.6676 11.5454 13.6676 11.7081C13.6676 11.8707 13.5361 12.0026 13.374 12.0026Z" fill="#3C5156"/>
<path d="M2.23074 13.2821C2.35734 13.2821 2.48136 13.2931 2.6023 13.3133V1.14752C2.6023 0.984853 2.47085 0.853027 2.30875 0.853027C1.03572 0.853027 0 1.89204 0 3.16919V15.2308C0.151208 14.13 1.09201 13.2821 2.23074 13.2821Z" fill="#919191"/>
<path d="M15.9357 3.77962L14.1728 2.01102C14.1177 1.9558 14.0431 1.9248 13.9652 1.9248C13.8874 1.9248 13.8127 1.95584 13.7577 2.01102L7.26496 8.52453C7.26105 8.52844 7.25758 8.53264 7.25391 8.53679L9.46363 10.6888L15.9357 4.1961C16.0504 4.08104 16.0504 3.89463 15.9357 3.77962Z" fill="#FFD039"/>
<path d="M8.65625 9.90411L9.46268 10.6895L15.9347 4.19674C16.0494 4.08169 16.0494 3.89527 15.9347 3.78026L15.3473 3.19092L8.65625 9.90411Z" fill="#FFA304"/>
<path d="M7.25434 8.53809C7.22837 8.56673 7.20766 8.60043 7.19438 8.63813L6.23354 11.3688C6.19592 11.4758 6.22284 11.5949 6.30276 11.6751C6.35877 11.7313 6.43381 11.7613 6.51033 11.7613C6.54311 11.7613 6.57607 11.7558 6.60803 11.7445L9.32993 10.7805C9.38232 10.762 9.427 10.7289 9.46071 10.6869L7.25434 8.53809Z" fill="#FFC89F"/>
<path d="M6.50838 11.761C6.54115 11.761 6.57412 11.7556 6.60607 11.7442L9.32798 10.7803C9.38036 10.7618 9.42505 10.7287 9.45876 10.6866L8.65397 9.90283L6.47162 10.6864L6.23159 11.3685C6.19397 11.4754 6.22088 11.5945 6.3008 11.6748C6.35682 11.731 6.43182 11.761 6.50838 11.761Z" fill="#F7B081"/>
<path d="M6.51029 11.7609C6.54306 11.7609 6.57603 11.7554 6.60799 11.7441L8.32451 11.1362L6.83665 9.6543L6.23354 11.3684C6.19592 11.4753 6.22284 11.5944 6.30276 11.6746C6.35873 11.7309 6.43373 11.7609 6.51029 11.7609Z" fill="#3C5156"/>
<path d="M7.50008 10.3169L6.47162 10.6862L6.23159 11.3683C6.19397 11.4752 6.22088 11.5943 6.3008 11.6745C6.35682 11.7307 6.43186 11.7608 6.50838 11.7608C6.54115 11.7608 6.57412 11.7553 6.60607 11.7439L8.32261 11.1361L7.50008 10.3169Z" fill="#304144"/>
<path d="M16.8894 2.82306L15.1265 1.05449C15.0118 0.939518 14.826 0.939518 14.7113 1.05449L13.5508 2.21875L15.728 4.40473L16.8894 3.23958C16.9444 3.18432 16.9753 3.10948 16.9753 3.03134C16.9753 2.95324 16.9444 2.87835 16.8894 2.82306Z" fill="#FF6137"/>
<path d="M14.9336 3.60697L15.2094 3.88387L15.7285 4.40466L16.8898 3.23971C16.9448 3.18445 16.9757 3.1096 16.9757 3.03146C16.9757 2.95336 16.9448 2.87848 16.8898 2.82322L16.3023 2.23389L14.9336 3.60697Z" fill="#E04F32"/>
<path d="M17.6789 1.17813L16.7666 0.262947C16.5976 0.0933833 16.3728 0 16.1337 0C15.8947 0 15.6699 0.0933833 15.5008 0.262947L14.9196 0.846054L14.7115 1.05477L14.5 1.26696L16.6821 3.44801L16.9937 3.13534L17.6789 2.44799C17.8479 2.27843 17.941 2.05287 17.941 1.81304C17.941 1.57321 17.8479 1.34773 17.6789 1.17813Z" fill="#546F7A"/>
<path d="M14.5016 1.26318L14.498 1.26679L15.1491 1.91745L14.5016 1.26318Z" fill="#475D63"/>
<path d="M17.6772 1.17828L16.9572 0.456055C17.075 0.613039 17.1396 0.803215 17.1396 1.00385C17.1396 1.24635 17.0465 1.47434 16.8775 1.64586L16.1923 2.34085L15.8848 2.65293L16.6805 3.44824L16.9921 3.13557L17.6772 2.44822C17.8463 2.27866 17.9393 2.05309 17.9393 1.81327C17.9393 1.57344 17.8462 1.34788 17.6772 1.17828Z" fill="#475D63"/>
<path d="M19.818 9.40721C19.7083 9.3616 19.582 9.3868 19.498 9.47101L9.50395 19.4972C9.42001 19.5815 9.39489 19.7081 9.44032 19.8182C9.48575 19.9282 9.59281 20 9.71152 20H19.7057C19.8678 20 19.9992 19.8681 19.9992 19.7055V9.67929C19.9992 9.5602 19.9276 9.45275 19.818 9.40721ZM14.3755 17.6179L17.5835 14.3996V17.6179H14.3755Z" fill="#FFCA10"/>
<path d="M19.8174 9.40721C19.7077 9.3616 19.5815 9.3868 19.4975 9.47101L18.7266 10.2444V20H19.705C19.8671 20 19.9986 19.8682 19.9986 19.7055V9.67929C19.9986 9.5602 19.927 9.45275 19.8174 9.40721Z" fill="#FFA304"/>
<path d="M19.9984 12.9878H18.8697C18.7076 12.9878 18.5762 13.1196 18.5762 13.2823C18.5762 13.445 18.7076 13.5768 18.8697 13.5768H19.9984V12.9878Z" fill="#C96E14"/>
<path d="M19.9984 14.4644H18.8697C18.7076 14.4644 18.5762 14.5962 18.5762 14.7588C18.5762 14.9215 18.7076 15.0533 18.8697 15.0533H19.9984V14.4644Z" fill="#C96E14"/>
<path d="M19.9984 15.9404H18.8697C18.7076 15.9404 18.5762 16.0723 18.5762 16.2349C18.5762 16.3976 18.7076 16.5294 18.8697 16.5294H19.9984V15.9404Z" fill="#C96E14"/>
<path d="M19.9984 17.4165H18.8697C18.7076 17.4165 18.5762 17.5484 18.5762 17.711C18.5762 17.8737 18.7076 18.0055 18.8697 18.0055H19.9984V17.4165Z" fill="#C96E14"/>
</svg>
