<svg width="21" height="20" viewBox="0 0 21 20" fill="none" xmlns="http://www.w3.org/2000/svg">
<path d="M11.0922 16.4209L7.70628 17.684L7.57791 18.1535C7.39562 18.8217 6.70305 19.3682 6.03906 19.3682V19.684H13.0613L11.0922 16.4209Z" fill="#ADACA7"/>
<path d="M12.4267 18.1535L11.9534 16.4209L10.0017 15.1577L8.04995 16.4209L7.70508 17.684H11.091L11.2194 18.1535C11.4017 18.8217 12.0943 19.3682 12.7583 19.3682L13.3619 19.684L13.9655 19.3682C13.3015 19.3682 12.609 18.8217 12.4267 18.1535Z" fill="#8F8F8B"/>
<path d="M17.5859 16.4212H18.7932C19.4572 16.4212 20.0005 15.8528 20.0005 15.1581V12.6318L17.5859 10.1055V16.4212Z" fill="#ADACA7"/>
<path d="M0.00195312 15.1575C0.00195312 15.8523 0.54522 16.4207 1.20921 16.4207H17.5877C18.2517 16.4207 18.795 15.8523 18.795 15.1575V7.57861L0.00195312 12.6312V15.1575Z" fill="#CBC9C2"/>
<path d="M18.7932 0H17.5859L18.7932 12.6315H20.0005V1.26315C20.0005 0.568418 19.4572 0 18.7932 0Z" fill="#404242"/>
<path d="M18.795 1.26315C18.795 0.568418 18.2517 0 17.5877 0H1.20921C0.54522 0 0.00195312 0.568418 0.00195312 1.26315V12.6315H18.795V11.3684L10.0021 6.31521L18.795 1.26315Z" fill="#565959"/>
<path d="M18.7948 1.26309L17.5878 1.26221C17.5878 1.26242 10.002 6.31536 10.002 6.31536C10.002 6.31536 17.5877 11.3684 17.5876 11.3685L18.7948 11.3677C18.7948 11.3677 18.7947 1.26326 18.7948 1.26309Z" fill="#4B88D5"/>
<path d="M17.5875 1.26313L1.21253 1.26221C1.21152 1.26271 1.21067 11.3683 1.20898 11.3686C1.20898 11.3686 17.5867 11.3677 17.5871 11.3677C17.5873 11.3677 17.5858 1.2633 17.5875 1.26313Z" fill="#69A7FF"/>
<path d="M10.0021 15.1577C10.3354 15.1577 10.6057 14.8749 10.6057 14.5261C10.6057 14.1773 10.3354 13.8945 10.0021 13.8945C9.66869 13.8945 9.39844 14.1773 9.39844 14.5261C9.39844 14.8749 9.66869 15.1577 10.0021 15.1577Z" fill="white"/>
<path d="M16.2397 20.0002H3.76471C3.59802 20.0002 3.46289 19.8589 3.46289 19.6844C3.46289 19.51 3.59802 19.3687 3.76471 19.3687H16.2397C16.4064 19.3687 16.5415 19.51 16.5415 19.6844C16.5415 19.8589 16.4064 20.0002 16.2397 20.0002Z" fill="#8F8F8B"/>
</svg>
