<svg width="20" height="20" viewBox="0 0 20 20" fill="none" xmlns="http://www.w3.org/2000/svg">
<path d="M11.75 14.2835C11.695 14.6276 11.6074 14.96 11.4895 15.278L12.5477 16.2563C12.3993 16.5749 12.2303 16.8811 12.0353 17.1687L10.6766 16.7218C10.4623 16.989 10.2223 17.2335 9.96034 17.4521L10.3984 18.8384C10.1165 19.0373 9.81636 19.2094 9.50405 19.3611L8.54514 18.2815C8.23351 18.4018 7.90801 18.4911 7.57035 18.5473L7.26852 19.9736C7.09783 19.9874 6.92647 20.0001 6.75206 20.0001C6.57765 20.0001 6.40629 19.9874 6.23526 19.9736L5.93342 18.5473C5.5961 18.4911 5.27027 18.4018 4.95864 18.2815L3.99973 19.3611C3.68742 19.2098 3.38728 19.0373 3.10539 18.8384L3.54343 17.4521C3.28148 17.2335 3.04184 16.9887 2.82755 16.7218L1.4688 17.1687C1.27377 16.8811 1.10511 16.5749 0.95639 16.2563L2.01466 15.278C1.8967 14.96 1.80916 14.628 1.75407 14.2835L0.356104 13.9755C0.342584 13.8011 0.330078 13.6262 0.330078 13.4483C0.330078 13.2704 0.342584 13.0955 0.356104 12.9211L1.75407 12.6131C1.80916 12.269 1.8967 11.9366 2.01466 11.6186L0.95639 10.6403C1.10477 10.3217 1.27377 10.0155 1.4688 9.7279L2.82755 10.1748C3.04184 9.90756 3.28182 9.66307 3.54377 9.44445L3.10573 8.05822C3.38762 7.85926 3.68776 7.68719 4.00007 7.53546L4.95897 8.61513C5.27061 8.49478 5.5961 8.40547 5.93376 8.34926L6.2356 6.92304C6.40628 6.90924 6.57765 6.89648 6.75206 6.89648C6.92647 6.89648 7.09783 6.90924 7.26886 6.92304L7.57069 8.34926C7.90801 8.40547 8.23384 8.49478 8.54548 8.61513L9.50438 7.53546C9.81669 7.68684 10.1168 7.85926 10.3987 8.05822L9.96068 9.44445C10.2226 9.66307 10.4623 9.9079 10.6766 10.1751L12.0353 9.72825C12.2303 10.0158 12.399 10.322 12.5477 10.6407L11.4895 11.619C11.6074 11.9369 11.695 12.269 11.75 12.6135L13.148 12.9214C13.1615 13.0955 13.174 13.2704 13.174 13.4483C13.174 13.6262 13.1615 13.8011 13.148 13.9755L11.75 14.2835ZM6.75206 9.99998C4.88529 9.99998 3.37207 11.5438 3.37207 13.4483C3.37207 15.3528 4.88529 16.8966 6.75206 16.8966C8.61883 16.8966 10.132 15.3528 10.132 13.4483C10.132 11.5438 8.61883 9.99998 6.75206 9.99998Z" fill="#454A6D"/>
<path d="M16.4395 4.58799C16.3868 4.76627 16.3179 4.93731 16.233 5.09835L16.7667 6.14181C16.5866 6.37423 16.3811 6.58388 16.1532 6.76768L15.1305 6.22319C14.9726 6.31009 14.805 6.38043 14.6302 6.43388L14.2841 7.55803C14.1415 7.57528 13.9975 7.58631 13.8508 7.58631C13.7041 7.58631 13.5601 7.57528 13.4178 7.55838L13.0717 6.43423C12.897 6.38078 12.7293 6.31009 12.5715 6.22353L11.5487 6.76802C11.3209 6.58423 11.1154 6.37457 10.9352 6.14215L11.4689 5.09869C11.3837 4.93765 11.3148 4.76662 11.2624 4.58834L10.1605 4.23523C10.1436 4.08971 10.1328 3.94281 10.1328 3.79316C10.1328 3.6435 10.1436 3.4966 10.1602 3.35143L11.2621 2.99832C11.3145 2.82004 11.3837 2.649 11.4686 2.48797L10.9349 1.4445C11.115 1.21209 11.3205 1.00243 11.5484 0.818632L12.5711 1.36312C12.729 1.27622 12.8966 1.20588 13.0714 1.15243L13.4175 0.0282763C13.5601 0.0110346 13.7041 0 13.8508 0C13.9975 0 14.1415 0.0110347 14.2838 0.0279314L14.6299 1.15208C14.8046 1.20553 14.9723 1.27622 15.1301 1.36278L16.1529 0.818287C16.3807 1.00208 16.5862 1.21174 16.7664 1.44416L16.2327 2.48762C16.3179 2.64866 16.3868 2.81969 16.4392 2.99797L17.5411 3.35108C17.558 3.4966 17.5688 3.6435 17.5688 3.79316C17.5688 3.94281 17.558 4.08971 17.5414 4.23489L16.4395 4.58799ZM13.8508 2.41383C13.1042 2.41383 12.4988 3.03142 12.4988 3.79316C12.4988 4.55489 13.1042 5.17248 13.8508 5.17248C14.5974 5.17248 15.2028 4.55489 15.2028 3.79316C15.2028 3.03142 14.5974 2.41383 13.8508 2.41383Z" fill="#E89D43"/>
<path d="M19.1713 12.3693C19.1193 12.5607 19.0459 12.742 18.952 12.9114L19.2883 13.6334C19.1355 13.8324 18.9601 14.0114 18.7651 14.1672L18.0573 13.8241C17.8917 13.92 17.7135 13.9948 17.5259 14.0479L17.263 14.8024C17.1416 14.8176 17.019 14.8276 16.8936 14.8276C16.7682 14.8276 16.6455 14.8176 16.5241 14.8024L16.2612 14.0479C16.0736 13.9948 15.8958 13.92 15.7298 13.8241L15.0221 14.1672C14.827 14.0114 14.6516 13.8324 14.4988 13.6334L14.8351 12.9114C14.7412 12.7424 14.6678 12.5607 14.6158 12.3696L13.8762 12.1013C13.8614 11.9772 13.8516 11.852 13.8516 11.7241C13.8516 11.5962 13.8614 11.471 13.8762 11.3472L14.6158 11.0789C14.6678 10.8875 14.7412 10.7062 14.8351 10.5372L14.4988 9.8151C14.6516 9.61614 14.827 9.43717 15.0221 9.2813L15.7298 9.62441C15.8954 9.52855 16.0736 9.45372 16.2612 9.40062L16.5241 8.64612C16.6455 8.63061 16.7682 8.62061 16.8936 8.62061C17.019 8.62061 17.1416 8.63061 17.263 8.64578L17.5259 9.40027C17.7135 9.45338 17.8913 9.5282 18.0573 9.62407L18.7651 9.28096C18.9601 9.43682 19.1355 9.61579 19.2883 9.81476L18.952 10.5368C19.0459 10.7058 19.1193 10.8875 19.1713 11.0789L19.9109 11.3472C19.9257 11.471 19.9355 11.5962 19.9355 11.7241C19.9355 11.852 19.9257 11.9772 19.9109 12.101L19.1713 12.3693ZM16.8936 10.6896C16.3335 10.6896 15.8796 11.1527 15.8796 11.7241C15.8796 12.2955 16.3335 12.7586 16.8936 12.7586C17.4536 12.7586 17.9075 12.2955 17.9075 11.7241C17.9075 11.1527 17.4536 10.6896 16.8936 10.6896Z" fill="#4AC3ED"/>
<path d="M20 0.696111L17.9785 0.283691L17.5742 2.34579L18.237 2.48131L18.4192 1.55302C18.7467 2.2482 18.9198 3.01442 18.9198 3.79271C18.9198 4.98169 18.5351 6.09963 17.8078 7.02551L18.3354 7.45689C19.1483 6.42205 19.5958 5.121 19.5958 3.79271C19.5958 2.88959 19.3913 1.99923 19.0023 1.19577L19.8675 1.37233L20 0.696111Z" fill="#454A6D"/>
<path d="M7.32951 3.54932L6.85158 4.03691L7.31092 4.50553C7.12502 4.49347 6.93878 4.48278 6.75254 4.48278C4.13778 4.48278 1.67647 5.659 0 7.71006L0.519166 8.15179C2.06686 6.25831 4.33855 5.17244 6.75254 5.17244C6.92458 5.17244 7.09629 5.18244 7.26799 5.19347L6.85158 5.61831L7.32951 6.1059L8.58247 4.82761L7.32951 3.54932Z" fill="#454A6D"/>
</svg>
