<svg width="20" height="20" viewBox="0 0 20 20" fill="none" xmlns="http://www.w3.org/2000/svg">
<path d="M19.3085 8.14999C19.3056 8.41741 19.1952 8.67283 19.0014 8.86053C18.8076 9.04823 18.5462 9.15297 18.2741 9.1519H11.7227V8.13499L13.1019 7.68289L13.7915 7.45705L14.0167 6.35035C14.0544 6.1651 14.131 5.98963 14.2417 5.83521C14.3524 5.68078 14.4948 5.5508 14.6595 5.4536L15.1708 5.15205L16.1738 4.56055L17.2397 5.08426L18.208 5.5602C18.4748 5.69132 18.6911 5.90392 18.8246 6.16611L18.8461 6.20836C19.1525 6.81115 19.3109 7.47615 19.3085 8.14999Z" fill="#FFA100"/>
<path d="M17.2408 5.08426V7.71128L15.5167 8.13499V9.15191H15.1719V5.15205L16.1749 4.56055L17.2408 5.08426Z" fill="#E67A00"/>
<path d="M14.6279 4.7454C14.518 4.7454 14.4092 4.72412 14.3076 4.68278C14.2061 4.64143 14.1138 4.58083 14.0361 4.50444C13.9584 4.42804 13.8968 4.33735 13.8547 4.23754C13.8127 4.13772 13.791 4.03074 13.791 3.9227C13.791 3.79498 13.8213 3.66902 13.8794 3.55478L14.1358 3.05055L14.1356 2.65204C14.1354 2.39284 14.1872 2.13613 14.288 1.89661C14.3888 1.65708 14.5366 1.43943 14.723 1.25608C14.9094 1.07274 15.1307 0.927291 15.3743 0.828058C15.6179 0.728825 15.879 0.677749 16.1426 0.677749H16.1946C16.4671 0.676737 16.7371 0.728593 16.9892 0.830345C17.2412 0.932096 17.4704 1.08174 17.6635 1.27071C17.8567 1.45968 18.01 1.68426 18.1147 1.93157C18.2194 2.17889 18.2734 2.44408 18.2736 2.71195C18.2736 2.91642 18.2736 3.05055 18.2736 3.05055L18.53 3.55456C18.5882 3.66883 18.6184 3.79484 18.6184 3.9226C18.6184 4.03065 18.5968 4.13765 18.5547 4.23747C18.5127 4.3373 18.451 4.42801 18.3733 4.50441C18.2956 4.58081 18.2033 4.64142 18.1017 4.68277C18.0002 4.72412 17.8914 4.7454 17.7814 4.7454H14.6279Z" fill="#B1712C"/>
<path d="M8.96591 19.6604H20V10.8472H8.62109L8.96591 19.6604Z" fill="#91591C"/>
<path d="M8.62109 9.15186H20V10.8467H8.62109V9.15186Z" fill="#B1712C"/>
<path d="M1.03427 19.9994C0.988986 19.9994 0.944147 19.9907 0.902312 19.9736C0.860476 19.9566 0.822463 19.9316 0.790444 19.9002C0.758425 19.8687 0.733026 19.8313 0.715698 19.7902C0.69837 19.7491 0.689452 19.705 0.689453 19.6605V18.9825C0.689453 18.8926 0.725782 18.8064 0.790447 18.7428C0.855113 18.6793 0.942818 18.6436 1.03427 18.6436C1.12572 18.6436 1.21342 18.6793 1.27809 18.7428C1.34275 18.8064 1.37908 18.8926 1.37908 18.9825V19.6605C1.37908 19.705 1.37017 19.7491 1.35284 19.7902C1.33551 19.8313 1.31011 19.8687 1.27809 19.9002C1.24607 19.9316 1.20806 19.9566 1.16622 19.9736C1.12439 19.9907 1.07955 19.9994 1.03427 19.9994Z" fill="#FFA100"/>
<path d="M3.44833 19.9994C3.40305 19.9994 3.35821 19.9907 3.31637 19.9736C3.27454 19.9566 3.23653 19.9316 3.20451 19.9002C3.17249 19.8687 3.14709 19.8313 3.12976 19.7902C3.11243 19.7491 3.10351 19.705 3.10352 19.6605V18.9825C3.10352 18.8926 3.13984 18.8064 3.20451 18.7428C3.26918 18.6793 3.35688 18.6436 3.44833 18.6436C3.53978 18.6436 3.62749 18.6793 3.69215 18.7428C3.75682 18.8064 3.79315 18.8926 3.79315 18.9825V19.6605C3.79315 19.705 3.78423 19.7491 3.7669 19.7902C3.74957 19.8313 3.72417 19.8687 3.69215 19.9002C3.66014 19.9316 3.62212 19.9566 3.58029 19.9736C3.53845 19.9907 3.49361 19.9994 3.44833 19.9994Z" fill="#FFA100"/>
<path d="M5.17223 9.49122H8.96519V4.96829C8.96519 4.60869 8.81988 4.26381 8.56122 4.00954L7.58593 3.05078H6.20667L5.05765 4.18033C4.90624 4.32917 4.79216 4.51063 4.72445 4.71032L3.79297 7.4574L5.17223 9.49122Z" fill="#6173E8"/>
<path d="M7.93217 1.35596V2.37287C7.93217 2.64257 7.82319 2.90123 7.62919 3.09193C7.43519 3.28264 7.17208 3.38978 6.89773 3.38978C6.62337 3.38978 6.36026 3.28264 6.16626 3.09193C5.97227 2.90123 5.86328 2.64257 5.86328 2.37287V1.35596H7.93217Z" fill="#FFCEB6"/>
<path d="M5.86328 1.35588H7.93217V0.780573C7.93217 0.678066 7.91163 0.576564 7.87173 0.48186C7.83183 0.387157 7.77334 0.301107 7.6996 0.228624C7.62587 0.156141 7.53834 0.0986449 7.442 0.0594175C7.34567 0.02019 7.24241 -5.56428e-08 7.13814 0C6.98138 -6.32682e-08 6.82812 0.045615 6.69769 0.131097L5.86328 0.677941V1.35588Z" fill="#B1712C"/>
<path d="M6.20667 7.11837L5.86186 7.79631V11.186H4.82741L3.79297 7.45734L4.13778 6.44043L6.20667 7.11837Z" fill="#FFCEB6"/>
<path d="M8.96484 7.11865L11.0337 9.15248L10.3441 9.83042L8.96484 9.15248V7.11865Z" fill="#FFCEB6"/>
<path d="M7.66268 15.145L5.86257 19.6603H4.82812L5.51775 15.2537V11.186H7.58664L7.66268 15.145Z" fill="#556C80"/>
<path d="M0 13.5586H4.48259V18.9821H0V13.5586Z" fill="#FFC431"/>
<path d="M3.44886 14.5757H2.75923V11.864H1.72479V14.5757H1.03516V11.525C1.03515 11.4805 1.04407 11.4364 1.0614 11.3953C1.07873 11.3542 1.10413 11.3168 1.13615 11.2853C1.16817 11.2538 1.20618 11.2289 1.24801 11.2118C1.28985 11.1948 1.33469 11.186 1.37997 11.186H3.10405C3.14933 11.186 3.19417 11.1948 3.236 11.2118C3.27784 11.2289 3.31585 11.2538 3.34787 11.2853C3.37989 11.3168 3.40529 11.3542 3.42262 11.3953C3.43994 11.4364 3.44886 11.4805 3.44886 11.525V14.5757Z" fill="#FFA100"/>
<path d="M15.1719 2.71212L15.8615 2.03418L16.5511 2.71212H17.2408V3.72903C17.2408 3.99873 17.1318 4.25739 16.9378 4.4481C16.7438 4.63881 16.4807 4.74594 16.2063 4.74594C15.932 4.74594 15.6689 4.63881 15.4749 4.4481C15.2809 4.25739 15.1719 3.99873 15.1719 3.72903V2.71212Z" fill="#FFCEB6"/>
<path d="M13.1019 7.68311V9.15212H11.7227V8.13521L13.1019 7.68311Z" fill="#FFCEB6"/>
<path d="M14.4805 17.6265H15.1701V18.3044H14.4805V17.6265Z" fill="#B1712C"/>
<path d="M15.8613 17.6265H18.6198V18.3044H15.8613V17.6265Z" fill="#B1712C"/>
<path d="M16.5488 16.2705H18.6177V16.9484H16.5488V16.2705Z" fill="#B1712C"/>
<path d="M8.96662 9.49121L9.65625 19.6603H8.6218L5.86328 11.1861V9.49121H8.96662Z" fill="#62798C"/>
<path d="M16.8968 7.79639V9.15227H15.5176V8.13536L16.8968 7.79639Z" fill="#FFCEB6"/>
</svg>
