<svg width="20" height="20" viewBox="0 0 20 20" fill="none" xmlns="http://www.w3.org/2000/svg">
<path d="M8.20312 5.85938H12.8906V9.45312H8.20312V5.85938Z" fill="#FBA837"/>
<path d="M17.6562 5.3125C17.5864 5.3125 17.5163 5.31582 17.442 5.32258L11.1328 5.85938V9.45312L17.4418 9.98992C17.5163 9.99668 17.5864 10 17.6562 10C18.9486 10 20 8.94859 20 7.65625C20 6.36391 18.9486 5.3125 17.6562 5.3125Z" fill="#F03938"/>
<path d="M9.375 5.27344V2.34375H5.27344L3.51562 7.03125L9.375 5.27344Z" fill="#F88338"/>
<path d="M5.27344 2.34375H1.17188V5.27344L5.27344 7.03125V2.34375Z" fill="#FBA837"/>
<path d="M2.92969 12.3828L9.375 10.0391V5.27344H5.27344L2.92969 12.3828Z" fill="#F45E38"/>
<path d="M5.27344 5.27344H1.17188V10.0391L5.27344 12.3828V5.27344Z" fill="#F88338"/>
<path d="M5.27344 10.0391L4.10156 12.9688H9.375V10.0391H5.27344Z" fill="#F88338"/>
<path d="M1.17188 10.0391H5.27344V12.9688H1.17188V10.0391Z" fill="#FBA837"/>
<path d="M10.5469 16.4844H5.27344L2.92969 18.2422L5.27344 20H10.5469V16.4844Z" fill="#F03938"/>
<path d="M0 16.4844H5.27344V20H0V16.4844Z" fill="#F45E38"/>
<path d="M8.78906 11.7969H5.27344L4.10156 13.5547L5.27344 15.3125H8.78906C9.75832 15.3125 10.5469 14.5239 10.5469 13.5547C10.5469 12.5854 9.75832 11.7969 8.78906 11.7969Z" fill="#F45E38"/>
<path d="M1.75781 11.7969C0.788555 11.7969 0 12.5854 0 13.5547C0 14.5239 0.788555 15.3125 1.75781 15.3125H5.27344V11.7969H1.75781Z" fill="#F88338"/>
<path d="M8.78906 0H5.27344L4.10156 1.75781L5.27344 3.51562H8.78906C9.75832 3.51562 10.5469 2.72707 10.5469 1.75781C10.5469 0.788555 9.75832 0 8.78906 0Z" fill="#F45E38"/>
<path d="M1.75781 0C0.788555 0 0 0.788555 0 1.75781C0 2.72707 0.788555 3.51562 1.75781 3.51562H5.27344V0H1.75781Z" fill="#F88338"/>
</svg>
