<svg width="16" height="20" viewBox="0 0 16 20" fill="none" xmlns="http://www.w3.org/2000/svg">
<path d="M13.2754 5.3125V12.9297H2.72852V5.3125C2.72852 2.39453 5.08398 0 8.00195 0C9.45508 0 10.7793 0.585937 11.7285 1.54688C12.6895 2.49609 13.2754 3.85938 13.2754 5.3125Z" fill="#663D3D"/>
<path d="M13.2754 5.3125V12.9297H8.00195V0C9.45508 0 10.7793 0.585937 11.7285 1.54688C12.6895 2.49609 13.2754 3.85938 13.2754 5.3125Z" fill="#4D2E2E"/>
<path d="M10.3457 9.41406H8.00195H5.6582C2.75027 9.41406 0.384766 11.7796 0.384766 14.6875V17.0703C0.384766 18.6857 1.6991 20 3.31445 20H12.1035L12.6895 18.8281L13.2754 20H15.0332C15.3571 20 15.6191 19.7379 15.6191 19.4141V14.6875C15.6191 11.7796 13.2536 9.41406 10.3457 9.41406Z" fill="#FFDF40"/>
<path d="M12.1035 20L12.6895 18.8281L13.2754 20H15.0332C15.3571 20 15.6191 19.7379 15.6191 19.4141V14.6875C15.6191 11.7796 13.2536 9.41406 10.3457 9.41406H8.00195V19.8162L8.58789 20H12.1035Z" fill="#FFBE40"/>
<path d="M8.00195 17.6562H3.31445C2.99086 17.6562 2.72852 17.3939 2.72852 17.0703V14.7266C2.72852 14.403 2.99086 14.1406 3.31445 14.1406C3.63805 14.1406 3.90039 14.403 3.90039 14.7266V16.4844H8.00195C8.32555 16.4844 8.58789 16.7467 8.58789 17.0703C8.58789 17.3939 8.32555 17.6562 8.00195 17.6562Z" fill="#FFBE40"/>
<path d="M8.00195 14.1016C8.97277 14.1016 9.75977 13.3146 9.75977 12.3438C9.75977 11.3729 8.97277 10.5859 8.00195 10.5859C7.03114 10.5859 6.24414 11.3729 6.24414 12.3438C6.24414 13.3146 7.03114 14.1016 8.00195 14.1016Z" fill="#F3F5F9"/>
<path d="M9.75977 12.3438C9.75977 13.3164 8.97465 14.1016 8.00195 14.1016V10.5859C8.97465 10.5859 9.75977 11.3711 9.75977 12.3438Z" fill="#E1E6F0"/>
<path d="M10.3457 4.72656C9.38477 4.72656 8.54105 4.26953 8.00195 3.55469C7.46285 4.26953 6.61914 4.72656 5.6582 4.72656C5.33004 4.72656 5.07227 4.98434 5.07227 5.3125V6.48438C5.07227 8.10156 6.38477 9.41406 8.00195 9.41406C9.61914 9.41406 10.9316 8.10156 10.9316 6.48438V5.3125C10.9316 4.98434 10.6739 4.72656 10.3457 4.72656Z" fill="#FFE6CC"/>
<path d="M10.9316 6.48438V5.3125C10.9316 4.98434 10.6739 4.72656 10.3457 4.72656C9.38477 4.72656 8.54105 4.26953 8.00195 3.55469V9.41406C9.61914 9.41406 10.9316 8.10156 10.9316 6.48438Z" fill="#FFCCB3"/>
<path d="M8.00195 18.2422C8.33012 18.2422 8.58789 17.9843 8.58789 17.6562V14.6875C8.58789 14.3593 8.33012 14.1016 8.00195 14.1016C7.67379 14.1016 7.41602 14.3593 7.41602 14.6875V17.6562L8.00195 18.2422Z" fill="#663D3D"/>
<path d="M8.58789 14.6875V17.6562C8.58789 17.9843 8.33012 18.2422 8.00195 18.2422V14.1016C8.33012 14.1016 8.58789 14.3593 8.58789 14.6875Z" fill="#4D2E2E"/>
<path d="M9.75977 12.9297H8.00195H6.24414C5.91598 12.9297 5.6582 13.1875 5.6582 13.5156V14.6875C5.6582 15.0156 5.91598 15.2734 6.24414 15.2734H8.00195H9.75977C10.0879 15.2734 10.3457 15.0156 10.3457 14.6875V13.5156C10.3457 13.1875 10.0879 12.9297 9.75977 12.9297Z" fill="#FF5533"/>
<path d="M10.3457 13.5156V14.6875C10.3457 15.0156 10.0879 15.2734 9.75977 15.2734H8.00195V12.9297H9.75977C10.0879 12.9297 10.3457 13.1875 10.3457 13.5156Z" fill="#E62E2E"/>
<path d="M12.6895 15.2734C12.3659 15.2734 12.1035 15.5357 12.1035 15.8594V20H13.2754V15.8594C13.2754 15.5357 13.013 15.2734 12.6895 15.2734Z" fill="#FF9F40"/>
<path d="M9.75977 18.8281C9.75977 19.4727 9.23242 20 8.58789 20H7.41602V17.6562H8.58789C9.23242 17.6562 9.75977 18.1836 9.75977 18.8281Z" fill="#FFE6CC"/>
<path d="M9.75977 18.8281C9.75977 19.4727 9.23242 20 8.58789 20H8.00195V17.6562H8.58789C9.23242 17.6562 9.75977 18.1836 9.75977 18.8281Z" fill="#FFCCB3"/>
</svg>
