<svg width="18" height="20" viewBox="0 0 18 20" fill="none" xmlns="http://www.w3.org/2000/svg">
<path fill-rule="evenodd" clip-rule="evenodd" d="M8.51005 8.36462L10.8709 9.0194L15.6543 10.3461L16.9474 5.70442C17.6116 3.32029 16.1997 0.82669 13.8102 0.163904C11.4197 -0.498841 8.92164 0.908784 8.25624 3.29405L7.49023 6.04664C7.49023 7.72811 7.93612 8.20607 8.51005 8.36462Z" fill="#EB5468"/>
<path fill-rule="evenodd" clip-rule="evenodd" d="M14.9159 5.14049L13.6229 9.78209L15.6534 10.3456L16.9464 5.70396C17.6107 3.31982 16.1987 0.826225 13.8093 0.163439C13.4595 0.066496 13.1085 0.0140204 12.7598 0.00146484C14.5364 0.989366 15.483 3.10429 14.9159 5.14049Z" fill="#E5384F"/>
<path fill-rule="evenodd" clip-rule="evenodd" d="M15.6545 10.3457L13.6241 9.78223L12.331 14.4239C11.9846 15.6684 11.1386 16.6472 10.0685 17.2038C9.96791 17.4491 9.84899 17.6795 9.71181 17.8962C9.63523 18.0183 9.55289 18.1358 9.46484 18.2487C11.6405 18.5145 13.7578 17.1536 14.3615 14.9874L15.6545 10.3457Z" fill="#DDDAEC"/>
<path fill-rule="evenodd" clip-rule="evenodd" d="M4.70295 4.83984C2.59475 4.83984 0.886719 6.54522 0.886719 8.64875C0.886719 10.1328 1.73619 11.4173 2.97777 12.047C4.39884 12.6789 6.14462 12.663 7.47196 11.2702C8.12135 10.588 8.52035 9.66402 8.52035 8.64875C8.52035 8.55293 8.51693 8.45824 8.51005 8.36472C8.44373 7.47038 8.06875 6.66277 7.49023 6.04678C6.794 5.30412 5.80276 4.83984 4.70295 4.83984Z" fill="#FFD772"/>
<path fill-rule="evenodd" clip-rule="evenodd" d="M5.89031 15.493L10.3228 16.3702C10.7412 14.2781 9.61966 12.1222 7.56176 11.3042C7.53203 11.2928 7.50233 11.2814 7.47259 11.27C7.02558 11.1035 6.5671 11.0111 6.11325 10.9894C4.96655 10.9324 3.84501 11.318 2.97839 12.0469C2.6274 12.34 2.31987 12.6903 2.06836 13.0906L5.89031 15.493Z" fill="#B1E4F9"/>
<path fill-rule="evenodd" clip-rule="evenodd" d="M9.71036 17.8966L5.88383 15.9882L1.45712 14.6182C1.04097 16.708 2.16252 18.8628 4.21813 19.6796C4.76461 19.8963 5.32937 20.0001 5.88387 20.0001H5.89187C7.27866 19.999 8.60713 19.3556 9.46344 18.2491C9.55149 18.1362 9.63378 18.0187 9.71036 17.8966Z" fill="#B1E4F9"/>
<path fill-rule="evenodd" clip-rule="evenodd" d="M5.64373 4.95752C6.51835 5.89065 7.64102 9.29344 5.45508 11.0057C5.6723 10.984 5.89182 10.9783 6.11247 10.9897C6.56636 11.0114 7.0248 11.1038 7.47181 11.2703C8.12119 10.5881 8.52019 9.66414 8.52019 8.64888C8.52019 8.55306 8.51677 8.45837 8.50989 8.36485C8.44357 7.47051 8.0686 6.6629 7.49008 6.04691C6.99852 5.52332 6.36173 5.13889 5.64373 4.95752Z" fill="#FBBA58"/>
<path fill-rule="evenodd" clip-rule="evenodd" d="M9.70982 17.8964L7.57765 17.0488C7.53419 17.1937 7.48734 17.334 7.43475 17.4732C7.04718 18.509 6.41953 19.385 5.63867 19.993C5.71984 19.9976 5.80217 19.9999 5.88334 19.9999H5.89135C7.27813 19.9988 8.60659 19.3554 9.4629 18.2489C9.55095 18.136 9.63324 18.0185 9.70982 17.8964Z" fill="#75CEF8"/>
<path fill-rule="evenodd" clip-rule="evenodd" d="M7.86049 15.393L10.3208 16.3706C10.7392 14.2785 9.61769 12.1226 7.5598 11.3047C7.53006 11.2933 7.50036 11.2819 7.47062 11.2705C7.18136 11.1621 6.88756 11.0857 6.59375 11.04C6.74582 11.2408 6.88643 11.4541 7.01448 11.68C7.55408 12.6302 7.86966 13.7846 7.86966 15.0291C7.86966 15.1512 7.86737 15.2721 7.86049 15.393Z" fill="#75CEF8"/>
<path fill-rule="evenodd" clip-rule="evenodd" d="M10.3208 16.3704L5.56135 14.4791L2.06638 13.0908C1.92231 13.319 1.79655 13.5642 1.69253 13.8243C1.5885 14.0867 1.51075 14.3513 1.45703 14.6182L6.53086 16.6339L9.71031 17.8967C9.8555 17.6674 9.98126 17.421 10.0853 17.1598C10.1893 16.8997 10.2671 16.6351 10.3208 16.3704Z" fill="#75CEF8"/>
<path fill-rule="evenodd" clip-rule="evenodd" d="M7.58008 17.0489L9.71225 17.8965C9.85744 17.6672 9.9832 17.4208 10.0872 17.1596C10.1913 16.8995 10.269 16.6348 10.3227 16.3702L7.86242 15.3926C7.83388 15.9709 7.7367 16.5276 7.58008 17.0489Z" fill="#60B7FF"/>
<path d="M5.67701 8.57823H5.669C5.50232 8.57823 5.36719 8.4431 5.36719 8.27642C5.36719 8.10974 5.50232 7.97461 5.669 7.97461H5.67701C5.84369 7.97461 5.97883 8.10974 5.97883 8.27642C5.97883 8.4431 5.84369 8.57823 5.67701 8.57823Z" fill="#FBBA58"/>
<path d="M4.83131 10.2198H4.8233C4.65662 10.2198 4.52148 10.0847 4.52148 9.91802C4.52148 9.75134 4.65662 9.61621 4.8233 9.61621H4.83131C4.99799 9.61621 5.13313 9.75134 5.13313 9.91802C5.13313 10.0847 4.99799 10.2198 4.83131 10.2198Z" fill="#FBBA58"/>
<path d="M3.21138 9.01573H3.20221C3.03552 9.01573 2.90039 8.8806 2.90039 8.71392C2.90039 8.54724 3.03552 8.41211 3.20221 8.41211H3.21138C3.37807 8.41211 3.5132 8.54724 3.5132 8.71392C3.5132 8.8806 3.37807 9.01573 3.21138 9.01573Z" fill="#FBBA58"/>
<path d="M4.31763 7.0548H4.30963C4.14294 7.0548 4.00781 6.91966 4.00781 6.75298C4.00781 6.5863 4.14294 6.45117 4.30963 6.45117H4.31763C4.48432 6.45117 4.61945 6.5863 4.61945 6.75298C4.61945 6.91966 4.48432 7.0548 4.31763 7.0548Z" fill="#FBBA58"/>
</svg>
