<svg width="20" height="20" viewBox="0 0 20 20" fill="none" xmlns="http://www.w3.org/2000/svg">
<path d="M8.32812 18.9657C8.32812 19.5367 8.78905 19.9996 9.35792 19.9996H10.731C11.2997 19.9996 11.7608 19.5367 11.7608 18.9657V16.8979H8.32812V18.9657Z" fill="#EBEBEB"/>
<path d="M6.7111 13.1609C6.41091 12.9668 6.12782 12.7467 5.86534 12.5035C5.64124 13.3686 4.79431 13.9172 3.91687 13.7657C3.03927 13.6143 2.42347 12.8135 2.49973 11.9228C2.576 11.0321 3.31901 10.3486 4.20952 10.3499C4.26198 10.3499 4.31243 10.3608 4.36255 10.3654C4.03722 9.59754 3.86944 8.77181 3.86961 7.9375H3.43265L3.19548 9.07016C3.17185 9.18308 3.09357 9.27664 2.98697 9.31938C2.88021 9.36229 2.75936 9.34866 2.66483 9.2832L1.71632 8.62676L0.68653 9.66064L1.3387 10.6127C1.4039 10.7078 1.41748 10.8291 1.37474 10.9362C1.33216 11.0434 1.23897 11.1219 1.12667 11.1455L0 11.3838V12.7623L1.12801 13.0004C1.24031 13.0241 1.3335 13.1027 1.37624 13.2097C1.41882 13.3168 1.40524 13.4383 1.34004 13.5332L0.68653 14.4854L1.71632 15.5193L2.66483 14.8644C2.75936 14.7989 2.88037 14.7851 2.98714 14.8281C3.09391 14.8708 3.17218 14.9645 3.19582 15.0774L3.43265 16.2086H4.80571L5.04254 15.0758C5.06617 14.9627 5.14445 14.8691 5.25122 14.8264C5.35798 14.7835 5.479 14.7971 5.57353 14.8627L6.52203 15.5193L7.5996 14.4375C7.48663 13.9093 7.16633 13.449 6.7111 13.1609Z" fill="#C9DFFF"/>
<path d="M16.2235 7.93773C16.2232 4.96346 14.1202 2.40785 11.211 1.84649C8.30175 1.28512 5.40495 2.87566 4.30644 5.63791C3.20792 8.40015 4.2166 11.5565 6.7108 13.1612C7.28235 13.5169 7.63349 14.141 7.64187 14.8162V16.2088C7.64187 16.7798 8.1028 17.2427 8.67167 17.2427H11.4178C11.9865 17.2427 12.4476 16.7798 12.4476 16.2088V14.8448C12.4563 14.1537 12.8145 13.5146 13.3984 13.1484C15.1607 12.0061 16.2247 10.0437 16.2235 7.93773Z" fill="#FFB41F"/>
<path d="M18.3494 4.29144L19.4286 3.47883L18.1928 1.82452L17.1136 2.63712C16.8915 2.80422 16.591 2.82054 16.3521 2.67851C16.1133 2.53649 15.9832 2.26405 16.0223 1.98825L16.2129 0.647932L14.1739 0.355469L13.9833 1.69562C13.9443 1.97176 13.7433 2.19691 13.4743 2.26607C13.2053 2.3354 12.9212 2.23511 12.7546 2.01197L11.9453 0.928448L10.2977 2.16914L11.1068 3.25267C11.2732 3.47581 11.2895 3.77736 11.148 4.01715C11.0065 4.25694 10.7352 4.38752 10.4605 4.34832L9.12546 4.15699L8.83398 6.20406L10.1693 6.39539C10.4442 6.43477 10.6685 6.63653 10.7374 6.90661C10.8063 7.17669 10.7064 7.46192 10.4841 7.62919L9.4052 8.44179L10.641 10.0959L11.7199 9.28367C11.942 9.11641 12.2427 9.09992 12.4817 9.24194C12.7205 9.38397 12.8508 9.65657 12.8115 9.93254L12.6193 11.2725L14.6583 11.5652L14.8505 10.2245C14.8897 9.94853 15.0907 9.72355 15.3597 9.65438C15.6287 9.58506 15.9128 9.68552 16.0793 9.90848L16.8888 10.9917L18.5364 9.75097L17.7267 8.66778C17.5601 8.44482 17.5437 8.14293 17.6851 7.90297C17.8266 7.66318 18.0981 7.53243 18.373 7.57197L19.708 7.76347L19.9995 5.7164L18.6645 5.5249C18.3898 5.48535 18.1657 5.28376 18.0966 5.01368C18.0277 4.74376 18.1275 4.4587 18.3494 4.29144ZM14.4169 8.37246C13.0898 8.37246 12.0141 7.29247 12.0141 5.96006C12.0141 4.62782 13.0898 3.54766 14.4169 3.54766C15.7441 3.54766 16.8198 4.62782 16.8198 5.96006C16.8198 7.29247 15.7441 8.37246 14.4169 8.37246Z" fill="#1CC8EB"/>
<path d="M8.32812 17.9316H11.7608V18.6209H8.32812V17.9316Z" fill="#9E9E9E"/>
<path d="M9.70312 15.1753H10.3896V16.2092H9.70312V15.1753Z" fill="#FFAA00"/>
<path d="M10.388 14.4855H9.70151C9.70117 13.5742 9.14152 12.7574 8.29408 12.4313C6.60474 11.7681 5.43113 10.2065 5.25983 8.39354C5.08853 6.58054 5.94854 4.82526 7.48352 3.85498L7.84773 4.43806C6.53166 5.26951 5.794 6.77423 5.94083 8.32859C6.08749 9.88278 7.09349 11.2216 8.54181 11.79C9.65441 12.2173 10.3889 13.2895 10.388 14.4855Z" fill="#FFAA00"/>
<path d="M16.9116 12.7622H18.6279C18.8175 12.7622 18.9712 12.9163 18.9712 13.1068C18.9712 13.2972 18.8175 13.4515 18.6279 13.4515H16.9116C16.7221 13.4515 16.5684 13.2972 16.5684 13.1068C16.5684 12.9163 16.7221 12.7622 16.9116 12.7622Z" fill="#FFAA00"/>
<path d="M16.2241 14.8306C16.3455 14.6844 16.5618 14.6645 16.7075 14.7864L18.2398 16.0681C18.3854 16.19 18.4052 16.4072 18.2839 16.5534C18.1623 16.6997 17.946 16.7195 17.8003 16.5977L16.268 15.3159C16.1224 15.1941 16.1028 14.9769 16.2241 14.8306Z" fill="#FFAA00"/>
<path d="M14.8511 15.5195C15.0406 15.5195 15.1943 15.6737 15.1943 15.8642V17.5873C15.1943 17.7776 15.0406 17.9319 14.8511 17.9319C14.6615 17.9319 14.5078 17.7776 14.5078 17.5873V15.8642C14.5078 15.6737 14.6615 15.5195 14.8511 15.5195Z" fill="#FFAA00"/>
<path d="M0.340295 5.79617L2.42033 5.27451C2.60437 5.2284 2.79058 5.34064 2.83651 5.52524C2.88243 5.70984 2.77064 5.8968 2.5866 5.9429L0.506564 6.46456C0.322528 6.51067 0.136313 6.39843 0.0903882 6.21383C0.0444631 6.02923 0.156259 5.84228 0.340295 5.79617Z" fill="#FFAA00"/>
<path d="M0.776805 2.07922C0.886924 1.92441 1.1013 1.88874 1.2555 1.99929L3.09954 3.32177C3.25391 3.43233 3.28961 3.64755 3.17949 3.80237C3.06937 3.95718 2.855 3.99302 2.7008 3.8823L0.856755 2.55982C0.702386 2.44926 0.666685 2.23404 0.776805 2.07922Z" fill="#FFAA00"/>
<path d="M3.85013 0.0108137C4.03383 -0.0363035 4.22071 0.0749267 4.26764 0.259357L4.79964 2.3485C4.84657 2.53293 4.73578 2.72073 4.55208 2.76784C4.36838 2.81496 4.18149 2.70356 4.13456 2.5193L3.60257 0.430157C3.55564 0.245726 3.66643 0.0579309 3.85013 0.0108137Z" fill="#FFAA00"/>
</svg>
