<svg width="20" height="20" viewBox="0 0 20 20" fill="none" xmlns="http://www.w3.org/2000/svg">
<path d="M14.802 6.0548L10 4.54145L6.36992 3.39746L3.93031 4.33258C3.69145 5.00629 3.55469 5.72836 3.55469 6.48395C3.55469 10.0436 6.44039 12.9293 10 12.9293C13.2508 12.9293 15.9321 10.5201 16.3741 7.39117L14.802 6.0548Z" fill="#66CCFF"/>
<path d="M16.3741 7.39123L14.802 6.05486L10 4.5415V12.9293C13.2508 12.9293 15.9321 10.5201 16.3741 7.39123Z" fill="#59ABFF"/>
<path d="M9.99934 0C7.19531 0 4.81617 1.83285 3.92969 4.33305L6.3693 5.74168L6.95523 4.7266L8.55512 4.29746L9.5702 4.8834L8.98426 5.89848L9.4134 7.49945L9.99934 7.83727L10.4296 8.08539L9.99934 9.09992L12.4575 9.25727L13.6294 7.22707L16.3735 7.39156C16.4155 7.09441 16.4446 6.79316 16.4446 6.48438C16.4446 2.92469 13.5589 0 9.99934 0Z" fill="#9BF243"/>
<path d="M10 0V7.83727L10.4303 8.08539L10 9.09992L12.4582 9.25727L13.6301 7.22707L16.3741 7.39156C16.4161 7.09441 16.4453 6.79316 16.4453 6.48438C16.4453 2.92469 13.5596 0 10 0Z" fill="#7DD96B"/>
<path d="M10 12.9297C9.0273 12.9297 8.24219 13.7148 8.24219 14.6875C8.24219 15.6601 9.0273 16.4453 10 16.4453C10.9727 16.4453 11.7578 15.6601 11.7578 14.6875C11.7578 13.7148 10.9727 12.9297 10 12.9297Z" fill="#FFD9B3"/>
<path d="M10 16.4453C8.38281 16.4453 7.07031 17.7969 7.07031 19.4141V20H12.9297V19.4141C12.9297 17.7969 11.6172 16.4453 10 16.4453Z" fill="#FFBE40"/>
<path d="M10 16.4453V12.9297C10.9727 12.9297 11.7578 13.7148 11.7578 14.6875C11.7578 15.6601 10.9727 16.4453 10 16.4453Z" fill="#FFBB99"/>
<path d="M12.9297 19.4141V20H10V16.4453C11.6172 16.4453 12.9297 17.7969 12.9297 19.4141Z" fill="#FF9F40"/>
<path d="M2.96875 10.5859C1.99605 10.5859 1.21094 11.3711 1.21094 12.3438C1.21094 13.3164 1.99605 14.1016 2.96875 14.1016C3.94145 14.1016 4.72656 13.3164 4.72656 12.3438C4.72656 11.3711 3.94145 10.5859 2.96875 10.5859Z" fill="#FFD9B3"/>
<path d="M2.96875 14.1016C1.35156 14.1016 0 15.4141 0 17.0312V20H5.89844V17.0312C5.89844 15.4141 4.58594 14.1016 2.96875 14.1016Z" fill="#665252"/>
<path d="M2.96875 14.1016V10.5859C3.94145 10.5859 4.72656 11.3711 4.72656 12.3438C4.72656 13.3164 3.94145 14.1016 2.96875 14.1016Z" fill="#FFBB99"/>
<path d="M5.89844 17.0312V20H2.96875V14.1016C4.58594 14.1016 5.89844 15.4141 5.89844 17.0312Z" fill="#4D3636"/>
<path d="M17.0312 10.5859C16.0586 10.5859 15.2734 11.3711 15.2734 12.3438C15.2734 13.3164 16.0586 14.1016 17.0312 14.1016C18.0039 14.1016 18.7891 13.3164 18.7891 12.3438C18.7891 11.3711 18.0039 10.5859 17.0312 10.5859Z" fill="#FFD9B3"/>
<path d="M17.0312 14.1016C15.4141 14.1016 14.1016 15.4141 14.1016 17.0312V20H20V17.0312C20 15.4141 18.6484 14.1016 17.0312 14.1016Z" fill="#FF5959"/>
<path d="M17.0312 14.1016V10.5859C18.0039 10.5859 18.7891 11.3711 18.7891 12.3438C18.7891 13.3164 18.0039 14.1016 17.0312 14.1016Z" fill="#FFBB99"/>
<path d="M20 17.0312V20H17.0312V14.1016C18.6484 14.1016 20 15.4141 20 17.0312Z" fill="#E63A57"/>
</svg>
