<svg width="20" height="20" viewBox="0 0 20 20" fill="none" xmlns="http://www.w3.org/2000/svg">
<path d="M6.8967 14.035C10.7056 14.035 13.7934 10.893 13.7934 7.01723C13.7934 3.14145 10.7056 -0.000488281 6.8967 -0.000488281C3.08776 -0.000488281 0 3.14145 0 7.01723C0 10.893 3.08776 14.035 6.8967 14.035Z" fill="#F15A24"/>
<path d="M6.97106 13.0127C6.98645 13.1939 7.13538 13.3332 7.31418 13.3334C7.32418 13.3339 7.33418 13.3339 7.34418 13.3334C7.53384 13.3167 7.67431 13.1467 7.65798 12.9538C7.52543 11.3424 6.87404 9.82069 5.80483 8.62452L6.89658 7.51362L8.03212 8.66909C8.16911 8.80369 8.38743 8.79983 8.51972 8.66045C8.64877 8.52448 8.64877 8.3089 8.51972 8.17293L7.38418 7.01746L8.47972 5.9027C8.89205 6.2842 9.34594 6.6164 9.83251 6.8929C9.99906 6.98707 10.2091 6.92606 10.3017 6.75658C10.3942 6.5871 10.3342 6.37337 10.1677 6.2792C9.73681 6.03472 9.33439 5.7416 8.968 5.40549L12.0053 2.31559C11.8508 2.14177 11.6883 1.97642 11.5177 1.81944L8.47972 4.91215C7.50293 3.80988 6.91684 2.40665 6.81485 0.926081L6.75278 0.0453573C6.75033 0.0325938 6.74701 0.0200497 6.74278 0.0078125C6.51588 0.0127249 6.2914 0.027813 6.07001 0.0548312C6.0676 0.0681649 6.06587 0.0816302 6.06484 0.0951831L6.12691 0.975907C6.24075 2.62441 6.89766 4.18564 7.99143 5.40725L6.89658 6.52131L2.27579 1.81874C2.10475 1.97593 1.94212 2.14155 1.78785 2.31559L6.40898 7.01746L5.31689 8.12872C4.11523 7.01619 2.57994 6.34859 0.959212 6.23394L0.0936764 6.17113C0.0803572 6.172 0.0671241 6.17376 0.0540204 6.17639C0.0274681 6.40131 0.0126402 6.62938 0.0078125 6.86027C0.0199248 6.86448 0.0322096 6.86799 0.0447098 6.87079L0.910246 6.9336C2.36493 7.03711 3.74384 7.6327 4.82757 8.62558L1.78785 11.7193C1.94234 11.8929 2.10488 12.0583 2.27545 12.2155L5.31689 9.12278C6.27058 10.2011 6.85154 11.5671 6.97106 13.0127Z" fill="black"/>
<path d="M7.7404 12.9824C6.97896 9.58139 9.07125 6.19617 12.4137 5.42137C15.7561 4.64657 19.0829 6.77557 19.8444 10.1767C20.6058 13.5777 18.5135 16.9629 15.1711 17.7377C14.9442 17.7903 14.7146 17.8299 14.4833 17.8562" fill="#E6E6E6"/>
<path d="M19.9565 10.858C19.8459 9.86047 19.5019 8.90453 18.9534 8.07017C18.7888 7.82358 18.6073 7.5891 18.4103 7.36839H17.931C17.777 7.36853 17.6418 7.47248 17.5996 7.62314L16.951 9.93232L15.8965 10.4801L14.1378 9.28704V7.90209L16.0599 6.53363C16.1792 6.44863 16.2331 6.29657 16.1947 6.15363L16.0758 5.71081C14.6194 5.12711 13.0004 5.12299 11.5412 5.69923L11.3971 6.13398C11.3481 6.28157 11.4006 6.44429 11.526 6.53363L13.4481 7.90209V9.28598L11.6836 10.4829L10.265 9.9053L9.63046 8.29122C9.59891 8.2114 9.53982 8.146 9.46425 8.10736L8.837 7.78946C8.10168 8.78045 7.67253 9.97153 7.60421 11.2113C7.59732 11.3341 7.58594 11.4569 7.58594 11.5804C7.58594 11.7145 7.59111 11.8475 7.59904 11.9794L8.12147 12.2454C8.25423 12.3128 8.41453 12.2862 8.51941 12.1794L10.0829 10.5888L11.4391 11.1408L12.0822 13.431C12.125 13.5811 12.26 13.6844 12.4136 13.6843H15.0295L15.7882 14.4563L14.8647 16.3356C14.8043 16.4587 14.8201 16.6063 14.9051 16.7132L15.6206 17.6143C17.1242 17.1476 18.3952 16.1127 19.1724 14.7223L18.931 14.2293C18.8723 14.1097 18.752 14.0345 18.6207 14.0352H16.3496L15.5596 13.2313L16.1458 11.1383L17.2168 10.5815L19.1176 11.871C19.2203 11.9406 19.3518 11.949 19.4624 11.8931L19.9959 11.6215C19.9959 11.6071 19.9979 11.5934 19.9979 11.579C19.9976 11.3381 19.9838 11.0973 19.9565 10.858Z" fill="#1A1A1A"/>
<path d="M1.35598 17.3491L2.46532 18.1954C3.99962 19.3667 5.86599 19.9997 7.78405 19.9997H8.77097C10.689 19.9997 12.5554 19.3667 14.0897 18.1954L15.199 17.3491C15.5038 17.1166 15.5656 16.6767 15.3371 16.3666C15.3115 16.3319 15.2828 16.2997 15.2515 16.2704L14.268 15.3529C12.6329 13.8279 10.4955 12.982 8.27751 12.9819C6.05953 12.982 3.92212 13.8279 2.28704 15.3529L1.30357 16.2704C1.02287 16.5324 1.00404 16.9763 1.2615 17.262C1.29029 17.2939 1.32189 17.3231 1.35598 17.3491Z" fill="#FF902A"/>
<path d="M11.3802 16.8424H4.48351C4.29307 16.8424 4.13867 16.6853 4.13867 16.4915C4.13867 16.2977 4.29307 16.1406 4.48351 16.1406H11.3802C11.5706 16.1406 11.725 16.2977 11.725 16.4915C11.725 16.6853 11.5706 16.8424 11.3802 16.8424Z" fill="#42210B"/>
<path d="M5.17296 17.5438C4.98252 17.5438 4.82812 17.3867 4.82812 17.1929V15.7894C4.82812 15.5956 4.98252 15.4385 5.17296 15.4385C5.36339 15.4385 5.51779 15.5956 5.51779 15.7894V17.1929C5.51779 17.3867 5.36339 17.5438 5.17296 17.5438Z" fill="#42210B"/>
<path d="M6.55187 17.5438C6.36143 17.5438 6.20703 17.3867 6.20703 17.1929V15.7894C6.20703 15.5956 6.36143 15.4385 6.55187 15.4385C6.7423 15.4385 6.8967 15.5956 6.8967 15.7894V17.1929C6.8967 17.3867 6.7423 17.5438 6.55187 17.5438Z" fill="#42210B"/>
<path d="M7.93273 17.5438C7.74229 17.5438 7.58789 17.3867 7.58789 17.1929V15.7894C7.58789 15.5956 7.74229 15.4385 7.93273 15.4385C8.12316 15.4385 8.27756 15.5956 8.27756 15.7894V17.1929C8.27756 17.3867 8.12316 17.5438 7.93273 17.5438Z" fill="#42210B"/>
<path d="M9.31163 17.5438C9.1212 17.5438 8.9668 17.3867 8.9668 17.1929V15.7894C8.9668 15.5956 9.1212 15.4385 9.31163 15.4385C9.50207 15.4385 9.65647 15.5956 9.65647 15.7894V17.1929C9.65647 17.3867 9.50207 17.5438 9.31163 17.5438Z" fill="#42210B"/>
<path d="M10.6905 17.5438C10.5001 17.5438 10.3457 17.3867 10.3457 17.1929V15.7894C10.3457 15.5956 10.5001 15.4385 10.6905 15.4385C10.881 15.4385 11.0354 15.5956 11.0354 15.7894V17.1929C11.0354 17.3867 10.881 17.5438 10.6905 17.5438Z" fill="#42210B"/>
</svg>
