<svg width="47" height="252" viewBox="0 0 47 252" fill="none" xmlns="http://www.w3.org/2000/svg">
<g opacity="0.3">
<path d="M16.8581 4.1126C17.8918 4.1126 18.7298 3.2746 18.7298 2.24087C18.7298 1.20714 17.8918 0.369141 16.8581 0.369141C15.8243 0.369141 14.9863 1.20714 14.9863 2.24087C14.9863 3.2746 15.8243 4.1126 16.8581 4.1126Z" fill="white"/>
<path d="M44.3092 4.1126C45.343 4.1126 46.181 3.2746 46.181 2.24087C46.181 1.20714 45.343 0.369141 44.3092 0.369141C43.2755 0.369141 42.4375 1.20714 42.4375 2.24087C42.4375 3.2746 43.2755 4.1126 44.3092 4.1126Z" fill="white"/>
<path d="M16.8581 31.5637C17.8918 31.5637 18.7298 30.7257 18.7298 29.692C18.7298 28.6583 17.8918 27.8203 16.8581 27.8203C15.8243 27.8203 14.9863 28.6583 14.9863 29.692C14.9863 30.7257 15.8243 31.5637 16.8581 31.5637Z" fill="white"/>
<path d="M44.3092 31.5637C45.343 31.5637 46.181 30.7257 46.181 29.692C46.181 28.6583 45.343 27.8203 44.3092 27.8203C43.2755 27.8203 42.4375 28.6583 42.4375 29.692C42.4375 30.7257 43.2755 31.5637 44.3092 31.5637Z" fill="white"/>
<path d="M16.8581 59.017C17.8918 59.017 18.7298 58.179 18.7298 57.1452C18.7298 56.1115 17.8918 55.2735 16.8581 55.2735C15.8243 55.2735 14.9863 56.1115 14.9863 57.1452C14.9863 58.179 15.8243 59.017 16.8581 59.017Z" fill="white"/>
<path d="M44.3092 59.0169C45.343 59.0169 46.181 58.1789 46.181 57.1452C46.181 56.1114 45.343 55.2734 44.3092 55.2734C43.2755 55.2734 42.4375 56.1114 42.4375 57.1452C42.4375 58.1789 43.2755 59.0169 44.3092 59.0169Z" fill="white"/>
<path d="M16.8581 86.468C17.8918 86.468 18.7298 85.63 18.7298 84.5963C18.7298 83.5625 17.8918 82.7245 16.8581 82.7245C15.8243 82.7245 14.9863 83.5625 14.9863 84.5963C14.9863 85.63 15.8243 86.468 16.8581 86.468Z" fill="white"/>
<path d="M44.3092 86.468C45.343 86.468 46.181 85.63 46.181 84.5963C46.181 83.5625 45.343 82.7245 44.3092 82.7245C43.2755 82.7245 42.4375 83.5625 42.4375 84.5963C42.4375 85.63 43.2755 86.468 44.3092 86.468Z" fill="white"/>
<path d="M16.8581 113.921C17.8918 113.921 18.7298 113.083 18.7298 112.049C18.7298 111.015 17.8918 110.177 16.8581 110.177C15.8243 110.177 14.9863 111.015 14.9863 112.049C14.9863 113.083 15.8243 113.921 16.8581 113.921Z" fill="white"/>
<path d="M44.3092 113.921C45.343 113.921 46.181 113.083 46.181 112.049C46.181 111.015 45.343 110.177 44.3092 110.177C43.2755 110.177 42.4375 111.015 42.4375 112.049C42.4375 113.083 43.2755 113.921 44.3092 113.921Z" fill="white"/>
<path d="M16.8581 141.373C17.8918 141.373 18.7298 140.535 18.7298 139.501C18.7298 138.467 17.8918 137.629 16.8581 137.629C15.8243 137.629 14.9863 138.467 14.9863 139.501C14.9863 140.535 15.8243 141.373 16.8581 141.373Z" fill="white"/>
<path d="M44.3092 141.373C45.343 141.373 46.181 140.535 46.181 139.501C46.181 138.467 45.343 137.629 44.3092 137.629C43.2755 137.629 42.4375 138.467 42.4375 139.501C42.4375 140.535 43.2755 141.373 44.3092 141.373Z" fill="white"/>
<path d="M16.8581 168.824C17.8918 168.824 18.7298 167.986 18.7298 166.952C18.7298 165.918 17.8918 165.08 16.8581 165.08C15.8243 165.08 14.9863 165.918 14.9863 166.952C14.9863 167.986 15.8243 168.824 16.8581 168.824Z" fill="white"/>
<path d="M44.3092 168.824C45.343 168.824 46.181 167.986 46.181 166.952C46.181 165.918 45.343 165.08 44.3092 165.08C43.2755 165.08 42.4375 165.918 42.4375 166.952C42.4375 167.986 43.2755 168.824 44.3092 168.824Z" fill="white"/>
<path d="M16.8581 196.277C17.8918 196.277 18.7298 195.439 18.7298 194.405C18.7298 193.371 17.8918 192.533 16.8581 192.533C15.8243 192.533 14.9863 193.371 14.9863 194.405C14.9863 195.439 15.8243 196.277 16.8581 196.277Z" fill="white"/>
<path d="M44.3092 196.277C45.343 196.277 46.181 195.439 46.181 194.405C46.181 193.371 45.343 192.533 44.3092 192.533C43.2755 192.533 42.4375 193.371 42.4375 194.405C42.4375 195.439 43.2755 196.277 44.3092 196.277Z" fill="white"/>
<path d="M16.8581 223.728C17.8918 223.728 18.7298 222.89 18.7298 221.856C18.7298 220.822 17.8918 219.984 16.8581 219.984C15.8243 219.984 14.9863 220.822 14.9863 221.856C14.9863 222.89 15.8243 223.728 16.8581 223.728Z" fill="white"/>
<path d="M44.3092 223.728C45.343 223.728 46.181 222.89 46.181 221.856C46.181 220.822 45.343 219.984 44.3092 219.984C43.2755 219.984 42.4375 220.822 42.4375 221.856C42.4375 222.89 43.2755 223.728 44.3092 223.728Z" fill="white"/>
<path d="M16.8581 251.181C17.8918 251.181 18.7298 250.343 18.7298 249.309C18.7298 248.275 17.8918 247.437 16.8581 247.437C15.8243 247.437 14.9863 248.275 14.9863 249.309C14.9863 250.343 15.8243 251.181 16.8581 251.181Z" fill="white"/>
<path d="M44.3092 251.181C45.343 251.181 46.181 250.343 46.181 249.309C46.181 248.275 45.343 247.437 44.3092 247.437C43.2755 247.437 42.4375 248.275 42.4375 249.309C42.4375 250.343 43.2755 251.181 44.3092 251.181Z" fill="white"/>
</g>
</svg>
