<svg width="1582" height="655" viewBox="0 0 1582 655" fill="none" xmlns="http://www.w3.org/2000/svg">
<g opacity="0.15">
<path d="M1553.44 129.77C1553.44 129.77 1295.48 33.8624 1077.21 282.444C858.944 531.024 792.802 729.087 0.200195 625.228" stroke="white" stroke-width="1.2" stroke-miterlimit="10"/>
<path d="M1560.33 104.505C1560.33 104.505 1295.77 3.20038 1077.49 251.781C859.225 500.361 783.161 674.878 0.200195 550.589" stroke="white" stroke-width="1.2" stroke-miterlimit="10"/>
<path d="M1567.21 79.2559C1567.21 79.2559 1296.03 -27.4464 1077.76 221.134C859.489 469.714 773.505 620.685 0.200195 475.964" stroke="white" stroke-width="1.2" stroke-miterlimit="10"/>
<path d="M1574.11 54.0066C1574.11 54.0066 1296.32 -58.076 1078.04 190.504C859.771 439.085 763.864 566.491 0.200195 401.338" stroke="white" stroke-width="1.2" stroke-miterlimit="10"/>
<path d="M1581 28.7387C1581 28.7387 1296.59 -88.7413 1078.32 159.839C860.052 408.42 754.224 512.279 0.200195 326.695" stroke="white" stroke-width="1.2" stroke-miterlimit="10"/>
</g>
</svg>
