<svg width="24" height="18" viewBox="0 0 24 18" fill="none" xmlns="http://www.w3.org/2000/svg">
<path d="M3.26394 9.2998C5.09394 10.0986 6.95019 10.9198 8.75956 11.7786C9.88456 12.3129 10.9327 12.5736 11.9639 12.5736C12.7158 12.5736 13.4658 12.4311 14.1952 12.1479C14.7689 11.9267 15.3221 11.6586 15.8583 11.3998C16.2089 11.2311 16.5389 11.0698 16.8783 10.9217C17.2552 10.7548 17.6321 10.5861 18.0089 10.4192C18.6614 10.1248 19.3121 9.82856 19.9646 9.53043C20.1202 9.45918 20.2758 9.3898 20.4333 9.31855V12.2492C20.4333 12.9036 20.4483 13.5598 20.4333 14.2142C20.3827 16.3854 17.8233 16.7511 15.6483 16.9723C12.3671 17.3061 8.34894 17.4917 5.21394 16.5261C4.37019 16.2654 3.85831 15.8042 3.55456 15.2361C2.85144 13.9217 3.26581 12.0336 3.26581 10.7473C3.26394 10.2654 3.26394 9.78355 3.26394 9.2998Z" fill="#86D72F"/>
<path d="M0.110673 5.82738C0.153798 5.72426 0.211923 5.62488 0.264423 5.54613C0.476298 5.23488 0.793173 4.98926 1.1138 4.79801C1.25817 4.71176 1.4063 4.61801 1.55817 4.55051C2.43567 4.15863 3.3263 3.71801 4.20192 3.29426C6.23817 2.31551 8.2613 1.30301 10.3969 0.562383C10.83 0.412383 11.2538 0.348633 11.6719 0.348633C12.7707 0.348633 13.8282 0.791133 14.8782 1.26738C16.6257 2.06051 18.375 2.85176 20.1207 3.64301C21.03 4.05551 21.9882 4.41176 22.8713 4.88801C23.3494 5.14676 24.0732 5.57988 23.9532 6.29051C23.8725 6.77988 23.3475 6.98613 22.9463 7.16613C22.3407 7.43613 21.7332 7.70238 21.1294 7.97426C20.8969 8.07926 20.6644 8.18426 20.4319 8.29113C19.4963 8.71676 18.5625 9.14426 17.625 9.56426C17.25 9.73301 16.875 9.89988 16.5 10.0649C15.6188 10.453 14.7544 10.9293 13.8582 11.278C13.2169 11.5255 12.5869 11.638 11.9644 11.638C11.0213 11.638 10.0932 11.3774 9.1613 10.933C7.2113 10.0068 5.24255 9.13863 3.26442 8.27988C2.7563 8.05676 2.2463 7.83738 1.73817 7.61801C1.0538 7.32176 -0.298077 6.82676 0.110673 5.82738Z" fill="#86D72F"/>
</svg>
