<svg width="1020" height="227" viewBox="0 0 1020 227" fill="none" xmlns="http://www.w3.org/2000/svg">
<g opacity="0.6">
<path fill-rule="evenodd" clip-rule="evenodd" d="M642.155 -594.755C728.818 -577.277 822.126 -571.411 879.499 -508.615C947.077 -434.65 993.397 -335.155 970.189 -235.714C946.231 -133.058 854.934 -58.5306 761.024 -0.971699C665.114 57.813 557.972 95.7997 448.1 84.2833C324.609 71.3395 185.677 38.43 132.398 -66.8618C80.4924 -169.439 152.086 -291.069 203.496 -399.113C244.335 -484.943 300.143 -567.517 389.603 -607.417C470.904 -643.677 557.081 -611.913 642.155 -594.755Z" stroke="white" stroke-opacity="0.6"/>
<path fill-rule="evenodd" clip-rule="evenodd" d="M704.688 -635.373C817.51 -610.96 878.591 -501.814 924.092 -401.153C963.717 -313.491 966.932 -215.831 937.075 -121.265C908.119 -29.5517 855.67 63.2266 764.46 104.457C679.275 142.964 593.024 82.8544 501.444 75.656C380.172 66.1238 230.946 140.017 150.441 56.1938C68.0363 -29.6066 105.634 -175.155 151.575 -288.633C192.899 -390.707 286.549 -457.778 382.996 -518.24C483.429 -581.2 591.7 -659.823 704.688 -635.373Z" stroke="white" stroke-opacity="0.6"/>
<path fill-rule="evenodd" clip-rule="evenodd" d="M721.69 -611.462C831.524 -611.828 944.051 -548.589 982.52 -452.284C1018.84 -361.35 931.741 -269.087 896.36 -174.182C865.794 -92.1924 862.866 0.568865 792.557 57.2738C712.593 121.765 602.788 168.342 506.925 139.899C414.185 112.382 398.754 0.83692 345.139 -75.4807C285.03 -161.041 142.03 -225.676 178.866 -327.065C216.142 -429.66 381.127 -398.064 481.434 -450.617C570.333 -497.193 622.575 -611.132 721.69 -611.462Z" stroke="white" stroke-opacity="0.6"/>
<path fill-rule="evenodd" clip-rule="evenodd" d="M672.477 -625.763C776.671 -609.872 853.229 -525.39 893.844 -433.514C930.249 -351.162 889.095 -261.036 873.798 -170.358C855.098 -59.506 893.14 79.4811 796.048 146.223C698.381 213.359 574.618 136.683 461.258 113.222C346.696 89.5134 198.966 107.375 142.14 10.8936C85.4797 -85.3048 160.413 -207.014 211.052 -311.581C251.056 -394.185 316.269 -456.608 394.256 -509.71C480.426 -568.382 571.468 -641.169 672.477 -625.763Z" stroke="white" stroke-opacity="0.6"/>
<path fill-rule="evenodd" clip-rule="evenodd" d="M649.189 -584.77C727.621 -558.194 820.896 -562.114 872.135 -500.364C929.072 -431.748 935.175 -339.354 927.408 -249.479C917.265 -132.105 919.533 2.57192 822.07 78.9997C718.198 160.453 569.923 160.821 445.281 128.591C325.766 97.6874 225.367 18.9669 175.084 -88.2962C129.016 -186.569 160.99 -298.921 194.88 -405.561C227.41 -507.922 257.124 -632.528 361.073 -673.532C461.427 -713.118 550.44 -618.23 649.189 -584.77Z" stroke="white" stroke-opacity="0.6"/>
<path fill-rule="evenodd" clip-rule="evenodd" d="M629.76 -534.119C738.55 -515.074 893.251 -560.148 940.085 -465.71C987.429 -370.247 848.433 -277.32 808.054 -174.605C775.075 -90.7173 808.158 23.048 728.732 71.9188C649.14 120.892 556.947 51.2581 467.009 35.2393C370.919 18.1248 244.768 53.5315 192.25 -23.6335C139.494 -101.147 217.983 -202.136 242.12 -295.187C267.366 -392.52 245.113 -516.694 334.419 -571.739C423.966 -626.934 528.449 -551.854 629.76 -534.119Z" stroke="white" stroke-opacity="0.6"/>
<path fill-rule="evenodd" clip-rule="evenodd" d="M645.106 -568.947C723.703 -547.994 780.988 -495.676 831.525 -435.591C894.056 -361.246 971.519 -287.812 963.966 -189.847C955.273 -77.1123 898.301 47.6325 790.347 98.4554C686.102 147.533 577.851 73.3738 470.525 42.4581C375.765 15.162 269.861 6.48217 211.065 -68.4095C146.793 -150.275 114.686 -262.456 152.205 -363.001C188.088 -459.162 293.7 -511.808 391.822 -552.806C473.754 -587.039 561.811 -591.151 645.106 -568.947Z" stroke="white" stroke-opacity="0.6"/>
<path fill-rule="evenodd" clip-rule="evenodd" d="M640.692 -583.617C732.715 -562.384 788.722 -483.863 836.731 -407.067C885.3 -329.372 925.839 -245.036 909.953 -152.896C892.36 -50.8624 847.283 63.357 747.984 107.654C652.536 150.233 554.237 83.8593 460.24 47.7192C387.208 19.6403 320.763 -14.4969 274.202 -74.5046C221.021 -143.045 166.599 -220.789 184.667 -307.444C203.549 -398.007 283.351 -465.477 366.18 -515.639C450.137 -566.484 547.535 -605.111 640.692 -583.617Z" stroke="white" stroke-opacity="0.6"/>
</g>
</svg>
